<?xml version="1.0" encoding="utf-8"?>
<!-- Generator: Adobe Illustrator 24.1.2, SVG Export Plug-In . SVG Version: 6.00 Build 0)  -->
<svg version="1.1" id="Layer_1" xmlns="http://www.w3.org/2000/svg" xmlns:xlink="http://www.w3.org/1999/xlink" x="0px" y="0px"
	 viewBox="0 0 525.5 181.4" style="enable-background:new 0 0 525.5 181.4;" xml:space="preserve">
<style type="text/css">
	.st0{fill:#288CF0;}
	.st1{fill:#2F3B54;}
	.st2{fill:#FF675B;}
</style>
<g>
	<g>
		
			<ellipse transform="matrix(0.7071 -0.7071 0.7071 0.7071 -3.4005 64.8153)" class="st0" cx="76.5" cy="36.5" rx="36.5" ry="36.4"/>
		<path class="st0" d="M154.9,19.3c3.9,15.7,9,28.6,14.6,39.2c-20,37.8-46.2,46.2-47,46.4l0,0v69.2c0,4-3.2,7.2-7.2,7.2H43.7
			c-4,0-7.2-3.2-7.2-7.2v-33c0-0.6-0.3-1.2-0.8-1.6c-2.6-1.9-5.3-0.2-5.3,2.2V174c0,4-3.2,7.2-7.2,7.2h-16c-4,0-7.2-3.2-7.2-7.2
			v-38.4c0-31.3,32.7-51,71.7-51.5c0.3,0,2.9,0,3.3,0c62.3-0.8,77.8-63.2,79.5-71c0.1-0.6,0.3-1.3,0.5-1.9
			C154.3,13.9,154.2,16.5,154.9,19.3z"/>
	</g>
	<g>
		
			<ellipse transform="matrix(0.7071 -0.7071 0.7071 0.7071 105.7392 328.272)" class="st0" cx="449.1" cy="36.5" rx="36.4" ry="36.5"/>
		<path class="st0" d="M525.4,135.8v38.4c0,4-3.2,7.2-7.2,7.2h-15.9c-4,0-7.2-3.2-7.2-7.2V142c0-1.7-1.3-3.2-2.9-3.2
			c-1.8-0.1-3.2,1.3-3.2,3v32.4c0,4-3.2,7.2-7.2,7.2h-71.5c-4,0-7.2-3.2-7.2-7.2v-67c0-1.3-0.8-2.5-2-3c-6.6-2.7-28.1-13.6-45-45.7
			c5.6-10.6,10.7-23.5,14.7-39.2c0.6-2.7,0.5-5.6-0.3-8.3c1,2.9,1.7,6,2.4,9c1.3,4.9,3.2,9.7,5.3,14.3C390.2,60.6,413.4,81,443,84
			c9.3,0.9,18.6,0.3,27.8,1.9c7.6,1.3,15,3.3,22.1,6.4c12.1,5.3,23.4,14,29,26.3C524.2,123.9,525.4,129.8,525.4,135.8z"/>
	</g>
	<g>
		<path class="st1" d="M370.7,19.3c-3.9,15.7-9,28.6-14.7,39.2c-5.6-10.6-10.7-23.5-14.6-39.2c-1.4-5.7,0.9-12,5.5-15.6
			c0.1-0.1,0.3-0.2,0.5-0.3c0.4-0.3,0.8-0.5,1.2-0.8c0.3-0.2,0.6-0.3,0.8-0.4c0.2-0.1,0.4-0.2,0.6-0.3c0.1,0,0.2-0.1,0.3-0.1
			c0.2-0.1,0.3-0.1,0.5-0.2s0.4-0.2,0.7-0.2c0.3-0.1,0.5-0.2,0.8-0.2c0.2,0,0.3-0.1,0.5-0.1c3.3-0.8,6.7-0.5,9.9,1.1
			c0.6,0.3,1.2,0.7,1.8,1.1c0.3,0.2,0.6,0.4,0.9,0.7c0.4,0.3,0.8,0.7,1.2,1c0.5,0.5,0.9,1,1.4,1.5c0,0.1,0.1,0.1,0.1,0.2
			c0.2,0.3,0.4,0.5,0.6,0.8s0.3,0.5,0.5,0.8s0.4,0.7,0.6,1c0.1,0.3,0.3,0.6,0.4,1c0.1,0.3,0.3,0.6,0.4,1
			C371.2,13.6,371.3,16.5,370.7,19.3z"/>
		<path class="st1" d="M184.1,19.3c-3.9,15.7-9,28.6-14.6,39.2c-5.6-10.6-10.7-23.5-14.6-39.2c-0.7-2.8-0.6-5.3,0.2-7.8
			c0.1-0.5,0.3-0.9,0.5-1.4c0.2-0.4,0.4-0.8,0.6-1.2c0.1-0.2,0.2-0.4,0.3-0.5c0-0.1,0.1-0.1,0.1-0.2c0.1-0.2,0.3-0.4,0.4-0.6
			c0.1-0.2,0.3-0.4,0.4-0.6c0.1-0.2,0.3-0.4,0.4-0.6c0.2-0.2,0.3-0.4,0.5-0.6s0.3-0.3,0.5-0.5c0.6-0.7,1.3-1.3,2-1.8
			c0.2-0.1,0.3-0.3,0.5-0.4c0.2-0.1,0.4-0.2,0.6-0.4c0.2-0.1,0.4-0.2,0.6-0.3c0.2-0.1,0.4-0.2,0.6-0.3c0.2-0.1,0.4-0.2,0.6-0.3
			c1.8-0.8,3.8-1.3,5.9-1.3c0.9,0,1.7,0.1,2.6,0.3c0.2,0,0.4,0.1,0.6,0.1c0.4,0.1,0.8,0.2,1.3,0.3c0.2,0.1,0.5,0.2,0.7,0.3
			c1.6,0.6,3.1,1.5,4.4,2.6c0.8,0.6,1.4,1.3,1.9,2c0.1,0.1,0.2,0.2,0.2,0.3c0.1,0.2,0.3,0.4,0.4,0.6c0,0,0,0,0,0.1
			c0.3,0.5,0.6,1,0.9,1.5c0.1,0.3,0.3,0.5,0.4,0.8c0.1,0.2,0.1,0.3,0.2,0.5c0.4,0.9,0.7,1.8,0.9,2.7c0,0.1,0.1,0.2,0.1,0.3
			c0.2,0.7,0.3,1.4,0.3,2.2C184.6,16.4,184.5,17.9,184.1,19.3z"/>
		<g>
			<path class="st2" d="M347,3.7c-0.3,0.2-0.6,0.5-0.9,0.8c0.3-0.2,0.5-0.5,0.8-0.7C346.9,3.8,347,3.8,347,3.7z"/>
			<path class="st2" d="M341.5,19.3c-1.3-5.3,0.6-11.1,4.6-14.8c-2.7,2.4-4.2,5.6-4.9,9c-1.9,8.4-17.4,69.2-78.3,70.8
				c-4-0.1-8-0.4-12-1.1c-21.2-3.6-39.6-16.9-51.3-34.6c-7-10.6-12.1-22.5-15-34.8c-0.1-0.4-0.2-0.7-0.3-1.1
				c0.1,0.7,0.3,1.5,0.3,2.2c0.1,1.5-0.1,2.9-0.4,4.4c-3.9,15.7-9,28.6-14.6,39.2c13.9,26.4,30.9,38.4,40.2,43.4
				c4.2,2.2,6.8,6.5,6.8,11.2v61.1c0,4,3.2,7.2,7.2,7.2h78c4,0,7.2-3.2,7.2-7.2v-60.7c0-4.8,2.6-9.3,6.8-11.6v0
				c9.2-5,26.2-17,40.2-43.4C350.4,47.9,345.3,35,341.5,19.3z"/>
		</g>
		<path class="st2" d="M262.6,72.9c0.1,0,0.1,0,0.2,0s0.1,0,0.2,0c20.1,0,36.5-16.3,36.5-36.5S283.1,0,262.9,0c-0.1,0-0.1,0-0.2,0
			s-0.1,0-0.2,0C242.4,0,226,16.3,226,36.5S242.5,72.9,262.6,72.9z"/>
	</g>
</g>
</svg>
