<?xml version="1.0" encoding="utf-8"?>
<!-- Generator: Adobe Illustrator 24.1.2, SVG Export Plug-In . SVG Version: 6.00 Build 0)  -->
<svg version="1.1" id="Layer_1" xmlns="http://www.w3.org/2000/svg" xmlns:xlink="http://www.w3.org/1999/xlink" x="0px" y="0px"
	 viewBox="0 0 257.24 63" style="enable-background:new 0 0 257.24 63;" xml:space="preserve">
<style type="text/css">
	.st0{fill:#84372F;}
	.st1{fill-rule:evenodd;clip-rule:evenodd;fill:#8A2529;}
	.st2{fill:#FFCF01;}
	.st3{fill-rule:evenodd;clip-rule:evenodd;fill:#FFCF01;}
</style>
<g>
	<polygon class="st0" points="161.06,9.8 154.31,20.99 147.59,9.8 141.4,9.8 151.16,26.02 151.16,35 156.99,35 156.99,26.08 
		166.78,9.8 	"/>
	<path class="st0" d="M129.27,19.34c0.91-0.53,1.96-0.79,3.13-0.79c0.98,0,1.9,0.2,2.74,0.61c0.84,0.41,1.61,1.03,2.3,1.87
		l3.67-3.35c-1.06-1.34-2.33-2.3-3.82-2.88c-1.46-0.6-3.17-0.9-5.11-0.9c-2.21,0-4.19,0.47-5.94,1.4c-1.73,0.91-3.1,2.18-4.1,3.82
		c-1.01,1.61-1.51,3.46-1.51,5.54c0,2.06,0.5,3.91,1.51,5.54c1.01,1.61,2.38,2.88,4.1,3.82c1.75,0.91,3.73,1.37,5.94,1.37
		c1.94,0,3.65-0.3,5.11-0.9c1.49-0.6,2.76-1.56,3.82-2.88l-3.67-3.35c-0.7,0.84-1.46,1.46-2.3,1.87c-0.84,0.41-1.75,0.61-2.74,0.61
		c-1.18,0-2.22-0.25-3.13-0.76c-0.91-0.53-1.63-1.25-2.16-2.16c-0.5-0.91-0.76-1.97-0.76-3.17c0-1.22,0.25-2.29,0.76-3.2
		C127.64,20.55,128.36,19.84,129.27,19.34z"/>
	<path class="st0" d="M91.72,15.56c-1.75-0.84-3.82-1.26-6.19-1.26h-9.76V35h9.76c2.38,0,4.44-0.42,6.19-1.26
		c1.78-0.84,3.14-2.03,4.1-3.56c0.98-1.56,1.48-3.4,1.48-5.51c0-2.14-0.49-3.97-1.48-5.51C94.86,17.6,93.5,16.4,91.72,15.56z
		 M90.78,27.87c-0.5,0.86-1.22,1.52-2.16,1.98c-0.91,0.46-2,0.68-3.28,0.68h-3.89V18.76h3.89c1.27,0,2.36,0.23,3.28,0.68
		c0.94,0.46,1.66,1.13,2.16,2.02c0.5,0.86,0.76,1.93,0.76,3.2C91.54,25.92,91.29,26.98,90.78,27.87z"/>
	<polygon class="st0" points="106.95,26.58 116.38,26.58 116.38,22.44 106.95,22.44 106.95,18.66 117.6,18.66 117.6,14.3 
		101.33,14.3 101.33,35 118,35 118,30.64 106.95,30.64 	"/>
	<polygon class="st0" points="222.89,26.58 232.32,26.58 232.32,22.44 222.89,22.44 222.89,18.66 233.55,18.66 233.55,14.3 
		217.28,14.3 217.28,35 233.94,35 233.94,30.64 222.89,30.64 	"/>
	<path class="st0" d="M251.12,35h6.12l-4.6-6.54c1.3-0.6,2.32-1.42,3.05-2.5c0.77-1.13,1.15-2.47,1.15-4.03
		c0-1.61-0.38-2.98-1.15-4.1s-1.85-1.99-3.24-2.59c-1.37-0.62-3.01-0.94-4.93-0.94h-9.43V35h5.69v-5.54h3.5L251.12,35z
		 M250.11,19.56c0.67,0.55,1.01,1.34,1.01,2.38c0,1.01-0.34,1.8-1.01,2.38c-0.67,0.55-1.67,0.83-2.99,0.83h-3.35v-6.41h3.35
		C248.44,18.73,249.44,19,250.11,19.56z"/>
	<path class="st0" d="M183.37,15.24c-1.37-0.62-3.01-0.94-4.93-0.94h-9.43V35h5.69v-5.47h3.74c1.92,0,3.56-0.3,4.93-0.9
		c1.39-0.6,2.47-1.48,3.24-2.63c0.77-1.15,1.15-2.51,1.15-4.07c0-1.61-0.38-2.98-1.15-4.1S184.76,15.84,183.37,15.24z M181.03,24.31
		c-0.67,0.55-1.67,0.83-2.99,0.83h-3.35v-6.41h3.35c1.32,0,2.32,0.28,2.99,0.83c0.67,0.55,1.01,1.34,1.01,2.38
		C182.04,22.94,181.7,23.73,181.03,24.31z"/>
	<polygon class="st0" points="206.04,22.22 197.62,22.22 197.62,14.3 191.93,14.3 191.93,35 197.62,35 197.62,26.79 206.04,26.79 
		206.04,35 211.73,35 211.73,14.3 206.04,14.3 	"/>
</g>
<g>
	<path class="st0" d="M79.66,42.42c0.71-0.4,1.5-0.6,2.38-0.6c0.65,0,1.26,0.11,1.82,0.34c0.56,0.21,1.07,0.55,1.52,1.02l0.92-0.94
		c-0.52-0.56-1.14-0.98-1.86-1.26c-0.72-0.28-1.53-0.42-2.44-0.42c-1.15,0-2.18,0.25-3.1,0.76c-0.91,0.51-1.63,1.19-2.16,2.06
		c-0.52,0.87-0.78,1.85-0.78,2.96c0,1.11,0.26,2.1,0.78,2.98c0.53,0.87,1.25,1.55,2.16,2.06c0.92,0.49,1.95,0.74,3.1,0.74
		c0.89,0,1.7-0.14,2.42-0.42c0.73-0.28,1.36-0.7,1.88-1.26l-0.92-0.94c-0.45,0.48-0.96,0.83-1.52,1.04
		c-0.56,0.21-1.17,0.32-1.82,0.32c-0.88,0-1.67-0.19-2.38-0.58s-1.26-0.92-1.66-1.6c-0.4-0.69-0.6-1.47-0.6-2.34s0.2-1.64,0.6-2.32
		C78.4,43.34,78.95,42.81,79.66,42.42z"/>
	<path class="st0" d="M119.78,48.02c0.71-0.31,1.25-0.75,1.64-1.34c0.39-0.59,0.58-1.28,0.58-2.08c0-0.83-0.19-1.53-0.58-2.1
		c-0.39-0.59-0.93-1.03-1.64-1.34c-0.69-0.31-1.53-0.46-2.52-0.46h-4.38V52h1.44v-3.52h2.94c0.28,0,0.54-0.02,0.79-0.04l2.57,3.56
		h1.56l-2.76-3.85C119.54,48.11,119.67,48.07,119.78,48.02z M117.2,47.3h-2.88v-5.4h2.88c1.09,0,1.93,0.23,2.5,0.7
		c0.57,0.47,0.86,1.13,0.86,2c0,0.85-0.29,1.52-0.86,2C119.13,47.07,118.29,47.3,117.2,47.3z"/>
	<path class="st0" d="M101.86,41.32c-0.91-0.51-1.94-0.76-3.1-0.76c-1.15,0-2.18,0.25-3.1,0.76s-1.65,1.19-2.18,2.06
		c-0.52,0.87-0.78,1.85-0.78,2.96c0,1.11,0.26,2.1,0.78,2.98c0.53,0.87,1.26,1.55,2.18,2.06c0.92,0.49,1.95,0.74,3.1,0.74
		c1.16,0,2.19-0.25,3.1-0.74c0.92-0.51,1.64-1.19,2.16-2.06c0.53-0.88,0.8-1.87,0.8-2.98c0-1.11-0.27-2.09-0.8-2.96
		C103.5,42.51,102.78,41.83,101.86,41.32z M102.78,48.68c-0.4,0.68-0.95,1.22-1.64,1.62c-0.69,0.39-1.49,0.58-2.38,0.58
		c-0.88,0-1.67-0.19-2.38-0.58c-0.69-0.4-1.24-0.94-1.64-1.62c-0.4-0.69-0.6-1.47-0.6-2.34s0.2-1.64,0.6-2.32
		c0.4-0.68,0.95-1.21,1.64-1.6c0.71-0.4,1.5-0.6,2.38-0.6c0.89,0,1.68,0.2,2.36,0.6c0.69,0.39,1.24,0.92,1.64,1.6
		c0.41,0.68,0.62,1.45,0.62,2.32S103.18,47.99,102.78,48.68z"/>
	<path class="st0" d="M233.69,41.32c-0.91-0.51-1.94-0.76-3.1-0.76c-1.15,0-2.18,0.25-3.1,0.76s-1.65,1.19-2.18,2.06
		c-0.52,0.87-0.78,1.85-0.78,2.96c0,1.11,0.26,2.1,0.78,2.98c0.53,0.87,1.26,1.55,2.18,2.06c0.92,0.49,1.95,0.74,3.1,0.74
		c1.16,0,2.19-0.25,3.1-0.74c0.92-0.51,1.64-1.19,2.16-2.06c0.53-0.88,0.8-1.87,0.8-2.98c0-1.11-0.27-2.09-0.8-2.96
		C235.33,42.51,234.61,41.83,233.69,41.32z M234.61,48.68c-0.4,0.68-0.95,1.22-1.64,1.62c-0.69,0.39-1.49,0.58-2.38,0.58
		c-0.88,0-1.67-0.19-2.38-0.58c-0.69-0.4-1.24-0.94-1.64-1.62c-0.4-0.69-0.6-1.47-0.6-2.34s0.2-1.64,0.6-2.32
		c0.4-0.68,0.95-1.21,1.64-1.6c0.71-0.4,1.5-0.6,2.38-0.6c0.89,0,1.68,0.2,2.36,0.6c0.69,0.39,1.24,0.92,1.64,1.6
		c0.41,0.68,0.62,1.45,0.62,2.32S235.01,47.99,234.61,48.68z"/>
	<polygon class="st0" points="253.02,40.7 253.02,49.53 245.9,40.7 244.72,40.7 244.72,52 246.16,52 246.16,43.18 253.26,52 
		254.46,52 254.46,40.7 	"/>
	<path class="st0" d="M173.65,48.02c0.71-0.31,1.25-0.75,1.64-1.34c0.39-0.59,0.58-1.28,0.58-2.08c0-0.83-0.19-1.53-0.58-2.1
		c-0.39-0.59-0.93-1.03-1.64-1.34c-0.69-0.31-1.53-0.46-2.52-0.46h-4.38V52h1.44v-3.52h2.94c0.28,0,0.54-0.02,0.79-0.04l2.57,3.56
		h1.56l-2.76-3.85C173.41,48.11,173.53,48.07,173.65,48.02z M171.07,47.3h-2.88v-5.4h2.88c1.09,0,1.93,0.23,2.5,0.7
		c0.57,0.47,0.86,1.13,0.86,2c0,0.85-0.29,1.52-0.86,2C173,47.07,172.16,47.3,171.07,47.3z"/>
	<polygon class="st0" points="198.46,41.9 202.44,41.9 202.44,52 203.88,52 203.88,41.9 207.86,41.9 207.86,40.7 198.46,40.7 	"/>
	<path class="st0" d="M187.39,40.7L182.17,52h1.42l1.32-2.92h6.36l1.32,2.92h1.44l-5.22-11.3H187.39z M185.43,47.92l2.66-5.89
		l2.65,5.89H185.43z"/>
	<rect x="215.03" y="40.7" class="st0" width="1.44" height="11.3"/>
	<path class="st0" d="M137.26,41.16c-0.69-0.31-1.53-0.46-2.52-0.46h-4.38V52h1.44v-3.5h2.94c0.99,0,1.83-0.15,2.52-0.46
		c0.71-0.31,1.25-0.75,1.64-1.34c0.39-0.59,0.58-1.29,0.58-2.1c0-0.83-0.19-1.53-0.58-2.1C138.52,41.91,137.97,41.47,137.26,41.16z
		 M137.18,46.6c-0.57,0.47-1.41,0.7-2.5,0.7h-2.88v-5.4h2.88c1.09,0,1.93,0.23,2.5,0.7c0.57,0.47,0.86,1.13,0.86,2
		C138.04,45.45,137.76,46.12,137.18,46.6z"/>
	<path class="st0" d="M155.73,41.32c-0.91-0.51-1.94-0.76-3.1-0.76c-1.15,0-2.18,0.25-3.1,0.76s-1.65,1.19-2.18,2.06
		c-0.52,0.87-0.78,1.85-0.78,2.96c0,1.11,0.26,2.1,0.78,2.98c0.53,0.87,1.26,1.55,2.18,2.06c0.92,0.49,1.95,0.74,3.1,0.74
		c1.16,0,2.19-0.25,3.1-0.74c0.92-0.51,1.64-1.19,2.16-2.06c0.53-0.88,0.8-1.87,0.8-2.98c0-1.11-0.27-2.09-0.8-2.96
		C157.37,42.51,156.65,41.83,155.73,41.32z M156.65,48.68c-0.4,0.68-0.95,1.22-1.64,1.62c-0.69,0.39-1.49,0.58-2.38,0.58
		c-0.88,0-1.67-0.19-2.38-0.58c-0.69-0.4-1.24-0.94-1.64-1.62c-0.4-0.69-0.6-1.47-0.6-2.34s0.2-1.64,0.6-2.32
		c0.4-0.68,0.95-1.21,1.64-1.6c0.71-0.4,1.5-0.6,2.38-0.6c0.89,0,1.68,0.2,2.36,0.6c0.69,0.39,1.24,0.92,1.64,1.6
		c0.41,0.68,0.62,1.45,0.62,2.32S157.05,47.99,156.65,48.68z"/>
</g>
<g>
	<path class="st1" d="M31.48,0.35c17.16,0,31.17,14.01,31.17,31.17c0,17.12-14.01,31.13-31.17,31.13S0.35,48.64,0.35,31.52
		C0.35,14.36,14.32,0.35,31.48,0.35z"/>
	<path class="st2" d="M31.48,0L31.48,0v0.71l0,0V0z M31.48,0c8.7,0,16.57,3.54,22.27,9.25l-0.51,0.51
		c-5.59-5.59-13.26-9.05-21.76-9.05V0L31.48,0z M53.75,9.25C59.46,14.95,63,22.82,63,31.52h-0.75c0-8.5-3.42-16.17-9.01-21.76
		L53.75,9.25L53.75,9.25z M63,31.52L63,31.52h-0.75l0,0H63z M63,31.52L63,31.52h-0.75l0,0H63z M63,31.52
		c0,8.66-3.54,16.53-9.25,22.23l-0.51-0.51c5.59-5.55,9.01-13.26,9.01-21.72H63L63,31.52z M53.75,53.75
		C48.05,59.46,40.18,63,31.48,63v-0.71c8.5,0,16.17-3.46,21.76-9.05L53.75,53.75L53.75,53.75z M31.48,63L31.48,63v-0.71l0,0V63z
		 M31.48,63L31.48,63v-0.71l0,0V63z M31.48,63c-8.66,0-16.53-3.54-22.23-9.25l0.47-0.51c5.59,5.59,13.3,9.05,21.76,9.05V63L31.48,63
		z M9.25,53.75C3.54,48.05,0,40.18,0,31.52h0.71c0,8.46,3.46,16.17,9.01,21.72L9.25,53.75L9.25,53.75z M0,31.52L0,31.52h0.71l0,0H0z
		 M0,31.52L0,31.52h0.71l0,0H0z M0,31.52c0-8.7,3.54-16.57,9.25-22.27l0.47,0.51c-5.55,5.59-9.01,13.26-9.01,21.76H0L0,31.52z
		 M9.25,9.25C14.95,3.54,22.82,0,31.48,0v0.71c-8.46,0-16.17,3.46-21.76,9.05L9.25,9.25L9.25,9.25z M31.48,0L31.48,0v0.71l0,0V0z"/>
	<path class="st2" d="M31.48,1.3L31.48,1.3v0.71l0,0V1.3z M31.48,1.3c8.34,0,15.9,3.38,21.37,8.85l-0.51,0.51
		c-5.35-5.35-12.71-8.66-20.86-8.66V1.3L31.48,1.3z M52.85,10.15c5.47,5.47,8.85,13.02,8.85,21.37h-0.71
		c0-8.15-3.34-15.5-8.66-20.86L52.85,10.15L52.85,10.15z M61.7,31.52L61.7,31.52h-0.71l0,0H61.7z M61.7,31.52L61.7,31.52h-0.71l0,0
		H61.7z M61.7,31.52c0,8.3-3.38,15.86-8.85,21.33l-0.51-0.51c5.31-5.35,8.66-12.71,8.66-20.82H61.7L61.7,31.52z M52.85,52.85
		c-5.47,5.47-13.02,8.85-21.37,8.85v-0.71c8.15,0,15.5-3.31,20.86-8.66L52.85,52.85L52.85,52.85z M31.48,61.7L31.48,61.7v-0.71l0,0
		V61.7z M31.48,61.7L31.48,61.7v-0.71l0,0V61.7z M31.48,61.7c-8.3,0-15.86-3.38-21.33-8.85l0.51-0.51
		c5.35,5.35,12.71,8.66,20.82,8.66V61.7L31.48,61.7z M10.15,52.85C4.68,47.38,1.3,39.82,1.3,31.52h0.71
		c0,8.11,3.31,15.46,8.66,20.82L10.15,52.85L10.15,52.85z M1.3,31.52L1.3,31.52h0.71l0,0H1.3z M1.3,31.52L1.3,31.52h0.71l0,0H1.3z
		 M1.3,31.52c0-8.34,3.38-15.9,8.85-21.37l0.51,0.51c-5.35,5.35-8.66,12.71-8.66,20.86H1.3L1.3,31.52z M10.15,10.15
		C15.62,4.68,23.18,1.3,31.48,1.3v0.71c-8.11,0-15.46,3.31-20.82,8.66L10.15,10.15L10.15,10.15z M31.48,1.3L31.48,1.3v0.71l0,0V1.3z
		"/>
	<path class="st3" d="M57.77,22.51c-0.04-0.24-0.12-0.51-0.28-0.75c-1.22-1.22-2.83-1.38-4.88-0.39c-2.48,1.14-5.04,2.28-7.71,3.27
		c-0.83-3.11-1.77-6.1-2.83-9.01c-0.04-0.08-0.08-0.2-0.08-0.35c-1.57-1.3-3.15-2.6-4.68-3.94c-0.35-0.31-0.75-0.67-1.14-0.98
		c-0.08-0.08-0.16-0.12-0.28-0.12c-0.67-0.39-1.61-0.59-2.91-0.47c-0.59,0.04-1.22,0.08-1.81,0.08c-0.47,0.04-0.94,0.04-1.42,0.04
		c-2.48,1.1-4.72,2.48-6.65,4.13c-0.59,0.51-1.02,1.14-1.3,1.97c-0.16,0.35-0.31,0.63-0.51,0.87c-0.35,0.39-0.87,0.71-1.53,0.91
		c-0.08,0.04-0.12,0.16-0.2,0.39c-0.55,1.3-0.63,2.68-0.28,3.97c-0.08,0.98-0.59,1.57-1.42,1.81c-1.77,0.51-3.03,1.5-3.78,2.99
		c0,0.08,0.04,0.16,0.16,0.24c1.26,2.2,3.62,3.27,7.04,3.15c0.16,0,0.35,0,0.51-0.04c1.06-0.04,1.97-0.31,2.79-0.79
		c0.63-0.39,1.42-0.63,2.28-0.87c1.42,0,2.87,0,4.29,0c0.47,0,0.98,0,1.46,0c0.16,0,0.28,0,0.35,0c1.26,0.04,2.32-0.08,3.31-0.31
		c0.12,0,0.2-0.04,0.31-0.04c0-0.12,0-0.24,0-0.35c0.24-0.12,0.51-0.2,0.71-0.24c0.87-0.24,1.5-0.24,2.01,0.04l-0.2,0.04
		c-0.71,0.12-1.3,0.31-1.81,0.63c-0.12,0.08-0.24,0.16-0.35,0.24c-1.93,0.91-3.86,1.81-5.78,2.72c-2.4,1.14-4.8,2.32-7.16,3.5
		c-0.87,0.43-1.77,0.87-2.72,1.26c-1.57,0.67-3.19,1.3-4.88,1.89c-2.87-2.56-5.23-5.67-7.12-9.25c-0.59-1.06-1.1-2.16-1.57-3.31
		C7.16,24,6.65,24.16,6.18,25.81c-0.28,1.1-0.63,2.16-0.94,3.15c-0.16,2.01,0,3.66,0.47,5.04c0.91,2.6,2.09,4.88,3.58,6.89
		c1.5,2.05,3.34,3.78,5.47,5.15c2.01,1.38,4.21,2.52,6.53,3.5c0.2,0.08,0.39,0.16,0.55,0.24c2.83,1.14,5.94,2.01,9.33,2.6
		c1.97,0.31,4.01,0.59,6.14,0.75c0.83,0.04,1.69,0.12,2.52,0.16c1.73,0.04,3.07-0.24,3.97-0.87c-0.51-0.79-1.38-1.26-2.48-1.53
		c-1.46-0.28-2.75-0.67-4.01-1.1c0-0.04-0.04-0.04-0.04-0.04c-2.12-0.79-4.17-1.65-6.1-2.6c-2.87-1.38-5.59-2.91-8.15-4.6
		c-0.39-0.28-0.94-0.43-1.57-0.59c0.51-0.83,1.34-1.38,2.48-1.65c0.28-0.12,0.55-0.2,0.87-0.31c2.16-0.94,4.29-1.89,6.37-2.87
		c2.09-0.94,4.13-1.93,6.14-2.91c0.67-0.31,1.3-0.63,1.97-0.98c4.8-2.36,9.68-4.6,14.64-6.73c1.61-0.67,2.83-1.73,3.74-3.07
		C57.81,23.18,57.85,22.86,57.77,22.51z M31.17,10.9c1.34-0.16,2.79-0.08,4.37,0.2c1.26,0.2,1.34,0.47,0.31,0.71
		c-0.12,0.04-0.24,0.04-0.35,0c-0.35-0.12-0.71-0.12-1.06-0.12c-0.12,0-0.2,0-0.35,0c-0.98,0-1.93,0-2.91,0c-0.12,0-0.24,0-0.35,0
		c-1.14,0.04-2.05,0.35-2.68,0.87c-0.31,0.2-0.55,0.43-0.79,0.71c-0.94,1.02-1.46,1.02-1.57-0.16C27.27,11.84,29.08,11.1,31.17,10.9
		z M19.68,19.6c0.12,0,0.24,0,0.35,0c0-0.12,0-0.2,0-0.35c0-0.24,0-0.47,0-0.71c0.43-0.08,0.71-0.31,0.87-0.67
		c0.04-0.04,0.08-0.08,0.2-0.08c0.08,0.12,0.12,0.2,0.2,0.28c0.16,0.28,0.31,0.59,0.47,0.87c0.04,0.08,0.04,0.2,0.04,0.31
		c0.16-0.12,0.28-0.24,0.43-0.28c0.08-0.04,0.2-0.08,0.31-0.08s0.2,0.04,0.28,0.12c0.04,0,0.08,0.12,0.08,0.24
		c0.2,1.73,0.08,3.19-0.24,4.37l-0.12,0.31c-0.31-0.35-0.67-0.35-1.1,0c0,0.16-0.04,0.24-0.08,0.24c0,0.04-0.04,0.08-0.08,0.08
		c-0.67,0.43-1.1,0.08-1.26-1.02c0.55-0.12,0.94-0.31,1.26-0.63c0.04-0.04,0.08-0.08,0.08-0.16c0.04-0.08,0.08-0.16,0.08-0.31
		c0-0.12,0-0.2,0-0.35c0.16,0,0.24-0.04,0.31-0.08c0.04-0.08,0.04-0.12,0.04-0.28c0.67,1.34,0.87,0.98,0.79-1.1
		c-0.04-0.08-0.04-0.2-0.04-0.35c-0.12,0-0.24,0-0.35,0s-0.24,0-0.39,0v-0.16c-0.2,0-0.35,0-0.51-0.04
		c-0.31-0.04-0.51-0.24-0.55-0.51c-0.12,0-0.2,0-0.35,0c0,0.16,0,0.24,0,0.35c0.16,1.14,0.12,2.01-0.24,2.6l-0.12,0.28
		C19.64,21.96,19.48,21.01,19.68,19.6z M24.71,28.25c-0.91,0.59-2.05,0.91-3.42,0.98c-0.51,0-1.02,0-1.61-0.04
		c-0.12-0.04-0.24-0.04-0.39-0.04c-2.36,0-3.66-1.06-3.94-3.07c1.14-0.43,2.16-0.98,3.11-1.57c0.71-0.43,1.06-0.16,1.02,0.87
		c0,0.12,0.08,0.24,0.16,0.39c0.39,0.55,0.94,0.98,1.65,1.3c0.67,0.28,1.42,0.43,2.32,0.47c0.08,0.43,0.43,0.59,1.1,0.51V28.25z
		 M37.3,26.88c-1.42,0.35-2.99,0.55-4.68,0.67c-0.39,0.2-0.91,0.39-1.46,0.47c-0.51,0.12-1.1,0.16-1.77,0.16
		c-1.38,0-2.44-0.2-3.27-0.63c-0.08,0-0.2,0-0.35,0c-0.2,0-0.47,0-0.71,0c0-0.12,0-0.2-0.04-0.2c-0.31-0.12-0.67-0.2-1.06-0.2
		c0-0.08,0-0.16,0-0.16c-1.18-0.12-2.09-0.43-2.68-1.06c-0.08-0.08-0.12-0.12-0.2-0.2c0.08,0,0.12,0,0.2,0c0.43,0,0.83,0,1.26,0
		c0.12,0,0.24,0,0.35,0c1.06-0.35,1.77-1.14,2.12-2.16c0.04-0.12,0.04-0.24,0.04-0.35c-0.12,0-0.2,0.04-0.24,0.08
		c-0.43,0.71-1.06,1.14-1.93,1.34c0-0.08,0-0.2,0-0.35c0.71-1.18,0.91-2.83,0.55-5c0,0-0.04-0.04-0.2-0.04c0-0.12,0-0.24,0-0.35
		c0-0.24,0-0.47,0-0.75c0.94,0.67,1.5,1.69,1.61,3.27c0,0.12,0.04,0.24,0.08,0.39c0.08,0.35,0.12,0.67,0.12,1.06c0.16,0,0.2,0,0.2,0
		c0.39-2.72-0.12-4.49-1.65-5.43v-0.16c-0.59,0-0.87-0.28-0.71-0.91c0.63-0.83,1.38-1.5,2.28-1.97c0.08,0,0.12,0.04,0.24,0.16
		c0.98,0.98,1.89,0.75,2.72-0.63c0.16-0.35,0.59-0.55,1.26-0.59c0.12-0.04,0.24-0.08,0.39-0.2c0.35-0.35,0.83-0.55,1.38-0.75
		c0,0,0,0,0.04,0c0.83,0,1.69,0,2.52,0c0.12,0,0.24,0,0.35,0c0.16,0,0.24,0.04,0.35,0.04c1.06,0.2,2.01,0.47,2.87,0.83
		c2.16,0.94,3.74,2.44,4.68,4.53c0.16,1.3,0.43,2.52,0.79,3.62c0.39,1.26,0.51,2.24,0.31,2.87c-0.12,0-0.24,0.04-0.28,0.12
		C41.28,25.5,39.43,26.33,37.3,26.88z M11.37,40.49c-0.98,0-1.69-0.28-2.09-0.87c-0.04-0.04-0.08-0.12-0.12-0.16
		c-1.02-1.77-1.69-3.78-2.12-6.18h-0.2c0-1.53-0.16-2.87-0.51-3.97c0.79,0.31,1.1,1.18,0.91,2.56c0,0.24,0.04,0.47,0.16,0.71
		c0.47,1.57,1.1,2.99,1.89,4.25c0.28,0.43,0.55,0.87,0.91,1.26c0.31,0.43,0.63,0.79,1.02,1.1C12.51,40.37,12.55,40.85,11.37,40.49z
		 M37.3,52.1c-0.98,0.12-1.73,0-2.16-0.43c-0.08,0-0.2,0-0.35,0c-1.18,0.04-2.16-0.2-2.87-0.71c-0.24-0.04-0.51-0.04-0.75-0.08
		c-3.66-0.47-6.97-1.42-9.88-2.72c-0.16-0.04-0.31-0.12-0.47-0.2c-1.06-0.51-2.12-0.98-3.27-1.5c-1.18-0.51-2.16-1.3-2.95-2.36
		c0.55-0.51,1.1-0.55,1.61-0.12c1.5,1.22,3.19,2.28,5.08,3.19c0.59,0.28,1.26,0.55,1.89,0.79c2.48,0.94,5.15,1.81,7.99,2.48
		c0.24,0.04,0.51,0.08,0.75,0.16c0.98,0.24,1.93,0.47,2.87,0.67c0.16,0.04,0.28,0.04,0.35,0.04c0.98,0,1.69,0.16,2.16,0.43
		c0.16,0.12,0.28,0.2,0.39,0.31L37.3,52.1z M29.71,47.46c0.16,0.04,0.28,0.12,0.43,0.24c0.35,0.2,0.67,0.35,1.02,0.55
		c1.42,0.71,2.99,1.26,4.72,1.65c0.47,0.24,0.94,0.47,1.42,0.67c0.35,0.16,0.71,0.31,1.1,0.43c0.55,0.2,0.47,0.24-0.28,0.08
		c-0.28-0.04-0.55-0.12-0.83-0.16c-0.94-0.2-1.89-0.43-2.87-0.67c-1.1-0.24-2.2-0.47-3.27-0.75c-3.62-0.94-6.93-2.2-9.88-3.82
		c-0.08-0.04-0.12-0.08-0.2-0.08c-4.64-2.48-8.38-5.78-11.29-9.92c-0.16-0.28-0.35-0.59-0.51-0.87c-1.18-2.05-1.81-4.56-1.89-7.67
		c0.55,1.38,1.18,2.68,1.89,3.9c1.85,3.31,4.21,6.14,7.04,8.5c1.57,1.3,3.23,2.48,4.96,3.62C23.89,44.78,26.68,46.24,29.71,47.46z
		 M53.95,24.99c-0.28,0-0.55,0.08-0.83,0.24c-5,2.16-9.84,4.41-14.52,6.73c-0.43,0.24-0.87,0.43-1.3,0.63
		c-2.01,0.98-4.05,1.97-6.06,2.91c-0.04,0-0.08,0.04-0.08,0.04c-2.36,1.1-4.64,2.2-6.89,3.38c-0.2,0.12-0.39,0.2-0.63,0.24
		c-0.79,0.31-1.61,0.63-2.36,0.98c-0.35,0.16-0.71,0.28-1.06,0.43c-0.12,0.08-0.31,0.08-0.55-0.08c-0.75-0.31-1.34-0.83-1.81-1.42
		c1.14-0.55,2.28-1.06,3.42-1.61c3.31-1.53,6.61-3.07,9.88-4.6c0.39-0.2,0.75-0.35,1.14-0.55c1.69-0.75,3.34-1.57,5-2.36
		c3.19-1.5,6.3-3.03,9.4-4.56c2.68-1.38,5.59-2.48,8.74-3.27c0.39-0.12,0.83-0.12,1.34,0C56.7,23.85,55.72,24.79,53.95,24.99z"/>
</g>
</svg>
