<?xml version="1.0" encoding="utf-8"?>
<!-- Generator: Adobe Illustrator 24.1.2, SVG Export Plug-In . SVG Version: 6.00 Build 0)  -->
<svg version="1.1" id="Layer_1" xmlns="http://www.w3.org/2000/svg" xmlns:xlink="http://www.w3.org/1999/xlink" x="0px" y="0px"
	 viewBox="0 0 115.3 115.3" style="enable-background:new 0 0 115.3 115.3;" xml:space="preserve">
<style type="text/css">
	.st0{fill-rule:evenodd;clip-rule:evenodd;fill:#FFFFFF;}
</style>
<path class="st0" d="M98.3,16.9C87.9,6.5,73.5,0,57.6,0C41.8,0,27.4,6.5,16.9,16.9S0,41.8,0,57.7c0,15.8,6.5,30.2,16.9,40.7
	s24.8,16.9,40.7,16.9c15.9,0,30.3-6.5,40.8-16.9s16.9-24.8,16.9-40.7C115.3,41.8,108.8,27.4,98.3,16.9z M97.4,97.4
	C87.2,107.6,73.2,114,57.6,114c-15.5,0-29.6-6.3-39.8-16.6C7.6,87.3,1.3,73.2,1.3,57.7c0-15.5,6.3-29.6,16.5-39.8
	C28,7.6,42.1,1.3,57.6,1.3c15.6,0,29.6,6.3,39.8,16.6s16.5,24.3,16.5,39.8C113.9,73.2,107.6,87.3,97.4,97.4z M57.6,2.4
	c-15.2,0-29,6.2-39,16.2S2.4,42.4,2.4,57.7c0,15.2,6.2,29,16.2,39s23.8,16.2,39,16.2c15.3,0,29.1-6.2,39.1-16.2s16.2-23.8,16.2-39
	c0-15.3-6.2-29.1-16.2-39.1S72.9,2.4,57.6,2.4z M111.6,57.7c0,14.8-6.1,28.3-15.8,38.1c-9.8,9.8-23.3,15.8-38.2,15.8
	c-14.8,0-28.3-6.1-38.1-15.8S3.7,72.5,3.7,57.7c0-14.9,6.1-28.4,15.8-38.2S42.8,3.7,57.6,3.7c14.9,0,28.4,6.1,38.2,15.8
	C105.5,29.3,111.6,42.8,111.6,57.7z M77,28.6c-0.1-0.1-0.1-0.4-0.1-0.6c-2.9-2.4-5.8-4.8-8.6-7.2c-0.7-0.6-1.4-1.2-2.1-1.8
	c-0.1-0.1-0.3-0.2-0.5-0.2c-1.2-0.7-3-1.1-5.3-0.9C59.3,17.9,58.1,18,57,18c-0.9,0.1-1.7,0.1-2.6,0.1c-4.5,2-8.6,4.5-12.2,7.6
	c-1.1,0.9-1.9,2.1-2.4,3.6c-0.3,0.6-0.6,1.1-0.9,1.6c-0.7,0.7-1.6,1.3-2.8,1.7c-0.1,0.1-0.2,0.3-0.4,0.7c-1,2.4-1.2,4.9-0.5,7.3
	c-0.1,1.8-1.1,2.9-2.6,3.3c-3.2,0.9-5.5,2.7-6.9,5.5c0,0.1,0.1,0.3,0.3,0.4c2.3,4,6.6,6,12.9,5.8c0.3,0,0.7,0,0.9-0.1
	c1.9-0.1,3.6-0.6,5.1-1.4c1.2-0.7,2.6-1.2,4.2-1.6c2.6,0,5.3,0,7.8,0c0.9,0,1.8,0,2.7,0c0.3,0,0.5,0,0.7,0c2.3,0.1,4.2-0.1,6-0.6
	c0.2,0,0.4-0.1,0.6-0.1c0-0.2,0-0.4,0-0.7c0.4-0.2,0.9-0.4,1.3-0.4c1.6-0.4,2.7-0.4,3.7,0.1l-0.4,0.1c-1.3,0.2-2.4,0.6-3.3,1.2
	c-0.2,0.1-0.4,0.3-0.7,0.4c-3.5,1.7-7.1,3.3-10.6,5c-4.4,2.1-8.8,4.3-13.1,6.4c-1.6,0.8-3.2,1.6-5,2.3c-2.9,1.2-5.8,2.4-8.9,3.5
	c-5.3-4.7-9.6-10.4-13-16.9c-1.1-1.9-2-4-2.9-6c-1-2.6-1.9-2.3-2.8,0.7c-0.5,2-1.1,4-1.7,5.8c-0.3,3.7,0,6.7,0.9,9.2
	c1.7,4.8,3.8,8.9,6.6,12.6c2.7,3.7,6.1,6.9,10,9.4c3.7,2.5,7.7,4.6,12,6.4c0.4,0.1,0.7,0.3,1,0.4c5.2,2.1,10.9,3.7,17.1,4.8
	c3.6,0.6,7.3,1.1,11.2,1.4c1.5,0.1,3.1,0.2,4.6,0.3c3.2,0.1,5.6-0.4,7.3-1.6c-0.9-1.4-2.5-2.3-4.5-2.8c-2.7-0.5-5-1.2-7.3-2
	c0-0.1-0.1-0.1-0.1-0.1c-3.9-1.4-7.6-3-11.2-4.8c-5.3-2.5-10.2-5.3-14.9-8.4c-0.7-0.5-1.7-0.8-2.9-1.1c0.9-1.5,2.5-2.5,4.5-3
	c0.5-0.2,1-0.4,1.6-0.6c4-1.7,7.8-3.5,11.7-5.3c3.8-1.7,7.6-3.5,11.2-5.3c1.2-0.6,2.4-1.2,3.6-1.8c8.8-4.3,17.7-8.4,26.8-12.3
	c2.9-1.2,5.2-3.2,6.8-5.6c0.3-0.4,0.4-1,0.2-1.7c-0.1-0.4-0.2-0.9-0.5-1.4c-2.2-2.2-5.2-2.5-8.9-0.7c-4.5,2.1-9.2,4.2-14.1,6
	C80.6,39.4,78.9,33.9,77,28.6z M57,19.9c2.5-0.3,5.1-0.1,8,0.4c2.3,0.4,2.4,0.9,0.6,1.3c-0.2,0.1-0.4,0.1-0.7,0
	c-0.7-0.2-1.3-0.2-1.9-0.2c-0.2,0-0.4,0-0.7,0c-1.8,0-3.5,0-5.3,0c-0.2,0-0.4,0-0.7,0c-2.1,0.1-3.7,0.6-4.9,1.6
	c-0.6,0.4-1,0.8-1.4,1.3c-1.7,1.9-2.7,1.9-2.9-0.3C49.9,21.7,53.2,20.3,57,19.9z M36,35.9c0.2,0,0.4,0,0.7,0c0-0.2,0-0.4,0-0.7
	c0-0.4,0-0.9,0-1.3c0.8-0.1,1.3-0.6,1.6-1.2c0.1-0.1,0.1-0.1,0.4-0.1c0.1,0.2,0.2,0.4,0.4,0.5c0.3,0.5,0.6,1.1,0.9,1.6
	c0.1,0.1,0.1,0.4,0.1,0.6c0.3-0.2,0.5-0.4,0.8-0.5c0.1-0.1,0.4-0.1,0.6-0.1s0.4,0.1,0.5,0.2c0.1,0,0.1,0.2,0.1,0.4
	c0.4,3.2,0.1,5.8-0.4,8l-0.2,0.6c-0.6-0.7-1.2-0.7-2,0c0,0.3-0.1,0.4-0.1,0.4c0,0.1-0.1,0.1-0.1,0.1c-1.2,0.8-2,0.1-2.3-1.9
	c1-0.2,1.7-0.6,2.3-1.2c0.1-0.1,0.1-0.1,0.1-0.3c0.1-0.1,0.1-0.3,0.1-0.6c0-0.2,0-0.4,0-0.7c0.3,0,0.4-0.1,0.6-0.1
	c0.1-0.1,0.1-0.2,0.1-0.5c1.2,2.5,1.6,1.8,1.4-2c-0.1-0.1-0.1-0.4-0.1-0.7c-0.2,0-0.4,0-0.7,0s-0.4,0-0.7,0v-0.3
	c-0.4,0-0.7,0-0.9-0.1c-0.6-0.1-0.9-0.4-1-0.9c-0.2,0-0.4,0-0.7,0c0,0.3,0,0.4,0,0.7c0.3,2.1,0.2,3.7-0.4,4.8l-0.2,0.5
	C35.9,40.2,35.6,38.5,36,35.9z M45.2,51.7c-1.7,1.1-3.7,1.7-6.3,1.8c-0.9,0-1.9,0-3-0.1c-0.2-0.1-0.4-0.1-0.7-0.1
	c-4.3,0-6.7-1.9-7.2-5.6c2.1-0.8,4-1.8,5.7-2.9c1.3-0.8,1.9-0.3,1.9,1.6c0,0.2,0.1,0.4,0.3,0.7c0.7,1,1.7,1.8,3,2.4
	c1.2,0.5,2.6,0.8,4.3,0.9c0.1,0.8,0.8,1.1,2,0.9L45.2,51.7L45.2,51.7z M68.3,49.2c-2.6,0.7-5.5,1-8.6,1.2C59,50.8,58,51.1,57,51.3
	c-0.9,0.2-2,0.3-3.2,0.3c-2.5,0-4.5-0.4-6-1.2c-0.1,0-0.4,0-0.7,0c-0.4,0-0.9,0-1.3,0c0-0.2,0-0.4-0.1-0.4c-0.6-0.2-1.2-0.4-1.9-0.4
	c0-0.1,0-0.3,0-0.3c-2.2-0.2-3.8-0.8-4.9-1.9c-0.1-0.1-0.2-0.2-0.4-0.4c0.1,0,0.2,0,0.4,0c0.8,0,1.5,0,2.3,0c0.2,0,0.4,0,0.7,0
	c1.9-0.7,3.2-2.1,3.9-4c0.1-0.2,0.1-0.4,0.1-0.7c-0.2,0-0.4,0.1-0.4,0.1c-0.8,1.3-1.9,2.1-3.5,2.5c0-0.1,0-0.4,0-0.7
	c1.3-2.2,1.7-5.2,1-9.1c0,0-0.1-0.1-0.4-0.1c0-0.2,0-0.4,0-0.7c0-0.4,0-0.9,0-1.4c1.7,1.2,2.7,3.1,3,6c0,0.2,0.1,0.4,0.1,0.7
	c0.1,0.7,0.2,1.2,0.2,1.9c0.3,0,0.4,0,0.4,0c0.7-5-0.2-8.2-3-9.9v-0.3c-1.1,0-1.6-0.5-1.3-1.7c1.2-1.5,2.5-2.7,4.2-3.6
	c0.1,0,0.2,0.1,0.4,0.3c1.8,1.8,3.5,1.4,5-1.1c0.3-0.6,1.1-1,2.3-1.1c0.2-0.1,0.4-0.1,0.7-0.4c0.7-0.6,1.5-1,2.5-1.4c0,0,0,0,0.1,0
	c1.5,0,3.1,0,4.6,0c0.2,0,0.4,0,0.7,0c0.3,0,0.4,0.1,0.7,0.1c1.9,0.4,3.7,0.9,5.3,1.5c4,1.7,6.8,4.5,8.6,8.3
	c0.3,2.4,0.8,4.6,1.4,6.6c0.7,2.3,0.9,4.1,0.6,5.3c-0.2,0-0.4,0.1-0.5,0.2C75.5,46.7,72.1,48.2,68.3,49.2z M20.8,74.1
	c-1.8,0-3.1-0.5-3.8-1.6c-0.1-0.1-0.1-0.2-0.2-0.3c-1.9-3.2-3.1-6.9-3.9-11.3h-0.4c0-2.8-0.3-5.3-0.9-7.3c1.4,0.6,2,2.2,1.7,4.7
	c0,0.4,0.1,0.9,0.3,1.3c0.9,2.9,2,5.5,3.5,7.8c0.5,0.8,1,1.6,1.7,2.3c0.6,0.8,1.1,1.4,1.9,2C22.9,73.9,23,74.7,20.8,74.1z
	 M68.3,95.3c-1.8,0.2-3.2,0-4-0.8c-0.1,0-0.4,0-0.7,0c-2.2,0.1-4-0.4-5.3-1.3c-0.4-0.1-0.9-0.1-1.4-0.1c-6.7-0.9-12.7-2.6-18.1-5
	c-0.3-0.1-0.6-0.2-0.9-0.4c-1.9-0.9-3.9-1.8-6-2.7c-2.2-0.9-4-2.4-5.4-4.3c1-0.9,2-1,3-0.2c2.7,2.2,5.8,4.2,9.3,5.8
	c1.1,0.5,2.3,1,3.5,1.4c4.5,1.7,9.4,3.3,14.6,4.5c0.4,0.1,0.9,0.1,1.4,0.3c1.8,0.4,3.5,0.9,5.3,1.2c0.3,0.1,0.5,0.1,0.7,0.1
	c1.8,0,3.1,0.3,4,0.8c0.3,0.2,0.5,0.4,0.7,0.6L68.3,95.3z M54.4,86.8c0.3,0.1,0.5,0.2,0.8,0.4c0.7,0.4,1.2,0.7,1.9,1
	c2.6,1.3,5.5,2.3,8.6,3c0.9,0.4,1.7,0.9,2.6,1.2c0.7,0.3,1.3,0.6,2,0.8c1,0.4,0.9,0.4-0.5,0.1c-0.5-0.1-1-0.2-1.5-0.3
	c-1.7-0.4-3.5-0.8-5.3-1.2c-2-0.4-4-0.9-6-1.4c-6.6-1.7-12.7-4-18.1-7c-0.1-0.1-0.2-0.1-0.4-0.1c-8.5-4.5-15.3-10.6-20.7-18.1
	c-0.3-0.5-0.6-1.1-0.9-1.6c-2.2-3.7-3.3-8.3-3.5-14c1,2.5,2.2,4.9,3.5,7.1c3.4,6,7.7,11.2,12.9,15.5c2.9,2.4,5.9,4.5,9.1,6.6
	C43.7,81.9,48.8,84.6,54.4,86.8z M101.4,40.5c0.7-0.2,1.5-0.2,2.4,0c-0.1,3.2-1.9,4.9-5.2,5.3c-0.5,0-1,0.1-1.5,0.4
	c-9.1,4-18,8.1-26.6,12.3c-0.8,0.4-1.6,0.8-2.4,1.2c-3.7,1.8-7.4,3.6-11.1,5.3C57.1,64.9,57,65,57,65c-4.3,2-8.5,4-12.6,6.2
	c-0.4,0.2-0.7,0.4-1.2,0.4c-1.4,0.6-3,1.2-4.3,1.8c-0.7,0.3-1.3,0.5-1.9,0.8c-0.2,0.1-0.6,0.1-1-0.1c-1.4-0.6-2.5-1.5-3.3-2.6
	c2.1-1,4.2-1.9,6.3-2.9c6-2.8,12.1-5.6,18.1-8.4c0.7-0.4,1.4-0.7,2.1-1c3.1-1.4,6.1-2.9,9.1-4.3c5.8-2.7,11.5-5.5,17.2-8.4
	C90.4,43.9,95.7,41.9,101.4,40.5z"/>
</svg>
