<?xml version="1.0" encoding="utf-8"?>
<!-- Generator: Adobe Illustrator 24.1.2, SVG Export Plug-In . SVG Version: 6.00 Build 0)  -->
<svg version="1.1" id="Layer_1" xmlns="http://www.w3.org/2000/svg" xmlns:xlink="http://www.w3.org/1999/xlink" x="0px" y="0px"
	 viewBox="0 0 440.5 110.5" style="enable-background:new 0 0 440.5 110.5;" xml:space="preserve">
<style type="text/css">
	.st0{fill:#882529;}
	.st1{fill-rule:evenodd;clip-rule:evenodd;fill:#FDCD07;}
	.st2{fill-rule:evenodd;clip-rule:evenodd;fill:#882529;}
	.st3{fill-rule:evenodd;clip-rule:evenodd;fill:url(#SVGID_1_);}
</style>
<g>
	<path class="st0" d="M412.7,87.9c2.1-3.9,1.9-9.4,1.8-13.8c0-0.9,0-1.8,0-2.6c0-5.7-1.8-10-5.6-13.5c-3.3-3-7.9-4.8-12.5-4.8
		l-113.3,0h-32.2V54c-0.6-0.2-1.4-0.3-2.2-0.4c-0.2,0-0.3-0.1-0.5-0.1c-0.6-0.1-1.3-0.2-1.9-0.2c-0.9-0.1-3.8-0.2-15-0.1
		c-1.4,0-2.7,0-3.7,0L280.4,0h-62.8l-30.9,31.9L156.4,0H89.5l52.7,53.2c-1.3,0-2.9,0-4.4-0.1c-5.4-0.1-11.9-0.2-16,0.9v-0.9H62.6v1
		c-0.1-0.1-0.2-0.2-0.3-0.3c-0.2-0.2-0.4-0.4-0.7-0.6c-2.9-2.3-6.3-4.1-10.1-5.4c-0.6-0.2-1.2-0.4-1.8-0.5c-3.6-1-7.7-1.5-12-1.5H0
		v64.1h97.4h238.5h104.6L412.7,87.9z M286.4,107.6V93.8h-5.8v13.8H2.5V48.4h35.3c4.1,0,7.9,0.5,11.3,1.4c0.6,0.2,1.1,0.3,1.7,0.5
		c3.5,1.1,6.7,2.8,9.3,4.9c0.2,0.2,0.4,0.3,0.6,0.5c0.2,0.2,0.5,0.5,0.8,0.7c0.4,0.5,1,1,1.7,1.1l1.9,0.3v-2.2h54.2v2l2.3-0.9
		c2.6-1.1,7.6-1.2,11.1-1.2c1.7,0,3.4,0,5,0.1c1.5,0,2.8,0.1,4.1,0.1c1,0,1.8,0,2.4,0l3.7-0.2l-52.4-53h59.8l31.5,33.1l31.9-33.1
		h55.7l-52.7,53l3.7,0.2c0.2,0,0.7,0,1.6,0c1,0,2.4,0,4.2,0c2.1,0,4.7,0,7.2,0c4.9,0,6.7,0,7.2,0.1l0.2,0.1l0.5,0c0,0,0.1,0,0.1,0
		c0.3,0,0.8,0.1,1.3,0.2c0.2,0,0.4,0.1,0.6,0.1c1.1,0.2,2,0.4,2.6,0.7l2.4,1.1v-2.2h27.2v12.4h5.8V55.7h110c4,0,8,1.5,10.9,4.1
		c3.3,3,4.8,6.7,4.8,11.7c0,0.8,0,1.7,0,2.7c0.1,4.4,0.2,9.8-1.8,13.1l-0.8,1.3l23.9,19.1H286.4z"/>
	<path class="st0" d="M440.5,110.1H283.9V96.3h-0.8v13.8H0V46h37.8c4.3,0,8.3,0.5,12,1.5c0.6,0.2,1.2,0.3,1.8,0.5
		c3.8,1.2,7.2,3,10.1,5.4c0.2,0.2,0.4,0.4,0.7,0.6c0.1,0.1,0.2,0.2,0.3,0.3v-1h59.2v0.9c4-1.1,10.6-1,16-0.9c1.6,0,3.1,0.1,4.4,0.1
		L89.5,0h66.8l30.5,31.9L217.7,0h62.8l-52.9,53.2c1,0,2.3,0,3.7,0c11.3,0,14.2,0,15,0.1c0.6,0,1.3,0.1,1.9,0.2
		c0.2,0,0.3,0.1,0.5,0.1c0.8,0.1,1.5,0.3,2.2,0.4v-0.9h32.2v12.4h0.8V53.2l112.5,0c4.7,0,9.2,1.7,12.5,4.8c3.8,3.5,5.6,7.8,5.6,13.5
		c0,0.8,0,1.7,0,2.6c0.1,4.4,0.2,9.9-1.8,13.8L440.5,110.1z M285.6,108.4h150.2l-25.2-20.1l0.4-0.6c2.2-3.5,2.1-9.1,2-13.6
		c0-0.9,0-1.8,0-2.6c0-5.2-1.6-9.1-5.1-12.3c-2.9-2.7-7.2-4.3-11.4-4.3H285.6v12.4h-4.1V54.8h-28.9v1.7l-1.2-0.6
		c-0.7-0.3-1.7-0.6-2.9-0.7c-0.2,0-0.4-0.1-0.6-0.1c-0.5-0.1-1.2-0.2-1.6-0.2l-0.2,0l-0.1-0.1c-1.1-0.2-9.6-0.1-14.7-0.1
		c-3.4,0-5.3,0-5.8,0l-1.9-0.1l52.8-53.1h-58.1l-31.6,32.7L155.6,1.7H93.5L146,54.7l-1.9,0.1c-1.7,0.1-4,0-6.5,0
		c-5.8-0.1-12.9-0.2-16.5,1.2l-1.1,0.5v-1.6H64.2v2l-1-0.1c-0.5-0.1-1.1-0.7-1.3-0.9c-0.3-0.2-0.6-0.5-0.8-0.7
		c-0.2-0.2-0.4-0.4-0.6-0.5c-2.7-2.2-6-3.9-9.6-5.1c-0.6-0.2-1.1-0.4-1.7-0.5c-3.5-0.9-7.4-1.4-11.5-1.4H1.7v60.8h279.8V94.6h4.1
		V108.4z"/>
	<rect x="46.8" y="75.6" class="st1" width="338.7" height="3.1"/>
	<path class="st2" d="M364.8,94.8V62.1h29.3c2.6,0,4.6,0.5,5.9,1.5c1.2,1,1.8,2.6,1.8,4.9v7.6c0,2.2-0.5,3.8-1.8,4.8
		c-1.2,1-3.3,1.5-5.9,1.5h-4.5l15.5,12.4h-11.5L380,82.4h-7.5v12.4H364.8z"/>
	<polygon class="st2" points="317.7,94.8 317.7,62.1 352.8,62.1 352.8,67.8 325.8,67.8 325.8,75 341.6,75 341.6,80.6 325.8,80.6 
		325.8,88.6 353.2,88.6 353.2,94.8 	"/>
	<polygon class="st2" points="262.2,94.8 262.2,62.1 270.3,62.1 270.3,74.5 295.1,74.5 295.1,62.1 303.1,62.1 303.1,94.8 
		295.1,94.8 295.1,81 270.3,81 270.3,94.8 	"/>
	<path class="st2" d="M213.7,94.8V62.1h29.5c2.7,0,4.6,0.5,5.9,1.5c1.2,1,1.8,2.6,1.8,4.9v7.2c0,2.2-0.5,3.8-1.8,4.8
		c-1.2,1.1-3.1,1.5-5.9,1.5h-21.7v12.8H213.7z"/>
	<path class="st2" d="M149.5,68.1h-21.5v20.5h21.5v-7l8,1.6V87c0,3-0.5,5-1.8,6.1c-1.2,1.1-3.4,1.6-6.8,1.6h-20.5
		c-3.3,0-5.5-0.5-6.7-1.6c-1.2-1.1-1.8-3.1-1.8-6.1V69.8c0-3,0.5-5,1.8-6.1c1.1-1.1,3.4-1.6,6.7-1.6h20.5c3.4,0,5.6,0.5,6.8,1.6
		c1.2,1.1,1.8,3.1,1.8,6.1V73l-8,1.1V68.1z"/>
	<polygon class="st2" points="73.8,94.8 73.8,62.1 108.8,62.1 108.8,67.8 81.8,67.8 81.8,75 97.6,75 97.6,80.6 81.8,80.6 81.8,88.6 
		109.2,88.6 109.2,94.8 	"/>
	<path class="st2" d="M11.2,94.8v-40H37c7.2,0,13,1.8,16.8,5.2c4,3.4,6,8.2,6,14.6c0,3.7-0.8,7.1-2.3,10c-1.5,3-3.7,5.3-6.5,7.1
		c-1.6,1.1-3.8,1.9-6.4,2.3c-2.6,0.5-5.9,0.8-10,0.8H11.2z"/>
	<linearGradient id="SVGID_1_" gradientUnits="userSpaceOnUse" x1="184.1612" y1="108.5505" x2="184.1612" y2="9.0114">
		<stop  offset="9.681973e-08" style="stop-color:#882529"/>
		<stop  offset="1" style="stop-color:#FDCD07"/>
	</linearGradient>
	<polygon class="st3" points="172.1,108.6 172.1,63.8 117.7,9 150.4,9 186,46.1 222,9 250.6,9 196.4,63.4 196.4,108.6 	"/>
	<path class="st0" d="M254.3,7.1h-3.7H222l-36,37.1L150.4,7.1h-32.7h-3.8l3.8,3.7l51.9,52.4v45.4v1.9h2.5h24.3h2.5v-1.9V62.8
		l51.7-52L254.3,7.1z M196.4,61.5l-0.1,1.9v43.2h-24V63.8l-0.1-1.9l-50.8-51.1h29.1L186,48l36-37.2h24.8L196.4,61.5z"/>
	<polygon class="st2" points="222,4.8 254.3,4.8 254.3,7.1 251.3,10.1 222,10.1 	"/>
	<polygon class="st2" points="150.4,4.8 113.9,4.8 113.9,7 117.3,10 150.4,10.1 	"/>
</g>
</svg>
