<?xml version="1.0" encoding="utf-8"?>
<!-- Generator: Adobe Illustrator 24.1.2, SVG Export Plug-In . SVG Version: 6.00 Build 0)  -->
<svg version="1.1"
	 id="svg2" inkscape:export-ydpi="350.08963" xmlns:cc="http://creativecommons.org/ns#" xmlns:dc="http://purl.org/dc/elements/1.1/" xmlns:inkscape="http://www.inkscape.org/namespaces/inkscape" xmlns:rdf="http://www.w3.org/1999/02/22-rdf-syntax-ns#" xmlns:sodipodi="http://sodipodi.sourceforge.net/DTD/sodipodi-0.dtd" xmlns:svg="http://www.w3.org/2000/svg"
	 xmlns="http://www.w3.org/2000/svg" xmlns:xlink="http://www.w3.org/1999/xlink" x="0px" y="0px" viewBox="0 0 683.7 218.3"
	 style="enable-background:new 0 0 683.7 218.3;" xml:space="preserve">
<style type="text/css">
	.st0{fill:#FFFFFF;}
	.st1{fill-rule:evenodd;clip-rule:evenodd;fill:#882529;}
	.st2{fill:#FDCD07;}
	.st3{fill:#882529;}
	.st4{fill-rule:evenodd;clip-rule:evenodd;fill:#FDCD07;}
	.st5{fill-rule:evenodd;clip-rule:evenodd;fill:url(#SVGID_1_);}
</style>
<g>
	<circle class="st0" cx="335.6" cy="55.2" r="1.2"/>
	<path class="st1" d="M574.5,1.2c59.5,0,108,48.5,108,108c0,59.3-48.5,107.9-108,107.9c-59.5,0-107.9-48.5-107.9-107.9
		C466.6,49.8,515,1.2,574.5,1.2z"/>
	<path class="st2" d="M651.7,32c-19.8-19.8-47-32-77.2-32c-30,0-57.3,12.3-77,32c-19.8,19.8-32,47-32,77.2c0,30,12.3,57.3,32,77
		s47,32,77,32c30.1,0,57.4-12.3,77.2-32c19.8-19.8,32-47,32-77C683.7,79.1,671.4,51.8,651.7,32z M649.9,184.5
		c-19.4,19.4-46,31.4-75.4,31.4c-29.3,0-56-12-75.4-31.4c-19.2-19.2-31.2-46-31.2-75.3c0-29.5,12-56,31.2-75.4
		c19.4-19.4,46.1-31.4,75.4-31.4c29.5,0,56,12,75.4,31.4c19.4,19.4,31.2,46,31.2,75.4C681.1,138.5,669.2,165.3,649.9,184.5z"/>
	<path class="st2" d="M648.5,35.2c-19-19-45.1-30.7-74-30.7c-28.8,0-55,11.7-73.9,30.7c-19,19-30.7,45.1-30.7,74
		c0,28.8,11.7,55,30.7,73.9c19,19,45.1,30.7,73.9,30.7c28.9,0,55.1-11.7,74-30.7c19-19,30.7-45.1,30.7-73.9
		C679.2,80.3,667.5,54.1,648.5,35.2z M646.7,181.4c-18.5,18.5-44,30-72.3,30c-28.1,0-53.6-11.5-72.1-30c-18.5-18.5-30-44-30-72.1
		c0-28.2,11.5-53.7,30-72.3c18.5-18.5,44-30,72.1-30c28.2,0,53.7,11.5,72.3,30c18.4,18.5,30,44,30,72.3
		C676.7,137.3,665.2,162.8,646.7,181.4z"/>
	<path class="st3" d="M412.7,88.7c2.1-3.9,1.9-9.4,1.8-13.8c0-0.9,0-1.8,0-2.6c0-5.7-1.8-10-5.6-13.5c-3.3-3-7.9-4.8-12.5-4.8
		l-113.3,0h-32.2v0.9c-0.6-0.2-1.4-0.3-2.2-0.4c-0.2,0-0.3-0.1-0.5-0.1c-0.6-0.1-1.3-0.2-1.9-0.2c-0.9-0.1-3.8-0.2-15-0.1
		c-1.4,0-2.7,0-3.7,0l52.9-53.2h-62.8l-30.9,31.9L156.4,0.8H89.5L142.2,54c-1.3,0-2.9,0-4.4-0.1c-5.4-0.1-11.9-0.2-16,0.9V54H62.6v1
		c-0.1-0.1-0.2-0.2-0.3-0.3c-0.2-0.2-0.4-0.4-0.7-0.6c-2.9-2.3-6.3-4.1-10.1-5.4c-0.6-0.2-1.2-0.4-1.8-0.5c-3.6-1-7.7-1.5-12-1.5H0
		v64.1h97.4v0.8h238.5v-0.8h104.6L412.7,88.7z M286.4,108.4V94.6h-5.8v13.8H2.5V49.2h35.3c4.1,0,7.9,0.5,11.3,1.4
		c0.6,0.2,1.1,0.3,1.7,0.5c3.5,1.1,6.7,2.8,9.3,4.9c0.2,0.2,0.4,0.3,0.6,0.5c0.2,0.2,0.5,0.5,0.8,0.7c0.4,0.5,1,1,1.7,1.1l1.9,0.3
		v-2.2h54.2v2l2.3-0.9c2.6-1.1,7.6-1.2,11.1-1.2c1.7,0,3.4,0,5,0.1c1.5,0,2.8,0.1,4.1,0.1c1,0,1.8,0,2.4,0l3.7-0.2l-52.4-53h59.8
		l31.5,33.1l31.9-33.1h55.7l-52.7,53l3.7,0.2c0.2,0,0.7,0,1.6,0c1,0,2.4,0,4.2,0c2.1,0,4.7,0,7.2,0c4.9,0,6.7,0,7.2,0.1l0.2,0.1
		l0.5,0c0,0,0.1,0,0.1,0c0.3,0,0.8,0.1,1.3,0.2c0.2,0,0.4,0.1,0.6,0.1c1.1,0.2,2,0.4,2.6,0.7l2.4,1.1v-2.2h27.2v12.4h5.8V56.5h110
		c4,0,8,1.5,10.9,4.1c3.3,3,4.8,6.7,4.8,11.7c0,0.8,0,1.7,0,2.7c0.1,4.4,0.2,9.8-1.8,13.1l-0.8,1.3l23.9,19.1H286.4z"/>
	<path class="st3" d="M440.5,110.9H283.9V97.1h-0.8v13.8H0V46.8h37.8c4.3,0,8.3,0.5,12,1.5c0.6,0.2,1.2,0.3,1.8,0.5
		c3.8,1.2,7.2,3,10.1,5.4c0.2,0.2,0.4,0.4,0.7,0.6c0.1,0.1,0.2,0.2,0.3,0.3v-1h59.2v0.9c4-1.1,10.6-1,16-0.9c1.6,0,3.1,0.1,4.4,0.1
		L89.5,0.8h66.8l30.5,31.9l30.9-31.9h62.8L227.5,54c1,0,2.3,0,3.7,0c11.3,0,14.2,0,15,0.1c0.6,0,1.3,0.1,1.9,0.2
		c0.2,0,0.3,0.1,0.5,0.1c0.8,0.1,1.5,0.3,2.2,0.4V54h32.2v12.4h0.8V54l112.5,0c4.7,0,9.2,1.7,12.5,4.8c3.8,3.5,5.6,7.8,5.6,13.5
		c0,0.8,0,1.7,0,2.6c0.1,4.4,0.2,9.9-1.8,13.8L440.5,110.9z M285.6,109.2h150.2l-25.2-20.1l0.4-0.6c2.2-3.5,2.1-9.1,2-13.6
		c0-0.9,0-1.8,0-2.6c0-5.2-1.6-9.1-5.1-12.3c-2.9-2.7-7.2-4.3-11.4-4.3H285.6v12.4h-4.1V55.6h-28.9v1.7l-1.2-0.6
		c-0.7-0.3-1.7-0.6-2.9-0.7c-0.2,0-0.4-0.1-0.6-0.1c-0.5-0.1-1.2-0.2-1.6-0.2l-0.2,0l-0.1-0.1c-1.1-0.2-9.6-0.1-14.7-0.1
		c-3.4,0-5.3,0-5.8,0l-1.9-0.1l52.8-53.1h-58.1l-31.6,32.7L155.6,2.5H93.5L146,55.6l-1.9,0.1c-1.7,0.1-4,0-6.5,0
		c-5.8-0.1-12.9-0.2-16.5,1.2l-1.1,0.5v-1.6H64.2v2l-1-0.1c-0.5-0.1-1.1-0.7-1.3-0.9c-0.3-0.2-0.6-0.5-0.8-0.7
		c-0.2-0.2-0.4-0.4-0.6-0.5c-2.7-2.2-6-3.9-9.6-5.1c-0.6-0.2-1.1-0.4-1.7-0.5c-3.5-0.9-7.4-1.4-11.5-1.4H1.7v60.8h279.8V95.4h4.1
		V109.2z"/>
	<rect x="46.8" y="76.4" class="st4" width="338.7" height="3.1"/>
	<path class="st1" d="M364.8,95.6V62.9h29.3c2.6,0,4.6,0.5,5.9,1.5c1.2,1,1.8,2.6,1.8,4.9v7.6c0,2.2-0.5,3.8-1.8,4.8
		c-1.2,1-3.3,1.5-5.9,1.5h-4.5l15.5,12.4h-11.5L380,83.2h-7.5v12.4H364.8z"/>
	<polygon class="st1" points="317.7,95.6 317.7,62.9 352.8,62.9 352.8,68.6 325.8,68.6 325.8,75.8 341.6,75.8 341.6,81.4 
		325.8,81.4 325.8,89.4 353.2,89.4 353.2,95.6 	"/>
	<polygon class="st1" points="262.2,95.6 262.2,62.9 270.3,62.9 270.3,75.3 295.1,75.3 295.1,62.9 303.1,62.9 303.1,95.6 
		295.1,95.6 295.1,81.8 270.3,81.8 270.3,95.6 	"/>
	<path class="st1" d="M213.7,95.6V62.9h29.5c2.7,0,4.6,0.5,5.9,1.5c1.2,1,1.8,2.6,1.8,4.9v7.2c0,2.2-0.5,3.8-1.8,4.8
		c-1.2,1.1-3.1,1.5-5.9,1.5h-21.7v12.8H213.7z"/>
	<path class="st1" d="M149.5,68.9h-21.5v20.5h21.5v-7l8,1.6v3.8c0,3-0.5,5-1.8,6.1c-1.2,1.1-3.4,1.6-6.8,1.6h-20.5
		c-3.3,0-5.5-0.5-6.7-1.6c-1.2-1.1-1.8-3.1-1.8-6.1V70.6c0-3,0.5-5,1.8-6.1c1.1-1.1,3.4-1.6,6.7-1.6h20.5c3.4,0,5.6,0.5,6.8,1.6
		c1.2,1.1,1.8,3.1,1.8,6.1v3.1l-8,1.1V68.9z"/>
	<polygon class="st1" points="73.8,95.6 73.8,62.9 108.8,62.9 108.8,68.6 81.8,68.6 81.8,75.8 97.6,75.8 97.6,81.4 81.8,81.4 
		81.8,89.4 109.2,89.4 109.2,95.6 	"/>
	<path class="st1" d="M11.2,95.6v-40H37c7.2,0,13,1.8,16.8,5.2c4,3.4,6,8.2,6,14.6c0,3.7-0.8,7.1-2.3,10c-1.5,3-3.7,5.3-6.5,7.1
		c-1.6,1.1-3.8,1.9-6.4,2.3c-2.6,0.5-5.9,0.8-10,0.8H11.2z"/>
	<rect x="97.4" y="109.5" class="st1" width="238.5" height="4.2"/>
	<rect x="120.4" y="115.8" class="st1" width="238.5" height="7.4"/>
	<rect x="202.9" y="128.6" class="st1" width="135.4" height="7.4"/>
	<linearGradient id="SVGID_1_" gradientUnits="userSpaceOnUse" x1="184.1612" y1="109.3567" x2="184.1612" y2="9.8176">
		<stop  offset="9.681973e-08" style="stop-color:#882529"/>
		<stop  offset="1" style="stop-color:#FDCD07"/>
	</linearGradient>
	<polygon class="st5" points="172.1,109.4 172.1,64.6 117.7,9.8 150.4,9.8 186,46.9 222,9.8 250.6,9.8 196.4,64.2 196.4,109.4 	"/>
	<path class="st3" d="M254.3,7.9h-3.7H222L186,45L150.4,7.9h-32.7h-3.8l3.8,3.7L169.6,64v45.4v1.9h2.5h24.3h2.5v-1.9V63.6l51.7-52
		L254.3,7.9z M196.4,62.3l-0.1,1.9v43.2h-24V64.6l-0.1-1.9l-50.8-51.1h29.1L186,48.8l36-37.2h24.8L196.4,62.3z"/>
	<polygon class="st1" points="222,5.6 254.3,5.6 254.3,7.9 251.3,10.9 222,10.9 	"/>
	<polygon class="st1" points="150.4,5.6 113.9,5.6 113.9,7.8 117.3,10.8 150.4,10.9 	"/>
	<polygon class="st1" points="438.8,153.8 478.9,153.8 482.2,161.2 438.8,161.2 	"/>
	<path class="st1" d="M205.9,142.9h226.2c8,0,14.7,6.5,14.7,14.6l0,0c0,8-6.7,14.7-14.7,14.7H205.9c-8,0-14.6-6.7-14.6-14.7l0,0
		C191.3,149.4,197.9,142.9,205.9,142.9z"/>
	<path class="st2" d="M270.4,156.3V156c0-1.2-0.3-2-1-2.6c-0.7-0.5-1.6-0.8-2.9-0.8h-0.1c-0.4,0-0.7,0-1,0.1c-0.4,0-0.8,0.1-1.4,0.3
		l-1-0.7v4.1l1.2-1.9c0.1-0.3,0.3-0.4,0.5-0.5s0.5-0.1,1-0.1c0.3,0,0.4,0,0.5,0c0.3,0,0.5,0.1,0.8,0.4c0.3,0.3,0.4,0.8,0.4,1.4
		c-0.4,0.1-0.8,0.3-1.2,0.4c-1.2,0.3-2.2,0.7-2.7,1.1c-0.8,0.7-1.2,1.5-1.2,2.5s0.1,1.6,0.7,2.2c0.5,0.5,1.2,0.8,2,0.8
		c0.4,0,0.8,0,1.2-0.1c0.1-0.1,0.3-0.1,0.4-0.3c0.4-0.1,0.8-0.5,1.2-1.1l0.1,1.4h3l-1-0.8L270.4,156.3z M267,160.8
		c-0.1,0.1-0.4,0.3-0.5,0.4c-0.1,0-0.1,0-0.3,0c-0.4,0-0.7-0.3-1-0.5s-0.4-0.7-0.4-1.2c0-0.7,0.3-1.2,0.7-1.6c0.3-0.3,0.5-0.4,1-0.5
		c0.4-0.3,0.8-0.4,1.4-0.4l0.1,2.9C267.7,160.2,267.3,160.6,267,160.8z"/>
	<path class="st2" d="M259.6,161.2c-0.4,0-0.7-0.1-1-0.4c-0.1-0.1-0.3-0.5-0.3-1l0.1-5.2h2.5v-1.5h-2.3l0.1-2.6
		c-0.3,0.1-1,0.4-2,0.7c-0.4,0.1-0.8,0.3-1.1,0.3l0.1,1.6l-1.2,0.5v1h1.2l0.3,5.9c0,0.7,0.3,1.2,0.7,1.6c0.4,0.3,1,0.5,1.8,0.5
		c0.3,0,0.7-0.1,1.1-0.1c0.4-0.1,1-0.1,1.5-0.3v-1.8c-0.3,0.1-0.5,0.4-0.8,0.4C260.2,161,259.9,161.2,259.6,161.2z"/>
	<path class="st2" d="M252.8,156.3V156c0-1.2-0.3-2-1-2.6c-0.7-0.5-1.6-0.8-2.9-0.8c-0.1,0-0.1,0-0.3,0c-0.3,0-0.5,0-1,0.1
		c-0.4,0-0.8,0.1-1.2,0.3l-1.1-0.7v4.1l1.4-1.9c0.1-0.3,0.3-0.4,0.5-0.5c0.3-0.1,0.5-0.1,1-0.1c0.1,0,0.3,0,0.4,0
		c0.4,0,0.7,0.1,1,0.4c0.3,0.3,0.4,0.8,0.4,1.4c-0.4,0.1-1,0.3-1.4,0.4c-1.1,0.3-2,0.7-2.7,1.1c-0.8,0.7-1.2,1.5-1.2,2.5
		s0.3,1.6,0.8,2.2c0.5,0.5,1.2,0.8,2,0.8c0.4,0,0.8,0,1.1-0.1c0.1-0.1,0.3-0.1,0.4-0.3c0.5-0.1,1-0.5,1.4-1.1v1.4h3.1l-1.1-0.8
		L252.8,156.3z M249.4,160.8c-0.3,0.1-0.4,0.3-0.7,0.4h-0.1c-0.4,0-0.7-0.3-1-0.5s-0.4-0.7-0.4-1.2c0-0.7,0.3-1.2,0.7-1.6
		c0.3-0.3,0.5-0.4,0.8-0.5c0.4-0.3,1-0.4,1.5-0.4l0.1,2.9C250,160.2,249.7,160.6,249.4,160.8z"/>
	<path class="st2" d="M291.5,155.9v-0.3c0-0.8-0.3-1.6-0.8-2c-0.5-0.5-1.4-0.8-2.2-0.8c-0.5,0-1.1,0.1-1.5,0.3
		c-0.4,0.1-0.8,0.4-1.1,0.8c-0.3-0.4-0.5-0.7-1-0.8c-0.3-0.3-0.7-0.3-1.2-0.3c-0.5,0-1,0-1.4,0.3c-0.3,0.3-0.8,0.5-1.2,1.1v-1.5
		l-3.4,0.7l1,1l0.3,7.1l-1,1.1h4.1l-1-1.1v-6c0.1-0.3,0.4-0.4,0.7-0.7c0.1-0.1,0.4-0.1,0.7-0.1c0.4,0,0.7,0.1,1,0.3
		c0.3,0.3,0.4,0.7,0.4,1v5.9l-0.7,0.8h3.7l-0.8-0.8l0.3-6.4c0.3-0.3,0.4-0.5,0.7-0.7c0.1-0.1,0.4-0.1,0.7-0.1c0.4,0,0.7,0.1,0.8,0.3
		c0.3,0.3,0.4,0.7,0.4,1.1v5.9l-0.5,0.8h3.5l-0.8-0.8L291.5,155.9z"/>
	<path class="st2" d="M312.5,151.9c0.4,0,0.8-0.1,1.1-0.4c0.4-0.4,0.5-0.8,0.5-1.2c0-0.5-0.1-1-0.5-1.2c-0.3-0.3-0.7-0.4-1.1-0.4
		c-0.5,0-1,0.1-1.2,0.4s-0.5,0.7-0.5,1.2c0,0.4,0.3,0.8,0.5,1.1C311.6,151.8,312,151.9,312.5,151.9z"/>
	<path class="st2" d="M294.7,151.4c0.3,0.4,0.7,0.5,1.2,0.5c0.4,0,0.8-0.1,1.1-0.4c0.3-0.4,0.4-0.8,0.4-1.2c0-0.5-0.1-1-0.4-1.2
		s-0.7-0.4-1.2-0.4c-0.4,0-0.8,0.1-1.1,0.4c-0.4,0.3-0.5,0.7-0.5,1.2C294.1,150.7,294.3,151.1,294.7,151.4z"/>
	<path class="st2" d="M226,156.3V156c0-1.2-0.3-2-1-2.6c-0.7-0.5-1.6-0.8-2.9-0.8c-0.1,0-0.1,0-0.3,0c-0.3,0-0.5,0-1,0.1
		c-0.4,0-0.8,0.1-1.2,0.3l-1.1-0.7v4.1l1.2-1.9c0.1-0.3,0.4-0.4,0.7-0.5c0.3-0.1,0.5-0.1,1-0.1c0.1,0,0.3,0,0.4,0
		c0.4,0,0.7,0.1,0.8,0.4c0.4,0.3,0.5,0.8,0.5,1.4c-0.4,0.1-1,0.3-1.4,0.4c-1.1,0.3-2,0.7-2.7,1.1c-0.8,0.7-1.2,1.5-1.2,2.5
		s0.3,1.6,0.8,2.2c0.5,0.5,1.2,0.8,2,0.8c0.4,0,0.8,0,1.1-0.1c0.1-0.1,0.3-0.1,0.4-0.3c0.5-0.1,1-0.5,1.4-1.1v1.4h3.1l-1.1-0.8
		L226,156.3z M222.5,160.8c-0.3,0.1-0.4,0.3-0.7,0.4h-0.1c-0.4,0-0.8-0.3-1-0.5c-0.3-0.3-0.4-0.7-0.4-1.2c0-0.7,0.1-1.2,0.7-1.6
		c0.3-0.3,0.5-0.4,0.8-0.5c0.4-0.3,1-0.4,1.5-0.4l0.1,2.9C223.1,160.2,222.8,160.6,222.5,160.8z"/>
	<path class="st2" d="M242.7,148.6L239,149l1.1,1.1l0.1,3.5c-0.4-0.4-0.8-0.7-1.2-0.8c-0.3-0.1-0.5-0.1-0.8-0.3c-0.1,0-0.4,0-0.7,0
		c-1.1,0-2.2,0.4-2.9,1.4c-0.7,1-1.1,2.2-1.1,3.7s0.4,2.6,1.2,3.5c0.7,1,1.8,1.4,3,1.4c0.1,0,0.3,0,0.4,0c0.4,0,0.7-0.1,1-0.3
		c0.5-0.1,1-0.4,1.4-0.7v0.8h2.9l-1-1.1L242.7,148.6z M239.9,160.4c-0.4,0.7-0.8,1-1.5,1h-0.1c-0.5,0-1.1-0.4-1.5-1.1
		c-0.3-0.5-0.5-1.5-0.5-2.7s0.1-2,0.5-2.7c0.3-0.5,0.8-0.8,1.5-0.8s1.2,0.3,1.5,1c0.4,0.7,0.5,1.6,0.5,2.7
		C240.3,158.9,240.1,159.7,239.9,160.4z"/>
	<polygon class="st2" points="313.8,152.7 310.2,153.3 311,154.2 311.4,161.3 310.5,162.4 314.6,162.4 313.6,161.3 	"/>
	<path class="st2" d="M385.8,152.7c-0.3,0-0.7,0-1,0.1c-0.1,0-0.1,0-0.3,0.1c-0.3,0.1-0.7,0.3-1.1,0.7v-1.4l-3.8,1l0.8,0.8l0.5,11.5
		l-1,1h4.1l-1-1.1l0.1-3.8c0.3,0.4,0.7,0.7,1,0.8c0.1,0.1,0.3,0.1,0.5,0.3c0.3,0,0.4,0,0.7,0c1.1,0,2-0.4,2.7-1.4
		c0.7-1,1.1-2.3,1.1-3.8s-0.3-2.6-1-3.5C387.7,153.1,386.9,152.7,385.8,152.7z M386.2,160.5c-0.3,0.5-0.7,0.8-1.4,0.8
		c-0.5,0-0.8-0.3-1.2-1c-0.3-0.5-0.4-1.5-0.4-2.6c0-1.2,0.1-2.2,0.4-2.7c0.3-0.7,0.5-1,1.2-1c0.5,0,1,0.3,1.4,0.8
		c0.3,0.5,0.4,1.5,0.4,2.7S386.4,159.8,386.2,160.5z"/>
	<path class="st2" d="M398.9,156.3V156c0-1.2-0.3-2-1-2.6c-0.7-0.5-1.6-0.8-2.9-0.8c-0.1,0-0.1,0-0.3,0c-0.3,0-0.5,0-1,0.1
		c-0.4,0-0.8,0.1-1.2,0.3l-1-0.7v4.1l1.2-1.9c0.1-0.3,0.3-0.4,0.5-0.5s0.5-0.1,1-0.1c0.1,0,0.3,0,0.4,0c0.4,0,0.7,0.1,1,0.4
		c0.3,0.3,0.4,0.8,0.4,1.4c-0.4,0.1-1,0.3-1.4,0.4c-1.1,0.3-2,0.7-2.6,1.1c-1,0.7-1.4,1.5-1.4,2.5s0.3,1.6,0.8,2.2
		c0.5,0.5,1.2,0.8,2,0.8c0.4,0,0.8,0,1.1-0.1c0.1-0.1,0.3-0.1,0.4-0.3c0.5-0.1,1-0.5,1.4-1.1v1.4h3.1l-1.1-0.8L398.9,156.3z
		 M395.4,160.8c-0.3,0.1-0.4,0.3-0.7,0.4c0,0,0,0-0.1,0c-0.4,0-0.7-0.3-1-0.5s-0.4-0.7-0.4-1.2c0-0.7,0.3-1.2,0.7-1.6
		c0.3-0.3,0.5-0.4,0.8-0.5c0.4-0.3,1-0.4,1.5-0.4l0.1,2.9C396.1,160.2,395.7,160.6,395.4,160.8z"/>
	<polygon class="st2" points="297.1,152.7 293.4,153.3 294.4,154.2 294.7,161.3 293.7,162.4 297.9,162.4 297,161.3 	"/>
	<path class="st2" d="M409.6,155.9v-0.3c0-0.8-0.3-1.5-0.8-2c-0.4-0.5-1.1-0.8-2-0.8c-0.4,0-0.8,0.1-1.2,0.3c-0.4,0.3-1,0.7-1.4,1.1
		v-1.5l-3.5,0.7l1,1l0.3,7.1l-1,1.1h4.2l-1-1.1v-6c0.3-0.3,0.5-0.5,0.8-0.7s0.5-0.1,0.8-0.1s0.7,0.1,0.8,0.4
		c0.3,0.3,0.4,0.7,0.4,1.1l0.1,5.6l-0.7,0.8h3.7l-0.8-0.8L409.6,155.9z"/>
	<path class="st2" d="M377.7,155.9v-0.3c0-0.8-0.3-1.6-0.8-2c-0.5-0.5-1.2-0.8-2.2-0.8c-0.5,0-1,0.1-1.4,0.3
		c-0.4,0.1-0.8,0.4-1.2,0.8c-0.3-0.4-0.5-0.7-0.8-0.8c-0.4-0.3-0.8-0.3-1.4-0.3c-0.4,0-0.8,0-1.2,0.3c-0.4,0.3-0.8,0.5-1.4,1.1v-1.5
		l-3.3,0.7l0.8,1l0.4,7.1l-1,1.1h4l-1-1.1v-6c0.3-0.3,0.4-0.4,0.7-0.7c0.3-0.1,0.5-0.1,0.8-0.1c0.4,0,0.7,0.1,0.8,0.3
		c0.3,0.3,0.4,0.7,0.4,1l0.1,5.9l-0.7,0.8h3.7l-0.8-0.8l0.3-6.4c0.1-0.3,0.3-0.5,0.5-0.7c0.3-0.1,0.4-0.1,0.7-0.1
		c0.4,0,0.7,0.1,1,0.3c0.1,0.3,0.3,0.7,0.3,1.1l0.1,5.9l-0.7,0.8h3.5l-0.7-0.8L377.7,155.9z"/>
	<path class="st2" d="M417.5,153l0.7,0.7l-2.3,6.3l-1.4-6.4l1-0.7h-4.8l0.7,0.7l3.5,8.6v0.3c-0.5,1.6-1.1,2.6-1.5,2.6h-0.1
		c-0.1,0-0.1-0.1-0.3-0.1l-0.7-1.6l-0.8,2.7c0.4,0.1,0.7,0.3,1,0.3c0.3,0.1,0.5,0.1,0.8,0.1c0.3,0,0.7-0.1,1-0.3s0.5-0.4,0.7-0.8
		c0.1-0.1,0.7-1.5,1.8-4.1c1-2.5,2-4.9,3.1-7.4l1.1-0.8H417.5z"/>
	<path class="st2" d="M324.8,155.9v-0.3c0-0.8-0.3-1.5-0.8-2c-0.5-0.5-1.2-0.8-2-0.8c-0.4,0-1,0.1-1.4,0.3c-0.4,0.3-0.8,0.7-1.2,1.1
		v-1.5l-3.5,0.7l1,1l0.3,7.1l-1,1.1h4.1l-0.8-1.1v-6c0.3-0.3,0.5-0.5,0.8-0.7c0.1-0.1,0.4-0.1,0.8-0.1c0.3,0,0.5,0.1,0.8,0.4
		c0.3,0.3,0.4,0.7,0.4,1.1l0.1,5.6l-0.7,0.8h3.7l-0.8-0.8L324.8,155.9z"/>
	<path class="st2" d="M308.2,155.9v-0.3c0-0.8-0.3-1.5-0.8-2c-0.5-0.5-1.2-0.8-2-0.8c-0.5,0-1,0.1-1.4,0.3c-0.4,0.3-0.8,0.7-1.4,1.1
		v-1.5l-3.4,0.7l0.8,1l0.3,7.1l-0.8,1.1h4.1l-1-1.1l0.1-6c0.1-0.3,0.4-0.5,0.7-0.7s0.5-0.1,0.8-0.1c0.4,0,0.7,0.1,1,0.4
		c0.3,0.3,0.4,0.7,0.4,1.1v5.6l-0.7,0.8h3.7l-0.7-0.8L308.2,155.9z"/>
	<path class="st2" d="M333.1,153.5c-0.4-0.3-0.7-0.5-1.1-0.7c-0.1,0-0.3-0.1-0.4-0.1c-0.3-0.1-0.5-0.1-0.8-0.1
		c-1.1,0-1.9,0.4-2.7,1.4c-0.7,1-1.1,2-1.1,3.4c0,1.5,0.4,2.6,1.2,3.5c0.7,0.8,1.8,1.4,3,1.4c0.1,0,0.3,0,0.4-0.1c0.3,0,0.7,0,1-0.1
		c0.4-0.1,0.8-0.4,1.1-0.7c0,0,0,0,0,0.1c0,0,0,0.1,0,0.3c0,1-0.3,1.8-0.8,2.5c-0.3,0.4-0.7,0.7-1.2,0.8c-0.3,0.1-0.5,0.1-0.8,0.1
		c-0.1,0-0.4,0-0.5,0c-0.3-0.1-0.4-0.1-0.7-0.1l-0.7-1.6l-0.7,2.6c0.5,0.1,1.1,0.3,1.5,0.4c0.5,0.1,1,0.1,1.4,0.1c0.1,0,0.4,0,0.5,0
		c1.2-0.1,2.2-0.5,2.9-1.2c0.8-0.8,1.4-1.9,1.4-3.4l0.3-8l1-1h-4V153.5z M333,159.8c-0.4,0.7-0.8,1.1-1.4,1.1s-1-0.3-1.4-1
		c-0.3-0.5-0.4-1.4-0.4-2.5s0.1-1.9,0.4-2.6c0.4-0.7,0.8-1,1.4-1s1,0.3,1.4,1c0.3,0.5,0.4,1.4,0.4,2.3
		C333.4,158.3,333.3,159.1,333,159.8z"/>
	<path class="st2" d="M350.4,160.9c-0.4,0.4-0.8,0.5-1.2,0.5c-0.7,0-1.4-0.4-1.8-1.2c-0.5-0.7-0.8-1.6-0.8-2.9
		c0-1.1,0.3-1.9,0.7-2.6c0.4-0.7,1-1.1,1.6-1.1c0.3,0,0.4,0.1,0.7,0.1c0.1,0.1,0.3,0.3,0.5,0.4l1.2,2v-3.7l-0.8,0.7
		c-0.4-0.3-0.7-0.4-1.1-0.5c-0.3,0-0.7-0.1-1.2-0.1c-1.4,0-2.3,0.5-3.1,1.4c-0.8,1-1.2,2.2-1.2,3.7c0,1.6,0.4,2.7,1.2,3.7
		c0.7,1,1.8,1.4,3.1,1.4c1,0,1.8-0.3,2.5-0.7c0.5-0.5,1-1.4,1.2-2.5l-0.4-0.1C351.3,160.1,350.9,160.6,350.4,160.9z"/>
	<path class="st2" d="M357.9,152.6h-0.1c-1.4,0-2.5,0.5-3.3,1.5c-1,1-1.4,2.2-1.4,3.5c0,1.5,0.4,2.6,1.2,3.5c1,0.8,2,1.4,3.4,1.4
		c0.1,0,0.1,0,0.1,0c1.4,0,2.6-0.5,3.4-1.4c1-1,1.4-2.2,1.4-3.7s-0.4-2.6-1.4-3.5C360.4,153.1,359.3,152.6,357.9,152.6z
		 M359.4,160.4c-0.4,0.7-0.8,1-1.5,1c-0.7,0-1.1-0.3-1.5-1c-0.4-0.7-0.5-1.5-0.5-2.7s0.1-2.2,0.5-2.9c0.3-0.7,0.8-1.1,1.5-1.1
		c0.7,0,1.2,0.4,1.5,1.1c0.4,0.5,0.5,1.6,0.5,2.9S359.7,159.7,359.4,160.4z"/>
	<path class="st4" d="M665.6,78c-0.1-0.8-0.4-1.8-1-2.6c-4.2-4.2-9.8-4.8-16.9-1.4c-8.6,4-17.5,7.9-26.7,11.3
		c-2.9-10.8-6.1-21.1-9.8-31.2c-0.1-0.3-0.3-0.7-0.3-1.2c-5.5-4.5-10.9-9-16.2-13.6c-1.2-1.1-2.6-2.3-4-3.4c-0.3-0.3-0.5-0.4-1-0.4
		c-2.3-1.4-5.6-2-10.1-1.6c-2,0.1-4.2,0.3-6.3,0.3c-1.6,0.1-3.3,0.1-4.9,0.1c-8.6,3.8-16.4,8.6-23,14.3c-2,1.8-3.5,4-4.5,6.8
		c-0.5,1.2-1.1,2.2-1.8,3c-1.2,1.4-3,2.5-5.3,3.1c-0.3,0.1-0.4,0.5-0.7,1.4c-1.9,4.5-2.2,9.3-1,13.8c-0.3,3.4-2,5.5-4.9,6.3
		c-6.1,1.8-10.5,5.2-13.1,10.4c0,0.3,0.1,0.5,0.5,0.8c4.4,7.6,12.5,11.3,24.4,10.9c0.5,0,1.2,0,1.8-0.1c3.7-0.1,6.8-1.1,9.7-2.7
		c2.2-1.4,4.9-2.2,7.9-3c4.9,0,10,0,14.9,0c1.6,0,3.4,0,5,0c0.5,0,1,0,1.2,0c4.4,0.1,8-0.3,11.5-1.1c0.4,0,0.7-0.1,1.1-0.1
		c0-0.4,0-0.8,0-1.2c0.8-0.4,1.8-0.7,2.5-0.8c3-0.8,5.2-0.8,7,0.1l-0.7,0.1c-2.5,0.4-4.5,1.1-6.3,2.2c-0.4,0.3-0.8,0.5-1.2,0.8
		c-6.7,3.1-13.4,6.3-20,9.4c-8.3,4-16.6,8-24.8,12.1c-3,1.5-6.1,3-9.4,4.4c-5.5,2.3-11,4.5-16.9,6.5c-10-8.9-18.1-19.6-24.7-32
		c-2-3.7-3.8-7.5-5.5-11.5c-1.9-4.9-3.7-4.4-5.3,1.4c-1,3.8-2.2,7.5-3.3,10.9c-0.5,7,0,12.7,1.6,17.5c3.1,9,7.2,16.9,12.4,23.9
		c5.2,7.1,11.6,13.1,19,17.9c7,4.8,14.6,8.7,22.6,12.1c0.7,0.3,1.4,0.5,1.9,0.8c9.8,4,20.6,7,32.3,9c6.8,1.1,13.9,2,21.3,2.6
		c2.9,0.1,5.9,0.4,8.7,0.5c6,0.1,10.6-0.8,13.8-3c-1.8-2.7-4.8-4.4-8.6-5.3c-5-1-9.5-2.3-13.9-3.8c0-0.1-0.1-0.1-0.1-0.1
		c-7.4-2.7-14.5-5.7-21.1-9c-10-4.8-19.4-10.1-28.2-16c-1.4-1-3.3-1.5-5.5-2c1.8-2.9,4.6-4.8,8.6-5.7c1-0.4,1.9-0.7,3-1.1
		c7.5-3.3,14.9-6.5,22.1-10c7.2-3.3,14.3-6.7,21.3-10.1c2.3-1.1,4.5-2.2,6.8-3.4c16.6-8.2,33.5-16,50.7-23.3c5.6-2.3,9.8-6,13-10.6
		C665.7,80.3,665.8,79.2,665.6,78z M573.4,37.8c4.6-0.5,9.7-0.3,15.1,0.7c4.4,0.7,4.6,1.6,1.1,2.5c-0.4,0.1-0.8,0.1-1.2,0
		c-1.2-0.4-2.5-0.4-3.7-0.4c-0.4,0-0.7,0-1.2,0c-3.4,0-6.7,0-10.1,0c-0.4,0-0.8,0-1.2,0c-4,0.1-7.1,1.2-9.3,3
		c-1.1,0.7-1.9,1.5-2.7,2.5c-3.3,3.5-5,3.5-5.5-0.5C559.9,41,566.2,38.5,573.4,37.8z M533.6,67.9c0.4,0,0.8,0,1.2,0
		c0-0.4,0-0.7,0-1.2c0-0.8,0-1.6,0-2.5c1.5-0.3,2.5-1.1,3-2.3c0.1-0.1,0.3-0.3,0.7-0.3c0.3,0.4,0.4,0.7,0.7,1c0.5,1,1.1,2,1.6,3
		c0.1,0.3,0.1,0.7,0.1,1.1c0.5-0.4,1-0.8,1.5-1c0.3-0.1,0.7-0.3,1.1-0.3s0.7,0.1,1,0.4c0.1,0,0.3,0.4,0.3,0.8c0.7,6,0.3,11-0.8,15.1
		l-0.4,1.1c-1.1-1.2-2.3-1.2-3.8,0c0,0.5-0.1,0.8-0.3,0.8c0,0.1-0.1,0.3-0.3,0.3c-2.3,1.5-3.8,0.3-4.4-3.5c1.9-0.4,3.3-1.1,4.4-2.2
		c0.1-0.1,0.3-0.3,0.3-0.5c0.1-0.3,0.3-0.5,0.3-1.1c0-0.4,0-0.7,0-1.2c0.5,0,0.8-0.1,1.1-0.3c0.1-0.3,0.1-0.4,0.1-1
		c2.3,4.6,3,3.4,2.7-3.8c-0.1-0.3-0.1-0.7-0.1-1.2c-0.4,0-0.8,0-1.2,0c-0.4,0-0.8,0-1.4,0v-0.5c-0.7,0-1.2,0-1.8-0.1
		c-1.1-0.1-1.8-0.8-1.9-1.8c-0.4,0-0.7,0-1.2,0c0,0.5,0,0.8,0,1.2c0.5,4,0.4,7-0.8,9l-0.4,1C533.4,76.1,532.9,72.8,533.6,67.9z
		 M551,97.9c-3.1,2-7.1,3.1-11.9,3.4c-1.8,0-3.5,0-5.6-0.1c-0.4-0.1-0.8-0.1-1.4-0.1c-8.2,0-12.7-3.7-13.6-10.6
		c4-1.5,7.5-3.4,10.8-5.5c2.5-1.5,3.7-0.5,3.5,3c0,0.4,0.3,0.8,0.5,1.4c1.4,1.9,3.3,3.4,5.7,4.5c2.3,1,4.9,1.5,8,1.6
		c0.3,1.5,1.5,2,3.8,1.8V97.9z M594.7,93.1c-4.9,1.2-10.4,1.9-16.2,2.3c-1.4,0.7-3.1,1.4-5,1.6c-1.8,0.4-3.8,0.5-6.1,0.5
		c-4.8,0-8.5-0.7-11.3-2.2c-0.3,0-0.7,0-1.2,0c-0.7,0-1.6,0-2.5,0c0-0.4,0-0.7-0.1-0.7c-1.1-0.4-2.3-0.7-3.7-0.7c0-0.3,0-0.5,0-0.5
		c-4.1-0.4-7.2-1.5-9.3-3.7c-0.3-0.3-0.4-0.4-0.7-0.7c0.3,0,0.4,0,0.7,0c1.5,0,2.9,0,4.4,0c0.4,0,0.8,0,1.2,0c3.7-1.2,6.1-4,7.4-7.5
		c0.1-0.4,0.1-0.8,0.1-1.2c-0.4,0-0.7,0.1-0.8,0.3c-1.5,2.5-3.7,4-6.7,4.6c0-0.3,0-0.7,0-1.2c2.5-4.1,3.1-9.8,1.9-17.3
		c0,0-0.1-0.1-0.7-0.1c0-0.4,0-0.8,0-1.2c0-0.8,0-1.6,0-2.6c3.3,2.3,5.2,5.9,5.6,11.3c0,0.4,0.1,0.8,0.3,1.4
		c0.3,1.2,0.4,2.3,0.4,3.7c0.5,0,0.7,0,0.7,0c1.4-9.4-0.4-15.5-5.7-18.8v-0.5c-2,0-3-1-2.5-3.1c2.2-2.9,4.8-5.2,7.9-6.8
		c0.3,0,0.4,0.1,0.8,0.5c3.4,3.4,6.5,2.6,9.4-2.2c0.5-1.2,2-1.9,4.4-2c0.4-0.1,0.8-0.3,1.4-0.7c1.2-1.2,2.9-1.9,4.8-2.6
		c0,0,0,0,0.1,0c2.9,0,5.9,0,8.7,0c0.4,0,0.8,0,1.2,0c0.5,0,0.8,0.1,1.2,0.1c3.7,0.7,7,1.6,10,2.9c7.5,3.3,13,8.5,16.2,15.7
		c0.5,4.5,1.5,8.7,2.7,12.5c1.4,4.4,1.8,7.8,1.1,10c-0.4,0-0.8,0.1-1,0.4C608.4,88.4,602,91.2,594.7,93.1z M504.8,140.3
		c-3.4,0-5.9-1-7.2-3c-0.1-0.1-0.3-0.4-0.4-0.5c-3.5-6.1-5.9-13.1-7.4-21.4h-0.7c0-5.3-0.5-10-1.8-13.8c2.7,1.1,3.8,4.1,3.1,8.9
		c0,0.8,0.1,1.6,0.5,2.5c1.6,5.5,3.8,10.4,6.5,14.7c1,1.5,1.9,3,3.1,4.4c1.1,1.5,2.2,2.7,3.5,3.8
		C508.8,139.9,508.9,141.5,504.8,140.3z M594.7,180.5c-3.4,0.4-6,0-7.5-1.5c-0.3,0-0.7,0-1.2,0c-4.1,0.1-7.5-0.7-10-2.5
		c-0.8-0.1-1.8-0.1-2.6-0.3c-12.7-1.6-24.1-4.9-34.2-9.4c-0.5-0.1-1.1-0.4-1.6-0.7c-3.7-1.8-7.4-3.4-11.3-5.2
		c-4.1-1.8-7.5-4.5-10.2-8.2c1.9-1.8,3.8-1.9,5.6-0.4c5.2,4.2,11,7.9,17.6,11c2,1,4.4,1.9,6.5,2.7c8.6,3.3,17.9,6.3,27.7,8.6
		c0.8,0.1,1.8,0.3,2.6,0.5c3.4,0.8,6.7,1.6,10,2.3c0.5,0.1,1,0.1,1.2,0.1c3.4,0,5.9,0.5,7.5,1.5c0.5,0.4,1,0.7,1.4,1.1L594.7,180.5z
		 M568.3,164.4c0.5,0.1,1,0.4,1.5,0.8c1.2,0.7,2.3,1.2,3.5,1.9c4.9,2.5,10.4,4.4,16.4,5.7c1.6,0.8,3.3,1.6,4.9,2.3
		c1.2,0.5,2.5,1.1,3.8,1.5c1.9,0.7,1.6,0.8-1,0.3c-1-0.1-1.9-0.4-2.9-0.5c-3.3-0.7-6.5-1.5-10-2.3c-3.8-0.8-7.6-1.6-11.3-2.6
		c-12.5-3.3-24-7.6-34.2-13.2c-0.3-0.1-0.4-0.3-0.7-0.3c-16.1-8.6-29-20-39.1-34.4c-0.5-1-1.2-2-1.8-3c-4.1-7.1-6.3-15.8-6.5-26.6
		c1.9,4.8,4.1,9.3,6.5,13.5C504,119,512.2,128.9,522,137c5.5,4.5,11.2,8.6,17.2,12.5C548.2,155.2,557.8,160.2,568.3,164.4z
		 M652.3,86.6c-1,0-1.9,0.3-2.9,0.8c-17.3,7.5-34.1,15.3-50.3,23.3c-1.5,0.8-3,1.5-4.5,2.2c-7,3.4-14,6.8-21,10.1
		c-0.1,0-0.3,0.1-0.3,0.1c-8.2,3.8-16.1,7.6-23.9,11.7c-0.7,0.4-1.4,0.7-2.2,0.8c-2.7,1.1-5.6,2.2-8.2,3.4c-1.2,0.5-2.5,1-3.7,1.5
		c-0.4,0.3-1.1,0.3-1.9-0.3c-2.6-1.1-4.6-2.9-6.3-4.9c4-1.9,7.9-3.7,11.9-5.6c11.5-5.3,22.9-10.6,34.2-16c1.4-0.7,2.6-1.2,4-1.9
		c5.9-2.6,11.6-5.5,17.3-8.2c11-5.2,21.8-10.5,32.6-15.8c9.3-4.8,19.4-8.6,30.3-11.3c1.4-0.4,2.9-0.4,4.6,0
		C661.9,82.6,658.5,85.9,652.3,86.6z"/>
</g>
</svg>
