<?xml version="1.0" encoding="utf-8"?>
<!-- Generator: Adobe Illustrator 24.1.2, SVG Export Plug-In . SVG Version: 6.00 Build 0)  -->
<svg version="1.1" id="Layer_1" xmlns="http://www.w3.org/2000/svg" xmlns:xlink="http://www.w3.org/1999/xlink" x="0px" y="0px"
	 viewBox="0 0 144 143.8" style="enable-background:new 0 0 144 143.8;" xml:space="preserve">
<style type="text/css">
	.st0{fill-rule:evenodd;clip-rule:evenodd;fill:#8A2529;}
	.st1{fill:#FFCF01;}
	.st2{fill-rule:evenodd;clip-rule:evenodd;fill:#FFCF01;}
</style>
<g>
	<path class="st0" d="M71.9,0.7c39.3,0,71.2,31.9,71.2,71.2c0,39-31.9,71-71.2,71s-71.2-31.9-71.2-71S32.6,0.7,71.9,0.7z"/>
	<path class="st1" d="M71.9,0L71.9,0v1.6l0,0V0z M71.9,0c19.9,0,37.7,8,50.9,21.2l-1.1,1.1C108.9,9.6,91.3,1.6,71.9,1.6V0L71.9,0z
		 M122.8,21.2c13,13,21.2,31,21.2,50.9h-1.8c0-19.4-7.8-37-20.5-49.7L122.8,21.2L122.8,21.2z M143.8,71.9L143.8,71.9h-1.8l0,0H143.8
		z M143.8,71.9L143.8,71.9h-1.8l0,0H143.8z M143.8,71.9c0,19.9-8,37.7-21.2,50.7l-1.1-1.1c12.8-12.6,20.5-30.4,20.5-49.5H143.8
		L143.8,71.9z M122.8,122.8c-13.2,13-31,21-50.9,21v-1.6c19.4,0,37-8,49.7-20.5L122.8,122.8L122.8,122.8z M71.9,143.8L71.9,143.8
		v-1.6l0,0V143.8z M71.9,143.8L71.9,143.8v-1.6l0,0V143.8z M71.9,143.8c-19.9,0-37.7-8-50.7-21.2l1.1-1.1
		c12.8,12.8,30.4,20.5,49.7,20.5v1.8H71.9z M21.2,122.8C8,109.5,0,91.7,0,71.9h1.6c0,19.4,8,37,20.5,49.5L21.2,122.8L21.2,122.8z
		 M0,71.9L0,71.9h1.6l0,0H0z M0,71.9L0,71.9h1.6l0,0H0z M0,71.9C0,52,8,34.2,21.2,21.2l1.1,1.1C9.6,35.1,1.8,52.7,1.8,72.1H0V71.9z
		 M21.2,21.2C34,8,52,0,71.9,0v1.6c-19.4,0-37,8-49.7,20.8L21.2,21.2L21.2,21.2z M71.9,0L71.9,0v1.6l0,0V0z"/>
	<path class="st1" d="M71.9,3L71.9,3v1.6l0,0V3z M71.9,3c18.9,0,36.3,7.8,48.8,20.3l-1.1,1.1C107.3,12.1,90.4,4.6,71.9,4.6V3L71.9,3
		z M120.5,23c12.6,12.6,20.1,29.7,20.1,48.8h-1.4c0-18.5-7.5-35.4-19.9-47.7L120.5,23L120.5,23z M140.8,71.9L140.8,71.9h-1.6l0,0
		H140.8z M140.8,71.9L140.8,71.9h-1.6l0,0H140.8z M140.8,71.9c0,18.9-7.8,36.3-20.3,48.6l-1.1-1.1c12.3-12.1,19.9-29,19.9-47.5
		H140.8L140.8,71.9z M120.5,120.5c-12.6,12.6-29.7,20.1-48.8,20.1v-1.4c18.5,0,35.4-7.5,47.7-19.9L120.5,120.5L120.5,120.5z
		 M71.9,140.8L71.9,140.8v-1.6l0,0V140.8z M71.9,140.8L71.9,140.8v-1.6l0,0V140.8z M71.9,140.8c-18.9,0-36.3-7.8-48.6-20.3l1.1-1.1
		c12.1,12.3,29,19.9,47.5,19.9V140.8L71.9,140.8z M23,120.5C10.5,107.9,3,90.8,3,71.9h1.6c0,18.5,7.5,35.4,19.9,47.5L23,120.5
		L23,120.5z M3,71.9L3,71.9h1.6l0,0H3z M3,71.9L3,71.9h1.6l0,0H3z M3,71.9C3,52.9,10.7,35.6,23.3,23l1.1,1.1
		C12.1,36.5,4.6,53.4,4.6,71.9H3L3,71.9z M23,23C35.6,10.5,52.7,3,71.7,3v1.6c-18.3,0-35.1,7.5-47.2,19.9L23,23L23,23z M71.9,3
		L71.9,3v1.6l0,0V3z"/>
	<path class="st2" d="M131.9,51.3c0-0.5-0.2-1.1-0.7-1.8c-2.7-2.7-6.4-3.2-11.2-0.9c-5.7,2.5-11.4,5.2-17.6,7.5
		c-1.8-7.1-4.1-13.9-6.4-20.5c0-0.2-0.2-0.5-0.2-0.9c-3.7-3-7.3-5.9-10.7-8.9c-0.7-0.7-1.8-1.6-2.5-2.3c-0.2-0.2-0.5-0.2-0.7-0.2
		c-1.6-0.9-3.7-1.4-6.6-1.1c-1.4,0-2.7,0.2-4.1,0.2c-1.1,0-2.1,0-3.2,0c-5.7,2.7-11,5.9-15.3,9.6c-1.4,1.1-2.3,2.5-3,4.6
		c-0.5,0.7-0.7,1.4-1.1,2.1c-0.9,0.9-2.1,1.6-3.4,2.1c-0.2,0-0.2,0.5-0.5,0.9c-1.1,3-1.4,6.2-0.7,9.1c-0.2,2.3-1.4,3.7-3.2,4.1
		c-4.1,1.1-6.8,3.4-8.7,6.8c0,0.2,0,0.5,0.5,0.5c3,5,8.2,7.5,16,7.1c0.5,0,0.9,0,1.1,0c2.5,0,4.6-0.7,6.4-1.8
		c1.4-0.9,3.2-1.4,5.2-2.1c3.2,0,6.6,0,9.8,0c1.1,0,2.3,0,3.4,0c0.5,0,0.7,0,0.7,0c3,0,5.2-0.2,7.5-0.7c0.2,0,0.5,0,0.7,0
		c0-0.2,0-0.5,0-0.9c0.5-0.2,1.1-0.5,1.6-0.5c2.1-0.5,3.4-0.5,4.6,0h-0.5c-1.6,0.2-3,0.7-4.1,1.4c-0.2,0.2-0.5,0.5-0.7,0.5
		c-4.3,2.1-8.9,4.1-13.2,6.2c-5.5,2.5-11,5.2-16.4,8c-2.1,0.9-4.1,2.1-6.2,3c-3.7,1.6-7.3,3-11.2,4.3c-6.6-5.9-11.9-13-16.2-21.2
		c-1.4-2.5-2.5-5-3.7-7.5c-1.1-3.2-2.5-3-3.4,0.9c-0.7,2.7-1.6,5.2-2.3,7.5c-0.5,4.6,0,8.4,1.1,11.4c2.1,5.9,4.8,11.2,8.2,15.7
		c3.4,4.6,7.5,8.7,12.6,11.9c4.6,3.2,9.6,5.7,14.8,8c0.5,0.2,0.9,0.5,1.1,0.5c6.4,2.5,13.5,4.6,21.2,5.9c4.6,0.7,9.1,1.4,13.9,1.8
		c1.8,0,3.9,0.2,5.7,0.5c3.9,0,7.1-0.5,9.1-2.1c-1.1-1.8-3.2-3-5.7-3.4c-3.4-0.7-6.4-1.6-9.1-2.5l0,0c-4.8-1.8-9.6-3.9-13.9-5.9
		c-6.6-3.2-12.8-6.6-18.5-10.5c-0.9-0.7-2.1-0.9-3.7-1.4c1.1-1.8,3-3.2,5.7-3.9c0.7-0.2,1.1-0.5,2.1-0.7c5-2.1,9.8-4.3,14.6-6.6
		c4.8-2.1,9.4-4.3,13.9-6.6c1.6-0.7,3-1.4,4.6-2.3c11-5.5,22.1-10.5,33.3-15.3c3.7-1.6,6.4-3.9,8.4-7.1
		C131.9,52.9,131.9,52.3,131.9,51.3z M71.2,24.9c3-0.5,6.4-0.2,10,0.5c3,0.5,3,1.1,0.7,1.6c-0.2,0-0.5,0-0.7,0
		c-0.7-0.2-1.6-0.2-2.5-0.2c-0.2,0-0.5,0-0.7,0c-2.3,0-4.3,0-6.6,0c-0.2,0-0.5,0-0.9,0c-2.5,0-4.6,0.9-6.2,2.1
		c-0.7,0.5-1.1,0.9-1.8,1.6c-2.1,2.3-3.4,2.3-3.7-0.5C62.3,26.9,66.4,25.3,71.2,24.9z M45,44.7c0.2,0,0.5,0,0.9,0c0-0.2,0-0.5,0-0.9
		s0-1.1,0-1.6c0.9-0.2,1.6-0.7,2.1-1.6c0,0,0.2-0.2,0.5-0.2c0.2,0.2,0.2,0.5,0.5,0.7c0.5,0.7,0.7,1.4,1.1,2.1c0,0.2,0,0.5,0,0.7
		c0.5-0.2,0.7-0.5,0.9-0.7c0.2,0,0.5-0.2,0.7-0.2s0.5,0,0.7,0.2c0,0,0.2,0.2,0.2,0.5c0.5,3.9,0.2,7.3-0.5,10l-0.2,0.7
		c-0.7-0.9-1.6-0.9-2.5,0c0,0.5,0,0.5-0.2,0.5c0,0,0,0.2-0.2,0.2c-1.6,0.9-2.5,0.2-3-2.3c1.1-0.2,2.1-0.7,3-1.4c0,0,0.2-0.2,0.2-0.5
		s0.2-0.5,0.2-0.7c0-0.2,0-0.5,0-0.9c0.5,0,0.5,0,0.7-0.2c0-0.2,0-0.2,0-0.7c1.6,3,2.1,2.3,1.8-2.5c0-0.2,0-0.5,0-0.9
		c-0.2,0-0.5,0-0.9,0c-0.5,0-0.5,0-0.9,0v-0.5c-0.5,0-0.9,0-1.1,0c-0.7,0-1.1-0.5-1.1-1.1c-0.2,0-0.5,0-0.9,0c0,0.5,0,0.5,0,0.9
		c0.5,2.5,0.2,4.6-0.5,5.9l-0.7,1.1C44.7,50.2,44.5,47.9,45,44.7z M56.4,64.6c-2.1,1.4-4.6,2.1-7.8,2.3c-1.1,0-2.3,0-3.7,0
		c-0.2,0-0.5,0-0.9,0c-5.5,0-8.4-2.5-8.9-7.1c2.5-0.9,5-2.3,7.1-3.7c1.6-0.9,2.5-0.5,2.3,2.1c0,0.2,0.2,0.5,0.5,0.9
		c0.9,1.1,2.1,2.3,3.7,3c1.6,0.7,3.2,0.9,5.2,1.1c0.2,0.9,0.9,1.4,2.5,1.1C56.4,64.4,56.4,64.6,56.4,64.6z M85.1,61.4
		c-3.2,0.9-6.8,1.1-10.7,1.6c-0.9,0.5-2.1,0.9-3.4,1.1c-1.1,0.2-2.5,0.5-4.1,0.5c-3.2,0-5.5-0.5-7.5-1.4c-0.2,0-0.5,0-0.9,0
		c-0.5,0-1.1,0-1.6,0c0-0.2,0-0.5,0-0.5c-0.7-0.2-1.6-0.5-2.5-0.5c0-0.2,0-0.5,0-0.5c-2.7-0.2-4.8-0.9-6.2-2.5
		c-0.2-0.2-0.2-0.2-0.5-0.5c0.2,0,0.2,0,0.5,0c0.9,0,1.8,0,3,0c0.2,0,0.5,0,0.9,0c2.5-0.9,4.1-2.5,4.8-5c0-0.2,0-0.5,0-0.9
		c-0.2,0-0.5,0-0.5,0.2c-0.9,1.6-2.5,2.5-4.3,3c0-0.2,0-0.5,0-0.9c1.6-2.7,2.1-6.4,1.1-11.4c0,0,0,0-0.5,0c0-0.2,0-0.5,0-0.9
		c0-0.5,0-1.1,0-1.8c2.1,1.6,3.4,3.9,3.7,7.5c0,0.2,0,0.5,0.2,0.9c0.2,0.9,0.2,1.6,0.2,2.5c0.5,0,0.5,0,0.5,0
		c0.9-6.2-0.2-10.3-3.7-12.3v-0.5c-1.4,0-2.1-0.7-1.6-2.1c1.4-1.8,3.2-3.4,5.2-4.6c0.2,0,0.2,0,0.5,0.5c2.3,2.3,4.3,1.8,6.2-1.4
		c0.5-0.9,1.4-1.4,3-1.4c0.2,0,0.5-0.2,0.9-0.5c0.9-0.9,1.8-1.4,3.2-1.8l0,0c1.8,0,3.9,0,5.7,0c0.2,0,0.5,0,0.7,0c0.5,0,0.5,0,0.7,0
		c2.5,0.5,4.6,1.1,6.6,1.8c5,2.1,8.4,5.5,10.7,10.3c0.5,3,0.9,5.7,1.8,8.2c0.9,3,1.1,5,0.7,6.6c-0.2,0-0.5,0-0.7,0.2
		C94.3,58.2,89.9,60,85.1,61.4z M26,92.4c-2.3,0-3.9-0.7-4.8-2.1c0,0-0.2-0.2-0.2-0.5c-2.3-4.1-3.9-8.7-4.8-14.1h-0.7
		c0-3.4-0.5-6.6-1.1-9.1c1.8,0.7,2.5,2.7,2.1,5.9c0,0.5,0,1.1,0.5,1.6c1.1,3.7,2.5,6.8,4.3,9.8c0.7,0.9,1.4,2.1,2.1,3
		c0.7,0.9,1.4,1.8,2.3,2.5C28.5,92.2,28.8,93.1,26,92.4z M85.1,118.9c-2.3,0.2-3.9,0-5-0.9c-0.2,0-0.5,0-0.7,0c-2.7,0-5-0.5-6.6-1.6
		c-0.5,0-1.1,0-1.8-0.2c-8.4-1.1-16-3.2-22.6-6.2c-0.5,0-0.7-0.2-1.1-0.5c-2.5-1.1-4.8-2.3-7.5-3.4c-2.7-1.1-5-3-6.6-5.5
		c1.4-1.1,2.5-1.1,3.7-0.2c3.4,2.7,7.3,5.2,11.6,7.3c1.4,0.7,3,1.1,4.3,1.8c5.7,2.1,11.6,4.1,18.3,5.7c0.5,0,1.1,0.2,1.8,0.5
		c2.3,0.5,4.3,1.1,6.6,1.6c0.5,0,0.7,0,0.7,0c2.3,0,3.9,0.5,5,0.9c0.5,0.2,0.7,0.5,0.9,0.7H85.1z M67.8,108.4c0.5,0,0.7,0.2,0.9,0.5
		c0.9,0.5,1.6,0.7,2.3,1.1c3.2,1.6,6.8,3,10.7,3.9c1.1,0.5,2.1,1.1,3.2,1.6c0.7,0.5,1.6,0.7,2.5,0.9c1.1,0.5,1.1,0.5-0.7,0.2
		c-0.7,0-1.1-0.2-1.8-0.5c-2.1-0.5-4.3-0.9-6.6-1.6c-2.5-0.5-5-1.1-7.5-1.8c-8.2-2.1-15.7-5-22.6-8.7c-0.2,0-0.2-0.2-0.5-0.2
		c-10.5-5.7-19.2-13.2-25.8-22.6c-0.5-0.7-0.9-1.4-1.1-2.1c-2.7-4.6-4.1-10.5-4.3-17.6c1.4,3.2,2.7,6.2,4.3,8.9
		c4.3,7.5,9.6,13.9,16,19.4c3.7,3,7.3,5.7,11.4,8.2C54.5,102.2,60.9,105.4,67.8,108.4z M123.2,57.1c-0.7,0-1.1,0.2-1.8,0.5
		c-11.4,5-22.4,10-33.1,15.3c-0.9,0.5-2.1,0.9-3,1.4c-4.6,2.3-9.1,4.6-13.9,6.6h-0.2c-5.5,2.5-10.5,5-15.7,7.8
		C55,88.8,54.5,89,54.1,89c-1.8,0.7-3.7,1.4-5.5,2.3c-0.9,0.5-1.6,0.7-2.5,0.9c-0.2,0.2-0.7,0.2-1.1-0.2c-1.8-0.7-3-1.8-4.1-3.2
		c2.5-1.1,5.2-2.5,7.8-3.7c7.5-3.4,15.1-7.1,22.6-10.5c0.9-0.5,1.8-0.7,2.5-1.1c3.9-1.8,7.5-3.7,11.4-5.5
		c7.3-3.4,14.4-6.8,21.5-10.5c6.2-3.2,12.8-5.7,19.9-7.5c0.9-0.2,1.8-0.2,3,0C129.4,54.5,127.1,56.6,123.2,57.1z"/>
</g>
</svg>
