<?xml version="1.0" encoding="utf-8"?>
<!-- Generator: Adobe Illustrator 24.1.2, SVG Export Plug-In . SVG Version: 6.00 Build 0)  -->
<svg version="1.1" id="Layer_1" xmlns="http://www.w3.org/2000/svg" xmlns:xlink="http://www.w3.org/1999/xlink" x="0px" y="0px"
	 viewBox="0 0 115.27 115.27" style="enable-background:new 0 0 115.27 115.27;" xml:space="preserve">
<style type="text/css">
	.st0{fill-rule:evenodd;clip-rule:evenodd;fill:#B5B5B6;}
</style>
<path class="st0" d="M98.35,16.92C87.91,6.48,73.51,0,57.6,0C41.76,0,27.36,6.48,16.92,16.92S0,41.76,0,57.67
	c0,15.84,6.48,30.24,16.92,40.68s24.84,16.92,40.68,16.92c15.91,0,30.31-6.48,40.75-16.92s16.92-24.84,16.92-40.68
	C115.27,41.76,108.79,27.36,98.35,16.92z M97.42,97.42c-10.22,10.22-24.26,16.56-39.82,16.56c-15.48,0-29.59-6.34-39.82-16.56
	C7.63,87.26,1.3,73.15,1.3,57.67c0-15.55,6.34-29.59,16.49-39.82C28.01,7.63,42.12,1.3,57.6,1.3c15.55,0,29.59,6.34,39.82,16.56
	s16.49,24.26,16.49,39.82C113.9,73.15,107.64,87.26,97.42,97.42z M57.6,2.38c-15.19,0-29.02,6.19-39.02,16.2s-16.2,23.83-16.2,39.1
	c0,15.19,6.19,29.02,16.2,39.02s23.83,16.2,39.02,16.2c15.26,0,29.09-6.19,39.1-16.2s16.2-23.83,16.2-39.02
	c0-15.26-6.19-29.09-16.2-39.1S72.86,2.38,57.6,2.38z M111.6,57.67c0,14.83-6.12,28.3-15.84,38.09
	c-9.79,9.79-23.26,15.84-38.16,15.84c-14.83,0-28.3-6.05-38.09-15.84S3.67,72.5,3.67,57.67c0-14.9,6.05-28.37,15.84-38.16
	S42.77,3.67,57.6,3.67c14.9,0,28.37,6.05,38.16,15.84C105.48,29.3,111.6,42.77,111.6,57.67z M76.97,28.58
	c-0.07-0.14-0.14-0.36-0.14-0.65c-2.88-2.38-5.76-4.75-8.57-7.2c-0.65-0.58-1.37-1.22-2.09-1.8c-0.14-0.14-0.29-0.22-0.5-0.22
	c-1.22-0.72-2.95-1.08-5.33-0.86C59.26,17.93,58.1,18,57.02,18c-0.86,0.07-1.73,0.07-2.59,0.07c-4.54,2.02-8.64,4.54-12.17,7.56
	c-1.08,0.94-1.87,2.09-2.38,3.6c-0.29,0.65-0.58,1.15-0.94,1.58c-0.65,0.72-1.58,1.3-2.81,1.66c-0.14,0.07-0.22,0.29-0.36,0.72
	c-1.01,2.38-1.15,4.9-0.5,7.27c-0.14,1.8-1.08,2.88-2.59,3.31c-3.24,0.94-5.54,2.74-6.91,5.47c0,0.14,0.07,0.29,0.29,0.43
	c2.3,4.03,6.62,5.98,12.89,5.76c0.29,0,0.65,0,0.94-0.07c1.94-0.07,3.6-0.58,5.11-1.44c1.15-0.72,2.59-1.15,4.18-1.58
	c2.59,0,5.26,0,7.85,0c0.86,0,1.8,0,2.66,0c0.29,0,0.5,0,0.65,0c2.3,0.07,4.25-0.14,6.05-0.58c0.22,0,0.36-0.07,0.58-0.07
	c0-0.22,0-0.43,0-0.65c0.43-0.22,0.94-0.36,1.3-0.43c1.58-0.43,2.74-0.43,3.67,0.07l-0.36,0.07c-1.3,0.22-2.38,0.58-3.31,1.15
	c-0.22,0.14-0.43,0.29-0.65,0.43c-3.53,1.66-7.06,3.31-10.58,4.97c-4.39,2.09-8.78,4.25-13.1,6.41c-1.58,0.79-3.24,1.58-4.97,2.3
	c-2.88,1.22-5.83,2.38-8.93,3.46c-5.26-4.68-9.58-10.37-13.03-16.92c-1.08-1.94-2.02-3.96-2.88-6.05c-1.01-2.59-1.94-2.3-2.81,0.72
	c-0.5,2.02-1.15,3.96-1.73,5.76c-0.29,3.67,0,6.7,0.86,9.22c1.66,4.75,3.82,8.93,6.55,12.6c2.74,3.74,6.12,6.91,10.01,9.43
	c3.67,2.52,7.7,4.61,11.95,6.41c0.36,0.14,0.72,0.29,1.01,0.43c5.18,2.09,10.87,3.67,17.06,4.75c3.6,0.58,7.34,1.08,11.23,1.37
	c1.51,0.07,3.1,0.22,4.61,0.29c3.17,0.07,5.62-0.43,7.27-1.58c-0.94-1.44-2.52-2.3-4.54-2.81c-2.66-0.5-5.04-1.22-7.34-2.02
	c0-0.07-0.07-0.07-0.07-0.07c-3.89-1.44-7.63-3.02-11.16-4.75c-5.26-2.52-10.22-5.33-14.9-8.42c-0.72-0.5-1.73-0.79-2.88-1.08
	c0.94-1.51,2.45-2.52,4.54-3.02c0.5-0.22,1.01-0.36,1.58-0.58c3.96-1.73,7.85-3.46,11.66-5.26c3.82-1.73,7.56-3.53,11.23-5.33
	c1.22-0.58,2.38-1.15,3.6-1.8c8.78-4.32,17.71-8.42,26.78-12.31c2.95-1.22,5.18-3.17,6.84-5.62c0.29-0.43,0.36-1.01,0.22-1.66
	c-0.07-0.43-0.22-0.94-0.5-1.37c-2.23-2.23-5.18-2.52-8.93-0.72c-4.54,2.09-9.22,4.18-14.11,5.98
	C80.64,39.38,78.91,33.91,76.97,28.58z M57.02,19.94c2.45-0.29,5.11-0.14,7.99,0.36c2.3,0.36,2.45,0.86,0.58,1.3
	c-0.22,0.07-0.43,0.07-0.65,0c-0.65-0.22-1.3-0.22-1.94-0.22c-0.22,0-0.36,0-0.65,0c-1.8,0-3.53,0-5.33,0c-0.22,0-0.43,0-0.65,0
	c-2.09,0.07-3.74,0.65-4.9,1.58c-0.58,0.36-1.01,0.79-1.44,1.3c-1.73,1.87-2.66,1.87-2.88-0.29C49.9,21.67,53.21,20.3,57.02,19.94z
	 M36,35.86c0.22,0,0.43,0,0.65,0c0-0.22,0-0.36,0-0.65c0-0.43,0-0.86,0-1.3c0.79-0.14,1.3-0.58,1.58-1.22
	c0.07-0.07,0.14-0.14,0.36-0.14c0.14,0.22,0.22,0.36,0.36,0.5c0.29,0.5,0.58,1.08,0.86,1.58c0.07,0.14,0.07,0.36,0.07,0.58
	c0.29-0.22,0.5-0.43,0.79-0.5c0.14-0.07,0.36-0.14,0.58-0.14s0.36,0.07,0.5,0.22c0.07,0,0.14,0.22,0.14,0.43
	c0.36,3.17,0.14,5.83-0.43,7.99l-0.22,0.58c-0.58-0.65-1.22-0.65-2.02,0c0,0.29-0.07,0.43-0.14,0.43c0,0.07-0.07,0.14-0.14,0.14
	c-1.22,0.79-2.02,0.14-2.3-1.87c1.01-0.22,1.73-0.58,2.3-1.15c0.07-0.07,0.14-0.14,0.14-0.29c0.07-0.14,0.14-0.29,0.14-0.58
	c0-0.22,0-0.36,0-0.65c0.29,0,0.43-0.07,0.58-0.14c0.07-0.14,0.07-0.22,0.07-0.5c1.22,2.45,1.58,1.8,1.44-2.02
	c-0.07-0.14-0.07-0.36-0.07-0.65c-0.22,0-0.43,0-0.65,0s-0.43,0-0.72,0v-0.29c-0.36,0-0.65,0-0.94-0.07
	c-0.58-0.07-0.94-0.43-1.01-0.94c-0.22,0-0.36,0-0.65,0c0,0.29,0,0.43,0,0.65c0.29,2.09,0.22,3.67-0.43,4.75l-0.22,0.5
	C35.93,40.18,35.64,38.45,36,35.86z M45.22,51.7c-1.66,1.08-3.74,1.66-6.26,1.8c-0.94,0-1.87,0-2.95-0.07
	c-0.22-0.07-0.43-0.07-0.72-0.07c-4.32,0-6.7-1.94-7.2-5.62c2.09-0.79,3.96-1.8,5.69-2.88c1.3-0.79,1.94-0.29,1.87,1.58
	c0,0.22,0.14,0.43,0.29,0.72c0.72,1.01,1.73,1.8,3.02,2.38c1.22,0.5,2.59,0.79,4.25,0.86c0.14,0.79,0.79,1.08,2.02,0.94V51.7z
	 M68.26,49.18c-2.59,0.65-5.47,1.01-8.57,1.22c-0.72,0.36-1.66,0.72-2.66,0.86c-0.94,0.22-2.02,0.29-3.24,0.29
	c-2.52,0-4.46-0.36-5.98-1.15c-0.14,0-0.36,0-0.65,0c-0.36,0-0.86,0-1.3,0c0-0.22,0-0.36-0.07-0.36c-0.58-0.22-1.22-0.36-1.94-0.36
	c0-0.14,0-0.29,0-0.29c-2.16-0.22-3.82-0.79-4.9-1.94c-0.14-0.14-0.22-0.22-0.36-0.36c0.14,0,0.22,0,0.36,0c0.79,0,1.51,0,2.3,0
	c0.22,0,0.43,0,0.65,0c1.94-0.65,3.24-2.09,3.89-3.96c0.07-0.22,0.07-0.43,0.07-0.65c-0.22,0-0.36,0.07-0.43,0.14
	c-0.79,1.3-1.94,2.09-3.53,2.45c0-0.14,0-0.36,0-0.65c1.3-2.16,1.66-5.18,1.01-9.14c0,0-0.07-0.07-0.36-0.07c0-0.22,0-0.43,0-0.65
	c0-0.43,0-0.86,0-1.37c1.73,1.22,2.74,3.1,2.95,5.98c0,0.22,0.07,0.43,0.14,0.72c0.14,0.65,0.22,1.22,0.22,1.94
	c0.29,0,0.36,0,0.36,0c0.72-4.97-0.22-8.21-3.02-9.94v-0.29c-1.08,0-1.58-0.5-1.3-1.66c1.15-1.51,2.52-2.74,4.18-3.6
	c0.14,0,0.22,0.07,0.43,0.29c1.8,1.8,3.46,1.37,4.97-1.15c0.29-0.65,1.08-1.01,2.3-1.08c0.22-0.07,0.43-0.14,0.72-0.36
	c0.65-0.65,1.51-1.01,2.52-1.37c0,0,0,0,0.07,0c1.51,0,3.1,0,4.61,0c0.22,0,0.43,0,0.65,0c0.29,0,0.43,0.07,0.65,0.07
	c1.94,0.36,3.67,0.86,5.26,1.51c3.96,1.73,6.84,4.46,8.57,8.28c0.29,2.38,0.79,4.61,1.44,6.62c0.72,2.3,0.94,4.1,0.58,5.26
	c-0.22,0-0.43,0.07-0.5,0.22C75.53,46.66,72.14,48.17,68.26,49.18z M20.81,74.09c-1.8,0-3.1-0.5-3.82-1.58
	c-0.07-0.07-0.14-0.22-0.22-0.29c-1.87-3.24-3.1-6.91-3.89-11.3h-0.36c0-2.81-0.29-5.26-0.94-7.27c1.44,0.58,2.02,2.16,1.66,4.68
	c0,0.43,0.07,0.86,0.29,1.3c0.86,2.88,2.02,5.47,3.46,7.78c0.5,0.79,1.01,1.58,1.66,2.3c0.58,0.79,1.15,1.44,1.87,2.02
	C22.9,73.87,22.97,74.74,20.81,74.09z M68.26,95.33c-1.8,0.22-3.17,0-3.96-0.79c-0.14,0-0.36,0-0.65,0
	c-2.16,0.07-3.96-0.36-5.26-1.3c-0.43-0.07-0.94-0.07-1.37-0.14c-6.7-0.86-12.74-2.59-18.07-4.97c-0.29-0.07-0.58-0.22-0.86-0.36
	c-1.94-0.94-3.89-1.8-5.98-2.74c-2.16-0.94-3.96-2.38-5.4-4.32c1.01-0.94,2.02-1.01,2.95-0.22c2.74,2.23,5.83,4.18,9.29,5.83
	c1.08,0.5,2.3,1.01,3.46,1.44c4.54,1.73,9.43,3.31,14.62,4.54c0.43,0.07,0.94,0.14,1.37,0.29c1.8,0.43,3.53,0.86,5.26,1.22
	c0.29,0.07,0.5,0.07,0.65,0.07c1.8,0,3.1,0.29,3.96,0.79c0.29,0.22,0.5,0.36,0.72,0.58L68.26,95.33z M54.36,86.83
	c0.29,0.07,0.5,0.22,0.79,0.43c0.65,0.36,1.22,0.65,1.87,1.01c2.59,1.3,5.47,2.3,8.64,3.02c0.86,0.43,1.73,0.86,2.59,1.22
	c0.65,0.29,1.3,0.58,2.02,0.79c1.01,0.36,0.86,0.43-0.5,0.14c-0.5-0.07-1.01-0.22-1.51-0.29c-1.73-0.36-3.46-0.79-5.26-1.22
	c-2.02-0.43-4.03-0.86-5.98-1.37c-6.62-1.73-12.67-4.03-18.07-6.98c-0.14-0.07-0.22-0.14-0.36-0.14
	c-8.5-4.54-15.34-10.58-20.66-18.14c-0.29-0.5-0.65-1.08-0.94-1.58c-2.16-3.74-3.31-8.35-3.46-14.04c1.01,2.52,2.16,4.9,3.46,7.13
	c3.38,6.05,7.7,11.23,12.89,15.55c2.88,2.38,5.9,4.54,9.07,6.62C43.7,81.94,48.82,84.6,54.36,86.83z M101.45,40.46
	c0.72-0.22,1.51-0.22,2.45,0c-0.14,3.17-1.94,4.9-5.18,5.26c-0.5,0-1.01,0.14-1.51,0.43c-9.14,3.96-18,8.06-26.57,12.31
	c-0.79,0.43-1.58,0.79-2.38,1.15c-3.67,1.8-7.42,3.6-11.09,5.33c-0.07,0-0.14,0.07-0.14,0.07c-4.32,2.02-8.5,4.03-12.6,6.19
	c-0.36,0.22-0.72,0.36-1.15,0.43c-1.44,0.58-2.95,1.15-4.32,1.8c-0.65,0.29-1.3,0.5-1.94,0.79c-0.22,0.14-0.58,0.14-1.01-0.14
	c-1.37-0.58-2.45-1.51-3.31-2.59c2.09-1.01,4.18-1.94,6.26-2.95c6.05-2.81,12.1-5.62,18.07-8.42c0.72-0.36,1.37-0.65,2.09-1.01
	c3.1-1.37,6.12-2.88,9.14-4.32c5.83-2.74,11.52-5.54,17.21-8.35C90.36,43.92,95.69,41.9,101.45,40.46z"/>
</svg>
