<svg width="848" height="663" viewBox="0 0 848 663" fill="none" xmlns="http://www.w3.org/2000/svg">
<path d="M643.111 353.995C643.111 477.525 542.996 577.665 419.497 577.665C295.998 577.665 195.883 477.525 195.883 353.995C195.883 230.465 296 130.325 419.499 130.325C542.998 130.325 643.111 230.465 643.111 353.995ZM419.499 109.342C284.414 109.342 174.908 218.877 174.908 353.993C174.908 489.11 284.416 598.645 419.499 598.645C554.581 598.645 664.089 489.11 664.089 353.993C664.089 218.877 554.581 109.342 419.499 109.342Z" fill="#FFB17F"/>
<path d="M190.415 368.014C178.643 368.014 167.219 365.706 156.46 361.154C146.072 356.76 136.744 350.469 128.735 342.459C120.728 334.448 114.438 325.119 110.045 314.728C105.495 303.966 103.188 292.539 103.188 280.765C103.188 268.99 105.495 257.563 110.045 246.801C114.438 236.411 120.728 227.081 128.735 219.07C136.743 211.06 146.072 204.769 156.46 200.375C167.219 195.823 178.643 193.516 190.415 193.516C202.186 193.516 213.611 195.823 224.37 200.375C234.758 204.769 244.085 211.06 252.094 219.07C260.103 227.079 266.391 236.411 270.784 246.801C275.335 257.563 277.642 268.99 277.642 280.765C277.642 292.539 275.335 303.966 270.784 314.728C266.391 325.119 260.102 334.448 252.094 342.459C244.085 350.469 234.758 356.76 224.37 361.154C213.611 365.706 202.188 368.014 190.415 368.014Z" fill="white"/>
<path d="M190.414 360.05C234.192 360.05 269.68 324.553 269.68 280.764C269.68 236.976 234.192 201.479 190.414 201.479C146.637 201.479 111.148 236.976 111.148 280.764C111.148 324.553 146.637 360.05 190.414 360.05Z" fill="white" stroke="#EFF2F7" stroke-width="3" stroke-miterlimit="10"/>
<path d="M190.416 345.603C226.217 345.603 255.239 316.574 255.239 280.765C255.239 244.955 226.217 215.926 190.416 215.926C154.616 215.926 125.594 244.955 125.594 280.765C125.594 316.574 154.616 345.603 190.416 345.603Z" fill="#EFF2F7"/>
<path d="M190.414 258.42C191.829 258.42 193.137 259.168 193.855 260.395L215.396 297.104C216.124 298.342 216.124 299.867 215.417 301.105C214.709 302.342 213.382 303.11 211.957 303.11H168.875C167.449 303.11 166.122 302.342 165.415 301.105C164.707 299.867 164.718 298.332 165.436 297.104L186.978 260.395C187.691 259.168 188.998 258.42 190.414 258.42ZM188.029 273.666V284.748C188.029 286.014 188.994 287.097 190.256 287.182C191.659 287.276 192.817 286.175 192.817 284.793V273.62C192.817 272.238 191.659 271.137 190.256 271.231C188.994 271.317 188.029 272.4 188.029 273.666ZM193.605 293.572C193.605 291.805 192.178 290.38 190.414 290.38C188.648 290.38 187.223 291.807 187.223 293.572C187.223 295.338 188.65 296.763 190.414 296.763C192.18 296.763 193.605 295.336 193.605 293.572Z" fill="#666666"/>
<path d="M78.3074 304.017C76.8441 304.017 75.4397 303.796 74.1134 303.358C73.1915 303.732 72.182 303.938 71.1263 303.938H38.7875C37.9117 303.938 37.0678 303.796 36.2797 303.535C35.4915 303.796 34.6476 303.938 33.7719 303.938H31.5905C30.8309 303.938 30.0969 303.831 29.4011 303.634C28.7053 303.833 27.9712 303.938 27.2117 303.938H19.3619C18.2792 303.938 17.2474 303.721 16.3063 303.331C14.9752 303.735 13.5581 303.938 12.0693 303.938H7.96131C3.56507 303.938 0 300.372 0 295.974V284.667C0 281.206 2.20847 278.259 5.29108 277.162C5.25287 276.135 5.4121 275.096 5.77832 274.106L9.95004 262.798C11.1044 259.67 14.0851 257.591 17.4193 257.591H19.6485C20.5863 257.591 21.4955 257.755 22.3442 258.061C23.1881 257.757 24.0973 257.591 25.0463 257.591H26.8137C27.8295 257.591 28.8231 257.786 29.745 258.15C30.6431 257.8 31.6191 257.607 32.6413 257.607H34.8228C35.8864 257.607 36.9007 257.816 37.8273 258.193C39.1776 257.739 40.5979 257.512 42.0675 257.512C43.5181 257.512 44.9129 257.735 46.2361 258.174C47.1612 257.798 48.1723 257.591 49.2327 257.591H51.6052C52.7819 257.591 53.9187 257.851 54.9489 258.327C55.9791 257.851 57.116 257.591 58.2927 257.591H60.6492C61.603 257.591 62.5185 257.759 63.3672 258.068C64.2207 257.759 65.1362 257.591 66.0788 257.591H68.308C69.2458 257.591 70.155 257.755 71.0037 258.061C71.8476 257.757 72.7568 257.591 73.7058 257.591H75.9031C76.661 257.591 77.3934 257.698 78.0877 257.896C78.7867 257.696 79.5191 257.591 80.2659 257.591H82.6384C83.6144 257.591 84.565 257.77 85.4487 258.104C86.3324 257.77 87.283 257.591 88.259 257.591H90.6315C93.4562 257.591 96.0675 259.088 97.4973 261.524C98.9272 263.96 98.959 266.971 97.5817 269.438L94.4848 274.986V276.719H95.2968C99.6931 276.719 103.258 280.285 103.258 284.682V295.974C103.258 300.372 99.6931 303.938 95.2968 303.938H93.4816C92.4849 303.938 91.5104 303.751 90.6028 303.399C89.708 303.747 88.7351 303.938 87.7177 303.938H85.5203C84.4567 303.938 83.4408 303.729 82.5126 303.35C81.1735 303.793 79.7659 304.017 78.3074 304.017Z" fill="white"/>
<path d="M16.4525 274.043H20.6035L21.5429 276.862H23.8039L19.6481 265.554H17.419L13.2472 276.862H15.5083L16.4525 274.043ZM18.5336 267.832L20.0892 272.498H16.9715L18.5336 267.832ZM33.0072 276.862L27.2432 269.6V276.862H25.0459V265.554H26.8133L32.641 273.008V265.57H34.8224V276.862H33.0072ZM47.1385 269.138C46.879 268.458 46.5096 267.843 46.0319 267.29C45.5542 266.739 44.9778 266.298 44.3043 265.968C43.6308 265.639 42.884 265.475 42.0672 265.475C41.271 265.475 40.5338 265.631 39.8539 265.944C39.174 266.258 38.5881 266.682 38.0945 267.219C37.6009 267.755 37.214 268.365 36.9321 269.05C36.6503 269.735 36.5102 270.455 36.5102 271.208C36.5102 271.93 36.6423 272.634 36.9082 273.318C37.1742 274.003 37.5499 274.62 38.0387 275.166C38.5276 275.712 39.1056 276.145 39.7743 276.464C40.4431 276.782 41.1914 276.942 42.0194 276.942C42.8155 276.942 43.5512 276.787 44.2247 276.48C44.8982 276.172 45.4826 275.75 45.9762 275.214C46.4698 274.677 46.8519 274.067 47.1226 273.382C47.3933 272.697 47.5286 271.984 47.5286 271.24C47.5286 270.519 47.3981 269.818 47.1385 269.138ZM45.1084 272.578C44.9699 273.035 44.7613 273.443 44.4795 273.804C44.1976 274.166 43.8553 274.454 43.4524 274.672C43.0496 274.89 42.5767 274.999 42.0353 274.999C41.5147 274.999 41.0513 274.895 40.6421 274.688C40.2329 274.481 39.889 274.199 39.6071 273.844C39.3253 273.489 39.1103 273.083 38.9623 272.626C38.8142 272.169 38.7393 271.697 38.7393 271.208C38.7393 270.742 38.811 270.281 38.9543 269.831C39.0976 269.38 39.3094 268.975 39.5912 268.62C39.873 268.265 40.217 267.978 40.6262 267.76C41.0354 267.542 41.4987 267.434 42.0194 267.434C42.5401 267.434 43.0018 267.537 43.4047 267.744C43.8075 267.951 44.153 268.233 44.4396 268.588C44.7262 268.943 44.9444 269.348 45.0925 269.799C45.2406 270.249 45.3154 270.721 45.3154 271.208C45.3154 271.665 45.2453 272.121 45.1084 272.578ZM51.4297 276.862H49.2323V265.554H51.6048L54.9326 271.973L58.2923 265.554H60.6489V276.862H58.4675V269.44L55.5536 274.967H54.3276L51.4297 269.44V276.862ZM66.0785 265.554L61.9067 276.862H64.1678L65.112 274.043H69.263L70.2024 276.862H72.4634L68.3076 265.554H66.0785ZM65.6295 272.498L67.1931 267.832L68.7487 272.498H65.6295ZM81.6667 276.862H73.7054V265.554H75.9027V274.935H81.6667V276.862ZM84.3417 276.862V272.88L80.2655 265.554H82.638L85.4244 270.874L88.2587 265.554H90.6311L86.5231 272.912V276.862H84.3417ZM15.158 285.423C14.33 284.918 13.2998 284.666 12.069 284.666H7.96094V295.974H12.069C13.2043 295.974 14.1899 295.74 15.0226 295.273C15.8554 294.807 16.5002 294.147 16.9572 293.298C17.4142 292.449 17.6419 291.451 17.6419 290.304C17.6419 289.264 17.4349 288.317 17.0209 287.461C16.6069 286.606 15.9859 285.928 15.158 285.423ZM15.0385 292.215C14.779 292.778 14.4016 293.224 13.908 293.553C13.4144 293.883 12.8014 294.047 12.069 294.047H10.1583V286.593H12.069C12.7807 286.593 13.3858 286.749 13.8841 287.063C14.3825 287.377 14.7647 287.812 15.0306 288.369C15.2965 288.927 15.4286 289.572 15.4286 290.304C15.4286 291.016 15.2981 291.653 15.0385 292.215ZM21.5588 294.047H27.2114V295.974H19.3615V284.666H27.0681V286.593H21.5588V289.317H26.3038V291.1H21.5588V294.047ZM27.9597 284.666H37.37V286.593H33.7715V295.974H31.5901V286.593H27.9597V284.666ZM40.9844 294.047H46.637V295.974H38.7871V284.666H46.4937V286.593H40.9844V289.317H45.7294V291.1H40.9844V294.047ZM55.8084 292.375L57.5917 293.426C57.3577 293.988 56.9898 294.466 56.4851 294.859C55.9804 295.253 55.4183 295.549 54.7973 295.751C54.1763 295.953 53.5585 296.054 52.9423 296.054C52.135 296.054 51.401 295.886 50.737 295.552C50.0731 295.218 49.4983 294.772 49.0094 294.214C48.5206 293.657 48.1416 293.031 47.871 292.335C47.6003 291.639 47.4649 290.936 47.4649 290.225C47.4649 289.524 47.5891 288.842 47.8391 288.178C48.0891 287.514 48.4553 286.912 48.9378 286.37C49.4202 285.829 50.0078 285.396 50.6972 285.072C51.3867 284.749 52.1669 284.587 53.0379 284.587C54.0776 284.587 54.9772 284.814 55.7367 285.271C56.4962 285.728 57.0551 286.323 57.4166 287.055L55.7447 288.218C55.5536 287.793 55.3036 287.458 54.9963 287.214C54.689 286.971 54.3562 286.796 54.0012 286.689C53.6461 286.582 53.3038 286.53 52.9742 286.53C52.4216 286.53 51.9424 286.641 51.5332 286.864C51.124 287.087 50.7848 287.378 50.5141 287.74C50.2434 288.102 50.0396 288.504 49.9011 288.95C49.7626 289.396 49.6941 289.847 49.6941 290.304C49.6941 290.793 49.7737 291.268 49.9329 291.73C50.0922 292.191 50.3183 292.601 50.6097 292.956C50.901 293.311 51.2513 293.593 51.6605 293.8C52.0698 294.007 52.5172 294.111 53.006 294.111C53.3452 294.111 53.6955 294.052 54.0569 293.935C54.4183 293.819 54.7527 293.633 55.06 293.378C55.3673 293.123 55.6173 292.789 55.8084 292.375ZM58.1012 284.666H67.5115V286.593H63.913V295.974H61.7316V286.593H58.1012V284.666ZM68.9286 284.666H71.1259V295.974H68.9286V284.666ZM82.3195 286.402C81.8419 285.849 81.2655 285.41 80.5919 285.08C79.9184 284.751 79.1716 284.587 78.3548 284.587C77.5587 284.587 76.8215 284.743 76.1416 285.056C75.4617 285.37 74.8757 285.794 74.3821 286.33C73.8885 286.867 73.5016 287.477 73.2198 288.162C72.9379 288.847 72.7978 289.567 72.7978 290.32C72.7978 291.042 72.93 291.746 73.1959 292.43C73.4618 293.115 73.8376 293.732 74.3264 294.278C74.8152 294.824 75.3932 295.257 76.062 295.576C76.7307 295.894 77.4791 296.054 78.307 296.054C79.1032 296.054 79.8388 295.899 80.5123 295.592C81.1858 295.284 81.7702 294.862 82.2638 294.326C82.7574 293.789 83.1395 293.179 83.4102 292.494C83.6809 291.809 83.8163 291.096 83.8163 290.352C83.8163 289.63 83.6857 288.93 83.4262 288.25C83.165 287.57 82.7972 286.955 82.3195 286.402ZM81.396 291.69C81.2575 292.147 81.0489 292.555 80.7671 292.916C80.4853 293.278 80.1429 293.566 79.7401 293.784C79.3372 294.002 78.8643 294.111 78.323 294.111C77.8023 294.111 77.3389 294.007 76.9297 293.8C76.5205 293.593 76.1766 293.311 75.8948 292.956C75.6129 292.601 75.398 292.195 75.2499 291.738C75.1018 291.28 75.027 290.809 75.027 290.32C75.027 289.853 75.0986 289.393 75.2419 288.942C75.3852 288.492 75.597 288.087 75.8788 287.732C76.1607 287.377 76.5046 287.09 76.9138 286.872C77.323 286.654 77.7864 286.545 78.307 286.545C78.8277 286.545 79.2895 286.649 79.6923 286.856C80.0951 287.063 80.4407 287.345 80.7273 287.7C81.0139 288.055 81.232 288.46 81.3801 288.911C81.5282 289.361 81.603 289.831 81.603 290.32C81.603 290.777 81.533 291.233 81.396 291.69ZM94.978 284.682V295.974H93.4813L87.7173 288.712V295.974H85.52V284.666H87.2874L93.1151 292.12V284.682H94.978Z" fill="#1595F2"/>
<path d="M418.106 201.834C406.335 201.834 394.91 199.526 384.151 194.974C373.763 190.58 364.436 184.289 356.427 176.28C348.418 168.27 342.13 158.939 337.737 148.548C333.186 137.787 330.879 126.36 330.879 114.585C330.879 102.81 333.186 91.3831 337.737 80.6215C342.13 70.231 348.419 60.9012 356.427 52.8902C364.434 44.8791 373.763 38.5897 384.151 34.1955C394.91 29.6437 406.335 27.3359 418.106 27.3359C429.878 27.3359 441.302 29.6437 452.061 34.1955C462.449 38.5897 471.776 44.8807 479.786 52.8902C487.795 60.8996 494.082 70.231 498.476 80.6215C503.026 91.3831 505.333 102.81 505.333 114.585C505.333 126.36 503.026 137.787 498.476 148.548C494.082 158.939 487.793 168.269 479.786 176.28C471.778 184.291 462.449 190.58 452.061 194.974C441.302 199.525 429.878 201.834 418.106 201.834Z" fill="white"/>
<path d="M418.106 193.868C461.883 193.868 497.372 158.371 497.372 114.583C497.372 70.7943 461.883 35.2969 418.106 35.2969C374.328 35.2969 338.84 70.7943 338.84 114.583C338.84 158.371 374.328 193.868 418.106 193.868Z" stroke="#EFF2F7" stroke-width="3" stroke-miterlimit="10"/>
<path d="M418.106 179.422C453.906 179.422 482.928 150.392 482.928 114.583C482.928 78.7734 453.906 49.7441 418.106 49.7441C382.305 49.7441 353.283 78.7734 353.283 114.583C353.283 150.392 382.305 179.422 418.106 179.422Z" fill="#EFF2F7"/>
<path d="M452.841 27.3941C451.378 27.3941 449.973 27.1727 448.647 26.7347C447.725 27.109 446.715 27.3145 445.66 27.3145H443.462C442.587 27.3145 441.743 27.1727 440.955 26.9115C440.166 27.1727 439.323 27.3145 438.447 27.3145H436.265C435.778 27.3145 435.3 27.2699 434.837 27.187C434.372 27.2715 433.896 27.3145 433.415 27.3145H431.154C430.097 27.3145 429.075 27.1058 428.137 26.7204C427.199 27.1058 426.177 27.3145 425.12 27.3145H422.859C422.648 27.3145 422.44 27.3065 422.231 27.2906C422.023 27.3065 421.812 27.3145 421.601 27.3145H419.403C418.526 27.3145 417.681 27.1727 416.891 26.9099C415.7 27.2316 414.486 27.3941 413.275 27.3941C411.216 27.3941 409.267 26.9386 407.485 26.0403C407.43 26.0117 407.372 25.983 407.317 25.9543C407.14 26.0435 406.961 26.1311 406.781 26.2139C405.065 26.9975 403.21 27.3957 401.269 27.3957C399.416 27.3957 397.656 27.0405 396.032 26.3398C395.403 26.6105 394.747 26.8287 394.066 26.9927C392.95 27.2603 391.786 27.3957 390.601 27.3957C389.499 27.3957 388.388 27.281 387.295 27.0549C386.719 26.9354 386.151 26.7857 385.593 26.6073C385.174 26.757 384.745 26.886 384.305 26.9927C383.189 27.2603 382.025 27.3957 380.84 27.3957C379.797 27.3957 378.745 27.2922 377.71 27.0899C377.1 27.238 376.466 27.3161 375.825 27.3161H373.564C372.507 27.3161 371.484 27.1074 370.546 26.722C369.609 27.1074 368.586 27.3161 367.529 27.3161H365.268C362.665 27.3161 360.225 26.0419 358.737 23.9062C357.248 21.7688 356.898 19.039 357.799 16.5959L361.97 5.28799C363.125 2.16001 366.106 0.0815861 369.44 0.0815861H371.669C373.027 0.0815861 374.326 0.427193 375.468 1.04674C377.086 0.353931 378.839 0.00195312 380.681 0.00195312C381.851 0.00195312 383.001 0.138922 384.095 0.409674C384.624 0.540272 385.141 0.696352 385.643 0.877916C387.144 0.296595 388.756 0.00195312 390.442 0.00195312C391.612 0.00195312 392.762 0.138922 393.856 0.409674C394.593 0.59283 395.309 0.825358 395.992 1.10407C397.659 0.373043 399.449 0.00354578 401.317 0.00354578C403.35 0.00354578 405.277 0.441527 407.044 1.30316C407.124 1.34138 407.202 1.3812 407.28 1.42101C407.401 1.36049 407.522 1.30156 407.644 1.24263C409.399 0.41923 411.324 0.00195312 413.369 0.00195312C414.623 0.00195312 415.824 0.156441 416.962 0.462232C417.731 0.215369 418.551 0.0815861 419.403 0.0815861H421.601C422.554 0.0815861 423.47 0.248815 424.319 0.557791C425.172 0.248815 426.088 0.0815861 427.03 0.0815861H429.259C429.834 0.0815861 430.398 0.1437 430.944 0.261557C431.489 0.1437 432.054 0.0815861 432.635 0.0815861H442.045C442.284 0.0815861 442.52 0.0927347 442.754 0.113439C442.988 0.0927347 443.224 0.0815861 443.462 0.0815861H445.66C446.728 0.0815861 447.749 0.291817 448.679 0.674055C450.019 0.228111 451.43 0.00195312 452.889 0.00195312C454.339 0.00195312 455.734 0.224925 457.057 0.664499C457.982 0.288632 458.993 0.0815861 460.054 0.0815861H461.821C462.837 0.0815861 463.831 0.27589 464.753 0.640609C465.651 0.290224 466.627 0.0975127 467.649 0.0975127H469.83C474.226 0.0975127 477.792 3.66348 477.792 8.06081V19.3528C477.792 23.7501 474.226 27.3161 469.83 27.3161H468.015C467.018 27.3161 466.044 27.1297 465.136 26.7777C464.241 27.1249 463.269 27.3161 462.251 27.3161H460.054C458.99 27.3161 457.974 27.1074 457.046 26.7284C455.707 27.1695 454.298 27.3941 452.841 27.3941Z" fill="white"/>
<path d="M369.439 8.04252L365.268 19.3504H367.529L368.473 16.5314H372.624L373.563 19.3504H375.824L371.668 8.04252H369.439ZM368.99 14.9865L370.554 10.32L372.11 14.9865H368.99ZM384.59 14.4307C384.881 14.848 385.028 15.4054 385.028 16.103C385.028 16.6954 384.916 17.2019 384.693 17.624C384.47 18.046 384.165 18.3932 383.778 18.6624C383.391 18.9315 382.945 19.1274 382.44 19.2485C381.935 19.3695 381.402 19.43 380.84 19.43C380.278 19.43 379.714 19.3711 379.152 19.2548C378.59 19.1386 378.05 18.9713 377.536 18.7532C377.022 18.535 376.541 18.2722 376.095 17.9648L377.066 16.0695C377.162 16.1651 377.332 16.2893 377.576 16.4438C377.819 16.5983 378.117 16.7512 378.467 16.9057C378.818 17.0602 379.2 17.1892 379.614 17.2959C380.028 17.4026 380.447 17.4551 380.872 17.4551C381.477 17.4551 381.927 17.358 382.225 17.1637C382.523 16.9694 382.671 16.6827 382.671 16.3052C382.671 15.9676 382.552 15.7 382.313 15.5041C382.074 15.3082 381.736 15.1394 381.302 14.9961C380.867 14.8527 380.351 14.703 379.757 14.5438C379.036 14.3431 378.439 14.1153 377.966 13.8621C377.493 13.6089 377.138 13.2935 376.899 12.9192C376.66 12.5434 376.541 12.0704 376.541 11.5002C376.541 10.7277 376.727 10.0811 377.098 9.55714C377.469 9.03316 377.969 8.63818 378.595 8.36743C379.221 8.09827 379.916 7.96289 380.681 7.96289C381.211 7.96289 381.712 8.02182 382.185 8.13808C382.658 8.25435 383.101 8.40884 383.515 8.59995C383.929 8.79107 384.3 8.99812 384.629 9.22109L383.658 11.0049C383.583 10.93 383.448 10.8329 383.252 10.7102C383.056 10.5876 382.817 10.4634 382.536 10.336C382.254 10.2085 381.95 10.1018 381.62 10.0174C381.29 9.93301 380.956 9.89001 380.617 9.89001C380.023 9.89001 379.574 9.99831 379.272 10.2149C378.969 10.4315 378.818 10.7453 378.818 11.1578C378.818 11.4636 378.913 11.7072 379.104 11.8872C379.295 12.0672 379.582 12.2201 379.964 12.3475C380.346 12.4749 380.824 12.6119 381.397 12.76C382.141 12.9399 382.786 13.1581 383.332 13.4177C383.878 13.6742 384.298 14.0134 384.59 14.4307ZM394.35 14.4307C394.642 14.848 394.788 15.4054 394.788 16.103C394.788 16.6954 394.677 17.2019 394.454 17.624C394.231 18.046 393.925 18.3932 393.538 18.6624C393.151 18.9315 392.705 19.1274 392.201 19.2485C391.696 19.3695 391.163 19.43 390.6 19.43C390.038 19.43 389.475 19.3711 388.913 19.2548C388.351 19.1386 387.811 18.9713 387.297 18.7532C386.782 18.535 386.301 18.2722 385.856 17.9648L386.827 16.0695C386.922 16.1651 387.093 16.2893 387.336 16.4438C387.58 16.5983 387.878 16.7512 388.228 16.9057C388.578 17.0602 388.96 17.1892 389.374 17.2959C389.788 17.4026 390.207 17.4551 390.632 17.4551C391.237 17.4551 391.688 17.358 391.986 17.1637C392.283 16.9694 392.432 16.6827 392.432 16.3052C392.432 15.9676 392.312 15.7 392.073 15.5041C391.834 15.3082 391.497 15.1394 391.062 14.9961C390.628 14.8527 390.112 14.703 389.518 14.5438C388.796 14.3431 388.199 14.1153 387.726 13.8621C387.254 13.6089 386.898 13.2935 386.66 12.9192C386.421 12.5434 386.301 12.0704 386.301 11.5002C386.301 10.7277 386.488 10.0811 386.859 9.55714C387.23 9.03316 387.73 8.63818 388.355 8.36743C388.981 8.09827 389.677 7.96289 390.441 7.96289C390.971 7.96289 391.473 8.02182 391.946 8.13808C392.419 8.25435 392.861 8.40884 393.275 8.59995C393.689 8.79107 394.06 8.99812 394.39 9.22109L393.419 11.0049C393.344 10.93 393.209 10.8329 393.013 10.7102C392.817 10.5876 392.578 10.4634 392.296 10.336C392.014 10.2085 391.71 10.1018 391.381 10.0174C391.051 9.93301 390.717 9.89001 390.378 9.89001C389.784 9.89001 389.335 9.99831 389.032 10.2149C388.73 10.4315 388.578 10.7453 388.578 11.1578C388.578 11.4636 388.674 11.7072 388.865 11.8872C389.056 12.0672 389.343 12.2201 389.725 12.3475C390.107 12.4749 390.585 12.6119 391.158 12.76C391.901 12.9399 392.546 13.1581 393.092 13.4177C393.638 13.6742 394.059 14.0134 394.35 14.4307ZM405.281 9.77852C404.803 9.22587 404.227 8.78629 403.553 8.45661C402.88 8.12693 402.133 7.96289 401.316 7.96289C400.52 7.96289 399.783 8.11897 399.103 8.43273C398.423 8.74648 397.837 9.17013 397.344 9.70685C396.85 10.2436 396.463 10.8536 396.181 11.5384C395.899 12.2233 395.759 12.9431 395.759 13.6965C395.759 14.4179 395.892 15.1219 396.157 15.8067C396.423 16.4916 396.799 17.1079 397.288 17.6542C397.777 18.2005 398.355 18.6337 399.024 18.9522C399.692 19.2708 400.441 19.43 401.269 19.43C402.065 19.43 402.8 19.2755 403.474 18.9682C404.147 18.6608 404.732 18.2387 405.225 17.702C405.719 17.1653 406.101 16.5553 406.372 15.8704C406.642 15.1856 406.778 14.4721 406.778 13.7283C406.778 13.0068 406.647 12.3061 406.388 11.626C406.128 10.9459 405.759 10.3312 405.281 9.77852ZM404.358 15.0661C404.219 15.5232 404.01 15.931 403.729 16.2925C403.447 16.654 403.104 16.9423 402.702 17.1605C402.299 17.3787 401.826 17.487 401.285 17.487C400.764 17.487 400.301 17.3835 399.891 17.1764C399.482 16.9694 399.138 16.6875 398.856 16.3323C398.574 15.9772 398.36 15.571 398.211 15.1139C398.063 14.6568 397.989 14.1854 397.989 13.6965C397.989 13.2298 398.06 12.7695 398.204 12.3188C398.347 11.8681 398.559 11.4636 398.84 11.1084C399.122 10.7532 399.466 10.4666 399.875 10.2484C400.285 10.0302 400.748 9.92186 401.269 9.92186C401.789 9.92186 402.251 10.0254 402.654 10.2324C403.057 10.4395 403.402 10.7214 403.689 11.0765C403.975 11.4317 404.194 11.8362 404.342 12.287C404.49 12.7377 404.565 13.2075 404.565 13.6965C404.565 14.1536 404.496 14.6091 404.358 15.0661ZM416.14 15.751L417.924 16.8021C417.69 17.3644 417.322 17.8422 416.817 18.2355C416.312 18.6289 415.75 18.9252 415.129 19.1274C414.508 19.3297 413.89 19.43 413.274 19.43C412.467 19.43 411.733 19.2628 411.069 18.9283C410.405 18.5939 409.83 18.1479 409.341 17.5905C408.853 17.0331 408.474 16.4072 408.203 15.7112C407.932 15.0152 407.797 14.3128 407.797 13.6009C407.797 12.9001 407.921 12.2185 408.171 11.5543C408.421 10.8902 408.787 10.2882 409.27 9.74667C409.752 9.20516 410.34 8.77196 411.029 8.44865C411.719 8.12534 412.499 7.96289 413.37 7.96289C414.41 7.96289 415.309 8.19064 416.069 8.64773C416.828 9.10483 417.387 9.69889 417.749 10.4315L416.077 11.5942C415.886 11.1689 415.636 10.8345 415.328 10.5908C415.021 10.3471 414.688 10.1719 414.333 10.0652C413.978 9.95849 413.636 9.90593 413.306 9.90593C412.754 9.90593 412.274 10.0174 411.865 10.2404C411.456 10.4634 411.117 10.7548 410.846 11.1164C410.575 11.4779 410.372 11.8808 410.233 12.3268C410.094 12.7727 410.026 13.2234 410.026 13.6805C410.026 14.1695 410.106 14.6441 410.265 15.106C410.424 15.5678 410.65 15.9772 410.942 16.3323C411.233 16.6875 411.583 16.9694 411.992 17.1764C412.402 17.3835 412.849 17.487 413.338 17.487C413.677 17.487 414.027 17.4281 414.389 17.3118C414.75 17.1955 415.085 17.0092 415.392 16.7544C415.699 16.4995 415.949 16.1651 416.14 15.751ZM419.404 8.04252H421.602V19.3504H419.404V8.04252ZM427.031 8.04252L422.86 19.3504H425.121L426.065 16.5314H430.216L431.155 19.3504H433.416L429.261 8.04252H427.031ZM426.582 14.9865L428.146 10.32L429.702 14.9865H426.582ZM432.636 8.04252H442.046V9.96964H438.448V19.3504H436.266V9.96964H432.636V8.04252ZM443.464 8.04252H445.661V19.3504H443.464V8.04252ZM456.854 9.77852C456.377 9.22587 455.8 8.78629 455.127 8.45661C454.453 8.12693 453.707 7.96289 452.89 7.96289C452.094 7.96289 451.356 8.11897 450.676 8.43273C449.997 8.74648 449.411 9.17013 448.917 9.70685C448.423 10.2436 448.037 10.8536 447.755 11.5384C447.473 12.2233 447.333 12.9431 447.333 13.6965C447.333 14.4179 447.465 15.1219 447.731 15.8067C447.997 16.4916 448.372 17.1079 448.861 17.6542C449.35 18.2005 449.928 18.6337 450.597 18.9522C451.266 19.2708 452.014 19.43 452.842 19.43C453.638 19.43 454.374 19.2755 455.047 18.9682C455.721 18.6608 456.305 18.2387 456.799 17.702C457.292 17.1653 457.674 16.5553 457.945 15.8704C458.216 15.1856 458.351 14.4721 458.351 13.7283C458.351 13.0068 458.221 12.3061 457.961 11.626C457.7 10.9459 457.332 10.3312 456.854 9.77852ZM455.931 15.0661C455.792 15.5232 455.584 15.931 455.302 16.2925C455.02 16.654 454.678 16.9423 454.275 17.1605C453.872 17.3787 453.399 17.487 452.858 17.487C452.337 17.487 451.874 17.3835 451.465 17.1764C451.055 16.9694 450.712 16.6875 450.43 16.3323C450.148 15.9772 449.933 15.571 449.785 15.1139C449.637 14.6568 449.562 14.1854 449.562 13.6965C449.562 13.2298 449.634 12.7695 449.777 12.3188C449.92 11.8681 450.132 11.4636 450.414 11.1084C450.696 10.7532 451.04 10.4666 451.449 10.2484C451.858 10.0302 452.321 9.92186 452.842 9.92186C453.363 9.92186 453.824 10.0254 454.227 10.2324C454.63 10.4395 454.976 10.7214 455.262 11.0765C455.549 11.4317 455.767 11.8362 455.915 12.287C456.063 12.7377 456.138 13.2075 456.138 13.6965C456.138 14.1536 456.068 14.6091 455.931 15.0661ZM469.831 8.05845V19.3504H468.016L462.252 12.0879V19.3504H460.055V8.04252H461.822L467.65 15.4962V8.05845H469.831Z" fill="#1595F2"/>
<path d="M432.067 110.39C432.067 114.395 430.768 118.095 428.577 121.097L439.623 132.155C440.713 133.246 440.713 135.017 439.623 136.108C438.532 137.199 436.761 137.199 435.671 136.108L424.625 125.05C421.624 127.25 417.925 128.541 413.92 128.541C403.896 128.541 395.773 120.417 395.773 110.39C395.773 100.362 403.896 92.2383 413.92 92.2383C423.944 92.2383 432.067 100.362 432.067 110.39ZM413.919 122.957C420.855 122.957 426.483 117.329 426.483 110.39C426.483 103.451 420.856 97.8221 413.919 97.8221C406.983 97.8221 401.354 103.451 401.354 110.39C401.354 117.329 406.983 122.957 413.919 122.957Z" fill="#666666"/>
<path d="M646.089 367.34C634.317 367.34 622.892 365.032 612.134 360.48C601.746 356.086 592.418 349.795 584.409 341.786C576.4 333.776 570.112 324.445 565.719 314.054C561.168 303.293 558.861 291.865 558.861 280.091C558.861 268.316 561.168 256.889 565.719 246.127C570.112 235.737 576.402 226.407 584.409 218.396C592.417 210.385 601.746 204.096 612.134 199.701C622.892 195.15 634.317 192.842 646.089 192.842C657.86 192.842 669.285 195.15 680.044 199.701C690.431 204.096 699.759 210.387 707.768 218.396C715.775 226.405 722.065 235.737 726.458 246.127C731.009 256.889 733.316 268.316 733.316 280.091C733.316 291.865 731.009 303.293 726.458 314.054C722.065 324.445 715.775 333.775 707.768 341.786C699.76 349.797 690.431 356.086 680.044 360.48C669.285 365.03 657.862 367.34 646.089 367.34Z" fill="white"/>
<path d="M646.088 359.374C689.866 359.374 725.354 323.877 725.354 280.088C725.354 236.3 689.866 200.803 646.088 200.803C602.311 200.803 566.822 236.3 566.822 280.088C566.822 323.877 602.311 359.374 646.088 359.374Z" fill="white" stroke="#EFF2F7" stroke-width="3" stroke-miterlimit="10"/>
<path d="M646.088 344.927C681.889 344.927 710.911 315.898 710.911 280.089C710.911 244.279 681.889 215.25 646.088 215.25C610.288 215.25 581.266 244.279 581.266 280.089C581.266 315.898 610.288 344.927 646.088 344.927Z" fill="#EFF2F7"/>
<path d="M835.07 293.786C833.655 293.786 832.281 293.568 830.97 293.135C830.053 293.504 829.05 293.706 828.001 293.706H826.186C825.189 293.706 824.214 293.52 823.307 293.168C822.412 293.517 821.439 293.706 820.422 293.706H818.224C817.825 293.706 817.431 293.676 817.046 293.62C816.661 293.678 816.269 293.706 815.868 293.706H813.671C813.425 293.706 813.183 293.695 812.944 293.673C812.706 293.695 812.465 293.706 812.222 293.706H786.315C785.062 293.706 778.997 293.786 777.813 293.786C776.709 293.786 775.598 293.671 774.506 293.444C773.67 293.27 772.848 293.033 772.054 292.736C770.445 293.432 768.657 293.784 766.729 293.784C765.508 293.784 764.342 293.643 763.242 293.359C762.506 293.584 761.726 293.705 760.917 293.705H752.956C752.079 293.705 751.233 293.563 750.443 293.3C749.254 293.622 748.039 293.784 746.827 293.784C744.767 293.784 742.82 293.329 741.036 292.429C739.46 291.634 738.068 290.558 736.904 289.228C735.807 287.976 734.943 286.549 734.336 284.99C733.707 283.375 733.389 281.693 733.389 279.992C733.389 278.334 733.686 276.702 734.272 275.142C734.866 273.561 735.745 272.11 736.884 270.836C738.083 269.492 739.535 268.413 741.2 267.631C742.953 266.808 744.878 266.391 746.923 266.391C748.178 266.391 749.378 266.545 750.517 266.851C751.286 266.604 752.106 266.47 752.958 266.47H755.155C756.34 266.47 757.464 266.73 758.475 267.193C759.486 266.728 760.61 266.47 761.795 266.47H763.976C764.947 266.47 765.879 266.644 766.739 266.962C767.598 266.644 768.53 266.47 769.501 266.47H771.683C772.533 266.47 773.353 266.604 774.122 266.851C775.251 266.545 776.434 266.391 777.654 266.391C778.7 266.391 779.727 266.501 780.714 266.716C781.344 266.555 782.004 266.47 782.683 266.47H792.094C792.333 266.47 792.568 266.481 792.802 266.502C793.036 266.481 793.272 266.47 793.511 266.47H801.217C801.533 266.47 801.843 266.489 802.149 266.524C802.455 266.489 802.765 266.47 803.08 266.47H808.096C809.139 266.47 810.155 266.609 811.136 266.883C811.932 266.615 812.784 266.47 813.669 266.47H815.866C816.266 266.47 816.659 266.501 817.044 266.556C817.43 266.499 817.822 266.47 818.223 266.47H819.99C821.006 266.47 822 266.665 822.921 267.029C823.82 266.679 824.796 266.486 825.818 266.486H827.999C829.052 266.486 830.056 266.69 830.975 267.061C832.322 266.615 833.736 266.391 835.196 266.391C837.701 266.391 839.981 266.985 841.976 268.157C844.037 269.369 845.689 271.119 846.756 273.222C847.434 274.558 847.702 276.009 847.595 277.418C847.858 278.208 848 279.052 848 279.93V285.743C848 290.14 844.435 293.706 840.038 293.706H838.223C837.836 293.706 837.456 293.679 837.083 293.625C836.427 293.733 835.755 293.786 835.07 293.786Z" fill="white"/>
<path d="M749.695 282.143L751.478 283.194C751.244 283.757 750.876 284.234 750.372 284.628C749.867 285.021 749.305 285.317 748.684 285.52C748.063 285.722 747.444 285.822 746.829 285.822C746.022 285.822 745.288 285.655 744.624 285.321C743.96 284.986 743.383 284.54 742.896 283.983C742.407 283.425 742.028 282.799 741.758 282.103C741.487 281.407 741.352 280.705 741.352 279.993C741.352 279.292 741.476 278.611 741.726 277.947C741.976 277.282 742.342 276.68 742.824 276.139C743.307 275.597 743.894 275.164 744.584 274.841C745.273 274.518 746.054 274.355 746.924 274.355C747.964 274.355 748.864 274.583 749.623 275.04C750.383 275.497 750.942 276.091 751.303 276.824L749.631 277.986C749.44 277.561 749.19 277.227 748.883 276.983C748.576 276.739 748.243 276.564 747.888 276.457C747.533 276.351 747.19 276.298 746.861 276.298C746.308 276.298 745.829 276.41 745.42 276.633C745.011 276.856 744.671 277.147 744.401 277.509C744.13 277.87 743.926 278.273 743.788 278.719C743.649 279.165 743.581 279.616 743.581 280.073C743.581 280.562 743.66 281.036 743.82 281.498C743.979 281.96 744.205 282.369 744.496 282.725C744.788 283.08 745.138 283.362 745.547 283.569C745.956 283.776 746.404 283.879 746.893 283.879C747.232 283.879 747.582 283.82 747.944 283.704C748.305 283.588 748.639 283.401 748.947 283.147C749.254 282.892 749.504 282.557 749.695 282.143ZM755.156 274.435H752.959V285.743H760.92V283.816H755.156V274.435ZM769.503 280.2C769.503 280.657 769.455 281.105 769.359 281.546C769.264 281.987 769.109 282.382 768.898 282.732C768.686 283.083 768.407 283.362 768.062 283.569C767.716 283.776 767.274 283.879 766.732 283.879C766.212 283.879 765.777 283.779 765.427 283.577C765.076 283.374 764.798 283.099 764.591 282.748C764.384 282.398 764.229 282.003 764.129 281.562C764.029 281.121 763.978 280.667 763.978 280.2V274.435H761.796V280.2C761.796 280.933 761.887 281.637 762.067 282.31C762.247 282.984 762.532 283.588 762.919 284.118C763.306 284.648 763.815 285.066 764.447 285.368C765.079 285.671 765.841 285.822 766.732 285.822C767.613 285.822 768.367 285.676 768.993 285.384C769.619 285.093 770.128 284.688 770.522 284.174C770.915 283.659 771.206 283.059 771.397 282.374C771.589 281.689 771.684 280.965 771.684 280.2V274.435H769.503V280.2ZM780.306 279.808C779.76 279.549 779.115 279.331 778.372 279.151C777.798 279.002 777.321 278.866 776.939 278.738C776.556 278.611 776.27 278.458 776.079 278.278C775.888 278.098 775.792 277.856 775.792 277.548C775.792 277.136 775.943 276.822 776.246 276.606C776.548 276.389 776.997 276.281 777.591 276.281C777.931 276.281 778.265 276.324 778.595 276.408C778.924 276.494 779.228 276.599 779.51 276.727C779.792 276.854 780.031 276.978 780.227 277.101C780.422 277.223 780.558 277.321 780.633 277.395L781.604 275.612C781.274 275.389 780.903 275.182 780.489 274.991C780.075 274.799 779.633 274.645 779.16 274.529C778.687 274.412 778.185 274.354 777.655 274.354C776.891 274.354 776.195 274.489 775.569 274.758C774.943 275.027 774.444 275.424 774.073 275.948C773.702 276.472 773.515 277.118 773.515 277.891C773.515 278.463 773.635 278.936 773.873 279.31C774.112 279.686 774.467 279.999 774.94 280.253C775.413 280.506 776.01 280.734 776.732 280.934C777.325 281.094 777.841 281.243 778.276 281.387C778.711 281.53 779.048 281.699 779.287 281.895C779.526 282.091 779.645 282.358 779.645 282.696C779.645 283.073 779.496 283.36 779.2 283.554C778.902 283.749 778.451 283.846 777.846 283.846C777.421 283.846 777.002 283.793 776.588 283.686C776.174 283.58 775.792 283.451 775.442 283.296C775.092 283.143 774.794 282.989 774.55 282.834C774.305 282.68 774.136 282.556 774.041 282.46L773.069 284.355C773.515 284.663 773.996 284.926 774.51 285.144C775.025 285.362 775.564 285.529 776.127 285.645C776.689 285.762 777.252 285.821 777.814 285.821C778.376 285.821 778.91 285.76 779.415 285.639C779.919 285.518 780.365 285.322 780.752 285.053C781.139 284.784 781.445 284.438 781.668 284.015C781.89 283.593 782.002 283.084 782.002 282.494C782.002 281.796 781.855 281.239 781.564 280.821C781.273 280.404 780.852 280.068 780.306 279.808ZM782.687 276.362H786.317V285.743H788.498V276.362H792.097V274.435H782.687V276.362ZM795.711 280.869H800.456V279.085H795.711V276.362H801.221V274.435H793.514V285.743H801.364V283.816H795.711V280.869ZM809.644 281.49L812.223 285.743H809.803L807.478 281.952H805.281V285.743H803.083V274.435H808.099C808.609 274.435 809.083 274.541 809.524 274.753C809.965 274.965 810.347 275.252 810.671 275.613C810.994 275.975 811.244 276.378 811.419 276.824C811.594 277.27 811.682 277.727 811.682 278.193C811.682 278.671 811.599 279.128 811.435 279.563C811.271 279.998 811.034 280.383 810.726 280.718C810.417 281.052 810.058 281.31 809.644 281.49ZM809.468 278.193C809.468 277.843 809.394 277.529 809.246 277.254C809.097 276.978 808.911 276.76 808.688 276.601C808.465 276.441 808.222 276.362 807.956 276.362H805.281V280.025H808.035C808.311 280.025 808.556 279.942 808.768 279.778C808.98 279.614 809.15 279.393 809.277 279.117C809.405 278.842 809.468 278.534 809.468 278.193ZM813.672 285.743H815.869V274.435H813.672V285.743ZM825.821 281.888L819.993 274.435H818.226V285.743H820.423V278.48L826.187 285.743H828.002V274.451H825.821V281.888ZM835.946 279.929V281.538H838.223V282.32C837.812 282.799 837.378 283.17 836.917 283.433C836.397 283.731 835.846 283.879 835.261 283.879C834.773 283.879 834.327 283.784 833.924 283.593C833.521 283.401 833.168 283.134 832.865 282.788C832.563 282.443 832.329 282.043 832.165 281.586C832.001 281.129 831.918 280.63 831.918 280.089C831.918 279.579 831.991 279.096 832.141 278.639C832.289 278.182 832.507 277.779 832.793 277.429C833.08 277.079 833.422 276.803 833.82 276.601C834.219 276.398 834.656 276.298 835.134 276.298C835.739 276.298 836.301 276.446 836.822 276.744C837.343 277.042 837.741 277.472 838.016 278.034L839.656 276.824C839.274 276.07 838.704 275.47 837.944 275.024C837.185 274.578 836.269 274.355 835.198 274.355C834.422 274.355 833.701 274.502 833.032 274.793C832.364 275.085 831.782 275.494 831.289 276.019C830.795 276.545 830.408 277.15 830.126 277.835C829.845 278.52 829.704 279.249 829.704 280.025C829.704 280.853 829.843 281.614 830.118 282.31C830.394 283.006 830.779 283.62 831.273 284.15C831.766 284.68 832.337 285.093 832.985 285.384C833.633 285.676 834.327 285.822 835.07 285.822C836.263 285.822 837.314 285.372 838.223 284.472V285.743H840.038V279.929H835.946Z" fill="#1595F2"/>
<path d="M668.435 264.728C668.435 266.299 667.187 267.748 665.085 268.919C662.545 270.323 658.759 271.319 654.414 271.615C654.09 271.457 653.767 271.309 653.428 271.179C649.99 269.739 645.417 268.919 640.513 268.919C639.789 268.919 639.082 268.936 638.375 268.971L638.279 268.919C636.176 267.75 634.929 266.3 634.929 264.728C634.929 260.871 642.433 257.746 651.683 257.746C660.932 257.746 668.435 260.871 668.435 264.728ZM637.781 271.808C638.671 271.747 639.586 271.712 640.511 271.712C645.94 271.712 650.756 272.786 653.818 274.453C655.982 275.632 657.265 277.098 657.265 278.694C657.265 279.043 657.205 279.384 657.082 279.715C656.681 280.867 655.598 281.924 654.028 282.815C654.02 282.823 654.003 282.823 653.993 282.832C653.968 282.85 653.941 282.858 653.915 282.875C650.861 284.568 645.992 285.669 640.511 285.669C635.311 285.669 630.66 284.683 627.579 283.128C627.414 283.05 627.256 282.963 627.1 282.875C625.006 281.714 623.758 280.265 623.758 278.694C623.758 275.657 628.417 273.064 634.927 272.113C635.843 271.981 636.794 271.876 637.781 271.808ZM660.041 278.694C660.041 276.783 659.116 275.211 657.937 274.034C660.407 273.65 662.666 273.039 664.586 272.246C666.008 271.652 667.335 270.919 668.417 270.021V273.11C668.417 274.796 666.978 276.348 664.596 277.552C663.322 278.199 661.768 278.748 660.023 279.167C660.031 279.01 660.041 278.862 660.041 278.705V278.694ZM657.249 287.073C657.249 288.644 656.001 290.093 653.899 291.264C653.742 291.351 653.586 291.429 653.42 291.517C650.348 293.071 645.698 294.057 640.497 294.057C635.017 294.057 630.147 292.957 627.094 291.264C624.99 290.095 623.743 288.645 623.743 287.073V283.984C624.834 284.882 626.152 285.616 627.574 286.209C631.022 287.648 635.593 288.468 640.497 288.468C645.401 288.468 649.974 287.648 653.42 286.209C654.1 285.93 654.754 285.606 655.375 285.258C655.907 284.961 656.405 284.629 656.877 284.28C657.007 284.184 657.13 284.079 657.253 283.984V284.28V284.777V287.073H657.249ZM660.041 287.073V284.28V282.02C661.698 281.653 663.225 281.19 664.586 280.623C666.008 280.029 667.335 279.296 668.417 278.398V281.488C668.417 282.404 667.981 283.321 667.117 284.184C665.695 285.606 663.19 286.777 660.021 287.535C660.033 287.387 660.041 287.229 660.041 287.073ZM640.494 296.849C645.398 296.849 649.971 296.029 653.417 294.589C654.839 293.995 656.165 293.262 657.248 292.364V295.454C657.248 299.311 649.743 302.436 640.494 302.436C631.245 302.436 623.74 299.311 623.74 295.454V292.364C624.831 293.262 626.149 293.997 627.571 294.589C631.018 296.027 635.591 296.849 640.494 296.849Z" fill="#666666"/>
<path d="M559.192 635.648C547.42 635.648 535.996 633.341 525.237 628.789C514.849 624.395 505.522 618.104 497.513 610.094C489.504 602.085 483.216 592.753 478.823 582.363C474.272 571.601 471.965 560.174 471.965 548.399C471.965 536.625 474.272 525.198 478.823 514.436C483.216 504.045 489.505 494.716 497.513 486.705C505.52 478.694 514.849 472.404 525.237 468.01C535.996 463.458 547.42 461.15 559.192 461.15C570.964 461.15 582.388 463.458 593.147 468.01C603.535 472.404 612.862 478.695 620.871 486.705C628.881 494.714 635.168 504.045 639.561 514.436C644.112 525.198 646.419 536.625 646.419 548.399C646.419 560.174 644.112 571.601 639.561 582.363C635.168 592.753 628.879 602.083 620.871 610.094C612.864 618.105 603.535 624.395 593.147 628.789C582.388 633.341 570.965 635.648 559.192 635.648Z" fill="white"/>
<path d="M559.192 627.685C602.969 627.685 638.458 592.187 638.458 548.399C638.458 504.611 602.969 469.113 559.192 469.113C515.414 469.113 479.926 504.611 479.926 548.399C479.926 592.187 515.414 627.685 559.192 627.685Z" fill="white" stroke="#EFF2F7" stroke-width="3" stroke-miterlimit="10"/>
<path d="M559.192 613.238C594.992 613.238 624.014 584.209 624.014 548.399C624.014 512.59 594.992 483.561 559.192 483.561C523.391 483.561 494.369 512.59 494.369 548.399C494.369 584.209 523.391 613.238 559.192 613.238Z" fill="#EFF2F7"/>
<path d="M604.786 663.001C603.323 663.001 601.918 662.78 600.592 662.342C599.67 662.716 598.661 662.922 597.605 662.922H595.408C594.532 662.922 593.688 662.78 592.9 662.519C592.112 662.78 591.268 662.922 590.392 662.922H588.211C587.723 662.922 587.246 662.877 586.782 662.794C586.317 662.878 585.841 662.922 585.361 662.922H583.1C582.042 662.922 581.02 662.713 580.082 662.327C579.144 662.713 578.122 662.922 577.065 662.922H574.804C574.143 662.922 573.495 662.84 572.868 662.683C571.898 662.894 570.914 663.001 569.932 663.001C568.489 663.001 567.102 662.778 565.787 662.335C564.86 662.713 563.846 662.922 562.782 662.922H560.585C559.34 662.922 558.163 662.636 557.114 662.127C556.065 662.636 554.888 662.922 553.643 662.922H551.445C551.046 662.922 550.651 662.891 550.267 662.836C549.883 662.893 549.49 662.922 549.089 662.922H546.892C546.087 662.922 545.312 662.802 544.581 662.581C544.557 662.587 544.535 662.592 544.511 662.598C543.398 662.866 542.234 663.001 541.048 663.001C539.946 663.001 538.833 662.886 537.742 662.66C537.166 662.541 536.598 662.391 536.04 662.213C535.622 662.364 535.192 662.491 534.751 662.598C533.638 662.866 532.474 663.001 531.287 663.001C530.244 663.001 529.192 662.898 528.157 662.695C527.547 662.845 526.913 662.922 526.272 662.922H524.012C522.955 662.922 521.933 662.713 520.995 662.327C520.057 662.713 519.035 662.922 517.978 662.922H515.717C515.677 662.922 515.637 662.921 515.597 662.92C515.557 662.92 515.518 662.922 515.478 662.922H507.516C506.639 662.922 505.794 662.78 505.004 662.517C503.815 662.839 502.6 663.001 501.388 663.001C499.329 663.001 497.382 662.546 495.6 661.647C494.022 660.853 492.63 659.774 491.467 658.445C490.369 657.193 489.505 655.766 488.898 654.208C488.269 652.59 487.949 650.908 487.949 649.209C487.949 647.551 488.247 645.918 488.833 644.359C489.427 642.776 490.306 641.327 491.443 640.053C492.642 638.708 494.094 637.63 495.758 636.848C497.514 636.025 499.439 635.607 501.482 635.607C502.737 635.607 503.937 635.762 505.076 636.068C505.845 635.821 506.665 635.687 507.516 635.687H509.714C511.648 635.687 513.422 636.377 514.801 637.525C516.199 636.364 517.987 635.687 519.888 635.687H522.118C523.476 635.687 524.775 636.033 525.917 636.652C527.534 635.959 529.287 635.607 531.13 635.607C532.3 635.607 533.448 635.744 534.542 636.015C535.072 636.146 535.59 636.303 536.091 636.483C537.591 635.902 539.204 635.607 540.89 635.607C542.061 635.607 543.209 635.744 544.303 636.015C544.361 636.029 544.42 636.045 544.479 636.06C545.24 635.818 546.051 635.687 546.893 635.687H549.09C549.49 635.687 549.885 635.717 550.269 635.773C550.654 635.716 551.047 635.687 551.447 635.687H559.042C559.303 635.687 559.56 635.7 559.814 635.724C560.069 635.7 560.325 635.687 560.587 635.687H562.784C563.841 635.687 564.849 635.892 565.773 636.267C567.116 635.829 568.542 635.607 570.029 635.607C571.892 635.607 573.635 635.948 575.235 636.62C576.363 636.02 577.641 635.687 578.977 635.687H581.206C581.781 635.687 582.345 635.749 582.891 635.867C583.436 635.749 584.001 635.687 584.582 635.687H593.992C594.231 635.687 594.467 635.698 594.701 635.719C594.935 635.698 595.17 635.687 595.409 635.687H597.607C598.675 635.687 599.696 635.897 600.626 636.28C601.968 635.834 603.377 635.607 604.836 635.607C606.286 635.607 607.681 635.83 609.004 636.27C609.929 635.894 610.94 635.687 612.001 635.687H613.768C614.784 635.687 615.778 635.881 616.699 636.246C617.597 635.896 618.574 635.703 619.596 635.703H621.777C626.173 635.703 629.738 639.269 629.738 643.666V654.958C629.738 659.356 626.173 662.922 621.777 662.922H619.962C618.965 662.922 617.991 662.735 617.083 662.383C616.188 662.73 615.215 662.922 614.198 662.922H612.001C610.937 662.922 609.921 662.713 608.993 662.334C607.652 662.777 606.245 663.001 604.786 663.001Z" fill="white"/>
<path d="M504.254 651.358L506.037 652.409C505.803 652.971 505.433 653.449 504.93 653.843C504.426 654.236 503.864 654.532 503.243 654.735C502.622 654.937 502.004 655.037 501.388 655.037C500.58 655.037 499.846 654.87 499.182 654.535C498.518 654.201 497.943 653.755 497.455 653.198C496.966 652.64 496.587 652.014 496.316 651.318C496.046 650.622 495.91 649.92 495.91 649.208C495.91 648.507 496.034 647.826 496.284 647.161C496.534 646.497 496.901 645.895 497.383 645.354C497.865 644.812 498.453 644.379 499.142 644.056C499.832 643.732 500.612 643.57 501.483 643.57C502.523 643.57 503.422 643.798 504.182 644.255C504.941 644.712 505.5 645.306 505.862 646.039L504.19 647.201C503.999 646.776 503.749 646.442 503.442 646.198C503.134 645.954 502.801 645.779 502.446 645.672C502.091 645.566 501.749 645.513 501.419 645.513C500.867 645.513 500.388 645.624 499.978 645.847C499.569 646.07 499.23 646.362 498.959 646.723C498.689 647.085 498.485 647.488 498.346 647.934C498.208 648.38 498.139 648.83 498.139 649.288C498.139 649.777 498.219 650.251 498.378 650.713C498.537 651.175 498.763 651.584 499.055 651.939C499.346 652.295 499.697 652.576 500.106 652.783C500.515 652.991 500.962 653.094 501.451 653.094C501.79 653.094 502.141 653.035 502.502 652.919C502.864 652.803 503.198 652.616 503.505 652.361C503.813 652.107 504.063 651.772 504.254 651.358ZM509.715 643.65H507.518V654.957H515.479V653.03H509.715V643.65ZM522.119 643.65L526.275 654.957H524.014L523.074 652.138H518.923L517.979 654.957H515.718L519.89 643.65H522.119ZM522.558 650.594L521.003 645.927L519.439 650.594H522.558ZM533.782 649.023C533.236 648.764 532.591 648.545 531.847 648.365C531.274 648.217 530.797 648.08 530.414 647.953C530.032 647.826 529.746 647.673 529.555 647.493C529.364 647.313 529.268 647.071 529.268 646.763C529.268 646.351 529.419 646.037 529.722 645.82C530.024 645.604 530.473 645.495 531.067 645.495C531.406 645.495 531.741 645.538 532.07 645.623C532.4 645.707 532.704 645.814 532.986 645.941C533.268 646.069 533.507 646.193 533.702 646.316C533.898 646.438 534.034 646.535 534.108 646.61L535.08 644.827C534.75 644.604 534.379 644.397 533.965 644.205C533.551 644.014 533.109 643.86 532.636 643.744C532.163 643.627 531.661 643.568 531.131 643.568C530.367 643.568 529.671 643.704 529.045 643.973C528.419 644.242 527.919 644.639 527.548 645.163C527.177 645.687 526.991 646.333 526.991 647.106C526.991 647.677 527.111 648.15 527.349 648.525C527.588 648.901 527.943 649.214 528.416 649.469C528.887 649.722 529.485 649.95 530.207 650.151C530.801 650.31 531.316 650.46 531.752 650.603C532.187 650.746 532.524 650.915 532.763 651.111C533.002 651.307 533.121 651.575 533.121 651.912C533.121 652.29 532.973 652.576 532.675 652.771C532.378 652.965 531.927 653.062 531.322 653.062C530.897 653.062 530.478 653.01 530.064 652.903C529.65 652.796 529.268 652.667 528.918 652.513C528.567 652.358 528.27 652.205 528.026 652.051C527.782 651.896 527.612 651.772 527.517 651.677L526.545 653.572C526.991 653.881 527.472 654.142 527.986 654.36C528.501 654.578 529.04 654.746 529.602 654.862C530.164 654.978 530.728 655.037 531.29 655.037C531.852 655.037 532.386 654.977 532.89 654.856C533.395 654.734 533.841 654.539 534.228 654.269C534.615 654 534.921 653.655 535.143 653.231C535.366 652.809 535.478 652.301 535.478 651.71C535.478 651.012 535.331 650.455 535.04 650.038C534.747 649.619 534.328 649.281 533.782 649.023ZM543.543 649.023C542.996 648.764 542.352 648.545 541.608 648.365C541.035 648.217 540.557 648.08 540.175 647.953C539.793 647.826 539.506 647.673 539.315 647.493C539.124 647.313 539.029 647.071 539.029 646.763C539.029 646.351 539.18 646.037 539.482 645.82C539.785 645.604 540.234 645.495 540.828 645.495C541.167 645.495 541.501 645.538 541.831 645.623C542.161 645.707 542.465 645.814 542.746 645.941C543.028 646.069 543.267 646.193 543.463 646.316C543.659 646.438 543.794 646.535 543.869 646.61L544.84 644.827C544.511 644.604 544.14 644.397 543.726 644.205C543.312 644.014 542.869 643.86 542.396 643.744C541.923 643.627 541.422 643.568 540.892 643.568C540.127 643.568 539.431 643.704 538.806 643.973C538.18 644.242 537.68 644.639 537.309 645.163C536.938 645.687 536.752 646.333 536.752 647.106C536.752 647.677 536.871 648.15 537.11 648.525C537.349 648.901 537.704 649.214 538.177 649.469C538.65 649.722 539.247 649.95 539.968 650.151C540.562 650.31 541.078 650.46 541.512 650.603C541.947 650.746 542.285 650.915 542.524 651.111C542.762 651.307 542.882 651.575 542.882 651.912C542.882 652.29 542.734 652.576 542.436 652.771C542.138 652.965 541.688 653.062 541.083 653.062C540.657 653.062 540.239 653.01 539.825 652.903C539.411 652.796 539.029 652.667 538.678 652.513C538.328 652.358 538.03 652.205 537.787 652.051C537.543 651.896 537.373 651.772 537.277 651.677L536.306 653.572C536.752 653.881 537.233 654.142 537.747 654.36C538.261 654.578 538.801 654.746 539.363 654.862C539.925 654.978 540.489 655.037 541.051 655.037C541.613 655.037 542.146 654.977 542.651 654.856C543.156 654.734 543.602 654.539 543.988 654.269C544.375 654 544.681 653.655 544.904 653.231C545.127 652.807 545.238 652.301 545.238 651.71C545.238 651.012 545.092 650.455 544.801 650.038C544.508 649.619 544.089 649.281 543.543 649.023ZM546.893 654.957H549.09V643.65H546.893V654.957ZM551.447 654.957H553.644V650.291H558.134V648.491H553.644V645.577H559.042V643.65H551.447V654.957ZM560.586 654.957H562.784V643.65H560.586V654.957ZM572.05 652.361C571.743 652.616 571.409 652.803 571.047 652.919C570.686 653.035 570.336 653.094 569.996 653.094C569.508 653.094 569.06 652.991 568.651 652.783C568.242 652.576 567.892 652.295 567.6 651.939C567.309 651.584 567.083 651.175 566.923 650.713C566.764 650.251 566.685 649.777 566.685 649.288C566.685 648.83 566.753 648.38 566.892 647.934C567.03 647.488 567.234 647.085 567.505 646.723C567.775 646.362 568.114 646.07 568.524 645.847C568.933 645.624 569.412 645.513 569.965 645.513C570.294 645.513 570.635 645.566 570.992 645.672C571.347 645.779 571.679 645.954 571.987 646.198C572.294 646.442 572.544 646.776 572.735 647.201L574.407 646.039C574.046 645.306 573.487 644.712 572.727 644.255C571.968 643.798 571.068 643.57 570.028 643.57C569.157 643.57 568.377 643.732 567.688 644.056C566.998 644.381 566.411 644.812 565.928 645.354C565.446 645.895 565.08 646.497 564.83 647.161C564.58 647.826 564.455 648.507 564.455 649.208C564.455 649.92 564.591 650.622 564.861 651.318C565.132 652.014 565.511 652.64 566 653.198C566.489 653.755 567.064 654.201 567.728 654.535C568.391 654.87 569.125 655.037 569.933 655.037C570.549 655.037 571.167 654.937 571.788 654.735C572.409 654.532 572.971 654.236 573.476 653.843C573.98 653.449 574.348 652.971 574.582 652.409L572.799 651.358C572.608 651.772 572.359 652.107 572.05 652.361ZM581.206 643.65L585.362 654.957H583.101L582.161 652.138H578.01L577.066 654.957H574.805L578.977 643.65H581.206ZM581.647 650.594L580.091 645.927L578.528 650.594H581.647ZM584.582 645.577H588.212V654.957H590.393V645.577H593.992V643.65H584.582V645.577ZM595.409 654.957H597.606V643.65H595.409V654.957ZM609.906 647.233C610.166 647.913 610.297 648.614 610.297 649.335C610.297 650.079 610.161 650.793 609.891 651.477C609.62 652.162 609.238 652.772 608.744 653.309C608.251 653.846 607.666 654.268 606.993 654.575C606.319 654.883 605.584 655.037 604.787 655.037C603.959 655.037 603.211 654.878 602.542 654.559C601.874 654.241 601.296 653.808 600.807 653.261C600.318 652.715 599.942 652.099 599.676 651.414C599.41 650.729 599.278 650.025 599.278 649.304C599.278 648.55 599.418 647.83 599.7 647.145C599.982 646.461 600.369 645.851 600.862 645.314C601.356 644.777 601.942 644.354 602.622 644.04C603.302 643.728 604.039 643.57 604.835 643.57C605.652 643.57 606.399 643.734 607.072 644.064C607.746 644.393 608.322 644.833 608.8 645.386C609.278 645.938 609.647 646.553 609.906 647.233ZM608.083 649.304C608.083 648.815 608.009 648.345 607.86 647.894C607.712 647.443 607.494 647.039 607.208 646.684C606.921 646.328 606.575 646.047 606.173 645.839C605.77 645.632 605.308 645.529 604.787 645.529C604.267 645.529 603.803 645.639 603.394 645.855C602.985 646.074 602.641 646.36 602.359 646.715C602.077 647.071 601.866 647.475 601.722 647.926C601.579 648.377 601.507 648.837 601.507 649.304C601.507 649.792 601.582 650.264 601.73 650.721C601.878 651.178 602.093 651.584 602.375 651.939C602.657 652.295 603.001 652.576 603.41 652.783C603.819 652.991 604.283 653.094 604.803 653.094C605.345 653.094 605.818 652.986 606.22 652.768C606.623 652.549 606.966 652.261 607.247 651.9C607.529 651.538 607.738 651.13 607.876 650.673C608.015 650.216 608.083 649.761 608.083 649.304ZM619.595 643.665V651.103L613.768 643.65H612V654.957H614.198V647.695L619.962 654.957H621.777V643.665H619.595Z" fill="#1595F2"/>
<path d="M557.142 526.506C558.443 525.904 559.943 525.904 561.243 526.506L580.32 535.323C581.062 535.664 581.534 536.406 581.534 537.226C581.534 538.047 581.062 538.789 580.32 539.13L561.243 547.947C559.943 548.549 558.443 548.549 557.142 547.947L538.065 539.13C537.323 538.781 536.852 538.039 536.852 537.226C536.852 536.414 537.323 535.664 538.065 535.323L557.142 526.506ZM575.679 544.349L580.322 546.496C581.064 546.837 581.535 547.579 581.535 548.399C581.535 549.219 581.064 549.961 580.322 550.302L561.245 559.119C559.944 559.721 558.444 559.721 557.143 559.119L538.066 550.302C537.324 549.953 536.853 549.211 536.853 548.399C536.853 547.587 537.324 546.837 538.066 546.496L542.709 544.349L555.975 550.477C558.018 551.42 560.372 551.42 562.415 550.477L575.679 544.349ZM562.414 561.65L575.679 555.521L580.322 557.668C581.064 558.009 581.535 558.751 581.535 559.571C581.535 560.392 581.064 561.134 580.322 561.475L561.245 570.292C559.944 570.894 558.444 570.894 557.143 570.292L538.066 561.475C537.324 561.126 536.853 560.384 536.853 559.571C536.853 558.759 537.324 558.009 538.066 557.668L542.709 555.521L555.975 561.65C558.014 562.593 560.371 562.593 562.414 561.65Z" fill="#666666"/>
<path d="M276.751 635.648C264.979 635.648 253.555 633.341 242.796 628.789C232.408 624.395 223.08 618.104 215.071 610.094C207.062 602.085 200.774 592.753 196.381 582.363C191.831 571.601 189.523 560.174 189.523 548.399C189.523 536.625 191.831 525.198 196.381 514.436C200.774 504.045 207.064 494.716 215.071 486.705C223.079 478.694 232.408 472.404 242.796 468.01C253.555 463.458 264.979 461.15 276.751 461.15C288.522 461.15 299.947 463.458 310.706 468.01C321.094 472.404 330.421 478.695 338.43 486.705C346.439 494.714 352.727 504.045 357.12 514.436C361.671 525.198 363.978 536.625 363.978 548.399C363.978 560.174 361.671 571.601 357.12 582.363C352.727 592.753 346.438 602.083 338.43 610.094C330.423 618.105 321.094 624.395 310.706 628.789C299.948 633.341 288.524 635.648 276.751 635.648Z" fill="white"/>
<path d="M276.75 627.685C320.528 627.685 356.016 592.187 356.016 548.399C356.016 504.611 320.528 469.113 276.75 469.113C232.973 469.113 197.484 504.611 197.484 548.399C197.484 592.187 232.973 627.685 276.75 627.685Z" fill="white" stroke="#EFF2F7" stroke-width="3" stroke-miterlimit="10"/>
<path d="M276.75 613.238C312.551 613.238 341.573 584.209 341.573 548.399C341.573 512.59 312.551 483.561 276.75 483.561C240.95 483.561 211.928 512.59 211.928 548.399C211.928 584.209 240.95 613.238 276.75 613.238Z" fill="#EFF2F7"/>
<path d="M308.524 663.001C307.061 663.001 305.656 662.779 304.33 662.341C303.408 662.716 302.398 662.921 301.343 662.921H299.146C298.341 662.921 297.566 662.802 296.835 662.58C296.813 662.587 296.791 662.591 296.767 662.596C295.65 662.864 294.487 662.999 293.302 662.999C292.2 662.999 291.089 662.885 289.998 662.658C289.422 662.539 288.852 662.389 288.294 662.211C287.875 662.362 287.446 662.49 287.006 662.596C285.89 662.864 284.726 662.999 283.541 662.999C282.439 662.999 281.328 662.885 280.237 662.658C280.182 662.647 280.124 662.635 280.069 662.622C279.381 662.816 278.655 662.92 277.906 662.92H270.056C269.811 662.92 269.569 662.908 269.33 662.886C269.092 662.908 268.851 662.92 268.608 662.92H266.187C265.412 662.92 264.652 662.806 263.929 662.593C263.211 662.805 262.452 662.92 261.665 662.92H259.468C259.15 662.92 258.837 662.9 258.529 662.865C258.221 662.902 257.908 662.92 257.589 662.92H255.774C255.387 662.92 255.006 662.892 254.634 662.838C253.976 662.945 253.304 662.999 252.621 662.999C251.373 662.999 250.158 662.829 248.989 662.493C248.18 662.77 247.313 662.92 246.411 662.92H238.562C238.316 662.92 238.074 662.908 237.835 662.886C237.597 662.908 237.356 662.92 237.113 662.92H234.692C233.917 662.92 233.157 662.806 232.435 662.593C231.716 662.805 230.957 662.92 230.17 662.92H227.973C223.577 662.92 220.012 659.354 220.012 654.956V643.648C220.012 639.251 223.577 635.685 227.973 635.685H232.989C234.032 635.685 235.047 635.824 236.027 636.098C236.823 635.83 237.675 635.685 238.56 635.685H246.267C247.206 635.685 248.106 635.848 248.943 636.145C250.164 635.785 251.438 635.605 252.749 635.605C254.153 635.605 255.489 635.792 256.742 636.164C257.592 635.854 258.511 635.685 259.468 635.685H264.484C265.527 635.685 266.542 635.824 267.522 636.098C268.318 635.83 269.17 635.685 270.055 635.685H277.761C278.553 635.685 279.317 635.801 280.04 636.016C281.112 635.744 282.229 635.605 283.382 635.605C284.552 635.605 285.702 635.742 286.798 636.013C287.326 636.144 287.842 636.3 288.345 636.481C289.845 635.9 291.458 635.605 293.144 635.605C294.315 635.605 295.464 635.742 296.56 636.013C296.619 636.027 296.676 636.042 296.733 636.058C297.494 635.816 298.305 635.685 299.147 635.685H301.344C302.413 635.685 303.433 635.895 304.363 636.278C305.704 635.832 307.115 635.605 308.573 635.605C310.024 635.605 311.419 635.828 312.742 636.268C313.667 635.892 314.678 635.685 315.738 635.685H317.506C318.522 635.685 319.515 635.879 320.437 636.244C321.335 635.894 322.311 635.701 323.334 635.701H325.515C329.911 635.701 333.476 639.267 333.476 643.664V654.956C333.476 659.354 329.911 662.92 325.515 662.92H323.7C322.703 662.92 321.729 662.733 320.821 662.381C319.926 662.728 318.953 662.92 317.936 662.92H315.738C314.675 662.92 313.659 662.711 312.731 662.332C311.39 662.776 309.982 663.001 308.524 663.001Z" fill="white"/>
<path d="M235.616 649.933C235.923 649.599 236.16 649.213 236.324 648.778C236.488 648.344 236.571 647.886 236.571 647.409C236.571 646.942 236.483 646.485 236.308 646.039C236.133 645.593 235.883 645.19 235.56 644.828C235.237 644.467 234.854 644.18 234.413 643.968C233.972 643.757 233.498 643.65 232.988 643.65H227.973V654.958H230.17V651.167H232.367L234.692 654.958H237.112L234.533 650.705C234.947 650.524 235.307 650.267 235.616 649.933ZM234.167 648.332C234.039 648.608 233.869 648.829 233.657 648.993C233.445 649.159 233.2 649.24 232.925 649.24H230.17V645.577H232.845C233.111 645.577 233.354 645.657 233.577 645.816C233.8 645.975 233.987 646.193 234.135 646.469C234.283 646.744 234.358 647.058 234.358 647.409C234.358 647.748 234.294 648.055 234.167 648.332ZM240.759 653.031H246.411V654.958H238.561V643.65H246.268V645.577H240.759V648.301H245.503V650.084H240.759V653.031ZM253.497 649.145H257.589V654.958H255.774V653.687C254.864 654.587 253.813 655.037 252.621 655.037C251.877 655.037 251.183 654.891 250.535 654.599C249.887 654.308 249.317 653.896 248.823 653.365C248.33 652.835 247.944 652.222 247.669 651.526C247.393 650.83 247.255 650.068 247.255 649.24C247.255 648.465 247.395 647.735 247.677 647.05C247.959 646.365 248.346 645.76 248.839 645.235C249.333 644.709 249.914 644.3 250.583 644.008C251.252 643.717 251.973 643.57 252.748 643.57C253.82 643.57 254.735 643.793 255.495 644.239C256.254 644.685 256.824 645.286 257.207 646.039L255.567 647.249C255.291 646.687 254.893 646.257 254.372 645.959C253.852 645.661 253.29 645.513 252.685 645.513C252.207 645.513 251.769 645.614 251.371 645.816C250.973 646.018 250.631 646.294 250.344 646.644C250.057 646.994 249.839 647.397 249.691 647.855C249.543 648.312 249.468 648.794 249.468 649.304C249.468 649.845 249.551 650.344 249.715 650.801C249.879 651.258 250.113 651.658 250.416 652.003C250.718 652.349 251.072 652.617 251.474 652.808C251.877 652.999 252.323 653.094 252.812 653.094C253.396 653.094 253.947 652.946 254.468 652.648C254.928 652.386 255.363 652.015 255.774 651.535V650.753H253.497V649.145ZM267.11 649.933C267.418 649.599 267.655 649.213 267.819 648.778C267.983 648.344 268.066 647.886 268.066 647.409C268.066 646.942 267.978 646.485 267.803 646.039C267.628 645.593 267.378 645.19 267.055 644.828C266.731 644.467 266.349 644.18 265.908 643.968C265.467 643.757 264.993 643.65 264.483 643.65H259.468V654.958H261.665V651.167H263.862L266.187 654.958H268.607L266.028 650.705C266.442 650.524 266.802 650.267 267.11 649.933ZM265.661 648.332C265.534 648.608 265.364 648.829 265.152 648.993C264.94 649.159 264.695 649.24 264.42 649.24H261.665V645.577H264.34C264.606 645.577 264.849 645.657 265.072 645.816C265.295 645.975 265.482 646.193 265.63 646.469C265.778 646.744 265.853 647.058 265.853 647.409C265.853 647.748 265.789 648.055 265.661 648.332ZM272.252 653.031H277.904V654.958H270.055V643.65H277.761V645.577H272.252V648.301H276.997V650.084H272.252V653.031ZM287.291 650.038C287.582 650.455 287.729 651.013 287.729 651.71C287.729 652.303 287.617 652.809 287.394 653.231C287.171 653.653 286.866 654.001 286.479 654.27C286.092 654.539 285.646 654.735 285.141 654.856C284.636 654.977 284.103 655.037 283.541 655.037C282.979 655.037 282.415 654.979 281.853 654.862C281.291 654.746 280.751 654.579 280.237 654.361C279.723 654.142 279.242 653.88 278.796 653.572L279.767 651.677C279.863 651.772 280.033 651.897 280.277 652.051C280.52 652.206 280.818 652.359 281.169 652.513C281.519 652.668 281.901 652.797 282.315 652.903C282.729 653.01 283.148 653.063 283.573 653.063C284.178 653.063 284.628 652.965 284.926 652.771C285.224 652.577 285.372 652.29 285.372 651.913C285.372 651.575 285.253 651.307 285.014 651.112C284.775 650.916 284.437 650.747 284.003 650.603C283.568 650.46 283.052 650.31 282.458 650.151C281.737 649.95 281.14 649.723 280.667 649.469C280.194 649.216 279.839 648.901 279.6 648.527C279.361 648.152 279.242 647.678 279.242 647.108C279.242 646.335 279.428 645.689 279.799 645.165C280.17 644.641 280.67 644.244 281.296 643.975C281.922 643.706 282.617 643.57 283.382 643.57C283.912 643.57 284.414 643.629 284.886 643.745C285.359 643.862 285.802 644.016 286.216 644.207C286.63 644.398 287.001 644.606 287.331 644.828L286.359 646.612C286.284 646.537 286.149 646.44 285.953 646.318C285.757 646.195 285.519 646.071 285.237 645.943C284.955 645.816 284.651 645.709 284.321 645.625C283.992 645.54 283.657 645.497 283.318 645.497C282.724 645.497 282.275 645.606 281.973 645.822C281.67 646.039 281.519 646.353 281.519 646.765C281.519 647.071 281.614 647.315 281.805 647.495C281.996 647.675 282.283 647.827 282.665 647.955C283.047 648.082 283.525 648.219 284.098 648.367C284.842 648.547 285.487 648.766 286.033 649.025C286.581 649.282 286.999 649.619 287.291 650.038ZM297.051 650.038C297.343 650.455 297.489 651.013 297.489 651.71C297.489 652.303 297.378 652.809 297.155 653.231C296.932 653.653 296.626 654.001 296.239 654.27C295.852 654.539 295.407 654.735 294.902 654.856C294.397 654.977 293.864 655.037 293.302 655.037C292.739 655.037 292.176 654.979 291.614 654.862C291.052 654.746 290.512 654.579 289.998 654.361C289.483 654.142 289.002 653.88 288.557 653.572L289.528 651.677C289.623 651.772 289.794 651.897 290.037 652.051C290.281 652.206 290.579 652.359 290.929 652.513C291.279 652.668 291.662 652.797 292.075 652.903C292.489 653.01 292.908 653.063 293.333 653.063C293.938 653.063 294.389 652.965 294.687 652.771C294.985 652.577 295.133 652.29 295.133 651.913C295.133 651.575 295.013 651.307 294.774 651.112C294.536 650.916 294.198 650.747 293.763 650.603C293.329 650.46 292.813 650.31 292.219 650.151C291.498 649.95 290.9 649.723 290.428 649.469C289.955 649.216 289.6 648.901 289.361 648.527C289.122 648.152 289.002 647.678 289.002 647.108C289.002 646.335 289.189 645.689 289.56 645.165C289.931 644.641 290.431 644.244 291.056 643.975C291.682 643.706 292.378 643.57 293.142 643.57C293.673 643.57 294.174 643.629 294.647 643.745C295.12 643.862 295.563 644.016 295.977 644.207C296.391 644.398 296.762 644.606 297.091 644.828L296.12 646.612C296.045 646.537 295.91 646.44 295.714 646.318C295.518 646.195 295.279 646.071 294.997 645.943C294.715 645.816 294.411 645.709 294.082 645.625C293.752 645.54 293.418 645.497 293.079 645.497C292.485 645.497 292.036 645.606 291.733 645.822C291.431 646.039 291.279 646.353 291.279 646.765C291.279 647.071 291.375 647.315 291.566 647.495C291.757 647.675 292.044 647.827 292.426 647.955C292.808 648.082 293.286 648.219 293.859 648.367C294.602 648.547 295.247 648.766 295.793 649.025C296.341 649.282 296.76 649.619 297.051 650.038ZM299.145 643.65H301.342V654.958H299.145V643.65ZM312.536 645.386C312.058 644.833 311.482 644.394 310.808 644.064C310.135 643.734 309.388 643.57 308.571 643.57C307.775 643.57 307.038 643.726 306.358 644.04C305.678 644.354 305.092 644.778 304.599 645.314C304.105 645.851 303.718 646.461 303.436 647.146C303.154 647.831 303.014 648.551 303.014 649.304C303.014 650.025 303.146 650.729 303.412 651.414C303.678 652.099 304.054 652.715 304.543 653.262C305.032 653.808 305.61 654.241 306.278 654.56C306.947 654.878 307.696 655.037 308.524 655.037C309.32 655.037 310.055 654.883 310.729 654.576C311.402 654.268 311.987 653.846 312.48 653.309C312.974 652.773 313.356 652.163 313.627 651.478C313.897 650.793 314.033 650.08 314.033 649.336C314.033 648.614 313.902 647.913 313.643 647.233C313.383 646.553 313.014 645.937 312.536 645.386ZM311.613 650.674C311.474 651.131 311.265 651.538 310.984 651.9C310.702 652.261 310.359 652.55 309.957 652.768C309.554 652.986 309.081 653.094 308.539 653.094C308.019 653.094 307.555 652.991 307.146 652.784C306.737 652.577 306.393 652.295 306.111 651.94C305.829 651.585 305.614 651.178 305.466 650.721C305.318 650.264 305.244 649.793 305.244 649.304C305.244 648.837 305.315 648.377 305.458 647.926C305.602 647.475 305.814 647.071 306.095 646.716C306.377 646.361 306.721 646.074 307.13 645.856C307.54 645.638 308.003 645.529 308.524 645.529C309.044 645.529 309.506 645.633 309.909 645.84C310.312 646.047 310.657 646.329 310.944 646.684C311.23 647.039 311.449 647.444 311.597 647.894C311.745 648.345 311.82 648.815 311.82 649.304C311.82 649.759 311.751 650.216 311.613 650.674ZM325.513 643.666V654.958H323.698L317.934 647.695V654.958H315.736V643.65H317.504L323.332 651.104V643.666H325.513Z" fill="#1595F2"/>
<path d="M276.745 526.057C268.687 526.057 262.235 529.728 257.538 534.096C252.871 538.425 249.749 543.613 248.273 547.174C247.943 547.962 247.943 548.84 248.273 549.628C249.749 553.189 252.869 558.376 257.538 562.705C262.235 567.074 268.687 570.745 276.745 570.745C284.804 570.745 291.256 567.074 295.953 562.705C300.62 558.367 303.742 553.189 305.228 549.628C305.557 548.84 305.557 547.962 305.228 547.174C303.742 543.613 300.62 538.425 295.953 534.096C291.256 529.726 284.804 526.057 276.745 526.057ZM291.106 548.4C291.106 556.33 284.673 562.764 276.745 562.764C268.818 562.764 262.385 556.33 262.385 548.4C262.385 540.47 268.818 534.036 276.745 534.036C284.673 534.036 291.106 540.47 291.106 548.4ZM276.745 542.017C276.745 545.538 273.883 548.4 270.364 548.4C269.217 548.4 268.139 548.101 267.213 547.562C267.192 547.841 267.173 548.11 267.173 548.4C267.173 553.688 271.461 557.977 276.747 557.977C282.033 557.977 286.321 553.688 286.321 548.4C286.321 543.112 282.033 538.823 276.747 538.823C276.468 538.823 276.188 538.833 275.909 538.863C276.436 539.792 276.745 540.868 276.745 542.017Z" fill="#666666"/>
<path d="M418.106 469.114C480.893 469.114 531.792 418.202 531.792 355.4C531.792 292.597 480.893 241.686 418.106 241.686C355.319 241.686 304.42 292.597 304.42 355.4C304.42 418.202 355.319 469.114 418.106 469.114Z" fill="#1595F2"/>
<path d="M418.105 448.394C469.452 448.394 511.076 406.759 511.076 355.4C511.076 304.041 469.452 262.406 418.105 262.406C366.759 262.406 325.135 304.041 325.135 355.4C325.135 406.759 366.759 448.394 418.105 448.394Z" stroke="#FFB17F" stroke-width="3" stroke-miterlimit="10"/>
<path d="M384.854 347.935V329.273H391.633C393.665 329.273 395.364 329.689 396.732 330.522C398.098 331.355 399.123 332.476 399.806 333.886C400.49 335.297 400.832 336.861 400.832 338.578C400.832 340.47 400.454 342.117 399.701 343.52C398.948 344.921 397.883 346.008 396.509 346.778C395.133 347.549 393.509 347.935 391.635 347.935H384.854ZM397.176 338.578C397.176 337.369 396.956 336.305 396.518 335.384C396.081 334.464 395.45 333.746 394.627 333.23C393.804 332.714 392.805 332.454 391.632 332.454H388.479V344.754H391.632C392.84 344.754 393.851 344.483 394.667 343.939C395.482 343.396 396.103 342.66 396.533 341.731C396.963 340.803 397.176 339.752 397.176 338.578Z" fill="white" stroke="white"/>
<path d="M408.736 329.273H412.415L419.272 347.935H415.542L413.991 343.282H407.141L405.582 347.935H401.852L408.736 329.273ZM413.142 340.733L410.576 333.032L407.996 340.733H413.142Z" fill="white" stroke="white"/>
<path d="M435.252 332.454H429.312V347.935H425.712V332.454H419.721V329.273H435.25V332.454H435.252Z" fill="white" stroke="white"/>
<path d="M442.66 329.273H446.338L453.196 347.935H449.466L447.915 343.282H441.065L439.506 347.935H435.775L442.66 329.273ZM447.066 340.733L444.499 333.032L441.92 340.733H447.066Z" fill="white" stroke="white"/>
<path d="M386.837 379.474V367.226L382.029 376.346H380.005L375.223 367.226V379.474H371.598V360.812H375.513L381.005 371.405L386.549 360.812H390.437V379.474H386.837Z" fill="white" stroke="white"/>
<path d="M394.326 379.474V360.812H397.952V379.474H394.326Z" fill="white" stroke="white"/>
<path d="M405.467 367.489V379.474H401.842V360.812H404.759L414.376 373.113V360.838H417.976V379.472H414.981L405.467 367.489Z" fill="white" stroke="white"/>
<path d="M421.889 379.474V360.812H425.514V379.474H421.889Z" fill="white" stroke="white"/>
<path d="M433.03 367.489V379.474H429.404V360.812H432.321L441.939 373.113V360.838H445.539V379.472H442.544L433.03 367.489Z" fill="white" stroke="white"/>
<path d="M457.204 379.606C455.978 379.606 454.83 379.365 453.762 378.883C452.693 378.402 451.752 377.721 450.937 376.846C450.122 375.97 449.488 374.958 449.033 373.81C448.577 372.663 448.35 371.405 448.35 370.039C448.35 368.76 448.582 367.556 449.045 366.425C449.509 365.294 450.149 364.295 450.964 363.429C451.779 362.563 452.738 361.887 453.841 361.405C454.945 360.924 456.136 360.682 457.414 360.682C459.183 360.682 460.694 361.05 461.948 361.785C463.199 362.521 464.142 363.512 464.772 364.756L462.065 366.753C461.61 365.824 460.952 365.114 460.094 364.623C459.236 364.133 458.308 363.888 457.309 363.888C456.521 363.888 455.798 364.055 455.142 364.388C454.485 364.721 453.921 365.176 453.448 365.754C452.975 366.332 452.615 366.998 452.37 367.751C452.125 368.505 452.002 369.303 452.002 370.144C452.002 371.037 452.138 371.861 452.41 372.614C452.681 373.367 453.067 374.03 453.566 374.598C454.066 375.168 454.647 375.61 455.313 375.925C455.978 376.24 456.714 376.398 457.519 376.398C458.483 376.398 459.394 376.153 460.252 375.662C461.11 375.172 461.916 374.453 462.669 373.507V377.108C461.112 378.773 459.288 379.606 457.204 379.606ZM462.408 372.536H458.65V369.881H465.403V379.473H462.408V372.536Z" fill="white" stroke="white"/>
</svg>
