<svg width="17" height="17" viewBox="0 0 17 17" fill="none" xmlns="http://www.w3.org/2000/svg">
<path d="M12.2337 10.6538L10.8686 9.14313L11.26 10.4081C12.1518 9.37066 12.6888 8.02376 12.6888 6.55855C12.6888 3.29142 10.0405 0.643127 6.77334 0.643127C3.5062 0.643127 0.85791 3.29142 0.85791 6.55855C0.85791 9.82569 3.5062 12.474 6.77334 12.474C8.23854 12.474 9.58544 11.937 10.6229 11.0452L9.35791 10.6538L10.8686 12.0189L14.7403 15.8829C15.1152 16.257 15.7224 16.2567 16.097 15.8822C16.4715 15.5076 16.4718 14.9004 16.0976 14.5255L12.2337 10.6538ZM6.77334 10.6538C4.50727 10.6538 2.67804 8.82462 2.67804 6.55855C2.67804 4.29249 4.50727 2.46326 6.77334 2.46326C9.0394 2.46326 10.8686 4.29249 10.8686 6.55855C10.8686 8.82462 9.0394 10.6538 6.77334 10.6538Z" fill="white"/>
</svg>
