<svg width="17" height="17" viewBox="0 0 17 17" fill="none" xmlns="http://www.w3.org/2000/svg">
<path d="M15.1556 6.84066V10.8249C15.1556 12.485 14.8236 13.6471 14.0798 14.3975L9.84326 10.1609L14.9763 5.02783C15.0958 5.55242 15.1556 6.15006 15.1556 6.84066Z" stroke="white" stroke-width="0.664041" stroke-linecap="round" stroke-linejoin="round"/>
<path d="M14.9765 5.02784L4.71045 15.2939C2.71168 14.8357 1.875 13.4545 1.875 10.8249V6.84067C1.875 3.52046 3.20308 2.19238 6.52329 2.19238H10.5075C13.1371 2.19238 14.5183 3.02908 14.9765 5.02784Z" stroke="white" stroke-width="0.664041" stroke-linecap="round" stroke-linejoin="round"/>
<path d="M14.0796 14.3975C13.3292 15.1412 12.1671 15.4732 10.507 15.4732H6.5228C5.8322 15.4732 5.23455 15.4135 4.70996 15.2939L9.84301 10.1609L14.0796 14.3975Z" stroke="white" stroke-width="0.664041" stroke-linecap="round" stroke-linejoin="round"/>
<path d="M4.69023 6.16333C5.14177 4.21769 8.06356 4.21769 8.51511 6.16333C8.77408 7.30548 8.05691 8.27498 7.42607 8.87262C6.96788 9.31089 6.24409 9.31089 5.77926 8.87262C5.14842 8.27498 4.42461 7.30548 4.69023 6.16333Z" stroke="white" stroke-width="0.664041"/>
<path d="M6.58619 6.64135H6.59215" stroke="white" stroke-width="0.664041" stroke-linecap="round" stroke-linejoin="round"/>
</svg>
