<svg id="Layer_1" data-name="Layer 1" xmlns="http://www.w3.org/2000/svg" viewBox="0 0 732.01 574.92"><defs><style>.cls-1,.cls-6{fill:#1595f2;}.cls-2{fill:#fff;}.cls-2,.cls-4,.cls-6{fill-rule:evenodd;}.cls-3{fill:#676767;}.cls-4,.cls-8{fill:#fab07f;}.cls-5{fill:#606161;}.cls-7{fill:none;stroke:#676767;stroke-linecap:round;stroke-linejoin:round;stroke-width:9px;}</style></defs><path class="cls-1" d="M200.93,445.63a106.38,106.38,0,1,0-150.51,0A106.27,106.27,0,0,0,200.93,445.63Z" transform="translate(0 0)"/><path class="cls-2" d="M217.46,370.44a91.78,91.78,0,1,1-91.78-91.69A91.75,91.75,0,0,1,217.46,370.44Z" transform="translate(0 0)"/><path class="cls-3" d="M137.08,352.4a19,19,0,0,0,18.26-24.23,1.69,1.69,0,0,0-2.88-.63l-9.12,9.11a1.88,1.88,0,0,1-1.34.55h-6.82a1.9,1.9,0,0,1-1.9-1.89V328.5a1.92,1.92,0,0,1,.56-1.34l9.12-9.11a1.71,1.71,0,0,0-.63-2.89,19.47,19.47,0,0,0-5.25-.74,19,19,0,0,0-19,19,19.25,19.25,0,0,0,1.12,6.47L97.64,361.42A8.06,8.06,0,0,0,109,372.81l21.56-21.55A18.64,18.64,0,0,0,137.08,352.4Zm-32.3,16.13a2.85,2.85,0,1,1,2.85-2.84A2.83,2.83,0,0,1,104.78,368.53Z" transform="translate(0 0)"/><path class="cls-2" d="M368.65,249.57A120.86,120.86,0,1,1,283.11,455.9l-75.18-75.11a14.62,14.62,0,0,1,0-20.69L283.11,285A120.18,120.18,0,0,1,368.65,249.57Z" transform="translate(0 0)"/><path class="cls-4" d="M443.83,445.56a106.41,106.41,0,0,1-150.37,0l-75.18-75.12q37.59-37.54,75.18-75.11A106.28,106.28,0,1,1,443.83,445.56Z" transform="translate(0 0)"/><path class="cls-2" d="M460.4,370.38a91.78,91.78,0,1,1-91.78-91.7A91.73,91.73,0,0,1,460.4,370.38Z" transform="translate(0 0)"/><path class="cls-3" d="M395.65,315.3a2.88,2.88,0,0,0-3-.12l-55.16,31.35a2.86,2.86,0,0,0,.31,5.11L356,359.28v13.48a2.86,2.86,0,0,0,1.49,2.51,2.8,2.8,0,0,0,1.26.35,2.92,2.92,0,0,0,1.55-.46l13.22-8.49,11.72,4.92a2.81,2.81,0,0,0,1.1.22,2.83,2.83,0,0,0,2.82-2.43l7.61-51.3A2.65,2.65,0,0,0,395.65,315.3ZM379.92,329l-22.24,24.81-12.36-5.15Zm-18.33,38.58v-5.86l5.52,2.32Zm22.55-2.62-21-8.81,26.7-29.63Z" transform="translate(0 0)"/><path class="cls-5" d="M321.13,410.32V389.54h7.56a10.72,10.72,0,0,1,5.68,1.39,8.83,8.83,0,0,1,3.43,3.74,11.9,11.9,0,0,1,1.14,5.23,11.42,11.42,0,0,1-1.26,5.5,8.89,8.89,0,0,1-3.56,3.63,10.93,10.93,0,0,1-5.43,1.29Zm13.74-10.42a8.17,8.17,0,0,0-.73-3.56,5.73,5.73,0,0,0-2.11-2.4,6.13,6.13,0,0,0-3.34-.86h-3.52v13.7h3.52a5.94,5.94,0,0,0,3.38-.91,5.81,5.81,0,0,0,2.08-2.46A8.25,8.25,0,0,0,334.87,399.9Z" transform="translate(0 0)"/><path class="cls-5" d="M348.84,410.61a8.53,8.53,0,0,1-3.34-.62,7.66,7.66,0,0,1-2.54-1.7,7.76,7.76,0,0,1-1.62-2.48,7.93,7.93,0,0,1-.55-3,8.24,8.24,0,0,1,1-4,7.49,7.49,0,0,1,2.78-2.89,9,9,0,0,1,8.6,0,7.57,7.57,0,0,1,2.76,2.86,7.94,7.94,0,0,1,1,3.85c0,.25,0,.49,0,.71s0,.41-.06.57H345a4.19,4.19,0,0,0,.66,2,4,4,0,0,0,1.46,1.3,4.06,4.06,0,0,0,1.89.46,4.58,4.58,0,0,0,2.24-.57,2.94,2.94,0,0,0,1.42-1.54l3.34.94a6.19,6.19,0,0,1-1.55,2.08,7.49,7.49,0,0,1-2.43,1.42A9.19,9.19,0,0,1,348.84,410.61Zm-4-9.1h8a4.51,4.51,0,0,0-.66-2,3.91,3.91,0,0,0-1.42-1.32,4.14,4.14,0,0,0-2-.47,4,4,0,0,0-1.92.47,3.88,3.88,0,0,0-1.41,1.32A4.35,4.35,0,0,0,344.83,401.51Z" transform="translate(0 0)"/><path class="cls-5" d="M368.47,410.61a6.12,6.12,0,0,1-3.16-.81,5.78,5.78,0,0,1-2.14-2.14v8.9h-3.9V395.13h3.43v2.63a6.58,6.58,0,0,1,2.23-2.1,6.15,6.15,0,0,1,3.08-.77,6.75,6.75,0,0,1,2.85.61,7,7,0,0,1,2.29,1.69,8,8,0,0,1,1.51,2.5,8.62,8.62,0,0,1,.52,3,9.06,9.06,0,0,1-.86,4,7.39,7.39,0,0,1-2.37,2.85A6,6,0,0,1,368.47,410.61Zm-1.31-3.33a3.58,3.58,0,0,0,1.62-.38,4,4,0,0,0,1.28-1,4.72,4.72,0,0,0,.82-1.48,5.37,5.37,0,0,0,.29-1.73,4.76,4.76,0,0,0-.31-1.74,4,4,0,0,0-.89-1.42,4.3,4.3,0,0,0-1.36-.94,4.23,4.23,0,0,0-1.72-.34,3.37,3.37,0,0,0-1.1.18,4.63,4.63,0,0,0-1.1.53,4,4,0,0,0-.9.78,3.56,3.56,0,0,0-.62,1v3.56a6.38,6.38,0,0,0,1,1.52,4.59,4.59,0,0,0,1.39,1.07A3.92,3.92,0,0,0,367.16,407.28Z" transform="translate(0 0)"/><path class="cls-5" d="M377.82,389h3.93v16.47a2.15,2.15,0,0,0,.35,1.46,1.26,1.26,0,0,0,.94.37,4.23,4.23,0,0,0,1-.12,3.65,3.65,0,0,0,.86-.32l.53,3a7.56,7.56,0,0,1-1.83.59,9.79,9.79,0,0,1-1.92.2,4,4,0,0,1-2.86-1,3.71,3.71,0,0,1-1-2.77Z" transform="translate(0 0)"/><path class="cls-5" d="M394.23,410.61a8.53,8.53,0,0,1-3.36-.63,7.71,7.71,0,0,1-2.53-1.74,7.42,7.42,0,0,1-1.6-2.5,8.22,8.22,0,0,1-.54-3,8.42,8.42,0,0,1,.54-3,7.31,7.31,0,0,1,4.12-4.21,9.41,9.41,0,0,1,6.72,0,7.79,7.79,0,0,1,2.54,1.71,7.56,7.56,0,0,1,1.61,2.5,8.25,8.25,0,0,1,.55,3,8,8,0,0,1-.55,3,7.77,7.77,0,0,1-1.61,2.5,7.86,7.86,0,0,1-2.54,1.74A8.7,8.7,0,0,1,394.23,410.61Zm-4-7.84a5,5,0,0,0,.53,2.32,4,4,0,0,0,1.45,1.61,3.75,3.75,0,0,0,2,.58,3.67,3.67,0,0,0,2-.59,4.19,4.19,0,0,0,1.45-1.61,4.93,4.93,0,0,0,.54-2.34,4.86,4.86,0,0,0-.54-2.31,4.19,4.19,0,0,0-1.45-1.61,3.8,3.8,0,0,0-4.07,0,4.09,4.09,0,0,0-1.44,1.61A5,5,0,0,0,390.21,402.77Z" transform="translate(0 0)"/><path class="cls-5" d="M405.21,413.31c.35.08.68.13,1,.19s.56.08.78.1a1.5,1.5,0,0,0,.92-.28,2.84,2.84,0,0,0,.72-1,14.15,14.15,0,0,0,.73-2l-6.07-15.23h4.08l4.13,11.25,3.63-11.25h3.75l-6.45,18.26a5.56,5.56,0,0,1-1.06,1.84,5.12,5.12,0,0,1-1.78,1.31,5.71,5.71,0,0,1-2.4.48,6,6,0,0,1-.94-.07,5.26,5.26,0,0,1-1-.28v-3.36Z" transform="translate(0 0)"/><path class="cls-2" d="M611.1,249.57A120.86,120.86,0,1,1,525.55,455.9l-75.18-75.11a14.62,14.62,0,0,1,0-20.69L525.55,285A120.21,120.21,0,0,1,611.1,249.57Z" transform="translate(0 0)"/><path class="cls-6" d="M686.28,445.56a106.41,106.41,0,0,1-150.37,0l-75.18-75.12,75.18-75.11A106.28,106.28,0,1,1,686.28,445.56Z" transform="translate(0 0)"/><path class="cls-2" d="M702.84,370.38a91.78,91.78,0,1,1-91.77-91.7A91.73,91.73,0,0,1,702.84,370.38Z" transform="translate(0 0)"/><path class="cls-5" d="M599.55,398.08h-6.62v17.25h-4V398.08h-6.68v-3.54h17.31Z" transform="translate(0 0)"/><path class="cls-5" d="M608.9,415.62a8.68,8.68,0,0,1-3.34-.62,7.48,7.48,0,0,1-2.55-1.71,7.59,7.59,0,0,1-1.61-2.47,7.8,7.8,0,0,1-.56-3,8.2,8.2,0,0,1,1-3.95,7.47,7.47,0,0,1,2.79-2.9,8.24,8.24,0,0,1,4.32-1.08A8.09,8.09,0,0,1,613.2,401a7.54,7.54,0,0,1,2.76,2.85,8,8,0,0,1,1,3.86c0,.25,0,.49,0,.71s0,.41-.06.56H605a4.15,4.15,0,0,0,.66,2,3.86,3.86,0,0,0,1.47,1.31,4.11,4.11,0,0,0,1.88.46,4.64,4.64,0,0,0,2.25-.57,3.1,3.1,0,0,0,1.42-1.54l3.34.94a6,6,0,0,1-1.56,2.07,7.31,7.31,0,0,1-2.43,1.42A9.34,9.34,0,0,1,608.9,415.62Zm-4-9.11h8a4.56,4.56,0,0,0-.66-2,3.73,3.73,0,0,0-1.42-1.31,4,4,0,0,0-2-.48,3.91,3.91,0,0,0-1.92.48,3.77,3.77,0,0,0-1.41,1.31A4.56,4.56,0,0,0,604.88,406.51Z" transform="translate(0 0)"/><path class="cls-5" d="M625,415.62a10.81,10.81,0,0,1-3.76-.65,8.13,8.13,0,0,1-3.06-1.9l1.43-2.54a10.42,10.42,0,0,0,2.67,1.63,6.73,6.73,0,0,0,2.58.53,3.71,3.71,0,0,0,1.83-.39,1.29,1.29,0,0,0,.69-1.19,1,1,0,0,0-.39-.88,3.46,3.46,0,0,0-1.09-.52l-1.75-.5a21,21,0,0,1-2.82-1.06,4.24,4.24,0,0,1-1.72-1.33,3.32,3.32,0,0,1-.58-2,4.31,4.31,0,0,1,.77-2.59,5.17,5.17,0,0,1,2.17-1.69,8.19,8.19,0,0,1,3.27-.6,9.08,9.08,0,0,1,3.1.51,7.35,7.35,0,0,1,2.67,1.65l-1.61,2.52a8.66,8.66,0,0,0-2.2-1.36,5.53,5.53,0,0,0-2.14-.43,4.78,4.78,0,0,0-1.16.15,2,2,0,0,0-.88.48,1.26,1.26,0,0,0-.33.93,1.13,1.13,0,0,0,.31.84,2.59,2.59,0,0,0,.93.55c.42.15.93.33,1.54.52a25.42,25.42,0,0,1,3.11,1.05,4.9,4.9,0,0,1,1.92,1.34,3.33,3.33,0,0,1,.66,2.19,4.16,4.16,0,0,1-1.67,3.51A7.36,7.36,0,0,1,625,415.62Z" transform="translate(0 0)"/><path class="cls-5" d="M643,414.56c-.35.16-.75.32-1.21.49a10.57,10.57,0,0,1-1.5.41,8,8,0,0,1-1.62.16,5.32,5.32,0,0,1-2-.38,3.15,3.15,0,0,1-1.45-1.2,3.91,3.91,0,0,1-.54-2.16v-8.76h-2v-3h2v-5h4v5h3.22v3h-3.22v7.43a1.54,1.54,0,0,0,.44,1.14,1.52,1.52,0,0,0,1.05.36,3.46,3.46,0,0,0,1.17-.22c.39-.15.71-.28,1-.4Z" transform="translate(0 0)"/><path class="cls-7" d="M641.83,340.23a2.9,2.9,0,0,1-.82,3.16l-5.55,5.05a24.19,24.19,0,0,1,0,6.51L641,360a2.9,2.9,0,0,1,.82,3.16,31.76,31.76,0,0,1-2,4.39l-.6,1a31.31,31.31,0,0,1-2.84,4,2.9,2.9,0,0,1-3.14.87l-7.14-2.27a24.74,24.74,0,0,1-5.64,3.26l-1.6,7.31A2.91,2.91,0,0,1,616.5,384a33.23,33.23,0,0,1-10.9,0,2.88,2.88,0,0,1-2.33-2.28l-1.61-7.31a24.17,24.17,0,0,1-5.64-3.26l-7.13,2.29a3,3,0,0,1-3.14-.87,34,34,0,0,1-2.83-4l-.6-1a30.64,30.64,0,0,1-2-4.39,2.89,2.89,0,0,1,.82-3.15l5.55-5a25.41,25.41,0,0,1-.22-3.27,24.87,24.87,0,0,1,.22-3.25l-5.55-5.05a2.9,2.9,0,0,1-.82-3.16,30.64,30.64,0,0,1,2-4.39l.6-1a32.27,32.27,0,0,1,2.83-4,2.89,2.89,0,0,1,3.14-.87l7.15,2.26a24.86,24.86,0,0,1,5.64-3.25l1.6-7.31a2.92,2.92,0,0,1,2.34-2.29,32.59,32.59,0,0,1,5.45-.46,33.78,33.78,0,0,1,5.45.45,2.89,2.89,0,0,1,2.33,2.28l1.61,7.31a24.74,24.74,0,0,1,5.64,3.26l7.14-2.27a2.92,2.92,0,0,1,3.14.87,33.15,33.15,0,0,1,2.83,4l.6,1a30.64,30.64,0,0,1,2,4.39Zm-30.76,21.7a10.25,10.25,0,1,0-10.26-10.24A10.24,10.24,0,0,0,611.07,361.93Z" transform="translate(0 0)"/><path class="cls-2" d="M488.58,120.82a121,121,0,1,1,206.51,85.46L619.91,281.4a14.66,14.66,0,0,1-20.71,0L524,206.28A120,120,0,0,1,488.58,120.82Z" transform="translate(0 0)"/><path class="cls-4" d="M684.74,45.7a106.18,106.18,0,0,1,0,150.24q-37.59,37.55-75.18,75.11l-75.18-75.11A106.28,106.28,0,1,1,684.74,45.7Z" transform="translate(0 0)"/><path class="cls-2" d="M609.49,29.15a91.7,91.7,0,1,1-91.78,91.7A91.74,91.74,0,0,1,609.49,29.15Z" transform="translate(0 0)"/><path class="cls-5" d="M573.28,151.63a10.6,10.6,0,0,1,.69-3.76,10.43,10.43,0,0,1,2-3.32,9.87,9.87,0,0,1,3.24-2.39,10,10,0,0,1,4.3-.89,9.49,9.49,0,0,1,5,1.26,7.84,7.84,0,0,1,3.09,3.28L588.51,148a4.82,4.82,0,0,0-1.37-1.85,5.58,5.58,0,0,0-1.83-1,6.85,6.85,0,0,0-1.89-.29,5.5,5.5,0,0,0-2.66.62,5.7,5.7,0,0,0-1.87,1.61,7.27,7.27,0,0,0-1.13,2.22,8.18,8.18,0,0,0-.38,2.49,8,8,0,0,0,.44,2.62,7.23,7.23,0,0,0,1.24,2.25,6.13,6.13,0,0,0,1.94,1.56,5.38,5.38,0,0,0,2.47.57,6.18,6.18,0,0,0,1.94-.33,5.4,5.4,0,0,0,1.84-1,5.1,5.1,0,0,0,1.38-1.84l3.28,1.93a6.4,6.4,0,0,1-2,2.63,10,10,0,0,1-3.11,1.64,11,11,0,0,1-3.41.56,8.82,8.82,0,0,1-4.06-.93,10.43,10.43,0,0,1-3.18-2.45,11.43,11.43,0,0,1-2.09-3.46A10.53,10.53,0,0,1,573.28,151.63Z" transform="translate(0 0)"/><path class="cls-5" d="M601.35,162.49a8.49,8.49,0,0,1-3.36-.63,7.71,7.71,0,0,1-2.53-1.74,7.27,7.27,0,0,1-1.6-2.5,8.22,8.22,0,0,1-.54-3,8.42,8.42,0,0,1,.54-3,7.31,7.31,0,0,1,4.12-4.21,8.5,8.5,0,0,1,3.34-.62,8.6,8.6,0,0,1,3.38.62,7.64,7.64,0,0,1,2.53,1.71,7.34,7.34,0,0,1,1.62,2.5,8.25,8.25,0,0,1,.55,3,8,8,0,0,1-.55,3,7.74,7.74,0,0,1-4.15,4.24A8.51,8.51,0,0,1,601.35,162.49Zm-4-7.84a5.09,5.09,0,0,0,.53,2.33,4,4,0,0,0,1.45,1.61,3.8,3.8,0,0,0,2,.57,3.67,3.67,0,0,0,2-.59,4.19,4.19,0,0,0,1.45-1.61,4.93,4.93,0,0,0,.54-2.34,4.86,4.86,0,0,0-.54-2.31,4.19,4.19,0,0,0-1.45-1.61,3.64,3.64,0,0,0-2-.59,3.7,3.7,0,0,0-2,.59,4.14,4.14,0,0,0-1.43,1.61A4.92,4.92,0,0,0,597.33,154.65Z" transform="translate(0 0)"/><path class="cls-5" d="M611.07,154.62a9,9,0,0,1,.88-4,7.18,7.18,0,0,1,2.43-2.84,6.27,6.27,0,0,1,3.55-1,5.76,5.76,0,0,1,3.05.84,6,6,0,0,1,2.11,2.12v-8.9H627v17a1.44,1.44,0,0,0,.21.88,1,1,0,0,0,.7.32v3.19a7.24,7.24,0,0,1-1.67.18,2.66,2.66,0,0,1-1.74-.5,1.89,1.89,0,0,1-.78-1.38l-.06-1a5.57,5.57,0,0,1-2.3,2.19,6.42,6.42,0,0,1-3,.76,7,7,0,0,1-2.92-.59,6.84,6.84,0,0,1-2.31-1.68,7.6,7.6,0,0,1-1.52-2.51A8.52,8.52,0,0,1,611.07,154.62Zm12,2V153a4,4,0,0,0-.94-1.49,5.22,5.22,0,0,0-1.44-1.05,3.51,3.51,0,0,0-1.58-.39,3.66,3.66,0,0,0-1.64.37,4.14,4.14,0,0,0-1.27,1,4.23,4.23,0,0,0-.82,1.45,5.19,5.19,0,0,0-.28,1.73,4.83,4.83,0,0,0,.32,1.76,4.57,4.57,0,0,0,.88,1.44,3.69,3.69,0,0,0,1.35.94,4.33,4.33,0,0,0,1.7.33,3.72,3.72,0,0,0,1.14-.18,4.48,4.48,0,0,0,1.07-.54,4.37,4.37,0,0,0,.92-.8A2.56,2.56,0,0,0,623.11,156.6Z" transform="translate(0 0)"/><path class="cls-5" d="M638,162.49a8.53,8.53,0,0,1-3.34-.62,7.6,7.6,0,0,1-2.55-1.7,7.73,7.73,0,0,1-1.61-2.48,7.9,7.9,0,0,1-.56-3,8.23,8.23,0,0,1,1-4,7.68,7.68,0,0,1,2.79-2.9,8.24,8.24,0,0,1,4.32-1.08,8.15,8.15,0,0,1,4.28,1.09,7.54,7.54,0,0,1,2.75,2.86,7.81,7.81,0,0,1,1,3.85c0,.25,0,.49,0,.71s0,.41-.06.57H634.12a4.11,4.11,0,0,0,.66,2,3.86,3.86,0,0,0,1.47,1.31,4.12,4.12,0,0,0,1.89.46,4.61,4.61,0,0,0,2.24-.57,3,3,0,0,0,1.42-1.54l3.34.94a6.19,6.19,0,0,1-1.55,2.08,7.78,7.78,0,0,1-2.43,1.42A9.41,9.41,0,0,1,638,162.49Zm-4-9.1h8a4.51,4.51,0,0,0-.66-2,3.76,3.76,0,0,0-1.42-1.32,4.09,4.09,0,0,0-2-.47,4,4,0,0,0-1.92.47,3.78,3.78,0,0,0-1.4,1.32A4.51,4.51,0,0,0,634,153.39Z" transform="translate(0 0)"/><path class="cls-3" d="M578.57,80.7A7.73,7.73,0,0,1,586.3,73h46.42a7.73,7.73,0,0,1,7.73,7.73v30.92h-7.73V80.7H586.3v30.92h-7.73Zm-5.45,34.78h72.72a2.34,2.34,0,0,1,2.33,2.34,9.28,9.28,0,0,1-9.29,9.25H580.09a9.27,9.27,0,0,1-9.28-9.25A2.32,2.32,0,0,1,573.12,115.48ZM604.8,94.36l-3.75,3.75,3.75,3.75a2.9,2.9,0,0,1-4.1,4.09l-5.8-5.8a2.89,2.89,0,0,1,0-4.09l5.8-5.8a2.9,2.9,0,0,1,4.1,4.09Zm13.53-4.1,5.8,5.79a2.87,2.87,0,0,1,0,4.09l-5.8,5.8a2.89,2.89,0,0,1-4.09-4.09L618,98.1l-3.75-3.75a2.89,2.89,0,0,1,4.09-4.09Z" transform="translate(0 0)"/><path class="cls-2" d="M363.37,241.76A120.86,120.86,0,0,1,277.83,35.44a121,121,0,0,1,171.08,0l75.18,75.11a14.61,14.61,0,0,1,0,20.7l-75.18,75.13A120.22,120.22,0,0,1,363.37,241.76Z" transform="translate(0 0)"/><path class="cls-6" d="M288.19,45.78a106.39,106.39,0,0,1,150.37,0l75.18,75.11L438.56,196A106.27,106.27,0,0,1,288.19,45.78Z" transform="translate(0 0)"/><path class="cls-2" d="M271.62,121a91.78,91.78,0,1,1,91.78,91.7A91.73,91.73,0,0,1,271.62,121Z" transform="translate(0 0)"/><path class="cls-5" d="M344.65,160.91V147.26l-5.36,10.16H337l-5.33-10.16v13.65h-4V140.12H332l6.12,11.8,6.18-11.8h4.34v20.79Z" transform="translate(0 0)"/><path class="cls-5" d="M359.71,161.2a8.31,8.31,0,0,1-3.35-.64,7.54,7.54,0,0,1-2.53-1.73,7.31,7.31,0,0,1-1.6-2.51,8.14,8.14,0,0,1-.54-3,8.49,8.49,0,0,1,.54-3,7.53,7.53,0,0,1,1.58-2.5,7.41,7.41,0,0,1,2.54-1.7,8.46,8.46,0,0,1,3.34-.63,8.59,8.59,0,0,1,3.38.63,7.47,7.47,0,0,1,2.53,1.7,7.35,7.35,0,0,1,1.61,2.5,8.09,8.09,0,0,1,.56,3,7.72,7.72,0,0,1-.56,3,7.6,7.6,0,0,1-4.14,4.24A8.36,8.36,0,0,1,359.71,161.2Zm-4-7.85a5.06,5.06,0,0,0,.53,2.33,4,4,0,0,0,1.45,1.61,3.87,3.87,0,0,0,4.06,0,4.26,4.26,0,0,0,1.45-1.61,4.94,4.94,0,0,0,.54-2.35,4.86,4.86,0,0,0-.54-2.31,4.26,4.26,0,0,0-1.45-1.61,3.71,3.71,0,0,0-2.05-.58,3.64,3.64,0,0,0-2,.58,4.16,4.16,0,0,0-1.44,1.61A5.17,5.17,0,0,0,355.69,153.35Z" transform="translate(0 0)"/><path class="cls-5" d="M377.52,161.2a8.74,8.74,0,0,1-3.38-.62,7.56,7.56,0,0,1-2.54-1.74,7.84,7.84,0,0,1-1.61-2.53,8.09,8.09,0,0,1-.56-3,8.18,8.18,0,0,1,1-3.91,7.51,7.51,0,0,1,2.78-2.87,8.37,8.37,0,0,1,4.31-1.06,8,8,0,0,1,4.28,1.08,6.73,6.73,0,0,1,2.64,2.84l-3.81,1.17a3.43,3.43,0,0,0-1.32-1.3,3.81,3.81,0,0,0-1.85-.46,3.68,3.68,0,0,0-2,.57A4,4,0,0,0,374,151a5.49,5.49,0,0,0,0,4.75,4.19,4.19,0,0,0,1.45,1.61,3.74,3.74,0,0,0,2,.57,3.68,3.68,0,0,0,1.35-.24,3.8,3.8,0,0,0,1.13-.66,2.62,2.62,0,0,0,.74-.92l3.81,1.17a6.36,6.36,0,0,1-1.53,2.05,7.38,7.38,0,0,1-2.38,1.42A9.09,9.09,0,0,1,377.52,161.2Z" transform="translate(0 0)"/><path class="cls-5" d="M397.39,160.91l-4.49-6.57-2.11,2v4.53H386.9V139.54h3.89v13l6.21-6.83h4.16l-5.71,6.45,6.12,8.75Z" transform="translate(0 0)"/><path class="cls-5" d="M382.05,69.44a8.63,8.63,0,0,1,12.19,0l1.45,1.45a8.61,8.61,0,0,1,0,12.17l-23.6,23.58a8.77,8.77,0,0,1-3.73,2.19l-12,3.42a2.72,2.72,0,0,1-2.82-.84,2.63,2.63,0,0,1-.74-2.71l3.42-12A8.71,8.71,0,0,1,358.45,93Zm8,4.06a2.76,2.76,0,0,0-4,0L382.63,77l5.51,5.51,3.48-3.58a2.72,2.72,0,0,0,0-4ZM361.79,98.32l-2,7,7-2a2.78,2.78,0,0,0,1.25-.73l16.07-16L378.58,81l-16.05,16A2.73,2.73,0,0,0,361.79,98.32Zm-.46-24.27a2.87,2.87,0,0,1,2.86,3.09,3,3,0,0,1-2.92,2.65H347.93a4.77,4.77,0,0,0-4.78,4.78v32.51a4.77,4.77,0,0,0,4.78,4.78h34.38a2.94,2.94,0,0,0,2.95-3V103.06a1.77,1.77,0,0,1,.68-1.41c2.41-1.89,5.07-.24,5.07,2v13.39a10.52,10.52,0,0,1-10.53,10.51H347.94a10.52,10.52,0,0,1-10.53-10.51V84.56a10.52,10.52,0,0,1,10.53-10.51Z" transform="translate(0 0)"/><path class="cls-2" d="M120.92,241.76A120.86,120.86,0,0,1,35.38,35.44a121,121,0,0,1,171.09,0l75.18,75.11a14.63,14.63,0,0,1,0,20.7l-75.18,75.13A120.24,120.24,0,0,1,120.92,241.76Z" transform="translate(0 0)"/><path class="cls-4" d="M45.74,45.78a106.38,106.38,0,0,1,150.36,0l75.18,75.11L196.1,196A106.27,106.27,0,0,1,45.74,45.78Z" transform="translate(0 0)"/><path class="cls-2" d="M29.17,121a91.78,91.78,0,1,1,91.77,91.7A91.73,91.73,0,0,1,29.17,121Z" transform="translate(0 0)"/><path class="cls-3" d="M143.43,83.19c-2.18-2.44-7.45-7.46-14.86-8.6a10,10,0,0,0-7.67,2.2,10.25,10.25,0,0,0-7.69-2.1c-9.64,1.49-15.71,9.6-16,10a2.91,2.91,0,0,0,4.69,3.44c0-.07,4.87-6.52,12.17-7.65a4.14,4.14,0,0,1,2.61.54l-7,7.19a7.73,7.73,0,0,0-2.44,5.59,7.84,7.84,0,0,0,2.33,5.6,8.18,8.18,0,0,0,5.7,2.22,7.91,7.91,0,0,0,5.61-2.32l1.37-1.38,15,12.21a.68.68,0,0,1,.06,1L134,115.37a.64.64,0,0,1-.86.13l-2.69-2.26-3.17,3.36a1.23,1.23,0,0,1-.83.45,1.17,1.17,0,0,1-.83-.21l-3.93-3.34-1.9,1.77-.33.36a4.22,4.22,0,0,1-5.79.7l-10.87-9.83H93.89V83.44H82.29v30.79H90a3.81,3.81,0,0,0,3.26-1.94h7.43l9.33,8.42a9.86,9.86,0,0,0,6.28,2.24,9.23,9.23,0,0,0,1,0,9.9,9.9,0,0,0,4.53-1.63l.11.09a7.06,7.06,0,0,0,9.27-.31,6.51,6.51,0,0,0,7.41-2l3.35-4.32a6.47,6.47,0,0,0-.95-9.07L126.49,93.86l1-1a2.9,2.9,0,0,0-4.11-4.1l-6.52,6.5a2.11,2.11,0,0,1-3,0,2,2,0,0,1-.63-1.48,2.14,2.14,0,0,1,.64-1.52l10.39-10.59a4.1,4.1,0,0,1,3.51-1.22C135,81.56,139.92,88,140,88.09a2.75,2.75,0,0,0,1.43,1H148v21.13a3.86,3.86,0,0,0,3.76,3.88l7.85.11V83.31Zm-55.3,27.19a1.93,1.93,0,1,1,1.94-1.92A2,2,0,0,1,88.13,110.38Zm65.76,0a1.93,1.93,0,1,1,1.94-1.93A2,2,0,0,1,153.89,110.38Z" transform="translate(0 0)"/><path class="cls-5" d="M104.48,160.91V147.26l-5.36,10.16H96.86l-5.33-10.16v13.65h-4V140.12h4.36L98,151.92l6.18-11.8h4.34v20.79Z" transform="translate(0 0)"/><path class="cls-5" d="M119.57,161.2a8.72,8.72,0,0,1-3.34-.62,7.48,7.48,0,0,1-2.55-1.71,7.59,7.59,0,0,1-1.61-2.47,8,8,0,0,1-.56-3,8.17,8.17,0,0,1,1-3.95,7.54,7.54,0,0,1,2.79-2.9,8.15,8.15,0,0,1,4.32-1.08,8.06,8.06,0,0,1,4.28,1.09,7.44,7.44,0,0,1,2.75,2.85,7.87,7.87,0,0,1,1,3.86c0,.25,0,.49,0,.71s0,.41-.06.56H115.67a4.12,4.12,0,0,0,.66,2.05,3.83,3.83,0,0,0,1.47,1.3,4,4,0,0,0,1.89.46,4.61,4.61,0,0,0,2.24-.57,3,3,0,0,0,1.42-1.53l3.34.93a6.1,6.1,0,0,1-1.55,2.08,7.36,7.36,0,0,1-2.44,1.42A9.6,9.6,0,0,1,119.57,161.2Zm-4-9.11h8a4.56,4.56,0,0,0-.66-2,3.66,3.66,0,0,0-1.42-1.31,4,4,0,0,0-2-.48,3.91,3.91,0,0,0-1.92.48,3.67,3.67,0,0,0-1.4,1.31A4.31,4.31,0,0,0,115.56,152.09Z" transform="translate(0 0)"/><path class="cls-5" d="M137.12,161.2a8.72,8.72,0,0,1-3.34-.62,7.48,7.48,0,0,1-2.55-1.71,7.59,7.59,0,0,1-1.61-2.47,8,8,0,0,1-.56-3,8.17,8.17,0,0,1,1-3.95,7.54,7.54,0,0,1,2.79-2.9,8.15,8.15,0,0,1,4.32-1.08,8.06,8.06,0,0,1,4.28,1.09,7.44,7.44,0,0,1,2.75,2.85,7.87,7.87,0,0,1,1,3.86c0,.25,0,.49,0,.71s0,.41-.06.56H133.22a4.12,4.12,0,0,0,.66,2.05,3.83,3.83,0,0,0,1.47,1.3,4,4,0,0,0,1.89.46,4.61,4.61,0,0,0,2.24-.57,3,3,0,0,0,1.42-1.53l3.34.93a6.1,6.1,0,0,1-1.55,2.08,7.36,7.36,0,0,1-2.44,1.42A9.6,9.6,0,0,1,137.12,161.2Zm-4-9.11h8a4.56,4.56,0,0,0-.66-2,3.66,3.66,0,0,0-1.42-1.31,4,4,0,0,0-2-.48,3.91,3.91,0,0,0-1.92.48,3.67,3.67,0,0,0-1.4,1.31A4.31,4.31,0,0,0,133.11,152.09Z" transform="translate(0 0)"/><path class="cls-5" d="M156.75,160.14c-.35.16-.75.32-1.22.49A10.42,10.42,0,0,1,154,161a8,8,0,0,1-1.63.16,5.27,5.27,0,0,1-2-.38,3.1,3.1,0,0,1-1.45-1.2,3.91,3.91,0,0,1-.54-2.16V148.7h-2v-3h2v-5h4v5h3.22v3h-3.22v7.43a1.53,1.53,0,0,0,.43,1.14,1.57,1.57,0,0,0,1.06.36,3.46,3.46,0,0,0,1.17-.22c.39-.15.71-.28,1-.4Z" transform="translate(0 0)"/><path class="cls-1" d="M57.25,548.54a21.48,21.48,0,0,1-1.77,8.72,20.78,20.78,0,0,1-5.13,7.07,23.42,23.42,0,0,1-8.1,4.69,32.08,32.08,0,0,1-10.65,1.66c-.57,0-1.34,0-2.29-.06l-2.95-.09c-1,0-1.94,0-2.78,0s-1.76,0-2.64,0l-2.4.06c-.72,0-1.33,0-1.83.09l.17-1.14a11.85,11.85,0,0,0,2.89-.46,3.07,3.07,0,0,0,1.69-1.38,11.48,11.48,0,0,0,1.14-3.09l6-22.65a12.15,12.15,0,0,0,.51-3,1.61,1.61,0,0,0-.86-1.52,7,7,0,0,0-3-.46l.17-1.14,1.95.12c.76,0,1.58.06,2.46.06h2.58c.88,0,1.85-.07,2.92-.09l3.12-.06,2.61,0q8.13,0,12.15,3.24T57.25,548.54ZM30.9,569.65A24.31,24.31,0,0,0,40.35,568a16.72,16.72,0,0,0,6.48-4.69,19.66,19.66,0,0,0,3.72-7.15,32.25,32.25,0,0,0,1.2-9c0-3.4-1-5.94-2.86-7.64s-5-2.55-9.39-2.55a7.48,7.48,0,0,0-2.75.41,3.32,3.32,0,0,0-1.66,1.45A11.91,11.91,0,0,0,34,541.84l-6,22.88a12.66,12.66,0,0,0-.48,2.87,1.65,1.65,0,0,0,.75,1.57A5.21,5.21,0,0,0,30.9,569.65Z" transform="translate(0 0)"/><path class="cls-1" d="M95.51,535.89a37.14,37.14,0,0,0-1.26,3.55c-.35,1.14-.61,2-.8,2.63-.19.8-.38,1.57-.57,2.3s-.32,1.33-.4,1.82H91.16q1-5-.09-7t-5.53-2H81.36a11.38,11.38,0,0,0-3,.31,2.9,2.9,0,0,0-1.7,1.32A13,13,0,0,0,75.46,542l-6.13,22.65a11.54,11.54,0,0,0-.46,3.09,1.38,1.38,0,0,0,1,1.35,9.58,9.58,0,0,0,2.87.31h4.18a12.64,12.64,0,0,0,5.24-1,9.31,9.31,0,0,0,3.72-3.18,25.86,25.86,0,0,0,3-6h1.32c-.19.6-.42,1.31-.69,2.11a22,22,0,0,0-.69,2.58c-.19.65-.42,1.6-.69,2.86s-.51,2.55-.74,3.89c-2-.07-4.22-.12-6.71-.15s-4.73,0-6.76,0H70.72c-1.24,0-2.61,0-4.09,0s-3,0-4.5.06-3,0-4.32.09l.28-1.14a12.76,12.76,0,0,0,3-.46,3.1,3.1,0,0,0,1.72-1.38A11.48,11.48,0,0,0,64,564.61L70.12,542a10,10,0,0,0,.48-3.12,1.52,1.52,0,0,0-1-1.38A9.1,9.1,0,0,0,66.8,537l.28-1.14c1.33,0,2.76.07,4.26.09l4.5.06,4.1,0h3.12l6.18,0C91.55,536,93.63,536,95.51,535.89Zm-25,17.85.34-1.14H82.34L82,553.74Zm7.38-1.14a4.72,4.72,0,0,0,3.27-1.12,8.54,8.54,0,0,0,2-2.64c.49-1,.89-1.89,1.2-2.66h1.32c-.61,1.87-1.07,3.29-1.35,4.27s-.53,1.88-.72,2.71c-.12.54-.26,1.11-.43,1.72s-.35,1.33-.54,2.15-.38,1.85-.58,3.11H80.79a20.79,20.79,0,0,0,.22-3,3.7,3.7,0,0,0-.82-2.43c-.56-.65-1.62-1-3.18-1Z" transform="translate(0 0)"/><path class="cls-1" d="M126.72,545.05q3.54-4.41,3.24-6.16c-.22-1.16-1.43-1.78-3.64-1.86l.29-1.14c.38,0,.94.07,1.66.09l2.35.06,2.3,0c.65,0,1.33,0,2.05-.06s1.34-.07,1.83-.12l-.28,1.14a10.84,10.84,0,0,0-2.06,1.09,12.22,12.22,0,0,0-1.92,1.69c-.66.71-1.46,1.66-2.38,2.84L107.54,571h-.86L102.9,540.7a4,4,0,0,0-1.2-2.83,3.35,3.35,0,0,0-1.77-.83l.28-1.14,2.86.12c1.15,0,2.25.05,3.32.05,1.49,0,2.8,0,3.93-.05l3-.12L113,537a11.26,11.26,0,0,0-2.92.4,2.22,2.22,0,0,0-1.48,1.35,6.45,6.45,0,0,0-.17,3.06l2.8,23.17-.57.12Z" transform="translate(0 0)"/><path class="cls-1" d="M167.38,535.89a37.14,37.14,0,0,0-1.26,3.55c-.35,1.14-.61,2-.8,2.63-.19.8-.38,1.57-.57,2.3s-.32,1.33-.4,1.82H163q1-5-.09-7t-5.53-2h-4.18a11.51,11.51,0,0,0-3,.31,2.91,2.91,0,0,0-1.69,1.32,13,13,0,0,0-1.17,3.12l-6.13,22.65a11.54,11.54,0,0,0-.46,3.09,1.37,1.37,0,0,0,1,1.35,9.58,9.58,0,0,0,2.87.31h4.18a12.64,12.64,0,0,0,5.24-1,9.31,9.31,0,0,0,3.72-3.18,25.86,25.86,0,0,0,2.95-6H162c-.19.6-.42,1.31-.69,2.11a22,22,0,0,0-.69,2.58c-.19.65-.42,1.6-.69,2.86s-.51,2.55-.75,3.89q-3-.1-6.7-.15c-2.48,0-4.73,0-6.76,0h-3.12c-1.24,0-2.61,0-4.09,0s-3,0-4.5.06-2.95,0-4.32.09l.28-1.14a12.76,12.76,0,0,0,3-.46,3.1,3.1,0,0,0,1.72-1.38,11.84,11.84,0,0,0,1.14-3.09L142,542a10,10,0,0,0,.48-3.12,1.52,1.52,0,0,0-1-1.38,9.1,9.1,0,0,0-2.83-.43l.28-1.14c1.33,0,2.76.07,4.26.09l4.5.06,4.1,0h3.12l6.18,0C163.43,536,165.51,536,167.38,535.89Zm-25,17.85.34-1.14h11.46l-.35,1.14Zm7.39-1.14a4.76,4.76,0,0,0,3.27-1.12,8.51,8.51,0,0,0,2-2.64c.5-1,.9-1.89,1.2-2.66h1.32c-.61,1.87-1.06,3.29-1.35,4.27s-.52,1.88-.71,2.71c-.12.54-.26,1.11-.44,1.72s-.35,1.33-.54,2.15-.38,1.85-.57,3.11h-1.32a19.5,19.5,0,0,0,.23-3,3.65,3.65,0,0,0-.83-2.43c-.55-.65-1.61-1-3.18-1Z" transform="translate(0 0)"/><path class="cls-1" d="M197.85,558.66l-.8,2.38a26.19,26.19,0,0,0-.8,2.89c-.19.65-.42,1.6-.69,2.86s-.51,2.55-.74,3.89c-1.35-.07-2.81-.12-4.41-.15s-3.21,0-4.82,0h-7.53c-1.23,0-2.6,0-4.09,0s-3,0-4.5.06-2.95,0-4.32.09l.29-1.14a12.75,12.75,0,0,0,3-.46,3.07,3.07,0,0,0,1.72-1.38,11.48,11.48,0,0,0,1.14-3.09L177.46,542a10.08,10.08,0,0,0,.49-3.12,1.53,1.53,0,0,0-1-1.38,9.1,9.1,0,0,0-2.83-.43l.28-1.14c.77,0,1.8.07,3.09.12s2.69.06,4.19.06c1.33,0,2.66,0,4-.06s2.44-.07,3.35-.12l-.28,1.14a11.48,11.48,0,0,0-3.07.43,3.13,3.13,0,0,0-1.72,1.38,13,13,0,0,0-1.17,3.12l-6.13,22.65a11.54,11.54,0,0,0-.46,3.09,1.38,1.38,0,0,0,1,1.35,9.58,9.58,0,0,0,2.87.31h3.61a12.74,12.74,0,0,0,5.13-1,12.05,12.05,0,0,0,4.35-3.37,20.73,20.73,0,0,0,3.4-6.3Z" transform="translate(0 0)"/><path class="cls-1" d="M217.84,571.48a17.11,17.11,0,0,1-7.31-1.49,11.12,11.12,0,0,1-5-4.55,15.09,15.09,0,0,1-1.8-7.75,19.38,19.38,0,0,1,1.06-6.2,25.94,25.94,0,0,1,3-6.13,23.81,23.81,0,0,1,4.78-5.26,22.22,22.22,0,0,1,6.3-3.66,21.19,21.19,0,0,1,7.62-1.35,17.09,17.09,0,0,1,7.3,1.49,11.13,11.13,0,0,1,5,4.55,15.12,15.12,0,0,1,1.8,7.75,19.48,19.48,0,0,1-1.06,6.21,25.64,25.64,0,0,1-3,6.12,24.11,24.11,0,0,1-4.79,5.26,22.08,22.08,0,0,1-6.3,3.66A21,21,0,0,1,217.84,571.48ZM226,536.12a11.57,11.57,0,0,0-6.5,1.92,18,18,0,0,0-5.13,5.15,26,26,0,0,0-3.35,7.21,28.42,28.42,0,0,0-1.17,8.09q0,6.46,2.38,9.21a7.69,7.69,0,0,0,6.1,2.75,11.64,11.64,0,0,0,6.49-1.92,18,18,0,0,0,5.13-5.15,25.89,25.89,0,0,0,3.35-7.21,28.52,28.52,0,0,0,1.17-8.09c0-4.31-.79-7.39-2.38-9.22A7.68,7.68,0,0,0,226,536.12Z" transform="translate(0 0)"/><path class="cls-1" d="M253.74,556.72l.29-1.14h2.58a20.75,20.75,0,0,0,6.93-1,11.19,11.19,0,0,0,4.49-2.8,10.88,10.88,0,0,0,2.46-4.15,16,16,0,0,0,.78-5.09,5,5,0,0,0-1.69-4.12Q267.89,537,264,537a5,5,0,0,0-3.56,1,9.07,9.07,0,0,0-1.83,3.92l-6,22.65a17.07,17.07,0,0,0-.46,2.75,1.57,1.57,0,0,0,.77,1.54,6.9,6.9,0,0,0,3.07.63l-.23,1.14c-.88-.07-1.95-.12-3.21-.14s-2.56,0-3.9,0-2.9,0-4.24,0-2.4.06-3.2.14l.22-1.14a12.1,12.1,0,0,0,3-.46,3.11,3.11,0,0,0,1.73-1.37,12.21,12.21,0,0,0,1.14-3.09l6-22.66a12.54,12.54,0,0,0,.4-2.74,1.71,1.71,0,0,0-.82-1.55A6.85,6.85,0,0,0,250,537l.28-1.14q.81.06,1.95.09l2.49.06,2.61,0c1.37,0,2.76,0,4.15-.06s2.8-.06,4.21-.06c3.85,0,6.72.69,8.59,2.06a6.42,6.42,0,0,1,2.81,5.43,10,10,0,0,1-2.67,6.79A18.08,18.08,0,0,1,267,555a31.63,31.63,0,0,1-11,1.74Z" transform="translate(0 0)"/><path class="cls-1" d="M286.78,541.15a9.61,9.61,0,0,0,.47-3.11,1.6,1.6,0,0,0-1-1.38,8.53,8.53,0,0,0-2.83-.43l.28-1.14,2.27.11c.89,0,1.83.06,2.83.06s1.74,0,2.58-.06,1.58-.07,2.23-.11l4.64,30.2-.51-.11,20.78-29.93h2.75c1.33,0,2.64,0,3.9,0l3.26-.12-.28,1.14a10.65,10.65,0,0,0-3,.43,3.08,3.08,0,0,0-1.7,1.38,12.69,12.69,0,0,0-1.17,3.12L316,564.61a10.81,10.81,0,0,0-.43,3.09,1.47,1.47,0,0,0,1,1.37,10.45,10.45,0,0,0,2.81.46l-.23,1.14c-.88-.07-1.95-.12-3.21-.14s-2.55,0-3.89,0c-1.49,0-2.9,0-4.24,0s-2.41.06-3.21.14l.22-1.14a12.08,12.08,0,0,0,3.07-.46,3,3,0,0,0,1.66-1.37,13.79,13.79,0,0,0,1.17-3.09l7.22-26.9.34.17-23,33.09H294l-5.39-33.59.4-.06L282,564a11.52,11.52,0,0,0-.46,3.23,1.79,1.79,0,0,0,1.06,1.66,8.77,8.77,0,0,0,3.18.6l-.29,1.14c-.46,0-1-.06-1.66-.08s-1.34,0-2.06-.06l-2.06,0-2.92,0c-1,0-1.82.06-2.46.14l.29-1.14a9.35,9.35,0,0,0,3.12-.6,3.73,3.73,0,0,0,1.77-1.66,14.82,14.82,0,0,0,1.23-3.23Z" transform="translate(0 0)"/><path class="cls-1" d="M361.69,535.89c-.5,1.22-.91,2.4-1.26,3.55s-.61,2-.8,2.63c-.19.8-.38,1.57-.57,2.3s-.32,1.33-.4,1.82h-1.32q1-5-.09-7t-5.52-2h-4.18a11.38,11.38,0,0,0-3,.31,2.9,2.9,0,0,0-1.7,1.32,13,13,0,0,0-1.17,3.12l-6.13,22.65a11.54,11.54,0,0,0-.46,3.09,1.39,1.39,0,0,0,1,1.35,9.58,9.58,0,0,0,2.87.31h4.18a12.61,12.61,0,0,0,5.24-1,9.25,9.25,0,0,0,3.72-3.18,25.47,25.47,0,0,0,2.95-6h1.32c-.19.6-.42,1.31-.69,2.11a22,22,0,0,0-.69,2.58c-.19.65-.42,1.6-.69,2.86s-.51,2.55-.74,3.89c-2-.07-4.22-.12-6.71-.15s-4.73,0-6.76,0h-3.12c-1.23,0-2.6,0-4.09,0s-3,0-4.5.06-2.95,0-4.32.09l.29-1.14a12.75,12.75,0,0,0,3-.46A3.1,3.1,0,0,0,329,567.7a11.48,11.48,0,0,0,1.14-3.09L336.31,542a10.4,10.4,0,0,0,.49-3.12,1.54,1.54,0,0,0-1-1.38A9.1,9.1,0,0,0,333,537l.28-1.14c1.34,0,2.76.07,4.27.09l4.5.06,4.09,0h3.13l6.18,0C357.74,536,359.82,536,361.69,535.89Zm-25,17.85.35-1.14h11.45l-.34,1.14Zm7.39-1.14a4.72,4.72,0,0,0,3.27-1.12,8.54,8.54,0,0,0,2-2.64c.49-1,.89-1.89,1.2-2.66h1.32c-.61,1.87-1.07,3.29-1.35,4.27s-.53,1.88-.72,2.71c-.12.54-.26,1.11-.43,1.72s-.35,1.33-.54,2.15-.38,1.85-.57,3.11H347a20.79,20.79,0,0,0,.22-3,3.65,3.65,0,0,0-.82-2.43c-.56-.65-1.61-1-3.18-1Z" transform="translate(0 0)"/><path class="cls-1" d="M361.06,573.71a5,5,0,0,0,2.72-.86,8.07,8.07,0,0,0,2.09-2.11,33.07,33.07,0,0,0,3.29-7.21c1.13-3.2,2.28-7,3.47-11.52s2.36-9.42,3.55-14.79l1,1.2q-1.14,5-2.43,10.12t-2.63,9.76q-1.35,4.61-2.69,8a19.46,19.46,0,0,1-2.61,5,18.44,18.44,0,0,1-2.46,2.46,5.56,5.56,0,0,1-3.66,1.14A3.34,3.34,0,0,1,358,574a3.21,3.21,0,0,1-.72-2.08,5,5,0,0,1,.86-2.75,2.8,2.8,0,0,1,2.52-1.31,1.82,1.82,0,0,1,1.74.74,3,3,0,0,1,.43,1.49,4,4,0,0,1-.54,1.94,6.58,6.58,0,0,1-1.29,1.67h.11v0ZM389.93,571l-13.46-32.39c-.41,1.11-.82,2.24-1.2,3.38a10,10,0,0,0,.32-3.15,1.59,1.59,0,0,0-1.15-1.37,11.71,11.71,0,0,0-3.23-.41l.28-1.14,2.27.12c.89,0,1.83.06,2.83.06,1.8,0,3.34-.06,4.64-.17L392.57,564c-.12.69-.23,1.29-.35,1.8s-.23,1.08-.34,1.69-.23,1.17-.35,1.69-.22,1.12-.34,1.8Zm17.47-36.51a4.66,4.66,0,0,0-2.69.85,9.86,9.86,0,0,0-2,2.06c-1.67,2.36-3.45,6.28-5.32,11.73s-3.94,12.74-6.18,21.86l-.8-1.6q1.08-4.17,2.38-9t2.74-9.41q1.47-4.61,3-8.3a27.21,27.21,0,0,1,3.12-5.75,13.12,13.12,0,0,1,2.63-2.58,5.9,5.9,0,0,1,3.56-1.09,3.31,3.31,0,0,1,2.71.89,3.11,3.11,0,0,1,.72,2,5.06,5.06,0,0,1-.86,2.78,2.78,2.78,0,0,1-2.51,1.34,1.88,1.88,0,0,1-1.73-.74,2.88,2.88,0,0,1-.46-1.49,4.28,4.28,0,0,1,.54-2,6.12,6.12,0,0,1,1.29-1.63h-.08Z" transform="translate(0 0)"/><path class="cls-1" d="M445,536a5.78,5.78,0,0,1-1-1.4,4,4,0,0,1-.43-1.8,3.71,3.71,0,0,1,.69-2.15,2.41,2.41,0,0,1,2.12-1,2.33,2.33,0,0,1,1.94.8,2.94,2.94,0,0,1,.63,1.88,4.09,4.09,0,0,1-.74,2.35,7.38,7.38,0,0,1-1.89,1.89,13.86,13.86,0,0,1-3.41,1.38,18.88,18.88,0,0,1-4.5.46,41.89,41.89,0,0,1-5.92-.43l-5.79-.86a37.35,37.35,0,0,0-5.47-.43,18.27,18.27,0,0,0-3,.23,7.15,7.15,0,0,0-2.35.74,4.58,4.58,0,0,1,.74,1.52,6.25,6.25,0,0,1,.29,1.8,4.13,4.13,0,0,1-.69,2.23A2.4,2.4,0,0,1,414,544.3a2.24,2.24,0,0,1-1.86-.8,3.11,3.11,0,0,1-.66-2,4.68,4.68,0,0,1,.68-2.43,5.75,5.75,0,0,1,2.3-2,9.18,9.18,0,0,1,3.66-1.14c1.26-.12,2.2-.18,2.8-.18a44.22,44.22,0,0,1,6.08.41l5.78.79a40.29,40.29,0,0,0,5.85.41,17.23,17.23,0,0,0,3.61-.32A12.27,12.27,0,0,0,445,536Zm-16.38.75,1.77.4,1.46.37c.47.13,1.06.28,1.74.43L426,564q-.92,3.15-.11,4.29c.53.76,2,1.17,4.4,1.2l-.22,1.14c-1-.07-2.26-.12-3.78-.14s-3.11,0-4.76,0-3.21,0-4.72,0-2.72.06-3.63.14l.22-1.14a13.7,13.7,0,0,0,3.75-.57,4.07,4.07,0,0,0,2.12-1.6,12.5,12.5,0,0,0,1.41-3.32Z" transform="translate(0 0)"/><path class="cls-8" d="M464.05,570.56V534.34h17a12.31,12.31,0,0,1,6.61,1.81,13.5,13.5,0,0,1,4.57,4.57,11.14,11.14,0,0,1,1.66,5.8A12.25,12.25,0,0,1,488,557a12.31,12.31,0,0,1-6.65,1.75H471.9v11.86Zm7.85-18.72h9a5.22,5.22,0,0,0,2.62-.65,4.62,4.62,0,0,0,1.78-1.81,5.73,5.73,0,0,0,.66-2.86,5.29,5.29,0,0,0-.75-2.91,5,5,0,0,0-2-1.78,5.85,5.85,0,0,0-2.66-.62h-8.68v10.63Z" transform="translate(0 0)"/><path class="cls-8" d="M499.85,570.56V534.34h17.77a12.41,12.41,0,0,1,6.71,1.81,13.28,13.28,0,0,1,4.5,4.57,11.28,11.28,0,0,1,1.62,5.8,10.72,10.72,0,0,1-.88,4.31,11.79,11.79,0,0,1-2.46,3.66,11,11,0,0,1-3.86,2.52l9.41,13.54h-8.89l-8.43-11.86h-7.65v11.86h-7.84Zm7.85-18.72h9.79a4.77,4.77,0,0,0,2.57-.71,5.44,5.44,0,0,0,1.81-1.91,5.31,5.31,0,0,0,.69-2.69,5.08,5.08,0,0,0-.75-2.79,5.52,5.52,0,0,0-4.64-2.52H507.7v10.62Z" transform="translate(0 0)"/><path class="cls-8" d="M555.11,570.82a18.84,18.84,0,0,1-13.82-5.74,19.43,19.43,0,0,1-3.92-5.9,17.09,17.09,0,0,1-1.4-6.76,16.87,16.87,0,0,1,1.46-6.91,18.64,18.64,0,0,1,4.05-5.79,20.24,20.24,0,0,1,6.1-4.05,18.86,18.86,0,0,1,7.65-1.52,18.36,18.36,0,0,1,7.75,1.59,19.62,19.62,0,0,1,6,4.21,18.83,18.83,0,0,1,3.89,5.92,17.53,17.53,0,0,1,1.36,6.74,17,17,0,0,1-1.43,6.81,18.59,18.59,0,0,1-4,5.86,19,19,0,0,1-6.06,4.05A19.35,19.35,0,0,1,555.11,570.82ZM544,552.48a11.48,11.48,0,0,0,.78,4.21,12.12,12.12,0,0,0,2.23,3.66,10.1,10.1,0,0,0,3.54,2.56,11.45,11.45,0,0,0,4.67.91,11,11,0,0,0,4.73-1,9.94,9.94,0,0,0,3.48-2.62,12,12,0,0,0,2.13-3.7,11.91,11.91,0,0,0,0-8.32,10.41,10.41,0,0,0-2.23-3.59,10.82,10.82,0,0,0-8.17-3.46,11.46,11.46,0,0,0-4.74.93,9.92,9.92,0,0,0-3.5,2.63,12.5,12.5,0,0,0-2.17,3.7A11.49,11.49,0,0,0,544,552.48Z" transform="translate(0 0)"/><path class="cls-8" d="M578.33,552.16a16.76,16.76,0,0,1,1.32-6.51,18.79,18.79,0,0,1,3.8-5.8,18.32,18.32,0,0,1,6-4.15,20.23,20.23,0,0,1,8.18-1.56,19,19,0,0,1,9.31,2.2,13.83,13.83,0,0,1,5.8,5.71l-6,4.2a7.45,7.45,0,0,0-4.05-4,14.16,14.16,0,0,0-5.22-1.07,11.09,11.09,0,0,0-4.87,1,10.53,10.53,0,0,0-3.47,2.63A11.4,11.4,0,0,0,587,548.4a12.09,12.09,0,0,0-.71,4,11.26,11.26,0,0,0,.84,4.31,12.18,12.18,0,0,0,2.34,3.65A11,11,0,0,0,593,563a10.73,10.73,0,0,0,4.57.93,12.21,12.21,0,0,0,3.57-.55,11.32,11.32,0,0,0,3.37-1.68,7.4,7.4,0,0,0,2.4-3l6.48,3.82a10.91,10.91,0,0,1-3.82,4.53,21.6,21.6,0,0,1-12.26,3.89,18,18,0,0,1-7.65-1.62,19.18,19.18,0,0,1-6-4.31,20.24,20.24,0,0,1-3.93-6A17.31,17.31,0,0,1,578.33,552.16Z" transform="translate(0 0)"/><path class="cls-8" d="M647.13,563.69v6.87h-28V534.34h27.5v6.86H627v7.72H644v6.42H627v8.35Z" transform="translate(0 0)"/><path class="cls-8" d="M677.16,544.51a12.86,12.86,0,0,0-2.21-1.43,18.5,18.5,0,0,0-3.73-1.45,16.46,16.46,0,0,0-4.5-.62,9.29,9.29,0,0,0-4.51.88,2.81,2.81,0,0,0-1.52,2.56,2.49,2.49,0,0,0,1,2.07,9.31,9.31,0,0,0,3,1.37c1.31.38,2.93.84,4.83,1.36a39.2,39.2,0,0,1,6.65,2.13,11,11,0,0,1,4.38,3.25A8.51,8.51,0,0,1,682.1,560a10.05,10.05,0,0,1-1.2,5.12,9.88,9.88,0,0,1-3.25,3.4,13.92,13.92,0,0,1-4.67,1.91,25.15,25.15,0,0,1-5.48.59,32,32,0,0,1-8.75-1.23,29.32,29.32,0,0,1-7.72-3.37l3.5-6.8a11.48,11.48,0,0,0,2.82,1.84,25.49,25.49,0,0,0,4.64,1.75,20.89,20.89,0,0,0,5.7.75,9.06,9.06,0,0,0,4.38-.85,2.62,2.62,0,0,0,1.53-2.4,2.57,2.57,0,0,0-1.23-2.2,12.36,12.36,0,0,0-3.51-1.49q-2.26-.64-5.25-1.43a27.64,27.64,0,0,1-6.16-2.27,9.51,9.51,0,0,1-3.59-3.17,8.51,8.51,0,0,1-1.2-4.67,10,10,0,0,1,1.94-6.25,12.21,12.21,0,0,1,5.16-3.89,18.68,18.68,0,0,1,7.16-1.33,23.27,23.27,0,0,1,7.69,1.23,27,27,0,0,1,6,2.85Z" transform="translate(0 0)"/><path class="cls-8" d="M711.66,544.51a12.86,12.86,0,0,0-2.21-1.43,18.5,18.5,0,0,0-3.73-1.45,16.46,16.46,0,0,0-4.5-.62,9.27,9.27,0,0,0-4.51.88,2.81,2.81,0,0,0-1.52,2.56,2.49,2.49,0,0,0,1,2.07,9.35,9.35,0,0,0,3,1.37c1.32.38,2.93.84,4.84,1.36a39.2,39.2,0,0,1,6.65,2.13,11,11,0,0,1,4.38,3.25A8.51,8.51,0,0,1,716.6,560a10.05,10.05,0,0,1-1.2,5.12,9.88,9.88,0,0,1-3.25,3.4,13.92,13.92,0,0,1-4.67,1.91A25.15,25.15,0,0,1,702,571a31.93,31.93,0,0,1-8.75-1.23,29.32,29.32,0,0,1-7.72-3.37l3.5-6.8a11.48,11.48,0,0,0,2.82,1.84,25.49,25.49,0,0,0,4.64,1.75,20.89,20.89,0,0,0,5.7.75,9.09,9.09,0,0,0,4.38-.85,2.62,2.62,0,0,0,1.53-2.4,2.57,2.57,0,0,0-1.23-2.2,12.49,12.49,0,0,0-3.51-1.49q-2.26-.64-5.25-1.43a27.64,27.64,0,0,1-6.16-2.27,9.43,9.43,0,0,1-3.59-3.17,8.51,8.51,0,0,1-1.21-4.67,10,10,0,0,1,2-6.25,12.21,12.21,0,0,1,5.16-3.89,18.68,18.68,0,0,1,7.16-1.33,23.27,23.27,0,0,1,7.69,1.23,27.27,27.27,0,0,1,6,2.85Z" transform="translate(0 0)"/><path class="cls-3" d="M82.22,395a4.34,4.34,0,0,0-.75-.54,11.92,11.92,0,0,0-1.31-.69,10.37,10.37,0,0,0-1.68-.58,7.15,7.15,0,0,0-1.84-.24,4.23,4.23,0,0,0-2.47.6,2,2,0,0,0-.83,1.73,1.76,1.76,0,0,0,.52,1.34,4.22,4.22,0,0,0,1.58.84c.7.23,1.58.48,2.63.75a18.84,18.84,0,0,1,3.55,1.21,5.87,5.87,0,0,1,2.31,1.86,5.31,5.31,0,0,1,.8,3.07,5.92,5.92,0,0,1-.61,2.79,5.3,5.3,0,0,1-1.68,1.9A7.23,7.23,0,0,1,80,410.12a12.59,12.59,0,0,1-2.93.33A15.68,15.68,0,0,1,71,409.21a14.42,14.42,0,0,1-2.65-1.45l1.79-3.47a5.59,5.59,0,0,0,.93.68,11.23,11.23,0,0,0,1.64.85,14.34,14.34,0,0,0,2.1.72,9.49,9.49,0,0,0,2.31.29,4.56,4.56,0,0,0,2.48-.54,1.76,1.76,0,0,0,.82-1.57,1.8,1.8,0,0,0-.66-1.47,5.79,5.79,0,0,0-1.85-.93c-.8-.26-1.75-.54-2.84-.83a15.9,15.9,0,0,1-3.28-1.25,5.06,5.06,0,0,1-2-1.73,4.76,4.76,0,0,1-.66-2.6,6,6,0,0,1,1-3.57,6.41,6.41,0,0,1,2.75-2.18,9.65,9.65,0,0,1,3.83-.74,11.73,11.73,0,0,1,2.76.32,14.32,14.32,0,0,1,2.44.85,14.51,14.51,0,0,1,2,1.14Z" transform="translate(0 0)"/><path class="cls-3" d="M87.21,404.64v-9.5h4v8.64a4.41,4.41,0,0,0,.64,2.61,2.22,2.22,0,0,0,1.9.88,4,4,0,0,0,1.5-.3,4.32,4.32,0,0,0,1.38-.9,5.27,5.27,0,0,0,1.06-1.52v-9.41h4v10.8a1.38,1.38,0,0,0,.2.86,1,1,0,0,0,.7.32v3.19l-1,.13a6.2,6.2,0,0,1-.71,0,2.72,2.72,0,0,1-1.68-.49,2,2,0,0,1-.81-1.3l-.08-1.22a6.73,6.73,0,0,1-2.62,2.33,7.82,7.82,0,0,1-3.55.8,4.38,4.38,0,0,1-3.6-1.52A6.87,6.87,0,0,1,87.21,404.64Z" transform="translate(0 0)"/><path class="cls-3" d="M114.7,410.6a6.05,6.05,0,0,1-3.15-.81,5.78,5.78,0,0,1-2.14-2.14v8.88h-3.88V395.14H109v2.63a6.43,6.43,0,0,1,2.22-2.09,6.07,6.07,0,0,1,3.06-.77,6.53,6.53,0,0,1,2.85.61,7,7,0,0,1,2.28,1.69,7.64,7.64,0,0,1,1.51,2.5,8.52,8.52,0,0,1,.52,3,9.18,9.18,0,0,1-.86,4,7.12,7.12,0,0,1-2.37,2.84A5.81,5.81,0,0,1,114.7,410.6Zm-1.31-3.33a3.7,3.7,0,0,0,1.62-.37,3.92,3.92,0,0,0,1.27-1,4.78,4.78,0,0,0,.82-1.47,5.43,5.43,0,0,0,.29-1.74,4.74,4.74,0,0,0-.31-1.73,4,4,0,0,0-.89-1.42,4.33,4.33,0,0,0-1.36-.95,4.28,4.28,0,0,0-1.71-.34,3.34,3.34,0,0,0-1.09.19,4.8,4.8,0,0,0-1.1.52,4.05,4.05,0,0,0-.9.79,3.56,3.56,0,0,0-.62,1v3.55a6.32,6.32,0,0,0,1,1.51,4.22,4.22,0,0,0,1.39,1.07A3.6,3.6,0,0,0,113.39,407.27Z" transform="translate(0 0)"/><path class="cls-3" d="M133.31,410.6a6.12,6.12,0,0,1-3.16-.81,5.83,5.83,0,0,1-2.13-2.14v8.88h-3.88V395.14h3.41v2.63a6.61,6.61,0,0,1,2.22-2.09,6.11,6.11,0,0,1,3.07-.77,6.6,6.6,0,0,1,2.85.61,7,7,0,0,1,2.28,1.69,7.61,7.61,0,0,1,1.5,2.5,8.53,8.53,0,0,1,.53,3,9.18,9.18,0,0,1-.86,4,7.28,7.28,0,0,1-2.37,2.84A5.84,5.84,0,0,1,133.31,410.6ZM132,407.27a3.7,3.7,0,0,0,1.62-.37,4,4,0,0,0,1.27-1,4.56,4.56,0,0,0,.81-1.47,5.18,5.18,0,0,0,.3-1.74,5,5,0,0,0-.31-1.73,4,4,0,0,0-.89-1.42,4.14,4.14,0,0,0-3.07-1.29,3.34,3.34,0,0,0-1.09.19,4.8,4.8,0,0,0-1.1.52,4.05,4.05,0,0,0-.9.79,3.56,3.56,0,0,0-.62,1v3.55a6,6,0,0,0,1,1.51,4.22,4.22,0,0,0,1.39,1.07A3.57,3.57,0,0,0,132,407.27Z" transform="translate(0 0)"/><path class="cls-3" d="M149.81,410.6a8.26,8.26,0,0,1-3.34-.64,7.64,7.64,0,0,1-2.53-1.73,7.5,7.5,0,0,1-1.59-2.5,8.14,8.14,0,0,1-.54-3,8.4,8.4,0,0,1,.54-3,7.35,7.35,0,0,1,4.1-4.21,9.39,9.39,0,0,1,6.71,0,7.69,7.69,0,0,1,2.53,1.71,7.38,7.38,0,0,1,1.6,2.5,8.2,8.2,0,0,1,.56,3,8,8,0,0,1-.56,3,7.56,7.56,0,0,1-4.13,4.23A8.31,8.31,0,0,1,149.81,410.6Zm-4-7.83a5,5,0,0,0,.53,2.32,3.93,3.93,0,0,0,1.44,1.6,3.72,3.72,0,0,0,2,.58,3.65,3.65,0,0,0,2-.59,4.4,4.4,0,0,0,1.45-1.6,4.93,4.93,0,0,0,.54-2.34,4.86,4.86,0,0,0-.54-2.31,4.32,4.32,0,0,0-1.45-1.6,3.7,3.7,0,0,0-2.05-.59,3.61,3.61,0,0,0-2,.59,4.11,4.11,0,0,0-1.43,1.6A5,5,0,0,0,145.81,402.77Z" transform="translate(0 0)"/><path class="cls-3" d="M169.68,398.39a8,8,0,0,0-3.22.68,4.21,4.21,0,0,0-2,1.95v9.29h-3.89V395.14h3.6v3.13a6.74,6.74,0,0,1,2.09-2.48,5,5,0,0,1,2.67-1,2.7,2.7,0,0,0,.47,0,.69.69,0,0,1,.32,0Z" transform="translate(0 0)"/><path class="cls-3" d="M181.1,409.55c-.35.15-.76.31-1.21.48a11.93,11.93,0,0,1-1.49.41,8.89,8.89,0,0,1-1.62.16,5.23,5.23,0,0,1-2-.38,3.15,3.15,0,0,1-1.45-1.2,3.88,3.88,0,0,1-.54-2.16v-8.74h-2v-3h2v-5h3.95v5h3.21v3h-3.21v7.41a1.5,1.5,0,0,0,.44,1.14,1.52,1.52,0,0,0,1.05.36,3.23,3.23,0,0,0,1.17-.22c.38-.14.71-.27,1-.39Z" transform="translate(0 0)"/></svg>