<svg width="25" height="25" viewBox="0 0 25 25" fill="none" xmlns="http://www.w3.org/2000/svg">
<path d="M23.9381 18.5803C23.9381 18.9593 23.8538 19.3488 23.6745 19.7278C23.4953 20.1068 23.2633 20.4648 22.9576 20.8017C22.4409 21.3702 21.8716 21.7807 21.2284 22.0439C20.5958 22.3071 19.9105 22.444 19.1725 22.444C18.097 22.444 16.9478 22.1913 15.7353 21.6755C14.5228 21.1596 13.3103 20.4648 12.1083 19.591C10.8958 18.7067 9.74661 17.7276 8.65009 16.6432C7.56411 15.5484 6.58357 14.4008 5.70846 13.2007C4.8439 12.0005 4.14803 10.8004 3.64194 9.61077C3.13586 8.41061 2.88281 7.2631 2.88281 6.16822C2.88281 5.45234 3.00933 4.76805 3.26238 4.13639C3.51542 3.4942 3.91607 2.90465 4.47488 2.37827C5.14966 1.71503 5.8877 1.38867 6.66792 1.38867C6.96313 1.38867 7.25835 1.45184 7.52194 1.57817C7.79607 1.7045 8.03857 1.894 8.22835 2.16772L10.6744 5.61026C10.8642 5.87345 11.0013 6.11559 11.0962 6.34719C11.1911 6.56828 11.2438 6.78936 11.2438 6.98938C11.2438 7.24204 11.17 7.49471 11.0224 7.73684C10.8853 7.97898 10.685 8.23164 10.4319 8.48431L9.63063 9.31599C9.51465 9.4318 9.46193 9.56866 9.46193 9.7371C9.46193 9.82132 9.47248 9.89501 9.49357 9.97923C9.5252 10.0635 9.55683 10.1266 9.57791 10.1898C9.7677 10.5372 10.0945 10.9899 10.5585 11.5373C11.0329 12.0848 11.539 12.6427 12.0873 13.2007C12.6566 13.7587 13.2049 14.2745 13.7637 14.7483C14.3119 15.2115 14.7653 15.5273 15.1238 15.7168C15.1765 15.7379 15.2398 15.7694 15.3136 15.801C15.3979 15.8326 15.4823 15.8431 15.5771 15.8431C15.7564 15.8431 15.8934 15.78 16.0094 15.6642L16.8107 14.8746C17.0743 14.6114 17.3274 14.4114 17.5699 14.285C17.8124 14.1377 18.0549 14.064 18.3184 14.064C18.5188 14.064 18.7296 14.1061 18.9616 14.2008C19.1936 14.2956 19.4361 14.4324 19.6996 14.6114L23.1895 17.0854C23.4637 17.2749 23.6534 17.496 23.7694 17.7592C23.8748 18.0224 23.9381 18.2855 23.9381 18.5803Z" stroke="#333333" stroke-width="1.05276" stroke-miterlimit="10"/>
</svg>
