<svg width="45" height="45" viewBox="0 0 45 45" fill="none" xmlns="http://www.w3.org/2000/svg">
<g clip-path="url(#clip0_630_10939)">
<path d="M44.9121 20.7794C44.8828 20.4455 44.707 20.1841 44.4434 20.0098C44.165 19.8356 43.8428 19.792 43.5352 19.8937C43.0664 20.0389 42.5684 20.1115 42.0264 20.1115C40.6934 20.1115 39.4336 19.6178 38.4814 18.732C38.1592 18.4271 37.6758 18.3545 37.2803 18.5578C36.5479 18.9353 35.7568 19.1241 34.9219 19.1241C33.8232 19.1241 32.7832 18.7901 31.9043 18.1657C31.6992 18.035 31.4209 17.9624 31.1865 17.9769C31.0107 17.9915 30.8496 18.006 30.6885 18.006C30.5713 18.006 30.4541 18.006 30.3223 17.9915H30.249C29.9561 17.9624 29.6924 17.9043 29.4434 17.8608C28.9014 17.7301 28.4033 17.5123 27.876 17.1783C27.6416 17.0476 27.4072 16.8588 27.1875 16.6701C26.0742 15.6972 25.4443 14.3177 25.4443 12.822C25.4443 12.459 25.4883 12.096 25.5469 11.7765C25.5615 11.7039 25.5762 11.6313 25.5762 11.5587C25.5762 11.1376 25.3271 10.7601 24.9316 10.6004C22.7344 9.68555 21.3135 7.55099 21.3135 5.16957C21.3135 4.06599 21.6357 2.97693 22.2363 2.0476C22.3535 1.87335 22.4121 1.68458 22.4121 1.48129C22.4121 1.30704 22.3682 1.11827 22.2656 0.958537C22.0752 0.624558 21.6943 0.421267 21.2988 0.435788C20.4492 0.47935 19.5703 0.580996 18.6475 0.740725C7.83691 2.57035 0 11.8201 0 22.7107C0 34.9953 10.0928 45.0002 22.5 45.0002C34.7461 45.0002 44.8389 35.1405 44.9707 23.1609C45 23.0157 45 22.8559 45 22.7107C45 22.0718 44.9707 21.4184 44.9121 20.7794ZM10.752 31.0892C8.71582 31.0892 7.0752 29.4484 7.0752 27.4445C7.0752 25.4261 8.71582 23.7998 10.752 23.7998C12.7881 23.7998 14.4287 25.4261 14.4287 27.4445C14.4287 29.4484 12.7881 31.0892 10.752 31.0892ZM14.5166 16.7717C14.3262 16.641 14.1357 16.4813 13.9746 16.3216C13.3154 15.6681 12.9053 14.7533 12.9053 13.7514C12.9053 12.6188 13.418 11.6023 14.2383 10.9343C14.8828 10.4116 15.6885 10.1066 16.582 10.1066C17.0215 10.1066 17.4463 10.1793 17.8418 10.3245C18.2373 10.4697 18.6035 10.673 18.9258 10.9343C19.292 11.2248 19.585 11.5878 19.8193 12.0089C19.8926 12.1541 19.9658 12.3138 20.0244 12.4735C20.0684 12.5897 20.1123 12.7204 20.1416 12.8511C20.1855 12.9963 20.2148 13.1415 20.2295 13.2867C20.2441 13.4464 20.2588 13.5916 20.2588 13.7514C20.2588 14.7533 19.8486 15.6681 19.1895 16.3216C19.0283 16.4813 18.8379 16.641 18.6475 16.7717C18.0469 17.1638 17.3438 17.3961 16.582 17.3961C15.8203 17.3961 15.1172 17.1638 14.5166 16.7717ZM20.3613 38.9305C18.6328 38.9305 17.2266 37.5365 17.2266 35.823C17.2266 34.095 18.6328 32.7156 20.3613 32.7156C22.0898 32.7156 23.4961 34.095 23.4961 35.823C23.4961 37.5365 22.0898 38.9305 20.3613 38.9305ZM25.0488 26.0505C24.5068 26.7185 23.6719 27.1541 22.749 27.1541C21.1377 27.1541 19.8193 25.8472 19.8193 24.2499C19.8193 23.5094 20.1123 22.8269 20.5811 22.3187C21.1084 21.7378 21.8848 21.3603 22.749 21.3603C23.042 21.3603 23.3057 21.4038 23.5693 21.4764C23.9355 21.5781 24.2578 21.7523 24.5508 21.9702C24.5654 21.9847 24.5654 21.9847 24.5801 21.9847C25.2393 22.5219 25.6641 23.3351 25.6641 24.2499C25.6641 24.9324 25.4297 25.5568 25.0488 26.0505ZM32.8711 33.2819C31.1426 33.2819 29.7363 31.8879 29.7363 30.1599C29.7363 28.4319 31.1426 27.0524 32.8711 27.0524C34.6143 27.0524 36.0059 28.4319 36.0059 30.1599C36.0059 31.8879 34.6143 33.2819 32.8711 33.2819Z" fill="white"/>
<path d="M32.4756 10.673C33.8185 10.673 34.9072 9.59376 34.9072 8.26251C34.9072 6.93125 33.8185 5.85205 32.4756 5.85205C31.1326 5.85205 30.0439 6.93125 30.0439 8.26251C30.0439 9.59376 31.1326 10.673 32.4756 10.673Z" fill="white"/>
<path d="M38.584 13.7078C39.2555 13.7078 39.7998 13.1682 39.7998 12.5026C39.7998 11.837 39.2555 11.2974 38.584 11.2974C37.9125 11.2974 37.3682 11.837 37.3682 12.5026C37.3682 13.1682 37.9125 13.7078 38.584 13.7078Z" fill="white"/>
<path d="M35.5 3C36.3284 3 37 2.32843 37 1.5C37 0.671573 36.3284 0 35.5 0C34.6716 0 34 0.671573 34 1.5C34 2.32843 34.6716 3 35.5 3Z" fill="white"/>
</g>
<defs>
<clipPath id="clip0_630_10939">
<rect width="45" height="45" fill="white"/>
</clipPath>
</defs>
</svg>
