<svg width="53" height="52" viewBox="0 0 53 52" fill="none" xmlns="http://www.w3.org/2000/svg">
<path d="M50.2175 0.000189934C50.0875 0.000189934 49.9594 0.000189934 49.8293 0.000189934C46.9858 0.0908848 44.1637 0.330165 41.3842 0.986256C35.7671 2.31194 31.2059 5.42645 27.0891 9.28966C25.1054 11.1518 23.2247 13.1143 21.4603 15.1829C21.437 15.2099 20.9402 15.7425 20.6218 16.086C20.451 16.2693 20.2181 16.3793 19.9677 16.3947L8.05222 17.1859C7.73003 17.2071 7.43694 17.3866 7.2739 17.6625L0.137013 29.6555C-0.090079 30.0356 -0.0299094 30.52 0.280643 30.8345L2.29147 32.8781C2.54768 33.1386 2.9281 33.235 3.27942 33.1289L11.6352 30.5991C11.9827 30.4949 12.3592 30.5875 12.6154 30.8422L20.8431 39.0221C21.0974 39.2749 21.1925 39.6474 21.0896 39.9908L18.6634 48.0569C18.5606 48.3985 18.6537 48.767 18.9041 49.0217L20.7267 50.8627C21.0391 51.1772 21.5263 51.2447 21.9126 51.0267L34.3366 43.9853C34.6258 43.8213 34.8102 43.5241 34.8296 43.1941L35.4934 31.9132C35.509 31.6469 35.6332 31.398 35.8389 31.2243C36.1437 30.9696 36.5551 30.6223 36.5745 30.6068C39.2472 28.3568 41.8947 26.0856 44.2394 23.4786C46.7801 20.6535 48.8763 17.5641 50.334 14.056C51.8848 10.324 52.4205 6.399 52.5971 2.4065C52.6922 0.210525 52.4535 -0.00752878 50.2175 0.000189934ZM42.2615 13.0467C40.6117 13.066 39.2453 11.7268 39.2317 10.077C39.2181 8.34991 40.4409 7.14 42.2091 7.13035C43.9909 7.1207 45.2312 8.30746 45.237 10.0249C45.2409 11.6883 43.923 13.0255 42.2615 13.0467Z" fill="white"/>
</svg>
