<?xml version="1.0" encoding="utf-8"?>
<!-- Generator: Adobe Illustrator 24.1.2, SVG Export Plug-In . SVG Version: 6.00 Build 0)  -->
<svg version="1.1" id="Layer_1" xmlns="http://www.w3.org/2000/svg" xmlns:xlink="http://www.w3.org/1999/xlink" x="0px" y="0px"
	 viewBox="0 0 16 16" style="enable-background:new 0 0 16 16;" xml:space="preserve">
<style type="text/css">
	.st0{fill:none;stroke:#FFFFFF;stroke-width:0.664;stroke-miterlimit:10;}
</style>
<path class="st0" d="M14.6,12.5c0,0.2-0.1,0.5-0.2,0.7c-0.1,0.2-0.3,0.5-0.5,0.7c-0.3,0.4-0.7,0.6-1.1,0.8c-0.4,0.2-0.8,0.3-1.3,0.3
	c-0.7,0-1.4-0.2-2.2-0.5c-0.8-0.3-1.5-0.8-2.3-1.3c-0.8-0.6-1.5-1.2-2.2-1.9c-0.7-0.7-1.3-1.4-1.9-2.2c-0.5-0.8-1-1.5-1.3-2.3
	C1.5,6.1,1.4,5.3,1.4,4.7c0-0.5,0.1-0.9,0.2-1.3C1.8,3,2,2.6,2.4,2.3c0.4-0.4,0.9-0.6,1.4-0.6c0.2,0,0.4,0,0.5,0.1
	C4.5,1.8,4.6,2,4.7,2.1l1.5,2.2c0.1,0.2,0.2,0.3,0.3,0.5C6.6,4.9,6.6,5,6.6,5.2c0,0.2,0,0.3-0.1,0.5C6.4,5.8,6.3,6,6.1,6.1L5.6,6.6
	C5.5,6.7,5.5,6.8,5.5,6.9c0,0.1,0,0.1,0,0.2c0,0.1,0,0.1,0.1,0.1C5.7,7.4,5.9,7.7,6.2,8c0.3,0.3,0.6,0.7,1,1c0.4,0.4,0.7,0.7,1.1,1
	c0.3,0.3,0.6,0.5,0.9,0.6c0,0,0.1,0,0.1,0.1c0.1,0,0.1,0,0.2,0c0.1,0,0.2,0,0.3-0.1l0.5-0.5c0.2-0.2,0.3-0.3,0.5-0.4
	c0.2-0.1,0.3-0.1,0.5-0.1c0.1,0,0.3,0,0.4,0.1S11.8,9.9,12,10l2.2,1.6c0.2,0.1,0.3,0.3,0.4,0.4C14.6,12.1,14.6,12.3,14.6,12.5z"/>
</svg>
