<svg width="27" height="26" viewBox="0 0 27 26" fill="none" xmlns="http://www.w3.org/2000/svg">
<path d="M23.9493 9.47951V15.8004C23.9493 18.4341 23.4226 20.2777 22.2427 21.4681L15.5215 14.7469L23.6649 6.60352C23.8545 7.43577 23.9493 8.38389 23.9493 9.47951Z" stroke="#333333" stroke-width="1.05348" stroke-linecap="round" stroke-linejoin="round"/>
<path d="M23.668 6.60774L7.38116 22.8945C4.21019 22.1676 2.88281 19.9764 2.88281 15.8046V9.48374C2.88281 4.21634 4.98977 2.10938 10.2572 2.10938H16.5781C20.7498 2.10937 22.9411 3.43677 23.668 6.60774Z" stroke="#333333" stroke-width="1.05348" stroke-linecap="round" stroke-linejoin="round"/>
<path d="M22.2416 21.4693C21.0511 22.6492 19.2076 23.1759 16.5739 23.1759H10.253C9.15735 23.1759 8.2092 23.0811 7.37695 22.8914L15.5204 14.748L22.2416 21.4693Z" stroke="#333333" stroke-width="1.05348" stroke-linecap="round" stroke-linejoin="round"/>
<path d="M7.34735 8.40682C8.06371 5.32012 12.699 5.32012 13.4154 8.40682C13.8263 10.2188 12.6885 11.7569 11.6877 12.705C10.9608 13.4003 9.81251 13.4003 9.07507 12.705C8.07426 11.7569 6.92595 10.2188 7.34735 8.40682Z" stroke="#333333" stroke-width="1.05348"/>
<path d="M10.3569 9.16541H10.3664" stroke="#333333" stroke-width="1.05348" stroke-linecap="round" stroke-linejoin="round"/>
</svg>
