<svg width="26" height="26" viewBox="0 0 26 26" fill="none" xmlns="http://www.w3.org/2000/svg">
<rect width="26" height="26" fill="#F5F5F5"/>
<path d="M23.2335 9.48098V15.8019C23.2335 18.4356 22.7068 20.2792 21.5269 21.4696L14.8057 14.7484L22.9491 6.60498C23.1387 7.43723 23.2335 8.38536 23.2335 9.48098Z" stroke="#1595F2" stroke-width="1.05348" stroke-linecap="round" stroke-linejoin="round"/>
<path d="M22.9492 6.6053L6.66241 22.8921C3.49144 22.1652 2.16406 19.974 2.16406 15.8022V9.4813C2.16406 4.2139 4.27102 2.10693 9.53843 2.10693H15.8593C20.0311 2.10693 22.2223 3.43432 22.9492 6.6053Z" stroke="#1595F2" stroke-width="1.05348" stroke-linecap="round" stroke-linejoin="round"/>
<path d="M21.5263 21.4702C20.3358 22.6501 18.4922 23.1769 15.8585 23.1769H9.53764C8.44202 23.1769 7.49387 23.0821 6.66162 22.8924L14.805 14.749L21.5263 21.4702Z" stroke="#1595F2" stroke-width="1.05348" stroke-linecap="round" stroke-linejoin="round"/>
<path d="M6.63055 8.40682C7.34692 5.32012 11.9822 5.32012 12.6986 8.40682C13.1095 10.2188 11.9717 11.7569 10.9709 12.705C10.244 13.4003 9.09571 13.4003 8.35827 12.705C7.35747 11.7569 6.20916 10.2188 6.63055 8.40682Z" stroke="#1595F2" stroke-width="1.05348"/>
<path d="M9.63814 9.16541H9.6476" stroke="#1595F2" stroke-width="1.05348" stroke-linecap="round" stroke-linejoin="round"/>
</svg>
