<?xml version="1.0" encoding="utf-8"?>
<!-- Generator: Adobe Illustrator 24.1.2, SVG Export Plug-In . SVG Version: 6.00 Build 0)  -->
<svg version="1.1" id="Layer_1" xmlns="http://www.w3.org/2000/svg" xmlns:xlink="http://www.w3.org/1999/xlink" x="0px" y="0px"
	 viewBox="0 0 20 20" style="enable-background:new 0 0 20 20;" xml:space="preserve">
<style type="text/css">
	.st0{fill:#1595F2;}
</style>
<g>
	<path class="st0" d="M17.6,18.5c-0.2,0-0.5-0.1-0.6-0.3l-5.8-5.8c-0.2-0.2-0.3-0.4-0.3-0.6c0-0.2,0.1-0.5,0.3-0.6l7-7
		c0.2-0.2,0.4-0.3,0.6-0.3c0.1,0,0.2,0,0.2,0c0.3,0.1,0.6,0.3,0.6,0.7C19.9,5.4,20,6.3,20,7.3v5.5c0,2.6-0.6,4.3-1.7,5.5
		C18.1,18.4,17.9,18.5,17.6,18.5z M17.5,16.3c0.5-0.8,0.7-2,0.7-3.5V7.3c0-0.2,0-0.4,0-0.6l-5.1,5.1L17.5,16.3z"/>
	<path class="st0" d="M17.6,18.1c-0.1,0-0.2,0-0.3-0.1l-5.8-5.8c-0.1-0.1-0.1-0.2-0.1-0.3c0-0.1,0-0.2,0.1-0.3l7-7
		c0.1-0.1,0.3-0.2,0.4-0.1c0.2,0,0.3,0.2,0.3,0.3c0.2,0.8,0.3,1.6,0.3,2.6v5.5c0,2.5-0.5,4.1-1.6,5.2C17.9,18,17.8,18.1,17.6,18.1
		L17.6,18.1z M12.5,11.8l5.1,5.1c0.7-0.9,1-2.3,1-4.2V7.3c0-0.6,0-1.1-0.1-1.5L12.5,11.8z"/>
	<path class="st0" d="M4.8,19.8c-0.1,0-0.1,0-0.2,0C1.5,19,0,16.8,0,12.7V7.3C0,2.2,2.2,0,7.3,0h5.5c4.1,0,6.3,1.5,7,4.6
		c0.1,0.3,0,0.6-0.2,0.8L5.4,19.5C5.2,19.7,5,19.8,4.8,19.8z M7.3,1.8c-4,0-5.5,1.4-5.5,5.5v5.5c0,3,0.8,4.5,2.7,5.1L17.9,4.5
		c-0.6-1.9-2.1-2.7-5.1-2.7H7.3z"/>
	<path class="st0" d="M4.8,19.3c0,0-0.1,0-0.1,0c-2.9-0.7-4.2-2.7-4.2-6.6V7.3c0-4.8,2-6.8,6.8-6.8h5.5c3.9,0,5.9,1.3,6.6,4.2
		c0,0.2,0,0.3-0.1,0.4L5.1,19.2C5,19.3,4.9,19.3,4.8,19.3z M7.3,1.3C3,1.3,1.3,3,1.3,7.3v5.5c0,3.3,1,5,3.3,5.6L18.4,4.6
		c-0.6-2.3-2.3-3.3-5.6-3.3H7.3z"/>
	<path class="st0" d="M7.3,20c-1,0-1.9-0.1-2.7-0.3c-0.3-0.1-0.6-0.3-0.7-0.6c-0.1-0.3,0-0.6,0.2-0.9l7-7c0.2-0.2,0.4-0.3,0.6-0.3
		c0.2,0,0.5,0.1,0.6,0.3l5.8,5.8c0.2,0.2,0.3,0.4,0.3,0.6c0,0.2-0.1,0.5-0.3,0.6c-1.2,1.2-3,1.7-5.5,1.7H7.3z M6.7,18.2
		c0.2,0,0.4,0,0.6,0h5.5c1.5,0,2.7-0.2,3.5-0.7l-4.5-4.5L6.7,18.2z"/>
	<path class="st0" d="M12.7,19.6H7.3c-1,0-1.8-0.1-2.6-0.3c-0.2,0-0.3-0.2-0.3-0.3c0-0.2,0-0.3,0.1-0.4l7-7c0.2-0.2,0.5-0.2,0.6,0
		l5.8,5.8c0.1,0.1,0.1,0.2,0.1,0.3c0,0.1,0,0.2-0.1,0.3C16.8,19.1,15.2,19.6,12.7,19.6z M5.7,18.6c0.5,0.1,1,0.1,1.5,0.1h5.5
		c1.9,0,3.3-0.3,4.2-1l-5.1-5.1L5.7,18.6z"/>
	<path class="st0" d="M7.4,11.4c-0.7,0-1.3-0.2-1.7-0.7c-1.1-1-2.2-2.6-1.8-4.6c0.4-1.9,2.1-2.7,3.5-2.7s3.1,0.8,3.5,2.7
		c0.4,2-0.7,3.6-1.7,4.6C8.7,11.2,8,11.4,7.4,11.4z M7.4,5.2c-0.2,0-1.5,0.1-1.8,1.3C5.4,7.7,6.1,8.7,6.9,9.4C7,9.5,7.2,9.6,7.4,9.6
		l0,0c0.2,0,0.4-0.1,0.5-0.2c0.7-0.7,1.5-1.7,1.2-2.9C8.8,5.3,7.6,5.2,7.4,5.2z"/>
	<path class="st0" d="M7.4,11c-0.5,0-1-0.2-1.4-0.6C5,9.5,3.9,8,4.3,6.2c0.4-1.6,1.8-2.4,3.1-2.4s2.7,0.7,3.1,2.4
		c0.4,1.8-0.7,3.2-1.6,4.2C8.4,10.8,7.9,11,7.4,11z M7.4,4.8c-0.8,0-1.9,0.4-2.2,1.6l0,0C4.9,7.8,5.8,9,6.6,9.7
		c0.5,0.4,1.2,0.4,1.6,0C9,9,9.9,7.8,9.6,6.4C9.3,5.2,8.2,4.8,7.4,4.8z"/>
	<path class="st0" d="M7.4,7.9C6.9,7.9,6.5,7.5,6.5,7c0-0.5,0.4-0.9,0.9-0.9c0.5,0,0.9,0.4,0.9,0.9C8.2,7.5,7.8,7.9,7.4,7.9z"/>
	<path class="st0" d="M7.4,7.5C7.1,7.5,6.9,7.2,6.9,7s0.2-0.5,0.5-0.5h0c0.3,0,0.5,0.2,0.5,0.5S7.6,7.5,7.4,7.5z"/>
</g>
</svg>
