<?xml version="1.0" encoding="utf-8"?>
<!-- Generator: Adobe Illustrator 24.1.2, SVG Export Plug-In . SVG Version: 6.00 Build 0)  -->
<svg version="1.1" id="Layer_1" xmlns="http://www.w3.org/2000/svg" xmlns:xlink="http://www.w3.org/1999/xlink" x="0px" y="0px"
	 viewBox="0 0 20 20" style="enable-background:new 0 0 20 20;" xml:space="preserve">
<style type="text/css">
	.st0{fill:#FF675B;}
</style>
<g>
	<path class="st0" d="M14.5,18.6H5.5c-0.5,0-0.9-0.4-0.9-0.9s0.4-0.9,0.9-0.9h9.1c2.4,0,3.6-1.2,3.6-3.6V6.8c0-2.4-1.2-3.6-3.6-3.6
		H5.5C3,3.2,1.9,4.4,1.9,6.8c0,0.5-0.4,0.9-0.9,0.9S0,7.3,0,6.8c0-3.5,2-5.5,5.5-5.5h9.1c3.5,0,5.5,2,5.5,5.5v6.3
		C20,16.6,18,18.6,14.5,18.6z"/>
	<path class="st0" d="M10,11c-0.8,0-1.6-0.3-2.3-0.8L1.6,4.5c-0.4-0.4-0.4-0.9,0-1.3c0.4-0.4,0.9-0.4,1.3,0l6.1,5.8
		c0.5,0.4,1.6,0.4,2.2-0.1l6-5.7c0.4-0.4,1-0.3,1.3,0c0.4,0.4,0.3,1,0,1.3l-6.1,5.8C11.7,10.8,10.8,11,10,11z"/>
	<path class="st0" d="M6.4,15H0.9C0.4,15,0,14.6,0,14.1s0.4-0.9,0.9-0.9h5.4c0.5,0,0.9,0.4,0.9,0.9S6.9,15,6.4,15z"/>
	<path class="st0" d="M3.7,11.4H0.9C0.4,11.4,0,11,0,10.5s0.4-0.9,0.9-0.9h2.7c0.5,0,0.9,0.4,0.9,0.9S4.2,11.4,3.7,11.4z"/>
</g>
</svg>
