<?xml version="1.0" encoding="utf-8"?>
<!-- Generator: Adobe Illustrator 24.1.2, SVG Export Plug-In . SVG Version: 6.00 Build 0)  -->
<svg version="1.1" id="Layer_1" xmlns="http://www.w3.org/2000/svg" xmlns:xlink="http://www.w3.org/1999/xlink" x="0px" y="0px"
	 viewBox="0 0 14 15" style="enable-background:new 0 0 14 15;" xml:space="preserve">
<style type="text/css">
	.st0{fill:#FF675B;}
</style>
<path class="st0" d="M9.9,12.6H4.1c-0.3,0-0.6-0.3-0.6-0.6s0.3-0.6,0.6-0.6h5.8c1.6,0,2.3-0.8,2.3-2.3V5c0-1.6-0.8-2.3-2.3-2.3H4.1
	C2.5,2.6,1.8,3.4,1.8,5c0,0.3-0.3,0.6-0.6,0.6S0.6,5.3,0.6,5c0-2.2,1.3-3.5,3.5-3.5h5.8c2.2,0,3.5,1.3,3.5,3.5V9
	C13.4,11.3,12.2,12.6,9.9,12.6z"/>
<path class="st0" d="M7,7.7c-0.5,0-1-0.2-1.5-0.5L1.6,3.4c-0.2-0.2-0.3-0.6,0-0.8c0.2-0.2,0.6-0.3,0.8,0l3.9,3.7
	c0.3,0.3,1,0.3,1.4,0l3.9-3.7c0.2-0.2,0.6-0.2,0.8,0c0.2,0.2,0.2,0.6,0,0.8L8.5,7.1C8.1,7.5,7.5,7.7,7,7.7z"/>
<path class="st0" d="M4.7,10.2H1.2c-0.3,0-0.6-0.3-0.6-0.6S0.8,9,1.2,9h3.5C5,9,5.3,9.3,5.3,9.6S5,10.2,4.7,10.2z"/>
<path class="st0" d="M2.9,7.9H1.2c-0.3,0-0.6-0.3-0.6-0.6s0.3-0.6,0.6-0.6h1.8c0.3,0,0.6,0.3,0.6,0.6S3.2,7.9,2.9,7.9z"/>
</svg>
