<?xml version="1.0" encoding="utf-8"?>
<!-- Generator: Adobe Illustrator 24.1.2, SVG Export Plug-In . SVG Version: 6.00 Build 0)  -->
<svg version="1.1" id="Computer" xmlns="http://www.w3.org/2000/svg" xmlns:xlink="http://www.w3.org/1999/xlink" x="0px" y="0px"
	 viewBox="0 0 150 150" style="enable-background:new 0 0 150 150;" xml:space="preserve">
<style type="text/css">
	.st0{display:none;}
	.st1{display:inline;fill:#EFF2F7;}
	.st2{display:inline;fill:none;stroke:#F2F5FA;stroke-width:2;}
	.st3{display:inline;fill:#676767;}
	.st4{display:inline;fill:#288CF0;}
	.st5{display:inline;fill:#FFFFFF;}
	.st6{display:inline;fill:none;stroke:#FFB17F;stroke-width:2;}
	.st7{fill:#EFF2F7;}
	.st8{fill:none;stroke:#F2F5F9;stroke-width:2;}
	.st9{fill:#666666;}
</style>
<g class="st0">
	<circle class="st1" cx="75" cy="75" r="60.94"/>
	<circle class="st2" cx="75" cy="75" r="74"/>
	<path class="st3" d="M94.09,54.16H54.72c-2.21,0-3.94,1.8-3.94,3.94v26.25c0,2.21,1.72,3.94,3.94,3.94h15.75l-1.31,3.94h-5.91
		c-1.15,0-1.97,0.9-1.97,1.97c0,1.15,0.82,1.97,1.97,1.97h22.31c1.07,0,1.97-0.82,1.97-1.97c0-1.07-0.9-1.97-1.97-1.97h-5.91
		l-1.31-3.94h15.75c2.13,0,3.94-1.72,3.94-3.94V58.09C98.03,55.96,96.23,54.16,94.09,54.16z M92.78,77.78H56.03V59.41h36.75V77.78z"
		/>
</g>
<g class="st0">
	<circle class="st4" cx="75" cy="75" r="75"/>
	<path class="st5" d="M94.09,54.16H54.72c-2.21,0-3.94,1.8-3.94,3.94v26.25c0,2.21,1.72,3.94,3.94,3.94h15.75l-1.31,3.94h-5.91
		c-1.15,0-1.97,0.9-1.97,1.97c0,1.15,0.82,1.97,1.97,1.97h22.31c1.07,0,1.97-0.82,1.97-1.97c0-1.07-0.9-1.97-1.97-1.97h-5.91
		l-1.31-3.94h15.75c2.13,0,3.94-1.72,3.94-3.94V58.09C98.03,55.96,96.23,54.16,94.09,54.16z M92.78,77.78H56.03V59.41h36.75V77.78z"
		/>
	<circle class="st6" cx="75" cy="75" r="59.94"/>
</g>
<g>
	
		<ellipse transform="matrix(0.7071 -0.7071 0.7071 0.7071 -31.1829 74.756)" class="st7" cx="74.65" cy="75.02" rx="60.94" ry="60.94"/>
	<circle class="st8" cx="75" cy="75" r="74"/>
	<path class="st9" d="M75.74,55.24c0-0.74,0.49-1.39,1.31-1.39c10.09,0,18.38,8.28,18.38,18.37c0,0.74-0.66,1.31-1.4,1.31H75.74
		V55.24z M53.43,76.16c0-9.93,7.38-18.13,16.9-19.44c0.82-0.16,1.48,0.49,1.48,1.23v19.52l12.8,12.88c0.57,0.57,0.49,1.48-0.08,1.89
		c-3.28,2.3-7.22,3.61-11.4,3.61C62.21,95.85,53.43,87.07,53.43,76.16z M96.58,77.47c0.74,0,1.4,0.66,1.23,1.39
		c-0.58,4.59-2.79,8.7-6.07,11.73c-0.49,0.41-1.23,0.41-1.72-0.08L77.06,77.47H96.58z"/>
</g>
</svg>
