<?xml version="1.0" encoding="utf-8"?>
<!-- Generator: Adobe Illustrator 24.1.2, SVG Export Plug-In . SVG Version: 6.00 Build 0)  -->
<svg version="1.1" id="Layer_1" xmlns="http://www.w3.org/2000/svg" xmlns:xlink="http://www.w3.org/1999/xlink" x="0px" y="0px"
	 viewBox="0 0 20.3 17.4" style="enable-background:new 0 0 20.3 17.4;" xml:space="preserve">
<style type="text/css">
	.st0{fill:#1595F2;}
</style>
<g>
	<path class="st0" d="M15,17.4H5.3c-0.3,0-0.5-0.2-0.5-0.5s0.2-0.5,0.5-0.5H15c2.9,0,4.3-1.5,4.3-4.3V5.3C19.3,2.4,17.8,1,15,1H5.3
		C2.4,1,1,2.4,1,5.3c0,0.3-0.2,0.5-0.5,0.5S0,5.6,0,5.3C0,1.9,1.9,0,5.3,0H15c3.4,0,5.3,1.9,5.3,5.3v6.8
		C20.3,15.5,18.4,17.4,15,17.4z"/>
	<path class="st0" d="M10.1,9.3C9.4,9.3,8.6,9,8,8.6L1.5,2.4c-0.2-0.2-0.2-0.5,0-0.7c0.2-0.2,0.5-0.2,0.7,0l6.5,6.1
		c0.8,0.6,2.2,0.6,3,0l6.4-6.1c0.2-0.2,0.5-0.2,0.7,0c0.2,0.2,0.2,0.5,0,0.7l-6.5,6.1C11.7,9,10.9,9.3,10.1,9.3z"/>
	<path class="st0" d="M6.3,13.5H0.5C0.2,13.5,0,13.3,0,13s0.2-0.5,0.5-0.5h5.8c0.3,0,0.5,0.2,0.5,0.5S6.5,13.5,6.3,13.5z"/>
	<path class="st0" d="M3.4,9.7H0.5C0.2,9.7,0,9.4,0,9.2s0.2-0.5,0.5-0.5h2.9c0.3,0,0.5,0.2,0.5,0.5S3.6,9.7,3.4,9.7z"/>
</g>
</svg>
