<?xml version="1.0" encoding="utf-8"?>
<!-- Generator: Adobe Illustrator 24.1.2, SVG Export Plug-In . SVG Version: 6.00 Build 0)  -->
<svg version="1.1" id="Computer" xmlns="http://www.w3.org/2000/svg" xmlns:xlink="http://www.w3.org/1999/xlink" x="0px" y="0px"
	 viewBox="0 0 150 150" style="enable-background:new 0 0 150 150;" xml:space="preserve">
<style type="text/css">
	.st0{display:none;}
	.st1{display:inline;fill:#EFF2F7;}
	.st2{display:inline;fill:none;stroke:#F2F5FA;stroke-width:2;}
	.st3{display:inline;fill:#676767;}
	.st4{display:inline;fill:#288CF0;}
	.st5{display:inline;fill:#FFFFFF;}
	.st6{display:inline;fill:none;stroke:#FFB17F;stroke-width:2;}
	.st7{display:inline;fill:none;stroke:#F2F5F9;stroke-width:2;}
	.st8{display:inline;fill:#666666;}
	.st9{display:inline;fill:none;stroke:#EFF2F7;stroke-width:2;}
	.st10{fill:#EFF2F7;}
	.st11{fill:none;stroke:#F2F5F9;stroke-width:2;}
	.st12{fill:#666666;}
</style>
<g class="st0">
	<circle class="st1" cx="75" cy="75" r="60.94"/>
	<circle class="st2" cx="75" cy="75" r="74"/>
	<path class="st3" d="M94.09,54.16H54.72c-2.21,0-3.94,1.8-3.94,3.94v26.25c0,2.21,1.72,3.94,3.94,3.94h15.75l-1.31,3.94h-5.91
		c-1.15,0-1.97,0.9-1.97,1.97c0,1.15,0.82,1.97,1.97,1.97h22.31c1.07,0,1.97-0.82,1.97-1.97c0-1.07-0.9-1.97-1.97-1.97h-5.91
		l-1.31-3.94h15.75c2.13,0,3.94-1.72,3.94-3.94V58.09C98.03,55.96,96.23,54.16,94.09,54.16z M92.78,77.78H56.03V59.41h36.75V77.78z"
		/>
</g>
<g class="st0">
	<circle class="st4" cx="75" cy="75" r="75"/>
	<path class="st5" d="M94.09,54.16H54.72c-2.21,0-3.94,1.8-3.94,3.94v26.25c0,2.21,1.72,3.94,3.94,3.94h15.75l-1.31,3.94h-5.91
		c-1.15,0-1.97,0.9-1.97,1.97c0,1.15,0.82,1.97,1.97,1.97h22.31c1.07,0,1.97-0.82,1.97-1.97c0-1.07-0.9-1.97-1.97-1.97h-5.91
		l-1.31-3.94h15.75c2.13,0,3.94-1.72,3.94-3.94V58.09C98.03,55.96,96.23,54.16,94.09,54.16z M92.78,77.78H56.03V59.41h36.75V77.78z"
		/>
	<circle class="st6" cx="75" cy="75" r="59.94"/>
</g>
<g class="st0">
	
		<ellipse transform="matrix(0.7071 -0.7071 0.7071 0.7071 -31.1829 74.756)" class="st1" cx="74.65" cy="75.02" rx="60.94" ry="60.94"/>
	<circle class="st7" cx="75" cy="75" r="74"/>
	<path class="st8" d="M75.74,55.24c0-0.74,0.49-1.39,1.31-1.39c10.09,0,18.38,8.28,18.38,18.37c0,0.74-0.66,1.31-1.4,1.31H75.74
		V55.24z M53.43,76.16c0-9.93,7.38-18.13,16.9-19.44c0.82-0.16,1.48,0.49,1.48,1.23v19.52l12.8,12.88c0.57,0.57,0.49,1.48-0.08,1.89
		c-3.28,2.3-7.22,3.61-11.4,3.61C62.21,95.85,53.43,87.07,53.43,76.16z M96.58,77.47c0.74,0,1.4,0.66,1.23,1.39
		c-0.58,4.59-2.79,8.7-6.07,11.73c-0.49,0.41-1.23,0.41-1.72-0.08L77.06,77.47H96.58z"/>
</g>
<g class="st0">
	<circle class="st4" cx="75" cy="75" r="75"/>
	<path class="st5" d="M75.74,55.68c0-0.74,0.49-1.39,1.31-1.39c10.09,0,18.38,8.29,18.38,18.38c0,0.74-0.66,1.31-1.4,1.31H75.74
		V55.68z M53.43,76.59c0-9.93,7.38-18.13,16.9-19.44c0.82-0.16,1.48,0.49,1.48,1.23v19.52l12.8,12.88c0.57,0.57,0.49,1.48-0.08,1.89
		c-3.28,2.3-7.22,3.61-11.4,3.61C62.21,96.28,53.43,87.5,53.43,76.59z M96.58,77.91c0.74,0,1.4,0.66,1.23,1.39
		c-0.58,4.59-2.79,8.7-6.07,11.73c-0.49,0.41-1.23,0.41-1.72-0.08L77.06,77.91H96.58z"/>
	<circle class="st6" cx="75" cy="75.25" r="59.94"/>
</g>
<g class="st0">
	<circle class="st1" cx="74.65" cy="74.65" r="60.94"/>
	<circle class="st7" cx="75" cy="75" r="74"/>
	<path class="st8" d="M67.87,60.85c0-2.13,1.72-3.94,3.94-3.94h5.25c2.13,0,3.94,1.8,3.94,3.94v5.25c0,2.21-1.8,3.94-3.94,3.94H76.4
		v3.28h12.47c2.46,0,4.59,2.13,4.59,4.59v2.63h0.66c2.13,0,3.94,1.8,3.94,3.94v5.25c0,2.21-1.8,3.94-3.94,3.94h-5.25
		c-2.22,0-3.94-1.72-3.94-3.94v-5.25c0-2.13,1.72-3.94,3.94-3.94h0.66v-2.63c0-0.33-0.33-0.66-0.66-0.66H76.4v3.28h0.66
		c2.13,0,3.94,1.8,3.94,3.94v5.25c0,2.21-1.8,3.94-3.94,3.94h-5.25c-2.22,0-3.94-1.72-3.94-3.94v-5.25c0-2.13,1.72-3.94,3.94-3.94
		h0.66v-3.28H59.99c-0.41,0-0.66,0.33-0.66,0.66v2.63h0.66c2.13,0,3.94,1.8,3.94,3.94v5.25c0,2.21-1.8,3.94-3.94,3.94h-5.25
		c-2.22,0-3.94-1.72-3.94-3.94v-5.25c0-2.13,1.72-3.94,3.94-3.94h0.66v-2.63c0-2.46,2.05-4.59,4.59-4.59h12.47v-3.28h-0.66
		c-2.22,0-3.94-1.72-3.94-3.94V60.85z"/>
</g>
<g class="st0">
	<circle class="st4" cx="75" cy="75" r="75"/>
	<path class="st5" d="M67.87,60.04c0-2.13,1.72-3.94,3.94-3.94h5.25c2.13,0,3.94,1.8,3.94,3.94v5.25c0,2.21-1.8,3.94-3.94,3.94H76.4
		v3.28h12.47c2.46,0,4.59,2.13,4.59,4.59v2.63h0.66c2.13,0,3.94,1.8,3.94,3.94v5.25c0,2.21-1.8,3.94-3.94,3.94h-5.25
		c-2.22,0-3.94-1.72-3.94-3.94v-5.25c0-2.13,1.72-3.94,3.94-3.94h0.66V77.1c0-0.33-0.33-0.66-0.66-0.66H76.4v3.28h0.66
		c2.13,0,3.94,1.8,3.94,3.94v5.25c0,2.21-1.8,3.94-3.94,3.94h-5.25c-2.22,0-3.94-1.72-3.94-3.94v-5.25c0-2.13,1.72-3.94,3.94-3.94
		h0.66v-3.28H59.99c-0.41,0-0.66,0.33-0.66,0.66v2.63h0.66c2.13,0,3.94,1.8,3.94,3.94v5.25c0,2.21-1.8,3.94-3.94,3.94h-5.25
		c-2.22,0-3.94-1.72-3.94-3.94v-5.25c0-2.13,1.72-3.94,3.94-3.94h0.66V77.1c0-2.46,2.05-4.59,4.59-4.59h12.47v-3.28h-0.66
		c-2.22,0-3.94-1.72-3.94-3.94V60.04z"/>
	<circle class="st6" cx="75" cy="75" r="59.94"/>
</g>
<g class="st0">
	<circle class="st1" cx="74.65" cy="74.65" r="60.94"/>
	<circle class="st7" cx="75" cy="75" r="74"/>
	<path class="st8" d="M93.91,88.78H58.48V63.85c0-0.66-0.66-1.31-1.31-1.31h-2.63c-0.74,0-1.31,0.66-1.31,1.31v27.56
		c0,1.48,1.15,2.63,2.63,2.63h38.06c0.66,0,1.32-0.57,1.32-1.31V90.1C95.23,89.44,94.57,88.78,93.91,88.78z M91.29,65.16h-9.76
		c-1.73,0-2.63,2.13-1.4,3.36l2.71,2.71l-5.99,5.99l-6.07-5.99c-0.98-1.07-2.71-1.07-3.69,0l-5.66,5.66c-0.49,0.49-0.49,1.31,0,1.8
		l1.89,1.89c0.49,0.49,1.31,0.49,1.8,0l3.86-3.77l5.98,5.99c0.99,1.07,2.71,1.07,3.7,0l7.87-7.88l2.71,2.71
		c1.23,1.23,3.28,0.33,3.28-1.4v-9.76C92.6,65.81,91.94,65.16,91.29,65.16z"/>
</g>
<g class="st0">
	<circle class="st4" cx="75" cy="75" r="75"/>
	<path class="st5" d="M93.91,88.78H58.48V63.85c0-0.66-0.66-1.31-1.31-1.31h-2.63c-0.74,0-1.31,0.66-1.31,1.31v27.56
		c0,1.48,1.15,2.63,2.63,2.63h38.06c0.66,0,1.32-0.57,1.32-1.31v-2.63C95.23,89.44,94.57,88.78,93.91,88.78z M91.29,65.16h-9.76
		c-1.73,0-2.63,2.13-1.4,3.36l2.71,2.71l-5.99,5.99l-6.07-5.99c-0.98-1.07-2.71-1.07-3.69,0l-5.66,5.66c-0.49,0.49-0.49,1.31,0,1.8
		l1.89,1.89c0.49,0.49,1.31,0.49,1.8,0l3.86-3.77l5.98,5.99c0.99,1.07,2.71,1.07,3.7,0l7.87-7.88l2.71,2.71
		c1.23,1.23,3.28,0.33,3.28-1.4v-9.76C92.6,65.81,91.94,65.16,91.29,65.16z"/>
	<circle class="st6" cx="74.65" cy="74.65" r="59.94"/>
</g>
<g class="st0">
	<circle class="st1" cx="74.94" cy="74.94" r="60.94"/>
	<circle class="st7" cx="75" cy="75" r="74"/>
	<path class="st8" d="M92.75,60.81v3.94c0,3.69-8.29,6.56-18.37,6.56C64.2,71.31,56,68.44,56,64.75v-3.94
		c0-3.61,8.2-6.56,18.38-6.56C84.46,54.25,92.75,57.2,92.75,60.81z M88.24,71.89c1.64-0.57,3.28-1.39,4.51-2.3v8.29
		c0,3.69-8.29,6.56-18.37,6.56C64.2,84.44,56,81.57,56,77.88v-8.29c1.15,0.9,2.79,1.72,4.43,2.3c3.69,1.31,8.61,2.05,13.95,2.05
		C79.62,73.94,84.55,73.2,88.24,71.89z M60.43,85.01c3.69,1.31,8.61,2.05,13.95,2.05c5.24,0,10.17-0.74,13.86-2.05
		c1.64-0.57,3.28-1.39,4.51-2.3v6.97c0,3.69-8.29,6.56-18.37,6.56C64.2,96.25,56,93.38,56,89.69v-6.97
		C57.15,83.62,58.79,84.44,60.43,85.01z"/>
</g>
<g class="st0">
	<circle class="st4" cx="75" cy="75" r="75"/>
	<path class="st5" d="M92.75,60.81v3.94c0,3.69-8.29,6.56-18.37,6.56C64.2,71.31,56,68.44,56,64.75v-3.94
		c0-3.61,8.2-6.56,18.38-6.56C84.46,54.25,92.75,57.2,92.75,60.81z M88.24,71.89c1.64-0.57,3.28-1.39,4.51-2.3v8.29
		c0,3.69-8.29,6.56-18.37,6.56C64.2,84.44,56,81.57,56,77.88v-8.29c1.15,0.9,2.79,1.72,4.43,2.3c3.69,1.31,8.61,2.05,13.95,2.05
		C79.62,73.94,84.55,73.2,88.24,71.89z M60.43,85.01c3.69,1.31,8.61,2.05,13.95,2.05c5.24,0,10.17-0.74,13.86-2.05
		c1.64-0.57,3.28-1.39,4.51-2.3v6.97c0,3.69-8.29,6.56-18.37,6.56C64.2,96.25,56,93.38,56,89.69v-6.97
		C57.15,83.62,58.79,84.44,60.43,85.01z"/>
	<circle class="st6" cx="74.94" cy="74.94" r="59.94"/>
</g>
<g class="st0">
	<circle class="st1" cx="74.94" cy="74.94" r="60.94"/>
	<circle class="st7" cx="75" cy="75" r="74"/>
	<path class="st8" d="M62.56,70v-3.94c0-6.48,5.25-11.81,11.82-11.81c6.48,0,11.81,5.33,11.81,11.81V70h1.31
		c2.87,0,5.25,2.38,5.25,5.25V91c0,2.95-2.38,5.25-5.25,5.25H61.25C58.3,96.25,56,93.95,56,91V75.25c0-2.87,2.3-5.25,5.25-5.25
		H62.56z M67.81,70h13.13v-3.94c0-3.61-2.96-6.56-6.56-6.56c-3.7,0-6.57,2.95-6.57,6.56V70z"/>
</g>
<g class="st0">
	<circle class="st4" cx="75" cy="75" r="75"/>
	<path class="st5" d="M63.19,69.75v-3.94c0-6.48,5.25-11.81,11.82-11.81c6.48,0,11.81,5.33,11.81,11.81v3.94h1.31
		c2.87,0,5.25,2.38,5.25,5.25v15.75c0,2.95-2.38,5.25-5.25,5.25H61.88c-2.95,0-5.25-2.3-5.25-5.25V75c0-2.87,2.3-5.25,5.25-5.25
		H63.19z M68.44,69.75h13.13v-3.94c0-3.61-2.96-6.56-6.56-6.56c-3.7,0-6.57,2.95-6.57,6.56V69.75z"/>
	<circle class="st6" cx="75" cy="75" r="59.94"/>
</g>
<g class="st0">
	<circle class="st9" cx="75" cy="75" r="74"/>
	<circle class="st1" cx="74.94" cy="74.94" r="60.94"/>
	<path class="st8" d="M69.13,60.81c0,2.71-1.64,5-3.94,6.07V70c0,1.48,1.15,2.63,2.62,2.63h13.13c1.39,0,2.62-1.15,2.62-2.63v-3.12
		c-2.38-1.07-3.94-3.36-3.94-6.07c0-3.61,2.87-6.56,6.56-6.56c3.61,0,6.56,2.95,6.56,6.56c0,2.71-1.64,5-3.94,6.07V70
		c0,4.35-3.53,7.88-7.87,7.88H77v5.82c2.3,0.99,3.94,3.36,3.94,5.99c0,3.69-2.95,6.56-6.56,6.56c-3.69,0-6.56-2.87-6.56-6.56
		c0-2.63,1.56-5,3.94-5.99v-5.82h-3.94c-4.43,0-7.87-3.53-7.87-7.88v-3.12C57.56,65.82,56,63.52,56,60.81
		c0-3.61,2.87-6.56,6.56-6.56C66.17,54.25,69.13,57.2,69.13,60.81z M62.56,62.78c1.07,0,1.97-0.82,1.97-1.97
		c0-1.07-0.9-1.97-1.97-1.97c-1.15,0-1.97,0.9-1.97,1.97C60.59,61.96,61.41,62.78,62.56,62.78z M86.19,62.78
		c1.07,0,1.97-0.82,1.97-1.97c0-1.07-0.9-1.97-1.97-1.97c-1.15,0-1.97,0.9-1.97,1.97C84.22,61.96,85.04,62.78,86.19,62.78z
		 M74.38,87.72c-1.15,0-1.97,0.9-1.97,1.97c0,1.15,0.82,1.97,1.97,1.97c1.07,0,1.97-0.82,1.97-1.97
		C76.34,88.62,75.44,87.72,74.38,87.72z"/>
</g>
<g class="st0">
	<circle class="st4" cx="75" cy="75" r="75"/>
	<path class="st5" d="M69.13,60.81c0,2.71-1.64,5.01-3.94,6.07V70c0,1.48,1.15,2.62,2.62,2.62h13.13c1.39,0,2.62-1.14,2.62-2.62
		v-3.12c-2.38-1.06-3.94-3.36-3.94-6.07c0-3.61,2.87-6.56,6.56-6.56c3.61,0,6.56,2.95,6.56,6.56c0,2.71-1.64,5.01-3.94,6.07V70
		c0,4.35-3.53,7.88-7.87,7.88H77v5.82c2.3,0.98,3.94,3.36,3.94,5.99c0,3.69-2.95,6.56-6.56,6.56c-3.69,0-6.56-2.87-6.56-6.56
		c0-2.63,1.56-5.01,3.94-5.99v-5.82h-3.94c-4.43,0-7.87-3.53-7.87-7.88v-3.12C57.56,65.82,56,63.52,56,60.81
		c0-3.61,2.87-6.56,6.56-6.56C66.17,54.25,69.13,57.2,69.13,60.81z M62.56,62.78c1.07,0,1.97-0.82,1.97-1.97
		c0-1.06-0.9-1.97-1.97-1.97c-1.15,0-1.97,0.91-1.97,1.97C60.59,61.96,61.41,62.78,62.56,62.78z M86.19,62.78
		c1.07,0,1.97-0.82,1.97-1.97c0-1.06-0.9-1.97-1.97-1.97c-1.15,0-1.97,0.91-1.97,1.97C84.22,61.96,85.04,62.78,86.19,62.78z
		 M74.38,87.72c-1.15,0-1.97,0.9-1.97,1.97c0,1.15,0.82,1.97,1.97,1.97c1.07,0,1.97-0.82,1.97-1.97
		C76.34,88.62,75.44,87.72,74.38,87.72z"/>
	<circle class="st6" cx="74.94" cy="74.94" r="59.94"/>
</g>
<g class="st0">
	<circle class="st9" cx="75" cy="75" r="74"/>
	
		<ellipse transform="matrix(0.7071 -0.7071 0.7071 0.7071 -30.9198 74.647)" class="st1" cx="74.65" cy="74.65" rx="60.94" ry="60.94"/>
	<path class="st8" d="M79.48,75.28c-1.48,0-2.63,1.23-2.63,2.63c0,1.48,1.15,2.63,2.63,2.63h7.88c4.35,0,7.88,3.53,7.88,7.88
		c0,4.35-3.53,7.88-7.88,7.88H64.63c0.74-0.74,1.56-1.8,2.46-2.95c0.49-0.74,1.07-1.48,1.56-2.3h18.7c1.39,0,2.63-1.15,2.63-2.63
		c0-1.39-1.23-2.63-2.63-2.63h-7.88c-4.43,0-7.96-3.53-7.96-7.88c0-4.35,3.53-7.88,7.96-7.88h3.44c-1.8-2.46-3.44-5.41-3.44-7.88
		c0-4.35,3.44-7.88,7.88-7.88c4.35,0,7.88,3.53,7.88,7.88c0,5.25-7.88,13.13-7.88,13.13H79.48z M87.35,64.78
		c1.39,0,2.63-1.15,2.63-2.63c0-1.39-1.23-2.63-2.63-2.63c-1.48,0-2.63,1.23-2.63,2.63C84.73,63.63,85.87,64.78,87.35,64.78z
		 M62.9,94.31l-0.08,0.08c-0.33,0.41-0.66,0.74-0.9,1.07c-0.08,0-0.08,0-0.08,0.08c-0.49,0.49-0.74,0.74-0.74,0.74
		s-7.88-7.88-7.88-13.13c0-4.35,3.44-7.88,7.88-7.88c4.35,0,7.88,3.53,7.88,7.88c0,2.46-1.72,5.41-3.53,7.88
		C64.55,92.34,63.64,93.41,62.9,94.31z M61.02,85.78c1.48,0,2.63-1.15,2.63-2.63c0-1.39-1.15-2.63-2.63-2.63
		c-1.4,0-2.63,1.23-2.63,2.63C58.39,84.63,59.62,85.78,61.02,85.78z"/>
</g>
<g class="st0">
	<circle class="st4" cx="75" cy="75" r="75"/>
	<path class="st5" d="M80.25,75c-1.48,0-2.63,1.23-2.63,2.63c0,1.47,1.15,2.62,2.63,2.62h7.88c4.35,0,7.88,3.53,7.88,7.88
		c0,4.34-3.53,7.87-7.88,7.87H65.4c0.74-0.74,1.56-1.8,2.46-2.95c0.49-0.74,1.07-1.48,1.56-2.3h18.7c1.39,0,2.63-1.15,2.63-2.62
		c0-1.4-1.23-2.63-2.63-2.63h-7.88c-4.43,0-7.96-3.53-7.96-7.87c0-4.35,3.53-7.88,7.96-7.88h3.45c-1.8-2.46-3.45-5.41-3.45-7.88
		c0-4.34,3.45-7.87,7.88-7.87c4.35,0,7.88,3.53,7.88,7.87C96,67.13,88.13,75,88.13,75H80.25z M88.13,64.5
		c1.39,0,2.63-1.15,2.63-2.63c0-1.39-1.23-2.62-2.63-2.62c-1.48,0-2.63,1.23-2.63,2.62C85.5,63.35,86.65,64.5,88.13,64.5z
		 M63.68,94.03l-0.08,0.08c-0.33,0.41-0.66,0.74-0.9,1.07c-0.08,0-0.08,0-0.08,0.08C62.12,95.75,61.88,96,61.88,96
		S54,88.13,54,82.87c0-4.34,3.45-7.87,7.88-7.87c4.35,0,7.88,3.53,7.88,7.87c0,2.47-1.72,5.42-3.53,7.88
		C65.32,92.06,64.42,93.13,63.68,94.03z M61.79,85.5c1.48,0,2.63-1.15,2.63-2.63c0-1.39-1.15-2.62-2.63-2.62
		c-1.39,0-2.63,1.23-2.63,2.62C59.17,84.35,60.4,85.5,61.79,85.5z"/>
	<ellipse transform="matrix(0.7071 -0.7071 0.7071 0.7071 -31.066 75)" class="st6" cx="75" cy="75" rx="59.94" ry="59.94"/>
</g>
<g class="st0">
	<circle class="st1" cx="74.94" cy="74.94" r="60.94"/>
	<circle class="st7" cx="75" cy="75" r="74"/>
	<path class="st8" d="M68.19,91.57c0,0.49,0.08,0.99,0.41,1.4l1.39,2.13c0.41,0.66,1.4,1.15,2.21,1.15h5c0.82,0,1.8-0.49,2.22-1.15
		l1.39-2.13c0.25-0.33,0.41-0.98,0.41-1.4l0.08-3.2H68.19V91.57z M74.75,54.25c-8.37,0.08-14.44,6.81-14.44,14.44
		c0,3.61,1.31,6.89,3.53,9.43c1.39,1.56,3.44,4.84,4.26,7.55c0,0,0,0,0,0.08h13.21c0-0.08,0-0.08,0-0.08
		c0.82-2.71,2.87-5.99,4.27-7.55c2.22-2.46,3.61-5.74,3.61-9.43C89.19,60.73,82.71,54.33,74.75,54.25z M82.63,75.66
		c-1.31,1.4-2.87,3.77-4.02,6.15h-7.79c-1.15-2.38-2.71-4.76-4.02-6.15c-1.64-1.97-2.54-4.43-2.54-6.97
		c0-5.09,3.94-10.42,10.42-10.5c5.82,0,10.58,4.76,10.58,10.5C85.25,71.23,84.27,73.69,82.63,75.66z M73.44,60.81
		c-3.69,0-6.56,2.95-6.56,6.56c0,0.74,0.57,1.31,1.31,1.31c0.66,0,1.31-0.58,1.31-1.31c0-2.13,1.72-3.94,3.94-3.94
		c0.66,0,1.31-0.58,1.31-1.23C74.75,61.47,74.09,60.81,73.44,60.81z"/>
</g>
<g class="st0">
	<circle class="st4" cx="75" cy="75" r="75"/>
	<path class="st5" d="M68.19,91.57c0,0.5,0.08,0.99,0.41,1.4l1.39,2.13c0.41,0.66,1.4,1.15,2.21,1.15h5c0.82,0,1.8-0.49,2.22-1.15
		l1.39-2.13c0.25-0.33,0.41-0.99,0.41-1.4l0.08-3.19H68.19V91.57z M74.75,54.25c-8.37,0.08-14.44,6.81-14.44,14.44
		c0,3.61,1.31,6.89,3.53,9.43c1.39,1.56,3.44,4.84,4.26,7.55c0,0,0,0,0,0.08h13.21c0-0.08,0-0.08,0-0.08
		c0.82-2.71,2.87-5.99,4.27-7.55c2.22-2.46,3.61-5.74,3.61-9.43C89.19,60.73,82.71,54.33,74.75,54.25z M82.63,75.66
		c-1.31,1.39-2.87,3.77-4.02,6.15h-7.79c-1.15-2.38-2.71-4.76-4.02-6.15c-1.64-1.97-2.54-4.43-2.54-6.97
		c0-5.09,3.94-10.42,10.42-10.5c5.82,0,10.58,4.76,10.58,10.5C85.25,71.23,84.27,73.69,82.63,75.66z M73.44,60.81
		c-3.69,0-6.56,2.96-6.56,6.57c0,0.73,0.57,1.31,1.31,1.31c0.66,0,1.31-0.58,1.31-1.31c0-2.14,1.72-3.94,3.94-3.94
		c0.66,0,1.31-0.58,1.31-1.23C74.75,61.47,74.09,60.81,73.44,60.81z"/>
	<circle class="st6" cx="74.94" cy="74.94" r="59.94"/>
</g>
<g>
	
		<ellipse transform="matrix(0.1602 -0.9871 0.9871 0.1602 -11.0344 136.9066)" class="st10" cx="74.94" cy="74.94" rx="60.94" ry="60.94"/>
	<circle class="st11" cx="75" cy="75" r="74"/>
	<path class="st12" d="M75,96.25c-11.65,0-21-9.35-21-21c0-11.57,9.35-21,21-21c11.57,0,21,9.43,21,21C96,86.9,86.57,96.25,75,96.25
		z M73.03,75.25c0,0.66,0.33,1.31,0.82,1.64l7.88,5.25c0.9,0.66,2.13,0.41,2.7-0.49c0.66-0.9,0.41-2.13-0.49-2.79l-6.97-4.59V64.09
		c0-1.07-0.9-1.97-2.05-1.97c-1.07,0-1.97,0.9-1.97,1.97L73.03,75.25z"/>
</g>
</svg>
