<?xml version="1.0" encoding="utf-8"?>
<!-- Generator: Adobe Illustrator 24.1.2, SVG Export Plug-In . SVG Version: 6.00 Build 0)  -->
<svg version="1.1" id="Computer" xmlns="http://www.w3.org/2000/svg" xmlns:xlink="http://www.w3.org/1999/xlink" x="0px" y="0px"
	 viewBox="0 0 150 150" style="enable-background:new 0 0 150 150;" xml:space="preserve">
<style type="text/css">
	.st0{display:none;}
	.st1{display:inline;fill:#EFF2F7;}
	.st2{display:inline;fill:none;stroke:#F2F5FA;stroke-width:2;}
	.st3{display:inline;fill:#676767;}
	.st4{display:inline;fill:#288CF0;}
	.st5{display:inline;fill:#FFFFFF;}
	.st6{display:inline;fill:none;stroke:#FFB17F;stroke-width:2;}
	.st7{display:inline;fill:none;stroke:#F2F5F9;stroke-width:2;}
	.st8{display:inline;fill:#666666;}
	.st9{display:inline;fill:none;stroke:#EFF2F7;stroke-width:2;}
	.st10{fill:#288CF0;}
	.st11{fill:#FFFFFF;}
	.st12{fill:none;stroke:#FFB17F;stroke-width:2;}
</style>
<g class="st0">
	<circle class="st1" cx="75" cy="75" r="60.94"/>
	<circle class="st2" cx="75" cy="75" r="74"/>
	<path class="st3" d="M94.09,54.16H54.72c-2.21,0-3.94,1.8-3.94,3.94v26.25c0,2.21,1.72,3.94,3.94,3.94h15.75l-1.31,3.94h-5.91
		c-1.15,0-1.97,0.9-1.97,1.97c0,1.15,0.82,1.97,1.97,1.97h22.31c1.07,0,1.97-0.82,1.97-1.97c0-1.07-0.9-1.97-1.97-1.97h-5.91
		l-1.31-3.94h15.75c2.13,0,3.94-1.72,3.94-3.94V58.09C98.03,55.96,96.23,54.16,94.09,54.16z M92.78,77.78H56.03V59.41h36.75V77.78z"
		/>
</g>
<g class="st0">
	<circle class="st4" cx="75" cy="75" r="75"/>
	<path class="st5" d="M94.09,54.16H54.72c-2.21,0-3.94,1.8-3.94,3.94v26.25c0,2.21,1.72,3.94,3.94,3.94h15.75l-1.31,3.94h-5.91
		c-1.15,0-1.97,0.9-1.97,1.97c0,1.15,0.82,1.97,1.97,1.97h22.31c1.07,0,1.97-0.82,1.97-1.97c0-1.07-0.9-1.97-1.97-1.97h-5.91
		l-1.31-3.94h15.75c2.13,0,3.94-1.72,3.94-3.94V58.09C98.03,55.96,96.23,54.16,94.09,54.16z M92.78,77.78H56.03V59.41h36.75V77.78z"
		/>
	<circle class="st6" cx="75" cy="75" r="59.94"/>
</g>
<g class="st0">
	
		<ellipse transform="matrix(0.7071 -0.7071 0.7071 0.7071 -31.1829 74.756)" class="st1" cx="74.65" cy="75.02" rx="60.94" ry="60.94"/>
	<circle class="st7" cx="75" cy="75" r="74"/>
	<path class="st8" d="M75.74,55.24c0-0.74,0.49-1.39,1.31-1.39c10.09,0,18.38,8.28,18.38,18.37c0,0.74-0.66,1.31-1.4,1.31H75.74
		V55.24z M53.43,76.16c0-9.93,7.38-18.13,16.9-19.44c0.82-0.16,1.48,0.49,1.48,1.23v19.52l12.8,12.88c0.57,0.57,0.49,1.48-0.08,1.89
		c-3.28,2.3-7.22,3.61-11.4,3.61C62.21,95.85,53.43,87.07,53.43,76.16z M96.58,77.47c0.74,0,1.4,0.66,1.23,1.39
		c-0.58,4.59-2.79,8.7-6.07,11.73c-0.49,0.41-1.23,0.41-1.72-0.08L77.06,77.47H96.58z"/>
</g>
<g class="st0">
	<circle class="st4" cx="75" cy="75" r="75"/>
	<path class="st5" d="M75.74,55.68c0-0.74,0.49-1.39,1.31-1.39c10.09,0,18.38,8.29,18.38,18.38c0,0.74-0.66,1.31-1.4,1.31H75.74
		V55.68z M53.43,76.59c0-9.93,7.38-18.13,16.9-19.44c0.82-0.16,1.48,0.49,1.48,1.23v19.52l12.8,12.88c0.57,0.57,0.49,1.48-0.08,1.89
		c-3.28,2.3-7.22,3.61-11.4,3.61C62.21,96.28,53.43,87.5,53.43,76.59z M96.58,77.91c0.74,0,1.4,0.66,1.23,1.39
		c-0.58,4.59-2.79,8.7-6.07,11.73c-0.49,0.41-1.23,0.41-1.72-0.08L77.06,77.91H96.58z"/>
	<circle class="st6" cx="75" cy="75.25" r="59.94"/>
</g>
<g class="st0">
	<circle class="st1" cx="74.65" cy="74.65" r="60.94"/>
	<circle class="st7" cx="75" cy="75" r="74"/>
	<path class="st8" d="M67.87,60.85c0-2.13,1.72-3.94,3.94-3.94h5.25c2.13,0,3.94,1.8,3.94,3.94v5.25c0,2.21-1.8,3.94-3.94,3.94H76.4
		v3.28h12.47c2.46,0,4.59,2.13,4.59,4.59v2.63h0.66c2.13,0,3.94,1.8,3.94,3.94v5.25c0,2.21-1.8,3.94-3.94,3.94h-5.25
		c-2.22,0-3.94-1.72-3.94-3.94v-5.25c0-2.13,1.72-3.94,3.94-3.94h0.66v-2.63c0-0.33-0.33-0.66-0.66-0.66H76.4v3.28h0.66
		c2.13,0,3.94,1.8,3.94,3.94v5.25c0,2.21-1.8,3.94-3.94,3.94h-5.25c-2.22,0-3.94-1.72-3.94-3.94v-5.25c0-2.13,1.72-3.94,3.94-3.94
		h0.66v-3.28H59.99c-0.41,0-0.66,0.33-0.66,0.66v2.63h0.66c2.13,0,3.94,1.8,3.94,3.94v5.25c0,2.21-1.8,3.94-3.94,3.94h-5.25
		c-2.22,0-3.94-1.72-3.94-3.94v-5.25c0-2.13,1.72-3.94,3.94-3.94h0.66v-2.63c0-2.46,2.05-4.59,4.59-4.59h12.47v-3.28h-0.66
		c-2.22,0-3.94-1.72-3.94-3.94V60.85z"/>
</g>
<g class="st0">
	<circle class="st4" cx="75" cy="75" r="75"/>
	<path class="st5" d="M67.87,60.04c0-2.13,1.72-3.94,3.94-3.94h5.25c2.13,0,3.94,1.8,3.94,3.94v5.25c0,2.21-1.8,3.94-3.94,3.94H76.4
		v3.28h12.47c2.46,0,4.59,2.13,4.59,4.59v2.63h0.66c2.13,0,3.94,1.8,3.94,3.94v5.25c0,2.21-1.8,3.94-3.94,3.94h-5.25
		c-2.22,0-3.94-1.72-3.94-3.94v-5.25c0-2.13,1.72-3.94,3.94-3.94h0.66V77.1c0-0.33-0.33-0.66-0.66-0.66H76.4v3.28h0.66
		c2.13,0,3.94,1.8,3.94,3.94v5.25c0,2.21-1.8,3.94-3.94,3.94h-5.25c-2.22,0-3.94-1.72-3.94-3.94v-5.25c0-2.13,1.72-3.94,3.94-3.94
		h0.66v-3.28H59.99c-0.41,0-0.66,0.33-0.66,0.66v2.63h0.66c2.13,0,3.94,1.8,3.94,3.94v5.25c0,2.21-1.8,3.94-3.94,3.94h-5.25
		c-2.22,0-3.94-1.72-3.94-3.94v-5.25c0-2.13,1.72-3.94,3.94-3.94h0.66V77.1c0-2.46,2.05-4.59,4.59-4.59h12.47v-3.28h-0.66
		c-2.22,0-3.94-1.72-3.94-3.94V60.04z"/>
	<circle class="st6" cx="75" cy="75" r="59.94"/>
</g>
<g class="st0">
	<circle class="st1" cx="74.65" cy="74.65" r="60.94"/>
	<circle class="st7" cx="75" cy="75" r="74"/>
	<path class="st8" d="M93.91,88.78H58.48V63.85c0-0.66-0.66-1.31-1.31-1.31h-2.63c-0.74,0-1.31,0.66-1.31,1.31v27.56
		c0,1.48,1.15,2.63,2.63,2.63h38.06c0.66,0,1.32-0.57,1.32-1.31V90.1C95.23,89.44,94.57,88.78,93.91,88.78z M91.29,65.16h-9.76
		c-1.73,0-2.63,2.13-1.4,3.36l2.71,2.71l-5.99,5.99l-6.07-5.99c-0.98-1.07-2.71-1.07-3.69,0l-5.66,5.66c-0.49,0.49-0.49,1.31,0,1.8
		l1.89,1.89c0.49,0.49,1.31,0.49,1.8,0l3.86-3.77l5.98,5.99c0.99,1.07,2.71,1.07,3.7,0l7.87-7.88l2.71,2.71
		c1.23,1.23,3.28,0.33,3.28-1.4v-9.76C92.6,65.81,91.94,65.16,91.29,65.16z"/>
</g>
<g class="st0">
	<circle class="st4" cx="75" cy="75" r="75"/>
	<path class="st5" d="M93.91,88.78H58.48V63.85c0-0.66-0.66-1.31-1.31-1.31h-2.63c-0.74,0-1.31,0.66-1.31,1.31v27.56
		c0,1.48,1.15,2.63,2.63,2.63h38.06c0.66,0,1.32-0.57,1.32-1.31v-2.63C95.23,89.44,94.57,88.78,93.91,88.78z M91.29,65.16h-9.76
		c-1.73,0-2.63,2.13-1.4,3.36l2.71,2.71l-5.99,5.99l-6.07-5.99c-0.98-1.07-2.71-1.07-3.69,0l-5.66,5.66c-0.49,0.49-0.49,1.31,0,1.8
		l1.89,1.89c0.49,0.49,1.31,0.49,1.8,0l3.86-3.77l5.98,5.99c0.99,1.07,2.71,1.07,3.7,0l7.87-7.88l2.71,2.71
		c1.23,1.23,3.28,0.33,3.28-1.4v-9.76C92.6,65.81,91.94,65.16,91.29,65.16z"/>
	<circle class="st6" cx="74.65" cy="74.65" r="59.94"/>
</g>
<g class="st0">
	<circle class="st1" cx="74.94" cy="74.94" r="60.94"/>
	<circle class="st7" cx="75" cy="75" r="74"/>
	<path class="st8" d="M92.75,60.81v3.94c0,3.69-8.29,6.56-18.37,6.56C64.2,71.31,56,68.44,56,64.75v-3.94
		c0-3.61,8.2-6.56,18.38-6.56C84.46,54.25,92.75,57.2,92.75,60.81z M88.24,71.89c1.64-0.57,3.28-1.39,4.51-2.3v8.29
		c0,3.69-8.29,6.56-18.37,6.56C64.2,84.44,56,81.57,56,77.88v-8.29c1.15,0.9,2.79,1.72,4.43,2.3c3.69,1.31,8.61,2.05,13.95,2.05
		C79.62,73.94,84.55,73.2,88.24,71.89z M60.43,85.01c3.69,1.31,8.61,2.05,13.95,2.05c5.24,0,10.17-0.74,13.86-2.05
		c1.64-0.57,3.28-1.39,4.51-2.3v6.97c0,3.69-8.29,6.56-18.37,6.56C64.2,96.25,56,93.38,56,89.69v-6.97
		C57.15,83.62,58.79,84.44,60.43,85.01z"/>
</g>
<g class="st0">
	<circle class="st4" cx="75" cy="75" r="75"/>
	<path class="st5" d="M92.75,60.81v3.94c0,3.69-8.29,6.56-18.37,6.56C64.2,71.31,56,68.44,56,64.75v-3.94
		c0-3.61,8.2-6.56,18.38-6.56C84.46,54.25,92.75,57.2,92.75,60.81z M88.24,71.89c1.64-0.57,3.28-1.39,4.51-2.3v8.29
		c0,3.69-8.29,6.56-18.37,6.56C64.2,84.44,56,81.57,56,77.88v-8.29c1.15,0.9,2.79,1.72,4.43,2.3c3.69,1.31,8.61,2.05,13.95,2.05
		C79.62,73.94,84.55,73.2,88.24,71.89z M60.43,85.01c3.69,1.31,8.61,2.05,13.95,2.05c5.24,0,10.17-0.74,13.86-2.05
		c1.64-0.57,3.28-1.39,4.51-2.3v6.97c0,3.69-8.29,6.56-18.37,6.56C64.2,96.25,56,93.38,56,89.69v-6.97
		C57.15,83.62,58.79,84.44,60.43,85.01z"/>
	<circle class="st6" cx="74.94" cy="74.94" r="59.94"/>
</g>
<g class="st0">
	<circle class="st1" cx="74.94" cy="74.94" r="60.94"/>
	<circle class="st7" cx="75" cy="75" r="74"/>
	<path class="st8" d="M62.56,70v-3.94c0-6.48,5.25-11.81,11.82-11.81c6.48,0,11.81,5.33,11.81,11.81V70h1.31
		c2.87,0,5.25,2.38,5.25,5.25V91c0,2.95-2.38,5.25-5.25,5.25H61.25C58.3,96.25,56,93.95,56,91V75.25c0-2.87,2.3-5.25,5.25-5.25
		H62.56z M67.81,70h13.13v-3.94c0-3.61-2.96-6.56-6.56-6.56c-3.7,0-6.57,2.95-6.57,6.56V70z"/>
</g>
<g class="st0">
	<circle class="st4" cx="75" cy="75" r="75"/>
	<path class="st5" d="M63.19,69.75v-3.94c0-6.48,5.25-11.81,11.82-11.81c6.48,0,11.81,5.33,11.81,11.81v3.94h1.31
		c2.87,0,5.25,2.38,5.25,5.25v15.75c0,2.95-2.38,5.25-5.25,5.25H61.88c-2.95,0-5.25-2.3-5.25-5.25V75c0-2.87,2.3-5.25,5.25-5.25
		H63.19z M68.44,69.75h13.13v-3.94c0-3.61-2.96-6.56-6.56-6.56c-3.7,0-6.57,2.95-6.57,6.56V69.75z"/>
	<circle class="st6" cx="75" cy="75" r="59.94"/>
</g>
<g class="st0">
	<circle class="st9" cx="75" cy="75" r="74"/>
	<circle class="st1" cx="74.94" cy="74.94" r="60.94"/>
	<path class="st8" d="M69.13,60.81c0,2.71-1.64,5-3.94,6.07V70c0,1.48,1.15,2.63,2.62,2.63h13.13c1.39,0,2.62-1.15,2.62-2.63v-3.12
		c-2.38-1.07-3.94-3.36-3.94-6.07c0-3.61,2.87-6.56,6.56-6.56c3.61,0,6.56,2.95,6.56,6.56c0,2.71-1.64,5-3.94,6.07V70
		c0,4.35-3.53,7.88-7.87,7.88H77v5.82c2.3,0.99,3.94,3.36,3.94,5.99c0,3.69-2.95,6.56-6.56,6.56c-3.69,0-6.56-2.87-6.56-6.56
		c0-2.63,1.56-5,3.94-5.99v-5.82h-3.94c-4.43,0-7.87-3.53-7.87-7.88v-3.12C57.56,65.82,56,63.52,56,60.81
		c0-3.61,2.87-6.56,6.56-6.56C66.17,54.25,69.13,57.2,69.13,60.81z M62.56,62.78c1.07,0,1.97-0.82,1.97-1.97
		c0-1.07-0.9-1.97-1.97-1.97c-1.15,0-1.97,0.9-1.97,1.97C60.59,61.96,61.41,62.78,62.56,62.78z M86.19,62.78
		c1.07,0,1.97-0.82,1.97-1.97c0-1.07-0.9-1.97-1.97-1.97c-1.15,0-1.97,0.9-1.97,1.97C84.22,61.96,85.04,62.78,86.19,62.78z
		 M74.38,87.72c-1.15,0-1.97,0.9-1.97,1.97c0,1.15,0.82,1.97,1.97,1.97c1.07,0,1.97-0.82,1.97-1.97
		C76.34,88.62,75.44,87.72,74.38,87.72z"/>
</g>
<g class="st0">
	<circle class="st4" cx="75" cy="75" r="75"/>
	<path class="st5" d="M69.13,60.81c0,2.71-1.64,5.01-3.94,6.07V70c0,1.48,1.15,2.62,2.62,2.62h13.13c1.39,0,2.62-1.14,2.62-2.62
		v-3.12c-2.38-1.06-3.94-3.36-3.94-6.07c0-3.61,2.87-6.56,6.56-6.56c3.61,0,6.56,2.95,6.56,6.56c0,2.71-1.64,5.01-3.94,6.07V70
		c0,4.35-3.53,7.88-7.87,7.88H77v5.82c2.3,0.98,3.94,3.36,3.94,5.99c0,3.69-2.95,6.56-6.56,6.56c-3.69,0-6.56-2.87-6.56-6.56
		c0-2.63,1.56-5.01,3.94-5.99v-5.82h-3.94c-4.43,0-7.87-3.53-7.87-7.88v-3.12C57.56,65.82,56,63.52,56,60.81
		c0-3.61,2.87-6.56,6.56-6.56C66.17,54.25,69.13,57.2,69.13,60.81z M62.56,62.78c1.07,0,1.97-0.82,1.97-1.97
		c0-1.06-0.9-1.97-1.97-1.97c-1.15,0-1.97,0.91-1.97,1.97C60.59,61.96,61.41,62.78,62.56,62.78z M86.19,62.78
		c1.07,0,1.97-0.82,1.97-1.97c0-1.06-0.9-1.97-1.97-1.97c-1.15,0-1.97,0.91-1.97,1.97C84.22,61.96,85.04,62.78,86.19,62.78z
		 M74.38,87.72c-1.15,0-1.97,0.9-1.97,1.97c0,1.15,0.82,1.97,1.97,1.97c1.07,0,1.97-0.82,1.97-1.97
		C76.34,88.62,75.44,87.72,74.38,87.72z"/>
	<circle class="st6" cx="74.94" cy="74.94" r="59.94"/>
</g>
<g class="st0">
	<circle class="st9" cx="75" cy="75" r="74"/>
	
		<ellipse transform="matrix(0.7071 -0.7071 0.7071 0.7071 -30.9198 74.647)" class="st1" cx="74.65" cy="74.65" rx="60.94" ry="60.94"/>
	<path class="st8" d="M79.48,75.28c-1.48,0-2.63,1.23-2.63,2.63c0,1.48,1.15,2.63,2.63,2.63h7.88c4.35,0,7.88,3.53,7.88,7.88
		c0,4.35-3.53,7.88-7.88,7.88H64.63c0.74-0.74,1.56-1.8,2.46-2.95c0.49-0.74,1.07-1.48,1.56-2.3h18.7c1.39,0,2.63-1.15,2.63-2.63
		c0-1.39-1.23-2.63-2.63-2.63h-7.88c-4.43,0-7.96-3.53-7.96-7.88c0-4.35,3.53-7.88,7.96-7.88h3.44c-1.8-2.46-3.44-5.41-3.44-7.88
		c0-4.35,3.44-7.88,7.88-7.88c4.35,0,7.88,3.53,7.88,7.88c0,5.25-7.88,13.13-7.88,13.13H79.48z M87.35,64.78
		c1.39,0,2.63-1.15,2.63-2.63c0-1.39-1.23-2.63-2.63-2.63c-1.48,0-2.63,1.23-2.63,2.63C84.73,63.63,85.87,64.78,87.35,64.78z
		 M62.9,94.31l-0.08,0.08c-0.33,0.41-0.66,0.74-0.9,1.07c-0.08,0-0.08,0-0.08,0.08c-0.49,0.49-0.74,0.74-0.74,0.74
		s-7.88-7.88-7.88-13.13c0-4.35,3.44-7.88,7.88-7.88c4.35,0,7.88,3.53,7.88,7.88c0,2.46-1.72,5.41-3.53,7.88
		C64.55,92.34,63.64,93.41,62.9,94.31z M61.02,85.78c1.48,0,2.63-1.15,2.63-2.63c0-1.39-1.15-2.63-2.63-2.63
		c-1.4,0-2.63,1.23-2.63,2.63C58.39,84.63,59.62,85.78,61.02,85.78z"/>
</g>
<g class="st0">
	<circle class="st4" cx="75" cy="75" r="75"/>
	<path class="st5" d="M80.25,75c-1.48,0-2.63,1.23-2.63,2.63c0,1.47,1.15,2.62,2.63,2.62h7.88c4.35,0,7.88,3.53,7.88,7.88
		c0,4.34-3.53,7.87-7.88,7.87H65.4c0.74-0.74,1.56-1.8,2.46-2.95c0.49-0.74,1.07-1.48,1.56-2.3h18.7c1.39,0,2.63-1.15,2.63-2.62
		c0-1.4-1.23-2.63-2.63-2.63h-7.88c-4.43,0-7.96-3.53-7.96-7.87c0-4.35,3.53-7.88,7.96-7.88h3.45c-1.8-2.46-3.45-5.41-3.45-7.88
		c0-4.34,3.45-7.87,7.88-7.87c4.35,0,7.88,3.53,7.88,7.87C96,67.13,88.13,75,88.13,75H80.25z M88.13,64.5
		c1.39,0,2.63-1.15,2.63-2.63c0-1.39-1.23-2.62-2.63-2.62c-1.48,0-2.63,1.23-2.63,2.62C85.5,63.35,86.65,64.5,88.13,64.5z
		 M63.68,94.03l-0.08,0.08c-0.33,0.41-0.66,0.74-0.9,1.07c-0.08,0-0.08,0-0.08,0.08C62.12,95.75,61.88,96,61.88,96
		S54,88.13,54,82.87c0-4.34,3.45-7.87,7.88-7.87c4.35,0,7.88,3.53,7.88,7.87c0,2.47-1.72,5.42-3.53,7.88
		C65.32,92.06,64.42,93.13,63.68,94.03z M61.79,85.5c1.48,0,2.63-1.15,2.63-2.63c0-1.39-1.15-2.62-2.63-2.62
		c-1.39,0-2.63,1.23-2.63,2.62C59.17,84.35,60.4,85.5,61.79,85.5z"/>
	<ellipse transform="matrix(0.7071 -0.7071 0.7071 0.7071 -31.066 75)" class="st6" cx="75" cy="75" rx="59.94" ry="59.94"/>
</g>
<g class="st0">
	<circle class="st1" cx="74.94" cy="74.94" r="60.94"/>
	<circle class="st7" cx="75" cy="75" r="74"/>
	<path class="st8" d="M68.19,91.57c0,0.49,0.08,0.99,0.41,1.4l1.39,2.13c0.41,0.66,1.4,1.15,2.21,1.15h5c0.82,0,1.8-0.49,2.22-1.15
		l1.39-2.13c0.25-0.33,0.41-0.98,0.41-1.4l0.08-3.2H68.19V91.57z M74.75,54.25c-8.37,0.08-14.44,6.81-14.44,14.44
		c0,3.61,1.31,6.89,3.53,9.43c1.39,1.56,3.44,4.84,4.26,7.55c0,0,0,0,0,0.08h13.21c0-0.08,0-0.08,0-0.08
		c0.82-2.71,2.87-5.99,4.27-7.55c2.22-2.46,3.61-5.74,3.61-9.43C89.19,60.73,82.71,54.33,74.75,54.25z M82.63,75.66
		c-1.31,1.4-2.87,3.77-4.02,6.15h-7.79c-1.15-2.38-2.71-4.76-4.02-6.15c-1.64-1.97-2.54-4.43-2.54-6.97
		c0-5.09,3.94-10.42,10.42-10.5c5.82,0,10.58,4.76,10.58,10.5C85.25,71.23,84.27,73.69,82.63,75.66z M73.44,60.81
		c-3.69,0-6.56,2.95-6.56,6.56c0,0.74,0.57,1.31,1.31,1.31c0.66,0,1.31-0.58,1.31-1.31c0-2.13,1.72-3.94,3.94-3.94
		c0.66,0,1.31-0.58,1.31-1.23C74.75,61.47,74.09,60.81,73.44,60.81z"/>
</g>
<g class="st0">
	<circle class="st4" cx="75" cy="75" r="75"/>
	<path class="st5" d="M68.19,91.57c0,0.5,0.08,0.99,0.41,1.4l1.39,2.13c0.41,0.66,1.4,1.15,2.21,1.15h5c0.82,0,1.8-0.49,2.22-1.15
		l1.39-2.13c0.25-0.33,0.41-0.99,0.41-1.4l0.08-3.19H68.19V91.57z M74.75,54.25c-8.37,0.08-14.44,6.81-14.44,14.44
		c0,3.61,1.31,6.89,3.53,9.43c1.39,1.56,3.44,4.84,4.26,7.55c0,0,0,0,0,0.08h13.21c0-0.08,0-0.08,0-0.08
		c0.82-2.71,2.87-5.99,4.27-7.55c2.22-2.46,3.61-5.74,3.61-9.43C89.19,60.73,82.71,54.33,74.75,54.25z M82.63,75.66
		c-1.31,1.39-2.87,3.77-4.02,6.15h-7.79c-1.15-2.38-2.71-4.76-4.02-6.15c-1.64-1.97-2.54-4.43-2.54-6.97
		c0-5.09,3.94-10.42,10.42-10.5c5.82,0,10.58,4.76,10.58,10.5C85.25,71.23,84.27,73.69,82.63,75.66z M73.44,60.81
		c-3.69,0-6.56,2.96-6.56,6.57c0,0.73,0.57,1.31,1.31,1.31c0.66,0,1.31-0.58,1.31-1.31c0-2.14,1.72-3.94,3.94-3.94
		c0.66,0,1.31-0.58,1.31-1.23C74.75,61.47,74.09,60.81,73.44,60.81z"/>
	<circle class="st6" cx="74.94" cy="74.94" r="59.94"/>
</g>
<g class="st0">
	
		<ellipse transform="matrix(0.1602 -0.9871 0.9871 0.1602 -11.0344 136.9066)" class="st1" cx="74.94" cy="74.94" rx="60.94" ry="60.94"/>
	<circle class="st7" cx="75" cy="75" r="74"/>
	<path class="st8" d="M75,96.25c-11.65,0-21-9.35-21-21c0-11.57,9.35-21,21-21c11.57,0,21,9.43,21,21C96,86.9,86.57,96.25,75,96.25z
		 M73.03,75.25c0,0.66,0.33,1.31,0.82,1.64l7.88,5.25c0.9,0.66,2.13,0.41,2.7-0.49c0.66-0.9,0.41-2.13-0.49-2.79l-6.97-4.59V64.09
		c0-1.07-0.9-1.97-2.05-1.97c-1.07,0-1.97,0.9-1.97,1.97L73.03,75.25z"/>
</g>
<g class="st0">
	<circle class="st4" cx="75" cy="75" r="75"/>
	<path class="st5" d="M75,96.25c-11.65,0-21-9.35-21-21c0-11.57,9.35-21,21-21c11.57,0,21,9.43,21,21C96,86.9,86.57,96.25,75,96.25z
		 M73.03,75.25c0,0.66,0.33,1.31,0.82,1.64l7.88,5.25c0.9,0.66,2.13,0.41,2.7-0.49c0.66-0.9,0.41-2.13-0.49-2.79l-6.97-4.59V64.09
		c0-1.06-0.9-1.97-2.05-1.97c-1.07,0-1.97,0.91-1.97,1.97L73.03,75.25z"/>
	
		<ellipse transform="matrix(0.1602 -0.9871 0.9871 0.1602 -11.0363 136.9082)" class="st6" cx="74.94" cy="74.94" rx="59.94" ry="59.94"/>
</g>
<g class="st0">
	<circle class="st1" cx="74.94" cy="74.94" r="60.94"/>
	<circle class="st7" cx="75" cy="75" r="74"/>
	<path class="st8" d="M81.23,80.5h3.2c0.5,0,1.07-0.49,1.07-0.98V68.44c0-0.49-0.57-1.07-1.07-1.07h-3.2
		c-0.49,0-0.98,0.57-0.98,1.07v11.08C80.25,80.01,80.74,80.5,81.23,80.5z M89.11,80.5h3.2c0.49,0,1.07-0.49,1.07-0.98V60.57
		c0-0.49-0.58-1.07-1.07-1.07h-3.2c-0.49,0-0.99,0.57-0.99,1.07v18.95C88.12,80.01,88.62,80.5,89.11,80.5z M65.48,80.5h3.2
		c0.5,0,1.07-0.49,1.07-0.98v-5.83c0-0.49-0.57-1.07-1.07-1.07h-3.2c-0.49,0-0.98,0.57-0.98,1.07v5.83
		C64.5,80.01,64.99,80.5,65.48,80.5z M73.36,80.5h3.2c0.49,0,1.06-0.49,1.06-0.98V63.19c0-0.49-0.57-1.07-1.06-1.07h-3.2
		c-0.49,0-0.98,0.57-0.98,1.07v16.33C72.38,80.01,72.87,80.5,73.36,80.5z M94.69,85.75H59.25V60.81c0-0.66-0.66-1.31-1.31-1.31
		h-2.63c-0.74,0-1.31,0.66-1.31,1.31v27.56c0,1.48,1.15,2.63,2.62,2.63h38.07c0.65,0,1.31-0.57,1.31-1.31v-2.63
		C96,86.41,95.34,85.75,94.69,85.75z"/>
</g>
<g class="st0">
	<circle class="st4" cx="75" cy="75" r="75"/>
	<path class="st5" d="M81.23,80.5h3.2c0.5,0,1.07-0.49,1.07-0.98V68.44c0-0.49-0.57-1.06-1.07-1.06h-3.2
		c-0.49,0-0.98,0.57-0.98,1.06v11.08C80.25,80.01,80.74,80.5,81.23,80.5z M89.11,80.5h3.2c0.49,0,1.07-0.49,1.07-0.98V60.57
		c0-0.5-0.58-1.07-1.07-1.07h-3.2c-0.49,0-0.99,0.57-0.99,1.07v18.95C88.12,80.01,88.62,80.5,89.11,80.5z M65.48,80.5h3.2
		c0.5,0,1.07-0.49,1.07-0.98v-5.83c0-0.49-0.57-1.07-1.07-1.07h-3.2c-0.49,0-0.98,0.58-0.98,1.07v5.83
		C64.5,80.01,64.99,80.5,65.48,80.5z M73.36,80.5h3.2c0.49,0,1.06-0.49,1.06-0.98V63.19c0-0.49-0.57-1.07-1.06-1.07h-3.2
		c-0.49,0-0.98,0.58-0.98,1.07v16.33C72.38,80.01,72.87,80.5,73.36,80.5z M94.69,85.75H59.25V60.81c0-0.65-0.66-1.31-1.31-1.31
		h-2.63c-0.74,0-1.31,0.66-1.31,1.31v27.57c0,1.47,1.15,2.62,2.62,2.62h38.07c0.65,0,1.31-0.57,1.31-1.31v-2.63
		C96,86.41,95.34,85.75,94.69,85.75z"/>
	<circle class="st6" cx="74.94" cy="74.94" r="59.94"/>
</g>
<g class="st0">
	<circle class="st1" cx="74.94" cy="74.94" r="60.94"/>
	<circle class="st7" cx="75" cy="75" r="74"/>
	<path class="st8" d="M95.62,54.25c-1.47,0-2.62,1.23-2.62,2.63v36.75c0,1.48,1.15,2.63,2.62,2.63c1.4,0,2.63-1.15,2.63-2.54V56.88
		C98.25,55.48,97.02,54.25,95.62,54.25z M64.12,77.88c-1.47,0-2.62,1.23-2.62,2.63v13.13c0,1.48,1.15,2.63,2.62,2.63
		c1.4,0,2.63-1.15,2.63-2.54V80.5C66.75,79.1,65.52,77.88,64.12,77.88z M53.62,85.75c-1.47,0-2.62,1.23-2.62,2.63v5.25
		c0,1.48,1.15,2.63,2.54,2.63c1.32,0,2.71-1.15,2.71-2.63v-5.25C56.25,86.98,55.02,85.75,53.62,85.75z M85.12,62.13
		c-1.47,0-2.62,1.23-2.62,2.63v28.88c0,1.48,1.15,2.63,2.62,2.63c1.4,0,2.63-1.15,2.63-2.54V64.75
		C87.75,63.35,86.52,62.13,85.12,62.13z M74.62,70C73.15,70,72,71.23,72,72.63v21c0,1.48,1.15,2.63,2.62,2.63
		c1.4,0,2.63-1.15,2.63-2.54V72.63C77.25,71.23,76.02,70,74.62,70z"/>
</g>
<g class="st0">
	<circle class="st4" cx="75" cy="75" r="75"/>
	<path class="st5" d="M95.62,54.25c-1.47,0-2.62,1.23-2.62,2.63v36.74c0,1.48,1.15,2.63,2.62,2.63c1.4,0,2.63-1.15,2.63-2.54V56.88
		C98.25,55.48,97.02,54.25,95.62,54.25z M64.12,77.88c-1.47,0-2.62,1.23-2.62,2.62v13.12c0,1.48,1.15,2.63,2.62,2.63
		c1.4,0,2.63-1.15,2.63-2.54V80.5C66.75,79.11,65.52,77.88,64.12,77.88z M53.62,85.75c-1.47,0-2.62,1.23-2.62,2.63v5.24
		c0,1.48,1.15,2.63,2.54,2.63c1.32,0,2.71-1.15,2.71-2.63v-5.24C56.25,86.98,55.02,85.75,53.62,85.75z M85.12,62.12
		c-1.47,0-2.62,1.24-2.62,2.63v28.87c0,1.48,1.15,2.63,2.62,2.63c1.4,0,2.63-1.15,2.63-2.54V64.75
		C87.75,63.36,86.52,62.12,85.12,62.12z M74.62,70C73.15,70,72,71.23,72,72.62v21c0,1.48,1.15,2.63,2.62,2.63
		c1.4,0,2.63-1.15,2.63-2.54V72.62C77.25,71.23,76.02,70,74.62,70z"/>
	<circle class="st6" cx="74.94" cy="74.94" r="59.94"/>
</g>
<g class="st0">
	<circle class="st9" cx="75" cy="75" r="74"/>
	<circle class="st1" cx="74.94" cy="74.94" r="60.94"/>
	<path class="st8" d="M54.97,74.84C47.84,89.11,48,88.46,48,89.69c0,3.69,4.68,6.56,10.5,6.56c5.74,0,10.5-2.87,10.5-6.48
		c0-1.31,0.08-0.66-7.05-14.85C60.55,71.97,56.37,71.97,54.97,74.84z M52.51,88.38l5.91-11.74l5.99,11.74H52.51z M93.45,64.34
		c-1.39-2.87-5.58-2.87-6.97,0c-7.14,14.27-6.97,13.62-6.97,14.85c0,3.69,4.68,6.56,10.5,6.56c5.74,0,10.42-2.95,10.42-6.56
		C100.42,77.88,100.58,78.53,93.45,64.34z M84.01,77.88l5.91-11.74l5.91,11.74H84.01z M88.6,91H76.88V66.88
		c1.64-0.74,2.95-2.21,3.53-4.02l10.42-3.44c1.31-0.49,2.05-1.97,1.64-3.37c-0.49-1.31-1.97-2.05-3.36-1.64l-9.27,3.12
		c-1.15-1.97-3.2-3.2-5.66-3.2c-3.61,0-6.48,2.87-6.48,6.56c0,0.25,0.08,0.41,0.08,0.66L57.6,64.91c-1.31,0.5-2.05,1.97-1.64,3.37
		c0.41,1.06,1.4,1.72,2.54,1.72c0.25,0,0.49,0,0.82-0.08l11.07-3.69c0.41,0.24,0.74,0.49,1.23,0.65v28.06
		c0,0.74,0.57,1.31,1.31,1.31h18.29c0.66,0,1.31-0.57,1.31-1.23C92.54,92.8,90.82,91,88.6,91z"/>
</g>
<g class="st0">
	<circle class="st4" cx="75" cy="75" r="75"/>
	<path class="st5" d="M54.97,74.84C47.84,89.11,48,88.46,48,89.69c0,3.69,4.68,6.56,10.5,6.56c5.74,0,10.5-2.87,10.5-6.48
		c0-1.31,0.08-0.66-7.05-14.85C60.55,71.97,56.37,71.97,54.97,74.84z M52.51,88.38l5.91-11.74l5.99,11.74H52.51z M93.45,64.34
		c-1.39-2.87-5.58-2.87-6.97,0c-7.14,14.27-6.97,13.62-6.97,14.85c0,3.69,4.68,6.56,10.5,6.56c5.74,0,10.42-2.95,10.42-6.56
		C100.42,77.88,100.58,78.53,93.45,64.34z M84.01,77.88l5.91-11.74l5.91,11.74H84.01z M88.6,91H76.88V66.88
		c1.64-0.74,2.95-2.21,3.53-4.02l10.42-3.44c1.31-0.49,2.05-1.97,1.64-3.37c-0.49-1.31-1.97-2.05-3.36-1.64l-9.27,3.12
		c-1.15-1.97-3.2-3.2-5.66-3.2c-3.61,0-6.48,2.87-6.48,6.56c0,0.25,0.08,0.41,0.08,0.66L57.6,64.91c-1.31,0.5-2.05,1.97-1.64,3.37
		c0.41,1.06,1.4,1.72,2.54,1.72c0.25,0,0.49,0,0.82-0.08l11.07-3.69c0.41,0.24,0.74,0.49,1.23,0.65v28.06
		c0,0.74,0.57,1.31,1.31,1.31h18.29c0.66,0,1.31-0.57,1.31-1.23C92.54,92.8,90.82,91,88.6,91z"/>
	<circle class="st6" cx="74.94" cy="74.94" r="59.94"/>
</g>
<g class="st0">
	<circle class="st9" cx="75" cy="75" r="74"/>
	<circle class="st1" cx="74.94" cy="74.94" r="60.94"/>
	<path class="st8" d="M74.13,54.25c1.39,0,2.63,1.23,2.63,2.63v2.95c0.08,0,0.25,0.08,0.33,0.08c0.9,0.08,3.45,0.57,4.51,0.82
		c1.39,0.33,2.3,1.81,1.97,3.2c-0.41,1.39-1.8,2.21-3.2,1.89c-0.82-0.25-3.12-0.58-4.02-0.74c-2.63-0.41-4.92-0.17-6.48,0.41
		c-1.48,0.57-2.13,1.39-2.3,2.3c-0.16,0.9,0,1.39,0.16,1.72c0.16,0.33,0.41,0.65,1.07,1.06c1.31,0.91,3.36,1.48,5.99,2.22h0.25
		c2.3,0.66,5.17,1.48,7.3,2.87c1.15,0.74,2.21,1.8,2.87,3.2c0.74,1.48,0.82,3.12,0.57,4.84c-0.57,3.12-2.79,5.25-5.41,6.32
		c-1.15,0.49-2.38,0.73-3.61,0.9v2.7c0,1.48-1.23,2.63-2.63,2.63c-1.48,0-2.63-1.15-2.63-2.63v-2.78c-0.08,0-0.08-0.09-0.16-0.09
		c-1.97-0.24-5.25-1.14-7.46-2.13c-1.39-0.57-1.97-2.13-1.39-3.44c0.57-1.32,2.13-1.97,3.45-1.32c1.72,0.74,4.59,1.48,6.23,1.73
		c2.63,0.41,4.76,0.16,6.23-0.41c1.39-0.58,1.97-1.4,2.21-2.38c0.16-0.91,0-1.4-0.16-1.73c-0.16-0.32-0.41-0.65-1.07-1.06
		c-1.31-0.9-3.36-1.48-5.99-2.22h-0.25c-2.3-0.65-5.17-1.47-7.3-2.87c-1.15-0.74-2.21-1.8-2.87-3.2c-0.74-1.47-0.82-3.11-0.57-4.92
		c0.66-3.12,2.95-5.17,5.58-6.23c1.07-0.41,2.3-0.66,3.53-0.82v-2.87C71.5,55.48,72.65,54.25,74.13,54.25z"/>
</g>
<g class="st0">
	<circle class="st4" cx="75" cy="75" r="75"/>
	<path class="st5" d="M74.13,54.25c1.39,0,2.63,1.23,2.63,2.63v2.95c0.08,0,0.25,0.08,0.33,0.08c0.9,0.08,3.45,0.57,4.51,0.82
		c1.39,0.33,2.3,1.81,1.97,3.2c-0.41,1.39-1.8,2.21-3.2,1.89c-0.82-0.25-3.12-0.58-4.02-0.74c-2.63-0.41-4.92-0.17-6.48,0.41
		c-1.48,0.57-2.13,1.39-2.3,2.3c-0.16,0.9,0,1.39,0.16,1.72c0.16,0.33,0.41,0.65,1.07,1.06c1.31,0.91,3.36,1.48,5.99,2.22h0.25
		c2.3,0.66,5.17,1.48,7.3,2.87c1.15,0.74,2.21,1.8,2.87,3.2c0.74,1.48,0.82,3.12,0.57,4.84c-0.57,3.12-2.79,5.25-5.41,6.32
		c-1.15,0.49-2.38,0.73-3.61,0.9v2.7c0,1.48-1.23,2.63-2.63,2.63c-1.48,0-2.63-1.15-2.63-2.63v-2.78c-0.08,0-0.08-0.09-0.16-0.09
		c-1.97-0.24-5.25-1.14-7.46-2.13c-1.39-0.57-1.97-2.13-1.39-3.44c0.57-1.32,2.13-1.97,3.45-1.32c1.72,0.74,4.59,1.48,6.23,1.73
		c2.63,0.41,4.76,0.16,6.23-0.41c1.39-0.58,1.97-1.4,2.21-2.38c0.16-0.91,0-1.4-0.16-1.73c-0.16-0.32-0.41-0.65-1.07-1.06
		c-1.31-0.9-3.36-1.48-5.99-2.22h-0.25c-2.3-0.65-5.17-1.47-7.3-2.87c-1.15-0.74-2.21-1.8-2.87-3.2c-0.74-1.47-0.82-3.11-0.57-4.92
		c0.66-3.12,2.95-5.17,5.58-6.23c1.07-0.41,2.3-0.66,3.53-0.82v-2.87C71.5,55.48,72.65,54.25,74.13,54.25z"/>
	<circle class="st6" cx="74.94" cy="74.94" r="59.94"/>
</g>
<g class="st0">
	<circle class="st1" cx="74.94" cy="74.94" r="60.94"/>
	<circle class="st7" cx="75" cy="75" r="74"/>
	<path class="st8" d="M85.13,77.88h-7.88c-1.4,0-2.63,1.23-2.63,2.62c0,1.48,1.23,2.62,2.63,2.62h7.88c1.4,0,2.63-1.14,2.63-2.62
		C87.75,79.11,86.52,77.88,85.13,77.88z M79.88,88.38h-2.63c-1.48,0-2.63,1.23-2.63,2.62c0,1.48,1.15,2.62,2.63,2.62h2.63
		c1.4,0,2.54-1.14,2.54-2.62C82.42,89.61,81.27,88.38,79.88,88.38z M90.38,67.38H77.25c-1.4,0-2.63,1.23-2.63,2.62
		c0,1.48,1.23,2.62,2.63,2.62h13.13c1.4,0,2.63-1.14,2.63-2.62C93,68.61,91.77,67.38,90.38,67.38z M95.63,56.88H77.25
		c-1.4,0-2.63,1.23-2.63,2.62c0,1.48,1.23,2.62,2.63,2.62h18.38c1.4,0,2.63-1.14,2.63-2.62C98.25,58.11,97.02,56.88,95.63,56.88z
		 M63.39,57.7c-0.99-1.07-2.87-1.07-3.86,0l-7.14,7.95c-1.07,1.07-0.99,2.71,0.08,3.69C52.97,69.75,53.63,70,54.2,70
		c0.74,0,1.48-0.25,1.97-0.82l2.71-2.95V91c0,1.48,1.15,2.62,2.63,2.62c1.4,0,2.63-1.14,2.63-2.62V66.23l2.63,2.95
		c0.98,1.07,2.63,1.15,3.69,0.16c1.07-0.98,1.15-2.62,0.16-3.69L63.39,57.7z"/>
</g>
<g class="st0">
	<circle class="st4" cx="75" cy="75" r="75"/>
	<path class="st5" d="M85.13,77.88h-7.88c-1.4,0-2.63,1.23-2.63,2.62c0,1.48,1.23,2.62,2.63,2.62h7.88c1.4,0,2.63-1.14,2.63-2.62
		C87.75,79.11,86.52,77.88,85.13,77.88z M79.88,88.38h-2.63c-1.48,0-2.63,1.23-2.63,2.62c0,1.48,1.15,2.62,2.63,2.62h2.63
		c1.4,0,2.54-1.14,2.54-2.62C82.42,89.61,81.27,88.38,79.88,88.38z M90.38,67.38H77.25c-1.4,0-2.63,1.23-2.63,2.62
		c0,1.48,1.23,2.62,2.63,2.62h13.13c1.4,0,2.63-1.14,2.63-2.62C93,68.61,91.77,67.38,90.38,67.38z M95.63,56.88H77.25
		c-1.4,0-2.63,1.23-2.63,2.62c0,1.48,1.23,2.62,2.63,2.62h18.38c1.4,0,2.63-1.14,2.63-2.62C98.25,58.11,97.02,56.88,95.63,56.88z
		 M63.39,57.7c-0.99-1.07-2.87-1.07-3.86,0l-7.14,7.95c-1.07,1.07-0.99,2.71,0.08,3.69C52.97,69.75,53.63,70,54.2,70
		c0.74,0,1.48-0.25,1.97-0.82l2.71-2.95V91c0,1.48,1.15,2.62,2.63,2.62c1.4,0,2.63-1.14,2.63-2.62V66.23l2.63,2.95
		c0.98,1.07,2.63,1.15,3.69,0.16c1.07-0.98,1.15-2.62,0.16-3.69L63.39,57.7z"/>
	<circle class="st6" cx="74.94" cy="74.94" r="59.94"/>
</g>
<g class="st0">
	
		<ellipse transform="matrix(0.1602 -0.9871 0.9871 0.1602 -11.0363 136.9082)" class="st1" cx="74.94" cy="74.94" rx="60.94" ry="60.94"/>
	<circle class="st7" cx="75" cy="75" r="74"/>
	<path class="st8" d="M59,56.88c0-1.4,1.15-2.63,2.63-2.63h26.26c1.39,0,2.62,1.23,2.62,2.63c0,1.47-1.23,2.62-2.62,2.62v0.9
		c0,3.53-1.4,6.89-3.86,9.35l-5.58,5.5l5.58,5.58c2.46,2.46,3.86,5.82,3.86,9.27V91c1.39,0,2.62,1.23,2.62,2.62
		c0,1.48-1.23,2.63-2.62,2.63H61.63c-1.48,0-2.63-1.15-2.63-2.63c0-1.39,1.15-2.62,2.63-2.62v-0.9c0-3.45,1.31-6.81,3.77-9.27
		l5.58-5.58l-5.58-5.5c-2.46-2.46-3.77-5.82-3.77-9.35v-0.9C60.15,59.5,59,58.35,59,56.88z M66.88,59.5v0.9
		c0,2.14,0.82,4.1,2.3,5.58l5.58,5.58l5.5-5.58c1.47-1.48,2.37-3.44,2.37-5.58v-0.9H66.88z M66.88,91h15.74v-0.9
		c0-2.05-0.9-4.02-2.37-5.5l-5.5-5.58l-5.58,5.58c-1.48,1.48-2.3,3.45-2.3,5.5V91z"/>
</g>
<g class="st0">
	<circle class="st4" cx="75" cy="75" r="75"/>
	<path class="st5" d="M59,56.88c0-1.4,1.15-2.63,2.63-2.63h26.26c1.39,0,2.62,1.23,2.62,2.63c0,1.47-1.23,2.62-2.62,2.62v0.9
		c0,3.53-1.4,6.89-3.86,9.35l-5.58,5.5l5.58,5.58c2.46,2.46,3.86,5.82,3.86,9.27V91c1.39,0,2.62,1.23,2.62,2.62
		c0,1.48-1.23,2.63-2.62,2.63H61.63c-1.48,0-2.63-1.15-2.63-2.63c0-1.39,1.15-2.62,2.63-2.62v-0.9c0-3.45,1.31-6.81,3.77-9.27
		l5.58-5.58l-5.58-5.5c-2.46-2.46-3.77-5.82-3.77-9.35v-0.9C60.15,59.5,59,58.35,59,56.88z M66.88,59.5v0.9
		c0,2.14,0.82,4.1,2.3,5.58l5.58,5.58l5.5-5.58c1.47-1.48,2.37-3.44,2.37-5.58v-0.9H66.88z M66.88,91h15.74v-0.9
		c0-2.05-0.9-4.02-2.37-5.5l-5.5-5.58l-5.58,5.58c-1.48,1.48-2.3,3.45-2.3,5.5V91z"/>
	
		<ellipse transform="matrix(0.1602 -0.9871 0.9871 0.1602 -11.0363 136.9082)" class="st6" cx="74.94" cy="74.94" rx="59.94" ry="59.94"/>
</g>
<g class="st0">
	<circle class="st1" cx="74.94" cy="74.94" r="60.94"/>
	<circle class="st7" cx="75" cy="75" r="74"/>
	<path class="st8" d="M75,54.25c0.33,0,0.74,0.16,1.07,0.25l15.42,6.56c1.8,0.82,3.2,2.54,3.2,4.67
		c-0.08,8.21-3.45,23.06-17.56,29.86c-1.39,0.66-2.95,0.66-4.34,0c-14.11-6.8-17.48-21.65-17.56-29.86c0-2.13,1.39-3.85,3.2-4.67
		l15.42-6.56C74.18,54.41,74.59,54.25,75,54.25z M75,90.75C86.24,85.26,89.36,73.2,89.44,65.9L75,59.75V90.75z"/>
</g>
<g class="st0">
	<circle class="st4" cx="75" cy="75" r="75"/>
	<path class="st5" d="M75,54.25c0.33,0,0.74,0.16,1.07,0.25l15.42,6.56c1.8,0.82,3.2,2.54,3.2,4.67
		c-0.08,8.21-3.45,23.06-17.56,29.86c-1.39,0.66-2.95,0.66-4.34,0c-14.11-6.8-17.48-21.65-17.56-29.86c0-2.13,1.39-3.85,3.2-4.67
		l15.42-6.56C74.18,54.41,74.59,54.25,75,54.25z M75,90.75C86.24,85.26,89.36,73.2,89.44,65.9L75,59.75V90.75z"/>
	<circle class="st6" cx="74.94" cy="74.94" r="59.94"/>
</g>
<g class="st0">
	<circle class="st1" cx="74.94" cy="74.94" r="60.94"/>
	<circle class="st7" cx="75" cy="75" r="74"/>
	<path class="st8" d="M59.25,62.12H54c0,10.09,8.2,18.38,18.38,18.38V91c0,1.48,1.14,2.62,2.54,2.62c1.31,0,2.7-1.14,2.7-2.62V80.5
		C77.62,70.41,69.34,62.12,59.25,62.12z M90.75,56.88c-6.97,0-12.96,3.85-16.08,9.51c2.22,2.46,3.94,5.5,4.84,8.78
		C88.78,74.27,96,66.39,96,56.88H90.75z"/>
</g>
<g class="st0">
	<circle class="st4" cx="75" cy="75" r="75"/>
	<path class="st5" d="M59.25,62.12H54c0,10.09,8.2,18.38,18.38,18.38V91c0,1.48,1.14,2.62,2.54,2.62c1.31,0,2.7-1.14,2.7-2.62V80.5
		C77.62,70.41,69.34,62.12,59.25,62.12z M90.75,56.88c-6.97,0-12.96,3.85-16.08,9.51c2.22,2.46,3.94,5.5,4.84,8.78
		C88.78,74.27,96,66.39,96,56.88H90.75z"/>
	<circle class="st6" cx="74.94" cy="74.94" r="59.94"/>
</g>
<g class="st0">
	<circle class="st9" cx="75" cy="75" r="74"/>
	<circle class="st1" cx="74.94" cy="74.94" r="60.94"/>
	<path class="st8" d="M94.2,57.61c1.8,1.81,1.8,4.68,0,6.48l-2.46,2.46l-8.04-8.03l2.46-2.47c1.8-1.8,4.68-1.8,6.48,0L94.2,57.61z
		 M68.11,74.1l13.7-13.7l8.04,8.04l-13.7,13.7c-0.49,0.49-1.15,0.9-1.8,1.15l-7.3,2.38c-0.74,0.24-1.48,0.08-1.97-0.49
		c-0.57-0.5-0.74-1.32-0.49-1.97l2.38-7.3C67.21,75.25,67.62,74.59,68.11,74.1z M69.75,59.5c1.4,0,2.63,1.23,2.63,2.62
		c0,1.48-1.23,2.63-2.63,2.63h-7.88c-1.48,0-2.63,1.23-2.63,2.63v21c0,1.47,1.15,2.62,2.63,2.62h21c1.4,0,2.63-1.15,2.63-2.62V80.5
		c0-1.39,1.15-2.62,2.63-2.62c1.4,0,2.63,1.23,2.63,2.62v7.88c0,4.34-3.53,7.87-7.88,7.87h-21c-4.43,0-7.88-3.53-7.88-7.87v-21
		c0-4.35,3.45-7.88,7.88-7.88H69.75z"/>
</g>
<g class="st0">
	<circle class="st4" cx="75" cy="75" r="75"/>
	<path class="st5" d="M94.2,57.61c1.8,1.81,1.8,4.68,0,6.48l-2.46,2.46l-8.04-8.03l2.46-2.47c1.8-1.8,4.68-1.8,6.48,0L94.2,57.61z
		 M68.11,74.1l13.7-13.7l8.04,8.04l-13.7,13.7c-0.49,0.49-1.15,0.9-1.8,1.15l-7.3,2.38c-0.74,0.24-1.48,0.08-1.97-0.49
		c-0.57-0.5-0.74-1.32-0.49-1.97l2.38-7.3C67.21,75.25,67.62,74.59,68.11,74.1z M69.75,59.5c1.4,0,2.63,1.23,2.63,2.62
		c0,1.48-1.23,2.63-2.63,2.63h-7.88c-1.48,0-2.63,1.23-2.63,2.63v21c0,1.47,1.15,2.62,2.63,2.62h21c1.4,0,2.63-1.15,2.63-2.62V80.5
		c0-1.39,1.15-2.62,2.63-2.62c1.4,0,2.63,1.23,2.63,2.62v7.88c0,4.34-3.53,7.87-7.88,7.87h-21c-4.43,0-7.88-3.53-7.88-7.87v-21
		c0-4.35,3.45-7.88,7.88-7.88H69.75z"/>
	<circle class="st6" cx="74.94" cy="74.94" r="59.94"/>
</g>
<g class="st0">
	<circle class="st9" cx="75" cy="75" r="74"/>
	<circle class="st1" cx="74.94" cy="74.94" r="60.94"/>
	<path class="st8" d="M81.96,57.61l-10.5,36.75c-0.41,1.4-1.8,2.22-3.2,1.81c-1.39-0.41-2.21-1.81-1.8-3.2l10.5-36.75
		c0.41-1.4,1.8-2.22,3.2-1.81C81.55,54.82,82.37,56.22,81.96,57.61z M90.49,64.26l9.19,9.19c1.07,0.98,1.07,2.7,0,3.69l-9.19,9.18
		c-0.98,1.07-2.71,1.07-3.69,0c-1.07-0.98-1.07-2.7,0-3.69l7.3-7.38l-7.3-7.3c-1.07-0.99-1.07-2.71,0-3.69
		C87.79,63.19,89.51,63.19,90.49,64.26z M61.62,67.95l-7.3,7.3l7.3,7.38c1.07,0.99,1.07,2.71,0,3.69c-0.98,1.07-2.71,1.07-3.69,0
		l-9.19-9.18c-1.07-0.99-1.07-2.71,0-3.69l9.19-9.19c0.98-1.07,2.71-1.07,3.69,0C62.68,65.24,62.68,66.96,61.62,67.95z"/>
</g>
<g class="st0">
	<circle class="st4" cx="75" cy="75" r="75"/>
	<path class="st5" d="M81.96,57.61l-10.5,36.75c-0.41,1.4-1.8,2.22-3.2,1.81c-1.39-0.41-2.21-1.81-1.8-3.2l10.5-36.75
		c0.41-1.4,1.8-2.22,3.2-1.81C81.55,54.82,82.37,56.22,81.96,57.61z M90.49,64.26l9.19,9.19c1.07,0.98,1.07,2.7,0,3.69l-9.19,9.18
		c-0.98,1.07-2.71,1.07-3.69,0c-1.07-0.98-1.07-2.7,0-3.69l7.3-7.38l-7.3-7.3c-1.07-0.99-1.07-2.71,0-3.69
		C87.79,63.19,89.51,63.19,90.49,64.26z M61.62,67.95l-7.3,7.3l7.3,7.38c1.07,0.99,1.07,2.71,0,3.69c-0.98,1.07-2.71,1.07-3.69,0
		l-9.19-9.18c-1.07-0.99-1.07-2.71,0-3.69l9.19-9.19c0.98-1.07,2.71-1.07,3.69,0C62.68,65.24,62.68,66.96,61.62,67.95z"/>
	<circle class="st6" cx="74.94" cy="74.94" r="59.94"/>
</g>
<g class="st0">
	<circle class="st9" cx="75" cy="75" r="74"/>
	<circle class="st1" cx="74.94" cy="74.94" r="60.94"/>
	<path class="st8" d="M82.13,68.69c0-7.96-7.71-14.44-17.06-14.44C55.63,54.25,48,60.73,48,68.69c0,3.28,1.23,6.23,3.36,8.69
		c-1.31,2.71-3.2,4.68-3.2,4.76c-0.25,0.16-0.25,0.41-0.16,0.66c0.08,0.24,0.33,0.32,0.57,0.32c3.2,0,5.82-0.9,7.88-1.96
		c2.54,1.31,5.41,1.96,8.61,1.96C74.41,83.12,82.13,76.73,82.13,68.69z M97.14,90.67c2.05-2.46,3.36-5.49,3.36-8.86
		c0-7.95-7.05-14.43-15.75-14.43c-0.08,0-0.08,0.08-0.08,0.08c0,0.41,0.08,0.82,0.08,1.23c0,8.12-6.56,14.93-15.34,16.65
		c1.72,6.32,7.88,10.91,15.34,10.91c2.71,0,5.33-0.66,7.55-1.72c2.05,0.9,4.59,1.72,7.55,1.72c0.25,0,0.49-0.08,0.57-0.33
		c0.08-0.24,0-0.49-0.16-0.65C100.25,95.18,98.45,93.3,97.14,90.67z"/>
</g>
<g class="st0">
	<circle class="st4" cx="75" cy="75" r="75"/>
	<path class="st5" d="M82.13,68.69c0-7.96-7.71-14.44-17.06-14.44C55.63,54.25,48,60.73,48,68.69c0,3.28,1.23,6.23,3.36,8.69
		c-1.31,2.71-3.2,4.68-3.2,4.76c-0.25,0.16-0.25,0.41-0.16,0.66c0.08,0.24,0.33,0.32,0.57,0.32c3.2,0,5.82-0.9,7.88-1.96
		c2.54,1.31,5.41,1.96,8.61,1.96C74.41,83.12,82.13,76.73,82.13,68.69z M97.14,90.67c2.05-2.46,3.36-5.49,3.36-8.86
		c0-7.95-7.05-14.43-15.75-14.43c-0.08,0-0.08,0.08-0.08,0.08c0,0.41,0.08,0.82,0.08,1.23c0,8.12-6.56,14.93-15.34,16.65
		c1.72,6.32,7.88,10.91,15.34,10.91c2.71,0,5.33-0.66,7.55-1.72c2.05,0.9,4.59,1.72,7.55,1.72c0.25,0,0.49-0.08,0.57-0.33
		c0.08-0.24,0-0.49-0.16-0.65C100.25,95.18,98.45,93.3,97.14,90.67z"/>
	<circle class="st6" cx="74.94" cy="74.94" r="59.94"/>
</g>
<g class="st0">
	<circle class="st9" cx="75" cy="75" r="74"/>
	
		<ellipse transform="matrix(0.1602 -0.9871 0.9871 0.1602 -11.0363 136.9082)" class="st1" cx="74.94" cy="74.94" rx="60.94" ry="60.94"/>
	<path class="st8" d="M87.05,93.62H74.58c-1.64,0-2.96-1.31-2.96-2.95V62.12h-7.88v12.8c0,1.64-1.4,2.96-2.95,2.96H50.54
		c-1.4,0-2.54-1.15-2.54-2.63c0-1.39,1.15-2.54,2.54-2.54h7.96v-12.8c0-1.56,1.31-2.95,2.95-2.95h12.47c1.56,0,2.96,1.39,2.96,2.95
		v28.55h7.87v-12.8c0-1.56,1.31-2.95,2.95-2.95h10.18c1.39-0.09,2.62,1.15,2.62,2.54c0,1.48-1.23,2.63-2.62,2.63H90v12.79
		C90,92.31,88.61,93.62,87.05,93.62z"/>
</g>
<g class="st0">
	<circle class="st4" cx="75" cy="75" r="75"/>
	<path class="st5" d="M87.05,93.62H74.58c-1.64,0-2.96-1.31-2.96-2.95V62.12h-7.88v12.8c0,1.64-1.4,2.96-2.95,2.96H50.54
		c-1.4,0-2.54-1.15-2.54-2.63c0-1.39,1.15-2.54,2.54-2.54h7.96v-12.8c0-1.56,1.31-2.95,2.95-2.95h12.47c1.56,0,2.96,1.39,2.96,2.95
		v28.55h7.87v-12.8c0-1.56,1.31-2.95,2.95-2.95h10.18c1.39-0.09,2.62,1.15,2.62,2.54c0,1.48-1.23,2.63-2.62,2.63H90v12.79
		C90,92.31,88.61,93.62,87.05,93.62z"/>
	
		<ellipse transform="matrix(0.1602 -0.9871 0.9871 0.1602 -11.0363 136.9082)" class="st6" cx="74.94" cy="74.94" rx="59.94" ry="59.94"/>
</g>
<g class="st0">
	<circle class="st9" cx="75" cy="75" r="74"/>
	<circle class="st1" cx="74.94" cy="74.94" r="60.94"/>
	<path class="st8" d="M68.91,72c0-1.59-1.41-3-3-3H64.5c-3.38,0-6,2.72-6,6.09v4.41c0,3.38,2.62,6,6,6H66c1.59,0,3-1.31,3-3
		L68.91,72z M75,51c-13.5,0-23.62,11.25-24,24v3.75c0,1.31,0.94,2.25,2.16,2.25c1.12,0,2.34-0.94,2.34-2.25V75
		c0-10.69,8.72-19.41,19.5-19.41c10.69,0,19.5,8.72,19.5,19.41v13.5c0,2.16-1.69,3.75-3.75,3.75H80.34C79.59,90.94,78.09,90,76.5,90
		h-2.91c-2.15,0-4.12,1.5-4.59,3.66c-0.47,2.9,1.69,5.34,4.41,5.34h3.09c1.59,0,3.09-0.84,3.84-2.25h10.41
		c4.5,0,8.25-3.66,8.25-8.25V75C98.53,62.25,88.41,51,75,51z M85.5,85.5c3.28,0,6-2.62,6-6v-4.41c0-3.37-2.72-6.09-6-6.09H84
		c-1.69,0-3,1.41-3,3.09V82.5c0,1.69,1.31,3,3,3H85.5z"/>
	<path class="st8" d="M68.91,72h-0.3l0,0H68.91z M69,82.5h0.3l0,0H69z M51,75l-0.3-0.01V75H51z M80.34,92.25l-0.26,0.15l0.09,0.15
		h0.17V92.25z M69,93.66l-0.29-0.07v0.01l-0.01,0.01L69,93.66z M80.34,96.75v-0.3h-0.18l-0.08,0.16L80.34,96.75z M99,75h0.3v-0.01
		L99,75z M69.21,72c0-1.76-1.54-3.3-3.3-3.3v0.6c1.42,0,2.7,1.27,2.7,2.7H69.21z M65.91,68.7H64.5v0.6h1.41V68.7z M64.5,68.7
		c-3.55,0-6.3,2.86-6.3,6.39h0.6c0-3.21,2.5-5.79,5.7-5.79V68.7z M58.2,75.09v4.41h0.6v-4.41H58.2z M58.2,79.5
		c0,3.54,2.76,6.3,6.3,6.3v-0.6c-3.21,0-5.7-2.49-5.7-5.7H58.2z M64.5,85.8H66v-0.6h-1.5V85.8z M66,85.8c1.75,0,3.3-1.44,3.3-3.3
		h-0.6c0,1.52-1.27,2.7-2.7,2.7V85.8z M69.3,82.5L69.21,72h-0.6l0.09,10.5H69.3z M75,50.7c-13.68,0-23.92,11.4-24.3,24.29l0.6,0.02
		C51.67,62.4,61.68,51.3,75,51.3V50.7z M50.7,75v3.75h0.6V75H50.7z M50.7,78.75c0,1.47,1.06,2.55,2.46,2.55v-0.6
		c-1.05,0-1.86-0.79-1.86-1.95H50.7z M53.16,81.3c1.25,0,2.64-1.04,2.64-2.55h-0.6c0,1.12-1.05,1.95-2.04,1.95V81.3z M55.8,78.75V75
		h-0.6v3.75H55.8z M55.8,75c0-10.52,8.58-19.11,19.2-19.11v-0.6c-10.95,0-19.8,8.86-19.8,19.71H55.8z M75,55.89
		c10.52,0,19.2,8.59,19.2,19.11h0.6c0-10.86-8.95-19.71-19.8-19.71V55.89z M94.2,75v13.5h0.6V75H94.2z M94.2,88.5
		c0,1.99-1.55,3.45-3.45,3.45v0.6c2.22,0,4.05-1.72,4.05-4.05H94.2z M90.75,91.95H80.34v0.6h10.41V91.95z M80.6,92.1
		c-0.8-1.4-2.39-2.4-4.1-2.4v0.6c1.48,0,2.88,0.87,3.58,2.1L80.6,92.1z M76.5,89.7h-2.91v0.6h2.91V89.7z M73.59,89.7
		c-2.29,0-4.38,1.59-4.88,3.89l0.58,0.13c0.44-2.01,2.28-3.42,4.3-3.42V89.7z M68.7,93.61c-0.49,3.08,1.8,5.69,4.71,5.69v-0.6
		c-2.53,0-4.55-2.27-4.11-5L68.7,93.61z M73.41,99.3h3.09v-0.6h-3.09V99.3z M76.5,99.3c1.7,0,3.3-0.9,4.11-2.41l-0.53-0.28
		c-0.7,1.3-2.09,2.09-3.58,2.09V99.3z M80.34,97.05h10.41v-0.6H80.34V97.05z M90.75,97.05c4.66,0,8.55-3.79,8.55-8.55h-0.6
		c0,4.43-3.61,7.95-7.95,7.95V97.05z M99.3,88.5V75h-0.6v13.5H99.3z M99.3,74.99C98.83,62.1,88.59,50.7,75,50.7v0.6
		c13.23,0,23.24,11.1,23.7,23.71L99.3,74.99z M85.5,85.8c3.44,0,6.3-2.76,6.3-6.3h-0.6c0,3.21-2.58,5.7-5.7,5.7V85.8z M91.8,79.5
		v-4.41h-0.6v4.41H91.8z M91.8,75.09c0-3.53-2.85-6.39-6.3-6.39v0.6c3.11,0,5.7,2.58,5.7,5.79H91.8z M85.5,68.7H84v0.6h1.5V68.7z
		 M84,68.7c-1.87,0-3.3,1.55-3.3,3.39h0.6c0-1.53,1.19-2.79,2.7-2.79V68.7z M80.7,72.09V82.5h0.6V72.09H80.7z M80.7,82.5
		c0,1.85,1.45,3.3,3.3,3.3v-0.6c-1.52,0-2.7-1.18-2.7-2.7H80.7z M84,85.8h1.5v-0.6H84V85.8z"/>
</g>
<g class="st0">
	<circle class="st4" cx="75" cy="75" r="75"/>
	<path class="st5" d="M68.91,72c0-1.59-1.41-3-3-3H64.5c-3.38,0-6,2.72-6,6.09v4.41c0,3.38,2.62,6,6,6H66c1.59,0,3-1.31,3-3
		L68.91,72z M75,51c-13.5,0-23.62,11.25-24,24v3.75c0,1.31,0.94,2.25,2.16,2.25c1.12,0,2.34-0.94,2.34-2.25V75
		c0-10.69,8.72-19.41,19.5-19.41c10.69,0,19.5,8.72,19.5,19.41v13.5c0,2.16-1.69,3.75-3.75,3.75H80.34C79.59,90.94,78.09,90,76.5,90
		h-2.91c-2.15,0-4.12,1.5-4.59,3.66c-0.47,2.9,1.69,5.34,4.41,5.34h3.09c1.59,0,3.09-0.84,3.84-2.25h10.41
		c4.5,0,8.25-3.66,8.25-8.25V75C98.53,62.25,88.41,51,75,51z M85.5,85.5c3.28,0,6-2.62,6-6v-4.41c0-3.37-2.72-6.09-6-6.09H84
		c-1.69,0-3,1.41-3,3.09V82.5c0,1.69,1.31,3,3,3H85.5z"/>
	<path class="st5" d="M68.91,72h-0.3l0,0H68.91z M69,82.5h0.3l0,0H69z M51,75l-0.3-0.01V75H51z M80.34,92.25l-0.26,0.15l0.09,0.15
		h0.17V92.25z M69,93.66l-0.29-0.07v0.01l-0.01,0.01L69,93.66z M80.34,96.75v-0.3h-0.18l-0.08,0.16L80.34,96.75z M99,75h0.3v-0.01
		L99,75z M69.21,72c0-1.76-1.54-3.3-3.3-3.3v0.6c1.42,0,2.7,1.27,2.7,2.7H69.21z M65.91,68.7H64.5v0.6h1.41V68.7z M64.5,68.7
		c-3.55,0-6.3,2.86-6.3,6.39h0.6c0-3.21,2.5-5.79,5.7-5.79V68.7z M58.2,75.09v4.41h0.6v-4.41H58.2z M58.2,79.5
		c0,3.54,2.76,6.3,6.3,6.3v-0.6c-3.21,0-5.7-2.49-5.7-5.7H58.2z M64.5,85.8H66v-0.6h-1.5V85.8z M66,85.8c1.75,0,3.3-1.44,3.3-3.3
		h-0.6c0,1.52-1.27,2.7-2.7,2.7V85.8z M69.3,82.5L69.21,72h-0.6l0.09,10.5H69.3z M75,50.7c-13.68,0-23.92,11.4-24.3,24.29l0.6,0.02
		C51.67,62.4,61.68,51.3,75,51.3V50.7z M50.7,75v3.75h0.6V75H50.7z M50.7,78.75c0,1.47,1.06,2.55,2.46,2.55v-0.6
		c-1.05,0-1.86-0.79-1.86-1.95H50.7z M53.16,81.3c1.25,0,2.64-1.04,2.64-2.55h-0.6c0,1.12-1.05,1.95-2.04,1.95V81.3z M55.8,78.75V75
		h-0.6v3.75H55.8z M55.8,75c0-10.52,8.58-19.11,19.2-19.11v-0.6c-10.95,0-19.8,8.86-19.8,19.71H55.8z M75,55.89
		c10.52,0,19.2,8.59,19.2,19.11h0.6c0-10.86-8.95-19.71-19.8-19.71V55.89z M94.2,75v13.5h0.6V75H94.2z M94.2,88.5
		c0,1.99-1.55,3.45-3.45,3.45v0.6c2.22,0,4.05-1.72,4.05-4.05H94.2z M90.75,91.95H80.34v0.6h10.41V91.95z M80.6,92.1
		c-0.8-1.4-2.39-2.4-4.1-2.4v0.6c1.48,0,2.88,0.87,3.58,2.1L80.6,92.1z M76.5,89.7h-2.91v0.6h2.91V89.7z M73.59,89.7
		c-2.29,0-4.38,1.59-4.88,3.89l0.58,0.13c0.44-2.01,2.28-3.42,4.3-3.42V89.7z M68.7,93.61c-0.49,3.08,1.8,5.69,4.71,5.69v-0.6
		c-2.53,0-4.55-2.27-4.11-5L68.7,93.61z M73.41,99.3h3.09v-0.6h-3.09V99.3z M76.5,99.3c1.7,0,3.3-0.9,4.11-2.41l-0.53-0.28
		c-0.7,1.3-2.09,2.09-3.58,2.09V99.3z M80.34,97.05h10.41v-0.6H80.34V97.05z M90.75,97.05c4.66,0,8.55-3.79,8.55-8.55h-0.6
		c0,4.43-3.61,7.95-7.95,7.95V97.05z M99.3,88.5V75h-0.6v13.5H99.3z M99.3,74.99C98.83,62.1,88.59,50.7,75,50.7v0.6
		c13.23,0,23.24,11.1,23.7,23.71L99.3,74.99z M85.5,85.8c3.44,0,6.3-2.76,6.3-6.3h-0.6c0,3.21-2.58,5.7-5.7,5.7V85.8z M91.8,79.5
		v-4.41h-0.6v4.41H91.8z M91.8,75.09c0-3.53-2.85-6.39-6.3-6.39v0.6c3.11,0,5.7,2.58,5.7,5.79H91.8z M85.5,68.7H84v0.6h1.5V68.7z
		 M84,68.7c-1.87,0-3.3,1.55-3.3,3.39h0.6c0-1.53,1.19-2.79,2.7-2.79V68.7z M80.7,72.09V82.5h0.6V72.09H80.7z M80.7,82.5
		c0,1.85,1.45,3.3,3.3,3.3v-0.6c-1.52,0-2.7-1.18-2.7-2.7H80.7z M84,85.8h1.5v-0.6H84V85.8z"/>
	<circle class="st6" cx="74.94" cy="74.94" r="59.94"/>
</g>
<g class="st0">
	<circle class="st9" cx="75" cy="75" r="74"/>
	<circle class="st1" cx="74.94" cy="74.94" r="60.94"/>
	<path class="st8" d="M96.56,54.25h-31.5c-2.21,0-3.94,1.89-3.94,4.1v3.77c1.89,0,3.7,0.58,5.17,1.48v-4.1h28.88v23.62h-5.25v-3.93
		c0-0.66-0.66-1.31-1.31-1.31h-7.88c-0.74,0-1.31,0.65-1.31,1.31v3.93h-7.88c1.81,1.4,3.2,3.2,4.19,5.26h20.75
		c2.22,0,4.02-1.81,4.02-4.02V58.35C100.5,56.14,98.7,54.25,96.56,54.25z M61.12,80.5c4.35,0,7.88-3.45,7.88-7.88
		c0-4.34-3.53-7.87-7.88-7.87c-4.42,0-7.87,3.53-7.87,7.87C53.25,76.97,56.7,80.5,61.12,80.5z M63.75,83.12H58.5
		c-5.82,0-10.5,4.76-10.5,10.5c0,1.48,1.15,2.63,2.62,2.63h21c1.4,0,2.63-1.15,2.63-2.63C74.25,87.88,69.49,83.12,63.75,83.12z"/>
</g>
<g class="st0">
	<circle class="st4" cx="75" cy="75" r="75"/>
	<path class="st5" d="M96.56,54.25h-31.5c-2.21,0-3.94,1.89-3.94,4.1v3.77c1.89,0,3.7,0.58,5.17,1.48v-4.1h28.88v23.62h-5.25v-3.93
		c0-0.66-0.66-1.31-1.31-1.31h-7.88c-0.74,0-1.31,0.65-1.31,1.31v3.93h-7.88c1.81,1.4,3.2,3.2,4.19,5.26h20.75
		c2.22,0,4.02-1.81,4.02-4.02V58.35C100.5,56.14,98.7,54.25,96.56,54.25z M61.12,80.5c4.35,0,7.88-3.45,7.88-7.88
		c0-4.34-3.53-7.87-7.88-7.87c-4.42,0-7.87,3.53-7.87,7.87C53.25,76.97,56.7,80.5,61.12,80.5z M63.75,83.12H58.5
		c-5.82,0-10.5,4.76-10.5,10.5c0,1.48,1.15,2.63,2.62,2.63h21c1.4,0,2.63-1.15,2.63-2.63C74.25,87.88,69.49,83.12,63.75,83.12z"/>
	<circle class="st6" cx="74.94" cy="74.94" r="59.94"/>
</g>
<g class="st0">
	<circle class="st9" cx="75" cy="75" r="74"/>
	<circle class="st1" cx="74.94" cy="74.94" r="60.94"/>
	<path class="st8" d="M93.38,56.88H64.5c-1.48,0-2.63,1.23-2.63,2.62v27.56c0,0.74-0.66,1.32-1.31,1.32c-0.74,0-1.31-0.58-1.31-1.32
		V62.12h-2.63c-1.48,0-2.63,1.24-2.63,2.63v23.63c0,2.95,2.3,5.24,5.25,5.24h31.5c2.87,0,5.25-2.29,5.25-5.24V59.5
		C96,58.11,94.77,56.88,93.38,56.88z M76.31,88.38h-7.87c-0.74,0-1.31-0.58-1.31-1.32c0-0.65,0.57-1.31,1.31-1.31h7.87
		c0.66,0,1.31,0.66,1.31,1.31C77.63,87.8,76.97,88.38,76.31,88.38z M76.31,80.5h-7.87c-0.74,0-1.31-0.57-1.31-1.31
		c0-0.66,0.57-1.31,1.31-1.31h7.87c0.66,0,1.31,0.65,1.31,1.31C77.63,79.93,76.97,80.5,76.31,80.5z M89.44,88.38h-7.88
		c-0.74,0-1.31-0.58-1.31-1.32c0-0.65,0.57-1.31,1.31-1.31h7.88c0.66,0,1.31,0.66,1.31,1.31C90.75,87.8,90.09,88.38,89.44,88.38z
		 M89.44,80.5h-7.88c-0.74,0-1.31-0.57-1.31-1.31c0-0.66,0.57-1.31,1.31-1.31h7.88c0.66,0,1.31,0.65,1.31,1.31
		C90.75,79.93,90.09,80.5,89.44,80.5z M90.75,71.31c0,0.74-0.66,1.31-1.31,1.31h-21c-0.74,0-1.31-0.57-1.31-1.31v-7.87
		c0-0.66,0.57-1.32,1.31-1.32h21c0.66,0,1.31,0.66,1.31,1.32V71.31z"/>
</g>
<g class="st0">
	<circle class="st4" cx="75" cy="75" r="75"/>
	<path class="st5" d="M93.38,56.88H64.5c-1.48,0-2.63,1.23-2.63,2.62v27.56c0,0.74-0.66,1.32-1.31,1.32c-0.74,0-1.31-0.58-1.31-1.32
		V62.12h-2.63c-1.48,0-2.63,1.24-2.63,2.63v23.63c0,2.95,2.3,5.24,5.25,5.24h31.5c2.87,0,5.25-2.29,5.25-5.24V59.5
		C96,58.11,94.77,56.88,93.38,56.88z M76.31,88.38h-7.87c-0.74,0-1.31-0.58-1.31-1.32c0-0.65,0.57-1.31,1.31-1.31h7.87
		c0.66,0,1.31,0.66,1.31,1.31C77.63,87.8,76.97,88.38,76.31,88.38z M76.31,80.5h-7.87c-0.74,0-1.31-0.57-1.31-1.31
		c0-0.66,0.57-1.31,1.31-1.31h7.87c0.66,0,1.31,0.65,1.31,1.31C77.63,79.93,76.97,80.5,76.31,80.5z M89.44,88.38h-7.88
		c-0.74,0-1.31-0.58-1.31-1.32c0-0.65,0.57-1.31,1.31-1.31h7.88c0.66,0,1.31,0.66,1.31,1.31C90.75,87.8,90.09,88.38,89.44,88.38z
		 M89.44,80.5h-7.88c-0.74,0-1.31-0.57-1.31-1.31c0-0.66,0.57-1.31,1.31-1.31h7.88c0.66,0,1.31,0.65,1.31,1.31
		C90.75,79.93,90.09,80.5,89.44,80.5z M90.75,71.31c0,0.74-0.66,1.31-1.31,1.31h-21c-0.74,0-1.31-0.57-1.31-1.31v-7.87
		c0-0.66,0.57-1.32,1.31-1.32h21c0.66,0,1.31,0.66,1.31,1.32V71.31z"/>
	<circle class="st6" cx="74.94" cy="74.94" r="59.94"/>
</g>
<g class="st0">
	<circle class="st9" cx="75" cy="75" r="74"/>
	<circle class="st1" cx="74.94" cy="74.94" r="60.94"/>
	<path class="st8" d="M48,85.75h5.25c1.39,0,2.63-1.15,2.63-2.63V64.83H48V85.75z M51.94,80.58c0.66,0,1.31,0.58,1.31,1.31
		c0,0.66-0.66,1.32-1.31,1.32c-0.74,0-1.31-0.66-1.31-1.32C50.63,81.16,51.2,80.58,51.94,80.58z M76.55,59.5
		c-0.66,0-1.23,0.25-1.72,0.74l-8.12,7.38c-1.31,1.31-1.31,3.36-0.16,4.59c1.07,1.07,3.2,1.48,4.59,0.25c0,0,0,0,0.08,0l6.48-5.99
		c0.57-0.49,1.39-0.49,1.89,0.08c0.49,0.5,0.49,1.32-0.08,1.81l-2.13,1.97l11.98,9.68c0.16,0.24,0.41,0.41,0.57,0.65V64.75
		c-3.36-3.36-7.88-5.25-12.63-5.25H76.55z M75.4,72.13l-2.46,2.22c-2.46,2.21-6.15,2.05-8.37-0.33c-2.13-2.38-1.97-6.15,0.41-8.37
		l6.73-6.15h-0.57c-4.76,0-9.27,1.97-12.63,5.25v18.37h1.48l7.38,6.73c2.3,1.89,5.58,1.48,7.38-0.74l1.48,1.23
		c1.31,0.99,3.28,0.91,4.35-0.41l2.54-3.2l0.49,0.41c1.07,0.91,2.71,0.74,3.69-0.41l0.74-0.98c0.9-1.15,0.74-2.79-0.41-3.69
		L75.4,72.13z M92.63,64.83v18.29c0,1.48,1.15,2.71,2.54,2.71l5.33-0.08V64.83H92.63z M96.56,83.12c-0.74,0-1.31-0.57-1.31-1.23
		c0-0.73,0.57-1.31,1.31-1.31c0.66,0,1.31,0.58,1.31,1.31C97.88,82.55,97.22,83.12,96.56,83.12z"/>
</g>
<g>
	<circle class="st10" cx="75" cy="75" r="75"/>
	<path class="st11" d="M48,85.75h5.25c1.39,0,2.63-1.15,2.63-2.63V64.83H48V85.75z M51.94,80.58c0.66,0,1.31,0.58,1.31,1.31
		c0,0.66-0.66,1.32-1.31,1.32c-0.74,0-1.31-0.66-1.31-1.32C50.63,81.16,51.2,80.58,51.94,80.58z M76.55,59.5
		c-0.66,0-1.23,0.25-1.72,0.74l-8.12,7.38c-1.31,1.31-1.31,3.36-0.16,4.59c1.07,1.07,3.2,1.48,4.59,0.25c0,0,0,0,0.08,0l6.48-5.99
		c0.57-0.49,1.39-0.49,1.89,0.08c0.49,0.5,0.49,1.32-0.08,1.81l-2.13,1.97l11.98,9.68c0.16,0.24,0.41,0.41,0.57,0.65V64.75
		c-3.36-3.36-7.88-5.25-12.63-5.25H76.55z M75.4,72.13l-2.46,2.22c-2.46,2.21-6.15,2.05-8.37-0.33c-2.13-2.38-1.97-6.15,0.41-8.37
		l6.73-6.15h-0.57c-4.76,0-9.27,1.97-12.63,5.25v18.37h1.48l7.38,6.73c2.3,1.89,5.58,1.48,7.38-0.74l1.48,1.23
		c1.31,0.99,3.28,0.91,4.35-0.41l2.54-3.2l0.49,0.41c1.07,0.91,2.71,0.74,3.69-0.41l0.74-0.98c0.9-1.15,0.74-2.79-0.41-3.69
		L75.4,72.13z M92.63,64.83v18.29c0,1.48,1.15,2.71,2.54,2.71l5.33-0.08V64.83H92.63z M96.56,83.12c-0.74,0-1.31-0.57-1.31-1.23
		c0-0.73,0.57-1.31,1.31-1.31c0.66,0,1.31,0.58,1.31,1.31C97.88,82.55,97.22,83.12,96.56,83.12z"/>
	<circle class="st12" cx="74.94" cy="74.94" r="59.94"/>
</g>
</svg>
