<?xml version="1.0" encoding="utf-8"?>
<!-- Generator: Adobe Illustrator 24.1.2, SVG Export Plug-In . SVG Version: 6.00 Build 0)  -->
<svg version="1.1" id="Layer_1" xmlns="http://www.w3.org/2000/svg" xmlns:xlink="http://www.w3.org/1999/xlink" x="0px" y="0px"
	 viewBox="0 0 22.1 22.1" style="enable-background:new 0 0 22.1 22.1;" xml:space="preserve">
<style type="text/css">
	.st0{fill:#1595F2;}
</style>
<g>
	<path class="st0" d="M19.9,20.4c-0.1,0-0.3-0.1-0.4-0.2l-6.7-6.7c-0.1-0.1-0.2-0.2-0.2-0.4s0.1-0.3,0.2-0.4l8.1-8.1
		c0.1-0.1,0.3-0.2,0.5-0.1c0.2,0.1,0.3,0.2,0.4,0.4c0.2,0.9,0.3,1.9,0.3,3v6.3c0,2.8-0.6,4.8-1.9,6C20.2,20.4,20,20.4,19.9,20.4
		L19.9,20.4z M13.9,13.2l6,6c0.8-1.1,1.2-2.7,1.2-4.9V7.9c0-0.6,0-1.2-0.1-1.8L13.9,13.2z"/>
	<path class="st0" d="M5,21.8c0,0-0.1,0-0.1,0C1.5,21,0,18.7,0,14.2V7.9C0,2.4,2.4,0,7.9,0h6.3c4.5,0,6.8,1.5,7.6,4.9
		c0,0.2,0,0.4-0.1,0.5L5.4,21.7C5.3,21.8,5.2,21.8,5,21.8z M7.9,1.1c-5,0-6.8,1.9-6.8,6.8v6.3c0,3.8,1.1,5.8,3.8,6.5L20.7,4.9
		C20,2.2,18,1.1,14.2,1.1H7.9z"/>
	<path class="st0" d="M14.2,22.1H7.9c-1.1,0-2.1-0.1-3-0.3c-0.2,0-0.3-0.2-0.4-0.4c-0.1-0.2,0-0.4,0.1-0.5l8.1-8.1
		c0.2-0.2,0.5-0.2,0.7,0l6.7,6.7c0.1,0.1,0.2,0.2,0.2,0.4c0,0.1-0.1,0.3-0.2,0.4C19,21.5,17.1,22.1,14.2,22.1z M6.1,21
		c0.5,0.1,1.1,0.1,1.8,0.1h6.3c2.2,0,3.8-0.4,4.9-1.2l-6-6L6.1,21z"/>
	<path class="st0" d="M8,12.2c-0.6,0-1.2-0.2-1.7-0.7C5.2,10.4,4,8.8,4.5,6.7C4.9,4.8,6.6,4,8,4s3.1,0.8,3.5,2.7
		c0.5,2.1-0.8,3.7-1.9,4.8C9.2,12,8.6,12.2,8,12.2z M8,5c-1,0-2.2,0.5-2.5,1.9l0,0c-0.4,1.6,0.7,2.9,1.6,3.8c0.5,0.5,1.4,0.5,1.9,0
		c0.9-0.9,1.9-2.2,1.6-3.8C10.2,5.5,9,5,8,5z"/>
	<path class="st0" d="M8,8.1c-0.3,0-0.5-0.2-0.5-0.5S7.7,7.1,8,7.1h0c0.3,0,0.5,0.2,0.5,0.5S8.3,8.1,8,8.1z"/>
</g>
</svg>
