<?xml version="1.0" encoding="utf-8"?>
<!-- Generator: Adobe Illustrator 24.1.2, SVG Export Plug-In . SVG Version: 6.00 Build 0)  -->
<svg version="1.1" id="Layer_1" xmlns="http://www.w3.org/2000/svg" xmlns:xlink="http://www.w3.org/1999/xlink" x="0px" y="0px"
	 viewBox="0 0 20 20" style="enable-background:new 0 0 20 20;" xml:space="preserve">
<style type="text/css">
	.st0{fill:#1595F2;}
</style>
<g>
	<path class="st0" d="M14.8,18.6H5.2c-0.3,0-0.5-0.2-0.5-0.5s0.2-0.5,0.5-0.5h9.5c2.8,0,4.3-1.4,4.3-4.3V6.7c0-2.8-1.4-4.3-4.3-4.3
		H5.2C2.4,2.4,1,3.8,1,6.7c0,0.3-0.2,0.5-0.5,0.5S0,6.9,0,6.7c0-3.4,1.9-5.2,5.2-5.2h9.5c3.4,0,5.2,1.9,5.2,5.2v6.7
		C20,16.7,18.1,18.6,14.8,18.6z"/>
	<path class="st0" d="M10,10.6c-0.8,0-1.5-0.2-2.1-0.7L1.5,3.8c-0.2-0.2-0.2-0.5,0-0.7C1.7,3,2,2.9,2.2,3.1l6.4,6.1
		c0.8,0.6,2.1,0.6,2.9,0l6.4-6c0.2-0.2,0.5-0.2,0.7,0c0.2,0.2,0.2,0.5,0,0.7l-6.4,6.1C11.5,10.3,10.7,10.6,10,10.6z"/>
	<path class="st0" d="M6.2,14.8H0.5c-0.3,0-0.5-0.2-0.5-0.5s0.2-0.5,0.5-0.5h5.7c0.3,0,0.5,0.2,0.5,0.5S6.5,14.8,6.2,14.8z"/>
	<path class="st0" d="M3.3,11H0.5C0.2,11,0,10.7,0,10.5C0,10.2,0.2,10,0.5,10h2.9c0.3,0,0.5,0.2,0.5,0.5C3.8,10.7,3.6,11,3.3,11z"/>
</g>
</svg>
