<?xml version="1.0" encoding="utf-8"?>
<!-- Generator: Adobe Illustrator 24.1.2, SVG Export Plug-In . SVG Version: 6.00 Build 0)  -->
<svg version="1.1" id="Computer" xmlns="http://www.w3.org/2000/svg" xmlns:xlink="http://www.w3.org/1999/xlink" x="0px" y="0px"
	 viewBox="0 0 150 150" style="enable-background:new 0 0 150 150;" xml:space="preserve">
<style type="text/css">
	.st0{display:none;}
	.st1{display:inline;fill:#EFF2F7;}
	.st2{display:inline;fill:none;stroke:#F2F5FA;stroke-width:2;}
	.st3{display:inline;fill:#676767;}
	.st4{display:inline;fill:#288CF0;}
	.st5{display:inline;fill:#FFFFFF;}
	.st6{display:inline;fill:none;stroke:#FFB17F;stroke-width:2;}
	.st7{display:inline;fill:none;stroke:#F2F5F9;stroke-width:2;}
	.st8{display:inline;fill:#666666;}
	.st9{fill:#EFF2F7;}
	.st10{fill:none;stroke:#F2F5F9;stroke-width:2;}
	.st11{fill:#666666;}
</style>
<g class="st0">
	<circle class="st1" cx="75" cy="75" r="60.94"/>
	<circle class="st2" cx="75" cy="75" r="74"/>
	<path class="st3" d="M94.09,54.16H54.72c-2.21,0-3.94,1.8-3.94,3.94v26.25c0,2.21,1.72,3.94,3.94,3.94h15.75l-1.31,3.94h-5.91
		c-1.15,0-1.97,0.9-1.97,1.97c0,1.15,0.82,1.97,1.97,1.97h22.31c1.07,0,1.97-0.82,1.97-1.97c0-1.07-0.9-1.97-1.97-1.97h-5.91
		l-1.31-3.94h15.75c2.13,0,3.94-1.72,3.94-3.94V58.09C98.03,55.96,96.23,54.16,94.09,54.16z M92.78,77.78H56.03V59.41h36.75V77.78z"
		/>
</g>
<g class="st0">
	<circle class="st4" cx="75" cy="75" r="75"/>
	<path class="st5" d="M94.09,54.16H54.72c-2.21,0-3.94,1.8-3.94,3.94v26.25c0,2.21,1.72,3.94,3.94,3.94h15.75l-1.31,3.94h-5.91
		c-1.15,0-1.97,0.9-1.97,1.97c0,1.15,0.82,1.97,1.97,1.97h22.31c1.07,0,1.97-0.82,1.97-1.97c0-1.07-0.9-1.97-1.97-1.97h-5.91
		l-1.31-3.94h15.75c2.13,0,3.94-1.72,3.94-3.94V58.09C98.03,55.96,96.23,54.16,94.09,54.16z M92.78,77.78H56.03V59.41h36.75V77.78z"
		/>
	<circle class="st6" cx="75" cy="75" r="59.94"/>
</g>
<g class="st0">
	
		<ellipse transform="matrix(0.7071 -0.7071 0.7071 0.7071 -31.1829 74.756)" class="st1" cx="74.65" cy="75.02" rx="60.94" ry="60.94"/>
	<circle class="st7" cx="75" cy="75" r="74"/>
	<path class="st8" d="M75.74,55.24c0-0.74,0.49-1.39,1.31-1.39c10.09,0,18.38,8.28,18.38,18.37c0,0.74-0.66,1.31-1.4,1.31H75.74
		V55.24z M53.43,76.16c0-9.93,7.38-18.13,16.9-19.44c0.82-0.16,1.48,0.49,1.48,1.23v19.52l12.8,12.88c0.57,0.57,0.49,1.48-0.08,1.89
		c-3.28,2.3-7.22,3.61-11.4,3.61C62.21,95.85,53.43,87.07,53.43,76.16z M96.58,77.47c0.74,0,1.4,0.66,1.23,1.39
		c-0.58,4.59-2.79,8.7-6.07,11.73c-0.49,0.41-1.23,0.41-1.72-0.08L77.06,77.47H96.58z"/>
</g>
<g class="st0">
	<circle class="st4" cx="75" cy="75" r="75"/>
	<path class="st5" d="M75.74,55.68c0-0.74,0.49-1.39,1.31-1.39c10.09,0,18.38,8.29,18.38,18.38c0,0.74-0.66,1.31-1.4,1.31H75.74
		V55.68z M53.43,76.59c0-9.93,7.38-18.13,16.9-19.44c0.82-0.16,1.48,0.49,1.48,1.23v19.52l12.8,12.88c0.57,0.57,0.49,1.48-0.08,1.89
		c-3.28,2.3-7.22,3.61-11.4,3.61C62.21,96.28,53.43,87.5,53.43,76.59z M96.58,77.91c0.74,0,1.4,0.66,1.23,1.39
		c-0.58,4.59-2.79,8.7-6.07,11.73c-0.49,0.41-1.23,0.41-1.72-0.08L77.06,77.91H96.58z"/>
	<circle class="st6" cx="75" cy="75.25" r="59.94"/>
</g>
<g class="st0">
	<circle class="st1" cx="74.65" cy="74.65" r="60.94"/>
	<circle class="st7" cx="75" cy="75" r="74"/>
	<path class="st8" d="M67.87,60.85c0-2.13,1.72-3.94,3.94-3.94h5.25c2.13,0,3.94,1.8,3.94,3.94v5.25c0,2.21-1.8,3.94-3.94,3.94H76.4
		v3.28h12.47c2.46,0,4.59,2.13,4.59,4.59v2.63h0.66c2.13,0,3.94,1.8,3.94,3.94v5.25c0,2.21-1.8,3.94-3.94,3.94h-5.25
		c-2.22,0-3.94-1.72-3.94-3.94v-5.25c0-2.13,1.72-3.94,3.94-3.94h0.66v-2.63c0-0.33-0.33-0.66-0.66-0.66H76.4v3.28h0.66
		c2.13,0,3.94,1.8,3.94,3.94v5.25c0,2.21-1.8,3.94-3.94,3.94h-5.25c-2.22,0-3.94-1.72-3.94-3.94v-5.25c0-2.13,1.72-3.94,3.94-3.94
		h0.66v-3.28H59.99c-0.41,0-0.66,0.33-0.66,0.66v2.63h0.66c2.13,0,3.94,1.8,3.94,3.94v5.25c0,2.21-1.8,3.94-3.94,3.94h-5.25
		c-2.22,0-3.94-1.72-3.94-3.94v-5.25c0-2.13,1.72-3.94,3.94-3.94h0.66v-2.63c0-2.46,2.05-4.59,4.59-4.59h12.47v-3.28h-0.66
		c-2.22,0-3.94-1.72-3.94-3.94V60.85z"/>
</g>
<g class="st0">
	<circle class="st4" cx="75" cy="75" r="75"/>
	<path class="st5" d="M67.87,60.04c0-2.13,1.72-3.94,3.94-3.94h5.25c2.13,0,3.94,1.8,3.94,3.94v5.25c0,2.21-1.8,3.94-3.94,3.94H76.4
		v3.28h12.47c2.46,0,4.59,2.13,4.59,4.59v2.63h0.66c2.13,0,3.94,1.8,3.94,3.94v5.25c0,2.21-1.8,3.94-3.94,3.94h-5.25
		c-2.22,0-3.94-1.72-3.94-3.94v-5.25c0-2.13,1.72-3.94,3.94-3.94h0.66V77.1c0-0.33-0.33-0.66-0.66-0.66H76.4v3.28h0.66
		c2.13,0,3.94,1.8,3.94,3.94v5.25c0,2.21-1.8,3.94-3.94,3.94h-5.25c-2.22,0-3.94-1.72-3.94-3.94v-5.25c0-2.13,1.72-3.94,3.94-3.94
		h0.66v-3.28H59.99c-0.41,0-0.66,0.33-0.66,0.66v2.63h0.66c2.13,0,3.94,1.8,3.94,3.94v5.25c0,2.21-1.8,3.94-3.94,3.94h-5.25
		c-2.22,0-3.94-1.72-3.94-3.94v-5.25c0-2.13,1.72-3.94,3.94-3.94h0.66V77.1c0-2.46,2.05-4.59,4.59-4.59h12.47v-3.28h-0.66
		c-2.22,0-3.94-1.72-3.94-3.94V60.04z"/>
	<circle class="st6" cx="75" cy="75" r="59.94"/>
</g>
<g class="st0">
	<circle class="st1" cx="74.65" cy="74.65" r="60.94"/>
	<circle class="st7" cx="75" cy="75" r="74"/>
	<path class="st8" d="M93.91,88.78H58.48V63.85c0-0.66-0.66-1.31-1.31-1.31h-2.63c-0.74,0-1.31,0.66-1.31,1.31v27.56
		c0,1.48,1.15,2.63,2.63,2.63h38.06c0.66,0,1.32-0.57,1.32-1.31V90.1C95.23,89.44,94.57,88.78,93.91,88.78z M91.29,65.16h-9.76
		c-1.73,0-2.63,2.13-1.4,3.36l2.71,2.71l-5.99,5.99l-6.07-5.99c-0.98-1.07-2.71-1.07-3.69,0l-5.66,5.66c-0.49,0.49-0.49,1.31,0,1.8
		l1.89,1.89c0.49,0.49,1.31,0.49,1.8,0l3.86-3.77l5.98,5.99c0.99,1.07,2.71,1.07,3.7,0l7.87-7.88l2.71,2.71
		c1.23,1.23,3.28,0.33,3.28-1.4v-9.76C92.6,65.81,91.94,65.16,91.29,65.16z"/>
</g>
<g class="st0">
	<circle class="st4" cx="75" cy="75" r="75"/>
	<path class="st5" d="M93.91,88.78H58.48V63.85c0-0.66-0.66-1.31-1.31-1.31h-2.63c-0.74,0-1.31,0.66-1.31,1.31v27.56
		c0,1.48,1.15,2.63,2.63,2.63h38.06c0.66,0,1.32-0.57,1.32-1.31v-2.63C95.23,89.44,94.57,88.78,93.91,88.78z M91.29,65.16h-9.76
		c-1.73,0-2.63,2.13-1.4,3.36l2.71,2.71l-5.99,5.99l-6.07-5.99c-0.98-1.07-2.71-1.07-3.69,0l-5.66,5.66c-0.49,0.49-0.49,1.31,0,1.8
		l1.89,1.89c0.49,0.49,1.31,0.49,1.8,0l3.86-3.77l5.98,5.99c0.99,1.07,2.71,1.07,3.7,0l7.87-7.88l2.71,2.71
		c1.23,1.23,3.28,0.33,3.28-1.4v-9.76C92.6,65.81,91.94,65.16,91.29,65.16z"/>
	<circle class="st6" cx="74.65" cy="74.65" r="59.94"/>
</g>
<g class="st0">
	<circle class="st1" cx="74.94" cy="74.94" r="60.94"/>
	<circle class="st7" cx="75" cy="75" r="74"/>
	<path class="st8" d="M92.75,60.81v3.94c0,3.69-8.29,6.56-18.37,6.56C64.2,71.31,56,68.44,56,64.75v-3.94
		c0-3.61,8.2-6.56,18.38-6.56C84.46,54.25,92.75,57.2,92.75,60.81z M88.24,71.89c1.64-0.57,3.28-1.39,4.51-2.3v8.29
		c0,3.69-8.29,6.56-18.37,6.56C64.2,84.44,56,81.57,56,77.88v-8.29c1.15,0.9,2.79,1.72,4.43,2.3c3.69,1.31,8.61,2.05,13.95,2.05
		C79.62,73.94,84.55,73.2,88.24,71.89z M60.43,85.01c3.69,1.31,8.61,2.05,13.95,2.05c5.24,0,10.17-0.74,13.86-2.05
		c1.64-0.57,3.28-1.39,4.51-2.3v6.97c0,3.69-8.29,6.56-18.37,6.56C64.2,96.25,56,93.38,56,89.69v-6.97
		C57.15,83.62,58.79,84.44,60.43,85.01z"/>
</g>
<g class="st0">
	<circle class="st4" cx="75" cy="75" r="75"/>
	<path class="st5" d="M92.75,60.81v3.94c0,3.69-8.29,6.56-18.37,6.56C64.2,71.31,56,68.44,56,64.75v-3.94
		c0-3.61,8.2-6.56,18.38-6.56C84.46,54.25,92.75,57.2,92.75,60.81z M88.24,71.89c1.64-0.57,3.28-1.39,4.51-2.3v8.29
		c0,3.69-8.29,6.56-18.37,6.56C64.2,84.44,56,81.57,56,77.88v-8.29c1.15,0.9,2.79,1.72,4.43,2.3c3.69,1.31,8.61,2.05,13.95,2.05
		C79.62,73.94,84.55,73.2,88.24,71.89z M60.43,85.01c3.69,1.31,8.61,2.05,13.95,2.05c5.24,0,10.17-0.74,13.86-2.05
		c1.64-0.57,3.28-1.39,4.51-2.3v6.97c0,3.69-8.29,6.56-18.37,6.56C64.2,96.25,56,93.38,56,89.69v-6.97
		C57.15,83.62,58.79,84.44,60.43,85.01z"/>
	<circle class="st6" cx="74.94" cy="74.94" r="59.94"/>
</g>
<g>
	<circle class="st9" cx="74.94" cy="74.94" r="60.94"/>
	<circle class="st10" cx="75" cy="75" r="74"/>
	<path class="st11" d="M62.56,70v-3.94c0-6.48,5.25-11.81,11.82-11.81c6.48,0,11.81,5.33,11.81,11.81V70h1.31
		c2.87,0,5.25,2.38,5.25,5.25V91c0,2.95-2.38,5.25-5.25,5.25H61.25C58.3,96.25,56,93.95,56,91V75.25c0-2.87,2.3-5.25,5.25-5.25
		H62.56z M67.81,70h13.13v-3.94c0-3.61-2.96-6.56-6.56-6.56c-3.7,0-6.57,2.95-6.57,6.56V70z"/>
</g>
</svg>
