<?xml version="1.0" encoding="utf-8"?>
<!-- Generator: Adobe Illustrator 24.1.2, SVG Export Plug-In . SVG Version: 6.00 Build 0)  -->
<svg version="1.1" id="Layer_1" xmlns="http://www.w3.org/2000/svg" xmlns:xlink="http://www.w3.org/1999/xlink" x="0px" y="0px"
	 viewBox="0 0 20 20" style="enable-background:new 0 0 20 20;" xml:space="preserve">
<style type="text/css">
	.st0{fill:#1595F2;}
</style>
<g>
	<path class="st0" d="M18,18.5c-0.1,0-0.2,0-0.3-0.1l-6.1-6.1c-0.1-0.1-0.1-0.2-0.1-0.3c0-0.1,0-0.2,0.1-0.3l7.4-7.4
		c0.1-0.1,0.3-0.2,0.5-0.1c0.2,0,0.3,0.2,0.3,0.4C19.9,5.2,20,6.1,20,7.1v5.7c0,2.6-0.5,4.3-1.7,5.5C18.2,18.4,18.1,18.5,18,18.5
		L18,18.5z M12.6,11.9l5.4,5.4c0.7-1,1.1-2.4,1.1-4.4V7.1C19,6.6,19,6,19,5.5L12.6,11.9z"/>
	<path class="st0" d="M4.5,19.7c0,0-0.1,0-0.1,0C1.4,19,0,16.9,0,12.9V7.1C0,2.1,2.1,0,7.1,0h5.7c4.1,0,6.2,1.4,6.9,4.4
		c0,0.2,0,0.3-0.1,0.4L4.9,19.6C4.8,19.7,4.7,19.7,4.5,19.7z M7.1,1C2.6,1,1,2.6,1,7.1v5.7c0,3.5,1,5.2,3.4,5.9L18.7,4.4
		C18.1,2,16.3,1,12.9,1H7.1z"/>
	<path class="st0" d="M12.9,20H7.1c-1,0-1.9-0.1-2.7-0.3c-0.2,0-0.3-0.2-0.4-0.3c0-0.2,0-0.3,0.1-0.5l7.4-7.4c0.2-0.2,0.5-0.2,0.7,0
		l6.1,6.1c0.1,0.1,0.1,0.2,0.1,0.3c0,0.1-0.1,0.2-0.1,0.3C17.2,19.5,15.4,20,12.9,20z M5.5,19C6,19,6.6,19,7.1,19h5.7
		c2,0,3.5-0.3,4.4-1.1l-5.4-5.4L5.5,19z"/>
	<path class="st0" d="M7.3,11c-0.5,0-1.1-0.2-1.5-0.6c-1-1-2.1-2.5-1.7-4.3c0.4-1.7,1.9-2.5,3.2-2.5s2.8,0.8,3.2,2.5
		c0.4,1.9-0.7,3.4-1.7,4.3C8.3,10.8,7.8,11,7.3,11z M7.3,4.6C6.4,4.6,5.3,5,5,6.3l0,0C4.7,7.7,5.6,8.9,6.4,9.7
		c0.5,0.5,1.2,0.5,1.7,0c0.8-0.8,1.7-2,1.4-3.4C9.2,5,8.1,4.6,7.3,4.6z"/>
	<path class="st0" d="M7.2,7.3C7,7.3,6.8,7.1,6.8,6.9S7,6.4,7.2,6.4h0c0.3,0,0.5,0.2,0.5,0.5S7.5,7.3,7.2,7.3z"/>
</g>
</svg>
