<?xml version="1.0" encoding="utf-8"?>
<!-- Generator: Adobe Illustrator 24.1.2, SVG Export Plug-In . SVG Version: 6.00 Build 0)  -->
<svg version="1.1" id="Layer_1" xmlns="http://www.w3.org/2000/svg" xmlns:xlink="http://www.w3.org/1999/xlink" x="0px" y="0px"
	 viewBox="0 0 40.12 40.12" style="enable-background:new 0 0 40.12 40.12;" xml:space="preserve">
<style type="text/css">
	.st0{display:none;fill:#FFFFFF;}
	.st1{fill:#FFFFFF;}
</style>
<path class="st0" d="M20.06,40.12C9,40.12,0,31.12,0,20.06C0,9,9,0,20.06,0s20.06,9,20.06,20.06
	C40.12,31.12,31.12,40.12,20.06,40.12z M20.06,1.59C9.88,1.59,1.6,9.88,1.6,20.06c0,10.18,8.28,18.46,18.46,18.46
	s18.46-8.28,18.46-18.46C38.52,9.88,30.24,1.59,20.06,1.59z M15.32,17h-3.24v10.46h3.24V17z M13.68,15.63
	c-1.06,0-1.91-0.86-1.91-1.93c0-1.07,0.86-1.93,1.91-1.93c1.06,0,1.92,0.86,1.92,1.93C15.6,14.77,14.74,15.63,13.68,15.63z
	 M27.45,27.46h-3.22v-5.49c0-1.5-0.57-2.35-1.76-2.35c-1.3,0-1.97,0.88-1.97,2.35v5.49h-3.11V17h3.11v1.41c0,0,0.93-1.73,3.15-1.73
	c2.22,0,3.81,1.36,3.81,4.16L27.45,27.46z"/>
<path class="st0" d="M20.07,0C9,0,0.01,9,0.01,20.06S9,40.12,20.07,40.12c11.06,0,20.05-9,20.05-20.06S31.13,0,20.07,0z
	 M15.32,27.46h-3.24V17h3.24V27.46z M13.69,15.63c-1.06,0-1.92-0.86-1.92-1.93s0.86-1.93,1.92-1.93c1.05,0,1.91,0.86,1.91,1.93
	S14.74,15.63,13.69,15.63z M27.46,27.46h-3.23v-5.49c0-1.5-0.57-2.35-1.76-2.35c-1.3,0-1.97,0.88-1.97,2.35v5.49h-3.11V17h3.11v1.41
	c0,0,0.93-1.73,3.15-1.73s3.81,1.36,3.81,4.16V27.46z"/>
<path class="st0" d="M20.06,40.12C9,40.12,0,31.12,0,20.06C0,9,9,0,20.06,0c11.06,0,20.06,9,20.06,20.06
	C40.12,31.12,31.12,40.12,20.06,40.12z M20.06,1.59C9.88,1.59,1.6,9.88,1.6,20.06c0,10.18,8.28,18.46,18.46,18.46
	s18.46-8.28,18.46-18.46C38.52,9.88,30.24,1.59,20.06,1.59z M24.3,11.86v2.68h-1.49c0,0-1.34-0.19-1.34,1.1v2.11h2.83l-0.34,2.92
	h-2.49v8.16h-3.26v-8.2H16v-2.88h2.3v-2.44c0,0-0.29-1.34,0.91-2.45c1.2-1.1,2.78-1,2.78-1H24.3L24.3,11.86z"/>
<path class="st1" d="M40.12,20.06c0,11.06-9,20.06-20.06,20.06C9,40.12,0,31.12,0,20.06S9,0,20.06,0C31.12,0,40.12,9,40.12,20.06z
	 M24.3,11.86H22c0,0-1.58-0.1-2.78,1c-1.2,1.11-0.91,2.45-0.91,2.45v2.44H16v2.88h2.21v8.2h3.26v-8.16h2.49l0.34-2.92h-2.83v-2.11
	c0-1.29,1.34-1.1,1.34-1.1h1.49V11.86L24.3,11.86z"/>
</svg>
