<?xml version="1.0" encoding="utf-8"?>
<!-- Generator: Adobe Illustrator 24.1.2, SVG Export Plug-In . SVG Version: 6.00 Build 0)  -->
<svg version="1.1" id="Layer_1" xmlns="http://www.w3.org/2000/svg" xmlns:xlink="http://www.w3.org/1999/xlink" x="0px" y="0px"
	 viewBox="0 0 40.12 40.12" style="enable-background:new 0 0 40.12 40.12;" xml:space="preserve">
<style type="text/css">
	.st0{display:none;fill:#FFFFFF;}
	.st1{fill:#FFFFFF;}
</style>
<path class="st0" d="M20.06,40.12C9,40.12,0,31.12,0,20.06C0,9,9,0,20.06,0s20.06,9,20.06,20.06
	C40.12,31.12,31.12,40.12,20.06,40.12z M20.06,1.59C9.88,1.59,1.6,9.88,1.6,20.06c0,10.18,8.28,18.46,18.46,18.46
	s18.46-8.28,18.46-18.46C38.52,9.88,30.24,1.59,20.06,1.59z M15.32,17h-3.24v10.46h3.24V17z M13.68,15.63
	c-1.06,0-1.91-0.86-1.91-1.93c0-1.07,0.86-1.93,1.91-1.93c1.06,0,1.92,0.86,1.92,1.93C15.6,14.77,14.74,15.63,13.68,15.63z
	 M27.45,27.46h-3.22v-5.49c0-1.5-0.57-2.35-1.76-2.35c-1.3,0-1.97,0.88-1.97,2.35v5.49h-3.11V17h3.11v1.41c0,0,0.93-1.73,3.15-1.73
	c2.22,0,3.81,1.36,3.81,4.16L27.45,27.46z"/>
<path class="st0" d="M20.07,0C9,0,0.01,9,0.01,20.06S9,40.12,20.07,40.12c11.06,0,20.05-9,20.05-20.06S31.13,0,20.07,0z
	 M15.32,27.46h-3.24V17h3.24V27.46z M13.69,15.63c-1.06,0-1.92-0.86-1.92-1.93s0.86-1.93,1.92-1.93c1.05,0,1.91,0.86,1.91,1.93
	S14.74,15.63,13.69,15.63z M27.46,27.46h-3.23v-5.49c0-1.5-0.57-2.35-1.76-2.35c-1.3,0-1.97,0.88-1.97,2.35v5.49h-3.11V17h3.11v1.41
	c0,0,0.93-1.73,3.15-1.73s3.81,1.36,3.81,4.16V27.46z"/>
<path class="st0" d="M20.06,40.12C9,40.12,0,31.12,0,20.06C0,9,9,0,20.06,0c11.06,0,20.06,9,20.06,20.06
	C40.12,31.12,31.12,40.12,20.06,40.12z M20.06,1.59C9.88,1.59,1.6,9.88,1.6,20.06c0,10.18,8.28,18.46,18.46,18.46
	s18.46-8.28,18.46-18.46C38.52,9.88,30.24,1.59,20.06,1.59z M24.3,11.86v2.68h-1.49c0,0-1.34-0.19-1.34,1.1v2.11h2.83l-0.34,2.92
	h-2.49v8.16h-3.26v-8.2H16v-2.88h2.3v-2.44c0,0-0.29-1.34,0.91-2.45c1.2-1.1,2.78-1,2.78-1H24.3L24.3,11.86z"/>
<path class="st0" d="M40.12,20.06c0,11.06-9,20.06-20.06,20.06C9,40.12,0,31.12,0,20.06S9,0,20.06,0C31.12,0,40.12,9,40.12,20.06z
	 M24.3,11.86H22c0,0-1.58-0.1-2.78,1c-1.2,1.11-0.91,2.45-0.91,2.45v2.44H16v2.88h2.21v8.2h3.26v-8.16h2.49l0.34-2.92h-2.83v-2.11
	c0-1.29,1.34-1.1,1.34-1.1h1.49V11.86L24.3,11.86z"/>
<path class="st0" d="M20.06,40.12C9,40.12,0,31.12,0,20.06C0,9,9,0,20.06,0c11.06,0,20.06,9,20.06,20.06
	C40.12,31.12,31.12,40.12,20.06,40.12z M20.06,1.59C9.88,1.59,1.6,9.88,1.6,20.06c0,10.18,8.28,18.46,18.47,18.46
	c10.18,0,18.46-8.28,18.46-18.46C38.52,9.88,30.24,1.59,20.06,1.59z M17.07,27.06c6.26,0,9.68-4.78,9.68-8.93
	c0-0.14,0-0.28-0.01-0.41c0.67-0.45,1.24-1,1.7-1.63c-0.61,0.25-1.27,0.42-1.95,0.5c0.7-0.39,1.24-1.01,1.5-1.74
	c-0.67,0.37-1.4,0.62-2.16,0.76c-0.62-0.61-1.51-0.99-2.48-0.99c-1.88,0-3.4,1.41-3.4,3.14c0,0.25,0.03,0.49,0.09,0.72
	c-2.83-0.14-5.34-1.38-7.02-3.29c-0.3,0.48-0.46,1.03-0.46,1.58c0,1.09,0.6,2.05,1.51,2.62c-0.54-0.02-1.07-0.15-1.54-0.4
	c0,0.02,0,0.03,0,0.04c0,1.53,1.17,2.8,2.73,3.08c-0.29,0.08-0.59,0.11-0.9,0.11c-0.22,0-0.43-0.02-0.64-0.05
	c0.43,1.24,1.69,2.15,3.18,2.18c-1.17,0.84-2.63,1.34-4.23,1.34c-0.27,0-0.54-0.01-0.81-0.04C13.36,26.54,15.15,27.06,17.07,27.06z"
	/>
<path class="st1" d="M20.06,0C9,0,0,9,0,20.06c0,11.06,9,20.06,20.06,20.06c11.06,0,20.06-9,20.06-20.06C40.12,9,31.12,0,20.06,0z
	 M26.75,17.72c0.01,0.13,0.01,0.27,0.01,0.41c0,4.15-3.42,8.93-9.68,8.93c-1.93,0-3.72-0.52-5.22-1.41
	c0.27,0.03,0.54,0.04,0.81,0.04c1.6,0,3.06-0.5,4.23-1.34c-1.49-0.03-2.75-0.94-3.18-2.18c0.21,0.03,0.42,0.05,0.64,0.05
	c0.3,0,0.6-0.03,0.9-0.11c-1.56-0.28-2.74-1.55-2.74-3.08c0-0.01,0-0.02,0.01-0.04c0.47,0.25,1,0.38,1.54,0.4
	c-0.92-0.57-1.52-1.53-1.52-2.62c0-0.55,0.16-1.1,0.46-1.58c1.68,1.91,4.19,3.15,7.02,3.29c-0.06-0.23-0.09-0.47-0.09-0.72
	c0-1.73,1.52-3.14,3.4-3.14c0.98,0,1.87,0.38,2.49,0.99c0.76-0.14,1.49-0.39,2.16-0.76c-0.26,0.73-0.8,1.35-1.5,1.74
	c0.69-0.08,1.35-0.25,1.96-0.5C27.99,16.72,27.42,17.27,26.75,17.72z"/>
</svg>
